<svg id="Layer_1" data-name="Layer 1" xmlns="http://www.w3.org/2000/svg" viewBox="0 0 400.16 611.61"><defs><style>.cls-1{fill:#fefefe;}.cls-2{fill:#635648;}.cls-3{fill:#242127;}.cls-4{fill:#5d4735;}</style></defs><title>engardePosition</title><g id="TqYxWf.tif"><path class="cls-1" d="M485,.47q45.52,0,91,0c1.58,0,1.95.27,1.95,1.92q-.07,300.27,0,600.54c0,1.73-.39,2-2.06,2q-193.3-.07-386.6,0c-1.92,0-2.09-.6-2.09-2.25q.06-227.27,0-454.53c1.39-1,2.29.38,3.29.81,4,1.71,7.84,3.62,11.73,5.49.46.22,1.18.4,1,1.11-.15.51-.77.45-1.22.44a10,10,0,0,0-3.23.53c-.87.28-2,.09-2,1.45a2.74,2.74,0,0,0,1.69,2.62c1.28.58,2.67.94,4,1.48,2.65,1.11,5.63,1.63,7.45,4.21a11.65,11.65,0,0,0,4.35,3.53c8.77,4.53,18.21,5.42,27.87,5a16.54,16.54,0,0,1,6.25.68c5.49,1.85,10.78,4.19,16.4,5.74a386.79,386.79,0,0,0,37.79,8.73c9.63,1.64,19.35,2.65,29.06,3.62,7.14.72,14.3,1.14,21.46,1.67,2.43.18,4.64.27,6.2-2.44a114.85,114.85,0,0,1,6.59-9.44c3.48-4.84,7.1-9.58,10.44-14.52,4-5.84,8-11.63,12.17-17.31.51-.69,1-1.56,2-1.36s.74,1.23.86,2c1.54,8.87,3.16,17.72,4.57,26.61.39,2.44,1.42,4.87.75,7.41-.87,3.34-1.69,6.71-2.75,10-2,6.1-4,12.17-5.1,18.51l-.2.84a129.79,129.79,0,0,0-3.6,15.67l-.18.83c-.55.23-.53.66-.41,1.13a5.56,5.56,0,0,0-.81,2.82c-1.11,4.54-1.73,9.08.06,13.61l-.13,1.63c-1.89.14-3.07,1-3,3a5.47,5.47,0,0,0-1.27,2.19c-.77.07-1.3.32-.93,1.25a1.52,1.52,0,0,0-.58,1.36l-.22.06.16.34-.17,1.58c-.37.26-.34.56-.08.88-1.45,3.14-1.93,6.53-2.55,9.88-.8.65-.31.93.33,1.17l0,0c.35,1.21-.39,1-1.15,1s-1.65.29-1.63,1.24,0,2,1.21,2.28a6.58,6.58,0,0,1,1.57.44c.5.28,1.48.46,1.18,1.2s-1,.19-1.57,0a18.18,18.18,0,0,0-2.24-.65c-1.11-.25-2.39-1-3.28.17-.76,1,.55,1.82.75,2.77,0,.12-.08.26-.14.42-.82.32-1.49-.19-2.2-.44-1.54-.55-2.6-.7-3.28,1.46A7.72,7.72,0,0,1,361.7,287c-1.35.92-2.94,0-4.22.72-.34.74,1.53,1.86,0,1.93a1.87,1.87,0,0,0-1.84,1.24c-.83,1.43-1.75,2.21-3.22.21-.18,2.4,1,4,1.57,6-.88-2.24-2.72-.69-3.95-1.39-.8-.46-1.05.16-.92.74.32,1.47-.46,2-1.69,2.25a2.57,2.57,0,0,0-1.42,1.15c-1.22,1.51-3.06,2.61-3,5,0,.39-.91.59-1.26.92-1.39,1.33-4.31,1.1-4.17,4,0,.32-.45.51-.92.53-1.85.08-2.36,1-1.3,2.57,1.38,2,1.68,4.53,3.57,6.74-2.69-.7-4-2.32-5.55-3.73-2-1.89-2.08-1.84-3.63.24-.11.15-.42.19-.64.24a1.37,1.37,0,0,0-1.12,1.77c.46,1.29-.19,1.31-1.07,1.31-.51,0-1.07.18-1.19.62-.7,2.57-2.52,4.48-3.73,6.64-1.11,2-2.8,3.61-3.82,5.71a16.65,16.65,0,0,1-4.2,5.06c-2.85,2.38-4.17,6.15-5.81,9.52a2.18,2.18,0,0,0,1.07,3.18c1.9.75,1.92,2.52,2.74,3.9-1.34-1.35-4.77.73-4.5-3.16-1.35,1.23-2.91,1.87-3.49,3.39a35.84,35.84,0,0,1-6,9.77c-1.84,2.25-4.19,4.08-4.59,7.39a44.68,44.68,0,0,0,.14,13.53c.26,1.44.15,2.94.95,4.33,4.8,8.38,9.54,16.8,14.3,25.2q9.86,17.41,19.71,34.83c3.74,6.63,7.33,13.35,11.2,19.9,4.82,8.17,9.92,16.19,12.53,25.44,1.39,4.91,2,9.87.6,14.83-.77,2.82-2.06,5.48-5.25,6.44a2.24,2.24,0,0,0-1.47,1.39c-.3.68-.79,1.37-1.51,1.36-3.53-.06-5.92,3.82-9.71,2.77-.16,0-.46.16-.59.33-2.29,3-5.39,2.58-8.54,2.08a4.15,4.15,0,0,0-3.65,1,7,7,0,0,1-5.84,2,13.41,13.41,0,0,0-4.85.12,9.11,9.11,0,0,1-4.14.22,2.65,2.65,0,0,0-3.24,2.27c-.31,1.77,1.15,4.49,2.47,4.52s2.77.58,4.18.66c11,.62,21.91,1.7,32.86,1.74,11.11,0,22,1.63,32.89,3.27A19,19,0,0,0,387,538.43a3.28,3.28,0,0,0,2.2-.71c2.3-.55,4.71-1.46,5.06-3.95.77-5.57.26-11-4-15.3-3.17-3.13-4.83-7-6.3-11.08-1.32-3.68-3.37-7.17-3.77-11.08a35.94,35.94,0,0,0-1.67-7.5Q370.71,465,362.93,441.1c-3.1-9.48-6.33-18.92-9.39-28.42-1.49-4.61-1.38-4.56,3.55-3.93,2.44.31,4.82.57,6.75-2,6.12-8.1,12.37-16.1,18.56-24.14,8.27-10.73,16.9-21.19,25.44-31.71,3.5-4.31,6.59-8.93,10-13.3,4.09-5.25,8.67-10.12,13-15.16,1.4-1.61,2.55-1.49,3.51.47.52,1.05.65,2.33,1.31,3.26,2.63,3.71,4.26,7.94,6.3,11.93,2.32,4.54,4.77,9,7.16,13.51s6.32,8.49,6.31,14.15a25.33,25.33,0,0,0,.25,3.51q1.71,12.29,3.47,24.58c2.08,14.48,5.11,28.8,7.66,43.2.24,1.36-.24,3,1.2,4a.18.18,0,0,0,.23.17c2.74,1.57,5.83,1.43,8.82,1.87,5.81.86,6.6,1,6.8,6.51a48.36,48.36,0,0,0,.57,5.36c.47,3.1,1.57,6.24-1.57,8.77a5.47,5.47,0,0,0-1.22,2.76c-.53,2-1,4-1.38,6A66.41,66.41,0,0,0,479,487.65c.13,3.84.82,7.61,1.22,11.42.57,5.45.9,10.93,1.48,16.38.37,3.49,1.45,6.69-.05,10.46-3.49,8.75-3,17.93-1.59,27.13,1.35,8.67,4,17.07,4.62,25.9.57,8.15,3,16,5.24,23.84.34,1.18.78,1.66,2.05,1.66,8.1,0,16.19,0,24.29,0,.77,0,1.6.1,2.17-.63,3.25-4.22,6.85-8.17,9.87-12.58a2,2,0,0,0-.07-2.38c-2.4-4.14-4.83-8.26-7.16-12.44-3.32-5.95-6.85-11.77-9.95-17.84-1.74-3.41-3.29-6.91-5.29-10.2-1.82-3-3.64-6.09-3.68-9.8-.09-8.18,2.74-15.64,6.71-22.48,3-5.1,6.86-9.62,9.45-15.06a104.68,104.68,0,0,0,9.37-34,142,142,0,0,0,1.28-14.24c0-4,.48-8,5.76-8.71a1.6,1.6,0,0,0,1.39-2.26c-2.3-7-2.09-14.19-2.25-21.39-.1-4.32.74-8.59.52-12.91a40.74,40.74,0,0,1,.24-8.21,18.11,18.11,0,0,0-.2-7.49c-1.77-6.13-1.69-12.43-1.94-18.64s-.89-12.37-.62-18.57a3.77,3.77,0,0,0-.06-.94c-2.75-12.92-4.37-26-7.51-38.91-1.87-7.66-2.69-15.57-4.54-23.25-1.27-5.28-1.29-10.75-2.62-16-.31-1.22.12-2.48.26-3.72.47-4.18,2.41-7.86,3.79-11.71,2.42-6.71,5-13.35,7.23-20.13,3.69-11.19,7.21-22.42,10.1-33.84,4.79-18.92,9-38,12-57.27,1.21-7.8,2.5-15.6,3.76-23.39a5.47,5.47,0,0,1,2.51-4c5.31-3.5,10.54-7.13,15.73-10.8,1-.71,2.42-1.11,2.76-2.58.32-.46.11-.88-.12-1.3a2.87,2.87,0,0,0-.62-2.36l-.15-1a5.46,5.46,0,0,0-1-3.5l-.14-.8A5.29,5.29,0,0,0,572.5,96l-.18-.69A9.89,9.89,0,0,0,571,90.44l-.13-.81c0-2.84-1.09-5.45-1.76-8.15-3.62-14.6-7.93-29-12.39-43.36-.75-2.43-.92-5.12-2.68-7.19-2.35-3.55-5.3-6.32-9.56-7.4-.07-.22-.08-.54-.22-.63-4-2.52-8.47-3.54-13.06-4.06-8.79-1-17.6-1.76-26.46-2-1.76,0-3.52-1-5.3-.33a3.2,3.2,0,0,1-2.47-.22c-3.51-1.37-5.43-4.48-7.53-7.23C487.48,6.53,485.34,3.92,485,.47Zm-159.41,516c-2.4.48-4.2,2.05-6.12,3.36-.46.31-1.14.9-.72,1.55s1.14,0,1.7-.1c.36-.08.86-.27,1-.55C322.3,518.81,324.05,517.81,325.58,516.49Z" transform="translate(-177.82 -0.43)"/><path class="cls-1" d="M187.27,126.45q0-62,0-124.09c0-1.62.32-1.93,1.93-1.93q122,.08,243.93,0a15.8,15.8,0,0,1,1,7.17c-.5,5.86,1.18,11.58.48,17.47-.27,2.31-.17,4.81-.51,7.19-.43,3-.56,3,2.34,4.27-1.83-.45-4,0-4.69,1.22-1,1.89-3,1.73-4.11,3-2.16,2.54-5.24,2.68-8.06,3.68S413.25,46,411,48.41A23.33,23.33,0,0,1,405.13,53c-3.52,1.9-6.56,5.27-11.24,3.95a2.77,2.77,0,0,1,2.7-2.27,19.71,19.71,0,0,0,3.95-1.39c3.91-1.44,6.6-4.71,10.12-6.75.92-.53,2.08-.71,2.7-1.79.36-.62,1-1.19.52-1.9-.58-.94-1.29-.16-1.82.12-4.74,2.53-9.35,5.33-14.2,7.63-3.67,1.74-6.82,4.45-11.05,5.21-2.42.44-5.07,1.48-6.65,3.64-2.65,3.63-5.48,7.17-7.34,11.32a.32.32,0,0,0-.22.37,1.91,1.91,0,0,0-1.12,1.54l-.25.4a22.35,22.35,0,0,0-4.32,7.64l-.33.49c-1,.63-1.06,1.84-1.55,2.77-5.44,10.39-11.46,20.47-16.56,31-1,2-2.3,3.86-2.26,6.22.17,1.46,1.44,2,2.35,2.9,1.55,1.24,2.51,3.28,4.81,3.5a7,7,0,0,1,1.82,2.62c-2.58,4.44-4.34,9.26-6.53,13.88-2.29,4.84-3.23,10.07-4.74,15.14-.24.82.21,1.12.62,1.59,1.37,1.55,1.14,3-.64,3.87a7.53,7.53,0,0,0-4,3.46,1.76,1.76,0,0,1-2.4.86,2.43,2.43,0,0,0-1.6-.23c-3.94,1.16-8,.53-12,.68-6.23.23-12.49-.8-18.77-.36-1.52.11-2.92.52-4.59,0-3.16-1-6.77-.15-9.75-2.19-.11-.07-.31,0-.47,0-2.14,0-4-.95-5.94-1.65-2.21-.8-4.51-2-6.61-2.26-4.21-.51-8.24-1.8-12.43-2.29a8.51,8.51,0,0,1-3.18-1.31c-2.22-1.32-4.46-2.43-7.13-2.35a24.24,24.24,0,0,1-4.14-.55c-1.78-.26-2.15-2.18-3.51-2.41-5-.86-7-5.35-10-8.45-3.19-3.3-6-6.95-9.19-10.33-3.92-4.2-7.26-9-10.85-13.46-.47-.59-.56-1.91-1.78-1.17a2.18,2.18,0,0,0-.91,2.66,17.16,17.16,0,0,0,4.81,8.13,16.09,16.09,0,0,1,2.82,3.92l-16.2-4.88c1.6,1.9,4,2.24,6,4-1.73,0-3.22.36-4.49-.3C201.12,130.83,194.16,128.73,187.27,126.45ZM285,159c-.77-.86-1.62-.73-2.58-.23a4.23,4.23,0,0,0,2.61.18c1.51,1.28,3.3.92,5.72,1C288.42,159,286.76,158.58,285,159ZM224.34,125c-1.45-1.59-2.36-3.68-4.59-4.88C220.3,122.46,221.63,123.9,224.34,125Z" transform="translate(-177.82 -0.43)"/><path class="cls-2" d="M187.27,126.45c6.89,2.28,13.85,4.38,20.34,7.76,1.27.66,2.75.34,4.49.3-2-1.72-4.4-2.07-6-4l16.2,4.88a16.09,16.09,0,0,0-2.82-3.92,17.16,17.16,0,0,1-4.81-8.13,2.18,2.18,0,0,1,.91-2.66c1.22-.74,1.31.59,1.78,1.17,3.59,4.51,6.93,9.26,10.85,13.46,3.16,3.38,6,7,9.19,10.33,3,3.1,5,7.59,10,8.45,1.36.23,1.73,2.15,3.51,2.41a24.24,24.24,0,0,0,4.14.55c2.68-.07,4.92,1,7.13,2.35a8.51,8.51,0,0,0,3.18,1.31c4.19.49,8.22,1.78,12.43,2.29,2.1.25,4.41,1.47,6.61,2.26,1.94.7,3.81,1.66,5.94,1.65.16,0,.36-.05.47,0,3,2,6.59,1.19,9.75,2.19,1.67.53,3.07.11,4.59,0,6.28-.45,12.54.59,18.77.36,4-.15,8.07.48,12-.68a2.43,2.43,0,0,1,1.6.23,1.76,1.76,0,0,0,2.4-.86,7.53,7.53,0,0,1,4-3.46c1.79-.86,2-2.32.64-3.87-.41-.46-.86-.77-.62-1.59,1.51-5.07,2.45-10.3,4.74-15.14,2.19-4.62,3.95-9.44,6.53-13.88a1.84,1.84,0,0,0,1.67-1c.86-1.26,1.9-1.61,3.54-.58a56.53,56.53,0,0,1,5.44,4c4,3.21,7.8,6.58,10.15,11.26.24.47.47.78,1,.81,3.47.23,5.34,3.07,7.55,5.06s1.77,2.29,3.41-.15c.57-.85,1-1.93,2.3-1.49s1.63,1.45,1.84,2.73c1.29,7.93,2.52,15.88,4.07,23.77,1.22,6.21,1.61,12.14-.48,18.37-1.75,5.22-3.67,10.44-4.93,15.85-.44,1.91-.47,4.07-1.93,5.67,1.08-6.34,3.14-12.41,5.1-18.51,1.06-3.28,1.88-6.65,2.75-10,.66-2.54-.37-5-.75-7.41-1.41-8.89-3-17.74-4.57-26.61-.13-.73.19-1.74-.86-2s-1.5.67-2,1.36c-4.19,5.67-8.21,11.46-12.17,17.31-3.34,4.94-7,9.68-10.44,14.52a114.85,114.85,0,0,0-6.59,9.44c-1.56,2.71-3.77,2.62-6.2,2.44-7.16-.53-14.32-1-21.46-1.67-9.71-1-19.43-2-29.06-3.62a386.79,386.79,0,0,1-37.79-8.73c-5.62-1.55-10.92-3.89-16.4-5.74a16.54,16.54,0,0,0-6.25-.68c-9.67.45-19.11-.44-27.87-5a11.65,11.65,0,0,1-4.35-3.53c-1.81-2.58-4.8-3.11-7.45-4.21-1.3-.54-2.68-.9-4-1.48a2.74,2.74,0,0,1-1.69-2.62c0-1.36,1.17-1.17,2-1.45A10,10,0,0,1,202,156c.45,0,1.07.07,1.22-.44.22-.72-.5-.9-1-1.11-3.9-1.86-7.77-3.77-11.73-5.49-1-.43-1.9-1.79-3.29-.81Zm35.92,11.16a6.28,6.28,0,0,0-4.19-1.46C220.15,137.2,221.14,138.22,223.18,137.61Z" transform="translate(-177.82 -0.43)"/><path class="cls-2" d="M372.82,70.78c1.86-4.15,4.69-7.69,7.34-11.32,1.57-2.16,4.23-3.2,6.65-3.64,4.23-.76,7.39-3.48,11.05-5.21,4.85-2.3,9.46-5.09,14.2-7.63.53-.28,1.24-1.06,1.82-.12.43.71-.17,1.28-.52,1.9-.62,1.08-1.78,1.26-2.7,1.79-3.51,2-6.21,5.31-10.12,6.75a19.71,19.71,0,0,1-3.95,1.39,2.77,2.77,0,0,0-2.7,2.27c4.68,1.32,7.72-2,11.24-3.95A23.33,23.33,0,0,0,411,48.41c2.25-2.39,5.61-2.91,8.55-3.95s5.9-1.14,8.06-3.68c1.07-1.26,3.09-1.1,4.11-3,.68-1.26,2.87-1.67,4.69-1.22-2.9-1.25-2.78-1.24-2.34-4.27.34-2.37.24-4.87.51-7.19.7-5.89-1-11.61-.48-17.47a15.8,15.8,0,0,0-1-7.17H485c.35,3.44,2.5,6.06,4.44,8.61,2.1,2.75,4,5.86,7.53,7.23a3.2,3.2,0,0,0,2.47.22c1.78-.65,3.54.29,5.3.33,8.86.22,17.67,1,26.46,2,4.59.53,9.07,1.55,13.06,4.06.15.09.15.42.22.63-2.76.45-5.68.17-8.24,1.5a12.46,12.46,0,0,1-4,1.21c-1.43.23-3.75.33-4.08,2.78-.05.39-.56.74-.89,1.06-2.23,2.17-5.08,3.63-7,6.13a1.35,1.35,0,0,1-.78.48,1.55,1.55,0,0,1-1.09-.15c-.39-.32-.06-.74.23-1,1.48-1.23,1.88-3.27,3.44-4.44.44-.33.86-.8.38-1.39a1,1,0,0,0-1.47-.24c-2.23,1.57-5.3,1.65-7,4.15a2.17,2.17,0,0,1-3,.63c-1.09-.76,0-1.64.44-2.4.23-.43.52-.8.09-1.25a.9.9,0,0,0-1.08-.14,5.88,5.88,0,0,1-1.57.48c-1.38.08-1.89-.92-2.17-2-.13-.51-.78-1.29.29-1.51,2.67-.56,1-1.75.25-2.44s-1.05-1.15-.19-2,.34-1.58-.74-1.65a37.54,37.54,0,0,0-4.23,0c-.59,0-1.26.52-1.66-.27s.45-.9.72-1.33a3.62,3.62,0,0,1,.7-.62c.54-.49,1.09-1.15.8-1.8s-1.13-.29-1.73-.28a2.74,2.74,0,0,0-1.33.34,97.49,97.49,0,0,1-15.12,7.4c-4.48,1.8-8.68,4.18-13.33,5.67-2.68.85-5.47,1.26-8.08,2.29-4.51,1.76-9.26,2.63-14,3.67-5.35,1.19-11.09-.05-16.28,2.83,1.54.72,3,1.49,4.68,1.38.57,0,1.16.26,1.09,1s-.68.76-1.25.8a4.23,4.23,0,0,1-1.75-.54c-2-.7-4-.35-6.05-.3-1.26,0-1,1.47-1.8,2-.6.36-1.12,1-1.75,1.13-2.34.47-4.24,2-6.52,2.58-1.84.5-2.67,1.79-1.43,3.58.77,1.11.14,1.47-.69,1.61A19.19,19.19,0,0,0,412,54.35c-1.5.74-2.91-.25-4.39,0-2.66.49-4.47,2.51-6.79,3.57-4.44,2-9.08,4.29-14,2.72-2.89-.92-4.65-.28-6.31,1.76-1.36,1.67-3.06,3-4.27,4.9C375.47,68.56,374.65,70.34,372.82,70.78Z" transform="translate(-177.82 -0.43)"/><path class="cls-3" d="M372.82,70.78c1.83-.44,2.65-2.22,3.44-3.46,1.21-1.89,2.91-3.22,4.27-4.9,1.66-2,3.42-2.67,6.31-1.76,4.94,1.57,9.58-.68,14-2.72,2.31-1.06,4.13-3.08,6.79-3.57,1.48-.27,2.89.72,4.39,0a19.19,19.19,0,0,1,5.22-1.94c.83-.14,1.46-.5.69-1.61-1.24-1.78-.4-3.07,1.43-3.58,2.28-.62,4.18-2.12,6.52-2.58.63-.13,1.16-.77,1.75-1.13.79-.48.54-1.92,1.8-2,2-.06,4.08-.4,6.05.3a4.23,4.23,0,0,0,1.75.54c.58,0,1.18-.14,1.25-.8s-.52-1-1.09-1c-1.73.11-3.14-.66-4.68-1.38,5.19-2.88,10.94-1.64,16.28-2.83,4.71-1,9.46-1.91,14-3.67,2.62-1,5.41-1.43,8.08-2.29,4.65-1.48,8.85-3.87,13.33-5.67a97.49,97.49,0,0,0,15.12-7.4,2.74,2.74,0,0,1,1.33-.34c.6,0,1.45-.34,1.73.28s-.27,1.31-.8,1.8a3.62,3.62,0,0,0-.7.62c-.27.43-1.07.64-.72,1.33s1.06.3,1.66.27a37.54,37.54,0,0,1,4.23,0c1.08.07,1.75.66.74,1.65s-.61,1.26.19,2,2.42,1.87-.25,2.44c-1.07.23-.42,1-.29,1.51.28,1.11.79,2.12,2.17,2a5.88,5.88,0,0,0,1.57-.48.9.9,0,0,1,1.08.14c.43.45.14.82-.09,1.25-.4.76-1.53,1.64-.44,2.4a2.17,2.17,0,0,0,3-.63c1.73-2.5,4.8-2.59,7-4.15a1,1,0,0,1,1.47.24c.48.6.05,1.06-.38,1.39-1.56,1.17-2,3.21-3.44,4.44-.29.24-.62.66-.23,1a1.55,1.55,0,0,0,1.09.15,1.35,1.35,0,0,0,.78-.48c2-2.5,4.8-4,7-6.13.34-.33.84-.67.89-1.06.33-2.44,2.65-2.55,4.08-2.78a12.46,12.46,0,0,0,4-1.21c2.56-1.33,5.48-1.05,8.24-1.5,4.26,1.08,7.21,3.85,9.56,7.4a4.87,4.87,0,0,0,.07,1.14c2.19,7.27,4.5,14.51,6.6,21.8,3.09,10.74,6,21.53,9,32.3.33,1.17.08,2.52,1.12,3.46l.13.81a8.29,8.29,0,0,0,1.34,4.86l.18.69a3,3,0,0,0,.71,3.07l.14.8c.1,1.23-.08,2.54,1,3.5l.15,1a2,2,0,0,0,.62,2.36c.22.42.43.83.12,1.3a6.39,6.39,0,0,0-3.12,1.53c-5.25,3.67-10.55,7.28-15.69,11.09-1.71,1.27-4.44,2.27-3.13,5.44.2.49-.41.79-.66,1.18-1.36,2.2-2.19,5.3-1.55,7.59.36,1.31-.63,2-.81,3-1.06,6.17-1.26,12.42-2.12,18.59-.13.92,0,2.14-1.69,1.85-.72-.12-1.33,1.11-.69,1.44,2.75,1.44,1.54,3.32.7,5.06s-3.2,2.84-.77,4.94c.1.09-.15.57-.21.88A96,96,0,0,1,543,182c-1.33,4.26-1.68,8.74-2.71,13.06-1.28,5.36-3.14,10.57-4.19,16-1.33,6.85-4.05,13.3-5.8,20-1.07,4.14-3,8.07-4,12.22-.46,1.89-1.85,3.26-2.11,5.1-.54,3.86-3.23,6.9-4,10.67a1.31,1.31,0,0,1-1.56.79c-.73-.13-.75-.85-.61-1.33.62-2.08-.32-4.67,2.06-6.21.46-.3.58-1.09.89-1.63,1-1.65-.29-3.33.06-5,.16-.8-1.11-1.07-2-1.34a1.12,1.12,0,0,1-.44-1.79c1.26-1.82,1.36-4.07,2-6,1.1-3.49,3.7-6.25,4.27-9.9.06-.39.55-.78.93-1,1-.64,1.45-1.38.86-2.55-.33-.65.21-1.19.3-1.78.27-1.77,1.87-3.15,1.66-5a4.53,4.53,0,0,1,1.26-4c.52-.52,1.1-1,.76-1.81-.6-1.35.24-2.31.87-3.23a4.89,4.89,0,0,0,.82-3.92c-.21-1.3-1.25-3,.13-4.19,3.14-2.81,2.71-7,2.52-10.15a44.48,44.48,0,0,1,1.59-13.21c.57-2.4.64-5.12,3.35-6.49.25-.13.1-.93.31-1.31.85-1.55-.23-3.53,1.09-4.92,1.66-1.75,1.69-1.71-.44-2.63,1-1.11,1.62-2.33.93-3.83a1.93,1.93,0,0,1,.42-2c1.33-2,.32-3.89-.34-5.66a3.45,3.45,0,0,1-.15-1.73c.1-1.76,3.6-3.27.49-5.3-.08-.05,0-.63.22-.84.92-1.11.68-2.42.5-3.62s-.39-1.78,1.11-1.28c.88.3,1.33-.35,1.65-1,.41-.81-.21-1.3-.74-1.79s-2-.19-1.68-1.52c.26-1,1.5-.39,2.15-.91-.29-.39-1.2-.54-.89-1,1.25-1.68-.15-3-.36-4.53-.58-4.07-3.49-5.25-7-6.18-3.71-1-7,.26-10.14,1.51-2.66,1-5.76,2-6,6a10.86,10.86,0,0,1-.33,3.46c-1.09,2.72-.47,5.63.28,8,1,3.2-1.17,6-.19,9.06.17.53-.33,1.88-.44,2.87-.22,1.94-.47,4-1.74,5.48-1.58,1.85-1.42,4.1-1,5.92.47,2.21-.4,5,2.14,6.66.14.09.1.6,0,.89-.66,2.53.4,5.62-2.45,7.46-.26.17-.35.71-.37,1.09-.18,2.8-2.8,5.2-1.36,8.28a.68.68,0,0,1-.22.61c-1.36.95-2.66,1.86-.28,3.14.21.11.18.26,0,.32-2.09.66-1.15,3.14-2.1,4-1.87,1.62-1.39,3.69-2,5.53-1.2,3.54-.34,7.72-3.33,10.71a1.29,1.29,0,0,0-.2.88c.25,4.57-.88,9-2,13.31a119.63,119.63,0,0,1-3.89,13.17c-1.53,4-2,8.33-3.79,12.25a126.62,126.62,0,0,0-6.41,15.79c-.86,2.89-1.2,6.09-3.31,8.46a62.48,62.48,0,0,0-9.53,13.73c-.86,1.73-2.19,3.06-4.49,2.32a2.12,2.12,0,0,0-1.14.19c-3.22,1-5.57,4.39-9.51,3.56-.61-.13-1,.41-1.28.88a2.15,2.15,0,0,1-2,1c-1.68-.14-3.24.48-4.86.71a137.28,137.28,0,0,1-14,1.69A1.89,1.89,0,0,1,439.1,297c-.27-.61-.56-1.39.1-1.68,1.56-.69,2.71-2.46,4.79-1.9a1.25,1.25,0,0,0,1.62-.61c.29-.64-.34-1-.58-1.43-.47-.89-1.3-.73-2.07-.74-4.9,0-9.09,2.72-13.78,3.55-.54.09-1.16.93-1.48,0s-1.15-2.12-.53-3.12,1.13.36,1.77.44,1.35.38,2,.43.74-.5.93-.93,0-.71-.29-.76c-2.21-.36-4-2.2-5.77-2.63-3.58-.85-7.41-.89-11.09-1.68-.43-.09-1-.15-1.27.34-.39.71.24,1,.69,1.25q3.31,1.84,6.66,3.62c.53.28,1,.6.81,1.24s-.84.36-1.37.31c-3.19-.3-6-1.55-9-2.73-4.32-1.72-9-2.19-13-5s-8.78-4.06-13-6.6c-3.22-2-6.22-4.41-10-5.43l0,0c.29-.5.27-.92-.33-1.17.62-3.35,1.09-6.74,2.55-9.88.54-.25.62-.53.08-.88l.17-1.58c.05,0,.16-.06.16-.08a2.25,2.25,0,0,0-.1-.31,1.52,1.52,0,0,1,.58-1.36,1,1,0,0,0,.93-1.25,5.46,5.46,0,0,1,1.26-2.19,16,16,0,0,1,3-3l.13-1.63c.24-2.81-.36-5.59-.21-8.42.09-1.7,1.23-3.45.15-5.19a5.55,5.55,0,0,1,.81-2.82.76.76,0,0,0,.41-1.14l.18-.83a36.43,36.43,0,0,0,3.6-15.67l.2-.84c1.46-1.6,1.49-3.76,1.93-5.67,1.25-5.41,3.18-10.63,4.93-15.85,2.09-6.23,1.7-12.17.48-18.37-1.55-7.88-2.78-15.83-4.07-23.77-.21-1.28-.56-2.3-1.84-2.73s-1.73.64-2.3,1.49c-1.64,2.44-1.32,2-3.41.15s-4.08-4.83-7.55-5.06c-.54,0-.77-.34-1-.81-2.35-4.68-6.18-8-10.15-11.26a56.53,56.53,0,0,0-5.44-4c-1.64-1-2.68-.68-3.54.58a1.84,1.84,0,0,1-1.67,1,7,7,0,0,0-1.82-2.62c-1.48-1.33-2.47-3.34-4.81-3.5-.91-.86-2.18-1.43-2.35-2.9,1-.18.88-1.09,1.19-1.78.78-1.74,1.11-4,3.16-4.64,1.4-.41,1.5-1,1.47-2.12,0-1.61-.15-3.22,2.25-3.26.88,0,1.07-1,1.42-1.73a80.71,80.71,0,0,0,5.25-12.43c1.52-4.84,4.5-9.08,5.62-14.07l.33-.49a23,23,0,0,0,4.32-7.64l.25-.4c.89-.14,1.34-.59,1.12-1.54A.32.32,0,0,1,372.82,70.78ZM497,69.14c-.22-.53.29-1.92-1.13-2s-2.93,1.4-2.61,2.05c1,2.08-.92,4.1.53,6.31.89,1.37,1.19,1.14,2.05.62a3.66,3.66,0,0,0,1.16-5A2.25,2.25,0,0,1,497,69.14Z" transform="translate(-177.82 -0.43)"/><path class="cls-2" d="M375.31,273c3.75,1,6.75,3.47,10,5.43,4.17,2.55,9,3.8,13,6.6s8.73,3.3,13,5c3,1.18,5.8,2.43,9,2.73.53,0,1.12.47,1.37-.31s-.28-1-.81-1.24q-3.35-1.78-6.66-3.62c-.46-.25-1.08-.54-.69-1.25.27-.5.85-.43,1.27-.34,3.68.79,7.51.83,11.09,1.68,1.82.43,3.56,2.27,5.77,2.63.32.05.45.41.29.76s-.39,1-.93.93-1.35-.35-2-.43-1.22-1.31-1.77-.44.17,2.13.53,3.12.94.05,1.48,0c4.69-.82,8.88-3.58,13.78-3.55.77,0,1.6-.15,2.07.74.24.46.88.79.58,1.43a1.25,1.25,0,0,1-1.62.61c-2.08-.57-3.22,1.21-4.79,1.9-.66.29-.37,1.07-.1,1.68a1.89,1.89,0,0,0,2.07,1.19,137.28,137.28,0,0,0,14-1.69c1.62-.23,3.18-.85,4.86-.71a2.15,2.15,0,0,0,2-1c.33-.46.67-1,1.28-.88,3.94.83,6.28-2.53,9.51-3.56a2.12,2.12,0,0,1,1.14-.19c2.3.73,3.63-.59,4.49-2.32A62.48,62.48,0,0,1,488,274.13c2.12-2.37,2.45-5.57,3.31-8.46a126.62,126.62,0,0,1,6.41-15.79c1.77-3.92,2.26-8.24,3.79-12.25a119.63,119.63,0,0,0,3.89-13.17c1.1-4.3,2.23-8.74,2-13.31a1.29,1.29,0,0,1,.2-.88c3-3,2.12-7.17,3.33-10.71.62-1.83.15-3.91,2-5.53.95-.82,0-3.29,2.1-4,.2-.06.23-.21,0-.32-2.38-1.28-1.08-2.19.28-3.14a.68.68,0,0,0,.22-.61c-1.45-3.07,1.17-5.48,1.36-8.28,0-.38.12-.92.37-1.09,2.85-1.84,1.79-4.93,2.45-7.46.07-.29.12-.8,0-.89-2.54-1.61-1.67-4.44-2.14-6.66-.39-1.82-.54-4.07,1-5.92,1.28-1.5,1.52-3.54,1.74-5.48.11-1,.61-2.34.44-2.87-1-3.06,1.19-5.86.19-9.06-.74-2.4-1.37-5.3-.28-8a10.86,10.86,0,0,0,.33-3.46c.22-4.06,3.32-5,6-6,3.17-1.25,6.43-2.49,10.14-1.51,3.52.93,6.44,2.11,7,6.18.21,1.49,1.61,2.85.36,4.53-.31.42.59.57.89,1-.65.52-1.9-.12-2.15.91-.33,1.33,1.12,1,1.68,1.52s1.14,1,.74,1.79c-.32.63-.77,1.27-1.65,1-1.5-.5-1.27.21-1.11,1.28s.42,2.51-.5,3.62c-.18.21-.3.79-.22.84,3.11,2-.39,3.53-.49,5.3a3.45,3.45,0,0,0,.15,1.73c.66,1.77,1.67,3.69.34,5.66a1.93,1.93,0,0,0-.42,2c.69,1.5.08,2.72-.93,3.83,2.13.91,2.1.88.44,2.63-1.32,1.39-.23,3.37-1.09,4.92-.21.39-.06,1.18-.31,1.31-2.71,1.37-2.77,4.09-3.35,6.49A44.48,44.48,0,0,0,535,188.92c.18,3.15.61,7.34-2.52,10.15-1.37,1.23-.34,2.88-.13,4.19a4.89,4.89,0,0,1-.82,3.92c-.63.91-1.47,1.88-.87,3.23.34.77-.24,1.3-.76,1.81a4.53,4.53,0,0,0-1.26,4c.21,1.82-1.39,3.2-1.66,5-.09.59-.63,1.14-.3,1.78.6,1.16.14,1.91-.86,2.55-.38.25-.87.64-.93,1-.57,3.65-3.17,6.41-4.27,9.9-.62,2-.72,4.21-2,6a1.12,1.12,0,0,0,.44,1.79c.85.27,2.12.54,2,1.34-.35,1.72.89,3.4-.06,5-.31.54-.44,1.34-.89,1.63-2.38,1.55-1.44,4.13-2.06,6.21-.14.48-.13,1.2.61,1.33a1.31,1.31,0,0,0,1.56-.79c.75-3.78,3.44-6.82,4-10.67.26-1.84,1.65-3.21,2.11-5.1,1-4.15,2.9-8.08,4-12.22,1.75-6.74,4.48-13.19,5.8-20,1-5.42,2.92-10.64,4.19-16,1-4.32,1.38-8.8,2.71-13.06a96,96,0,0,0,2.52-11.38c.06-.31.31-.79.21-.88-2.43-2.1,0-3.34.77-4.94s2.05-3.62-.7-5.06c-.64-.34,0-1.56.69-1.44,1.74.28,1.56-.93,1.69-1.85.86-6.18,1.06-12.43,2.12-18.59.18-1,1.17-1.7.81-3-.64-2.29.19-5.38,1.55-7.59.24-.39.86-.69.66-1.18-1.31-3.18,1.42-4.17,3.13-5.44,5.14-3.82,10.44-7.42,15.69-11.09a6.39,6.39,0,0,1,3.12-1.53c-.34,1.47-1.75,1.87-2.76,2.58-5.2,3.67-10.43,7.29-15.73,10.8a5.47,5.47,0,0,0-2.51,4c-1.26,7.8-2.55,15.59-3.76,23.39-3,19.3-7.18,38.35-12,57.27-2.89,11.42-6.41,22.65-10.1,33.84-2.24,6.78-4.81,13.43-7.23,20.13-1.39,3.85-3.32,7.53-3.79,11.71-.14,1.25-.57,2.51-.26,3.72,1.33,5.26,1.34,10.73,2.62,16,1.85,7.68,2.67,15.59,4.54,23.25,3.14,12.86,4.76,26,7.51,38.91a3.77,3.77,0,0,1,.06.94c-.27,6.2.37,12.39.62,18.57s.16,12.51,1.94,18.64a18.11,18.11,0,0,1,.2,7.49,40.74,40.74,0,0,0-.24,8.21c.22,4.33-.62,8.6-.52,12.91.17,7.2,0,14.43,2.25,21.39A1.6,1.6,0,0,1,534.7,444c-5.27.75-5.73,4.76-5.76,8.71A142,142,0,0,1,527.66,467a104.68,104.68,0,0,1-9.37,34c-2.59,5.44-6.48,10-9.45,15.06-4,6.84-6.8,14.3-6.71,22.48,0,3.7,1.86,6.8,3.68,9.8,2,3.29,3.55,6.8,5.29,10.2,3.1,6.07,6.63,11.9,9.95,17.84,2.33,4.18,4.76,8.3,7.16,12.44a2,2,0,0,1,.07,2.38c-3,4.41-6.61,8.36-9.87,12.58-.57.73-1.39.63-2.17.63-8.1,0-16.19,0-24.29,0-1.27,0-1.71-.47-2.05-1.66-2.28-7.83-4.67-15.69-5.24-23.84-.61-8.83-3.27-17.23-4.62-25.9-1.43-9.2-1.9-18.38,1.59-27.13,1.5-3.76.42-7,.05-10.46-.57-5.45-.9-10.93-1.48-16.38-.4-3.81-1.09-7.58-1.22-11.42a66.41,66.41,0,0,1,1.28-15.14c.39-2,.85-4,1.38-6a5.47,5.47,0,0,1,1.22-2.76c3.15-2.53,2-5.66,1.57-8.77a48.36,48.36,0,0,1-.57-5.36c-.21-5.49-1-5.65-6.8-6.51-3-.44-6.07-.3-8.82-1.87,1.05-.38,2.05.7,3.46-.07-1.44-.22-2.42-2-3.69-.11-1.45-1-1-2.67-1.2-4-2.54-14.4-5.58-28.72-7.66-43.2q-1.76-12.28-3.47-24.58a25.33,25.33,0,0,1-.25-3.51c0-5.66-3.89-9.59-6.31-14.15s-4.84-9-7.16-13.51c-2-4-3.67-8.23-6.3-11.93-.66-.93-.8-2.21-1.31-3.26-1-2-2.11-2.08-3.51-.47-4.37,5-9,9.9-13,15.16-3.4,4.37-6.49,9-10,13.3-8.54,10.52-17.16,21-25.44,31.71-6.2,8-12.44,16-18.56,24.14-1.92,2.55-4.3,2.29-6.75,2-4.93-.63-5-.69-3.55,3.93,3.06,9.5,6.29,18.94,9.39,28.42q7.8,23.85,15.53,47.72a35.94,35.94,0,0,1,1.67,7.5c.4,3.91,2.45,7.4,3.77,11.08,1.47,4.08,3.13,7.94,6.3,11.08,4.3,4.25,4.81,9.73,4,15.3-.34,2.49-2.76,3.4-5.06,3.95.23-1,1.84-1,1.79-2.26a1.67,1.67,0,0,0-1.95.31c-2.43,2.41-5.64,1.38-8.45,2.07a2.93,2.93,0,0,1-2.5-.36c-2.88-2.18-6.37-2.09-9.66-2.31a15,15,0,0,1-6.92-2.35c-2.87-1.7-5.81-3.54-9.62-2.15a13.78,13.78,0,0,1-7.56.65,2.51,2.51,0,0,0-2.52.91c-.93,1.06-2.54,1.92-3.48,1.58-2.44-.88-3.79,1.53-5.9,1.3a137.62,137.62,0,0,0,14.33.3c5.07-.17,10.2-.23,15.09.93,6.94,1.64,13.82,2.93,21,2.45,1.39-.09,2.72-.88,4.15-.36a19,19,0,0,1-10.54,1.27c-10.92-1.64-21.78-3.22-32.89-3.27-11,0-21.91-1.13-32.86-1.74-1.41-.08-2.73-.63-4.18-.66s-2.77-2.75-2.47-4.52a2.65,2.65,0,0,1,3.24-2.27,9.11,9.11,0,0,0,4.14-.22,13.41,13.41,0,0,1,4.85-.12,7,7,0,0,0,5.84-2,4.15,4.15,0,0,1,3.65-1c3.15.5,6.25.94,8.54-2.08.13-.17.43-.37.59-.33,3.8,1.05,6.19-2.83,9.71-2.77.72,0,1.21-.68,1.51-1.36a2.24,2.24,0,0,1,1.47-1.39c3.19-1,4.48-3.62,5.25-6.44,1.36-5,.79-9.92-.6-14.83-2.61-9.26-7.71-17.27-12.53-25.44-3.87-6.55-7.46-13.27-11.2-19.9q-9.84-17.43-19.71-34.83c-4.76-8.41-9.49-16.82-14.3-25.2-.79-1.39-.68-2.89-.95-4.33a44.68,44.68,0,0,1-.14-13.53c.4-3.31,2.75-5.15,4.59-7.39a35.84,35.84,0,0,0,6-9.77c.58-1.51,2.14-2.16,3.49-3.39-.27,3.88,3.16,1.81,4.5,3.16-.82-1.38-.83-3.15-2.74-3.9a2.18,2.18,0,0,1-1.07-3.18c1.64-3.37,3-7.15,5.81-9.52a16.65,16.65,0,0,0,4.2-5.06c1-2.1,2.72-3.73,3.82-5.71,1.21-2.16,3-4.07,3.73-6.64.12-.44.68-.62,1.19-.62.88,0,1.54,0,1.07-1.31a1.37,1.37,0,0,1,1.12-1.77c.22,0,.53-.08.64-.24,1.54-2.08,1.58-2.13,3.63-.24,1.52,1.4,2.86,3,5.55,3.73-1.89-2.2-2.19-4.7-3.57-6.74-1.07-1.57-.56-2.49,1.3-2.57.47,0,.93-.21.92-.53-.14-2.93,2.78-2.7,4.17-4,.35-.33,1.27-.53,1.26-.92-.08-2.34,1.76-3.45,3-5a2.57,2.57,0,0,1,1.42-1.15c1.23-.25,2-.78,1.69-2.25-.13-.58.12-1.2.92-.74,1.23.7,3.07-.85,3.95,1.39-.54-2.06-1.75-3.65-1.57-6,1.48,2,2.39,1.21,3.22-.21a1.87,1.87,0,0,1,1.84-1.24c1.56-.07-.31-1.19,0-1.93,1.27-.76,2.87.2,4.22-.72a7.72,7.72,0,0,0,2.83-4.18c.68-2.16,1.74-2,3.28-1.46.72.26,1.38.76,2.2.44.05-.15.16-.3.14-.42-.2-1-1.51-1.74-.75-2.77.89-1.2,2.17-.41,3.28-.17a18.18,18.18,0,0,1,2.24.65c.56.2,1.27.78,1.57,0s-.68-.93-1.18-1.2a6.58,6.58,0,0,0-1.57-.44c-1.22-.32-1.19-1.4-1.21-2.28s.72-1.35,1.63-1.24S375.66,274.17,375.31,273Zm110.54,256.5c-1.23-.71-2.53-.65-2.65.82-.25,3-1.1,6-1.29,9-.11,1.76-.36,4,2.54,4.14,4.51.23,9,1.18,13.54.17,2.89-.64,3.73-1.45,3.45-4.35a32.94,32.94,0,0,1,.62-8.62c1.56-9.38,7.2-16.81,12.05-24.6a80.2,80.2,0,0,0,4.89-8.93c1.33-2.9,1.84-6,3.08-8.93,1.61-3.74,2.15-7.72,3-11.64,1-4.85,1.18-9.85,2.13-14.65.75-3.81,0-7.71,1.29-11.44a6.61,6.61,0,0,0,0-2.93c-.21-1.07-.9-1.51-1.61-1.11-2.37,1.31-4.91.72-7.37.93a128,128,0,0,1-24.33,0c-2.4-.26-4.79-.67-7.19-1-.43-.06-1-.19-1.25.34s.29.78.73,1c2.58,1.1,3.89,3.06,4.75,5.76.61,1.92,1.76,3.55.43,5.54-.05.08,0,.33.14.43,1.55,1.54,1.25,2.86-.71,3.89.89.61,2.16-.57,2.4.71.36,1.92,2.87,3.47,1,5.79a.91.91,0,0,0,.08.87c1.19,1.22.58,2.41-.18,3.6,2.4.1,3.55,1.36,2.52,2.95-1.42,2.18,0,3.1,1.33,4.24-.52.46-1.56.15-1.53,1.18,0,1.19-1.2,1.35-1.7,2.1-.39.59,0,2.16-1.43,1.43-.78-.39-1.28-1.32-1.91-2a.7.7,0,0,0-.21-.11c-.49-.24-1-.6-1.47,0s0,.81.38,1.12c.77.62.69,1.42-.19,1.57-1.65.29-2.7,3.05-4.87,1.21-.13-.11-.62.05-.85.22-1.24.92-1.4,4.73-.11,5.73,1.64,1.27.22,3.31,1.4,4.63-.16.13-.41.4-.47.36-1.84-1.08-1.18.55-1.31,1.22-.34,1.75-.4,3.58-1.62,5-.89,1.07-1,1.79.3,2.87.65.56-1.75,1.53-.92,2.93a1.64,1.64,0,0,0,.45.53c1.49,1,1.34,2.52,1.31,4,0,1.71-.11,3.46,1.06,4.91s1.39,2.92-.58,4c-.79.43-1.48,1.07-.29,1.66C486.22,526.86,486,528.05,485.85,529.46ZM343,458.33c-.6.76-1.91.57-1.39,1.56s-.61,2.47.93,2.94a2.71,2.71,0,0,1,1.61,1.59c1.35,2.66,2.57,5.39,3.9,8.07.51,1,1,2.18.45,3.16a3.51,3.51,0,0,0,.84,4.06c.73.84,1.37,2,2.54,2.45s1.4-.89,2-1.51a.94.94,0,0,1,1.29-.07,1,1,0,0,1,.34,1.44c-.3.45-.74.81-1.07,1.24-3,3.89-3,3.93.74,7.21a1.36,1.36,0,0,1,.49,1.47c-.55,1.81.55,3.32.78,5,.3,2.08,1.93,4.43,1,6.07-1.23,2.11.21,4.31-1.11,6.21-.47.68.13,1.62.91,1.92,1.09.43.74-.61.92-1.1a1.71,1.71,0,0,1,.43-.78c.64-.48,6.4,1,6.47,1.72.21,2.57,2.28,3.48,3.78,5.06s2.54,2,4.1.34a5.74,5.74,0,0,1,1.22-.7.82.82,0,0,0,.28-1.22c-1.67-3-1.41-6.37-2.1-9.55-.58-2.7.14-4.82,3.25-5.8a2.72,2.72,0,0,0,1.61-4c-.21-.46-.31-1.06.12-1.29,1.68-.9.92-2.16.72-3.45a26.62,26.62,0,0,0-2.4-7.3c-.73-1.53-.5-3.47-1.81-4.63-2.65-2.35-3.46-5.62-4.26-8.77a19.05,19.05,0,0,0-1.73-4.51c-.92-1.7-2.33-3.39-1.8-5.57.59-2.45,0-4.64-.71-7-2.28-7.76-4.71-15.47-7.47-23.05-2.5-6.88-4.35-14-8-20.48-1.61-2.85-3.34-5.31-6-6.72q-8.65-4.55-16.85-9.83c-3-1.93-6.22-3.43-8.92-5.84a7.06,7.06,0,0,0-4.15-2.11c2.3,2,3.42,4.84,5.14,7.22.14.19.29.51.45.51,3.29.17,2.82,3.44,4.22,5.15a3,3,0,0,1,.35,2.72,6.61,6.61,0,0,0,1.34,6.32c1.27,1.58,1.45,3.81,3.12,5.16-1.43,1.81.19,3.12.63,4.67a3.45,3.45,0,0,1-.81,2.61c-.54.66-.53,1.19.51,1.53a6.49,6.49,0,0,1,4.74,6.17c0,1.48.21,2.58,1.93,1.13.34-.29.68-.78,1.19-.36s.7.81.49,1.24c-.74,1.58.15,2.51,1.18,3.44.64.58.81.94.12,1.88s-2.24,1.93-1.55,3.48c1.12,2.5,1,3.23-1.59,3.71-1.42.27-1.58,1.12-1.13,2,.59,1.12.9,3.09,3.16,1.58a26.93,26.93,0,0,1,2.8-1.58c-.54,2.31.07,3.73,1.94,4.88,1.1.68-.12,1.32-.81,1.52a3.05,3.05,0,0,0-1.79,4.45c.32.46.72.87.66,1.46C339.94,457.25,340.91,458.13,343,458.33ZM474,325.58c1.43.55,2.53-.89,3.24-.09,2.41,2.72,5.45,2.6,8.59,2.26.3,0,.74-.25.84.11.64,2.24,2.13,1.18,3.54,1.12,2.51-.1,4.93-.28,7.14-1.63a2,2,0,0,1,2-.13,1.64,1.64,0,0,0,1.55-.16,15.91,15.91,0,0,1,9.59-1.89,15.65,15.65,0,0,0,2.27,0c3.82-.08,7.74-.39,11,2.38a1.75,1.75,0,0,0,1.79.21,1,1,0,0,0,.42-1.41c-.26-.57.17-1.58-.84-1.69-3.88-.43-7.73-1.25-11.67-.94-2.3.18-4.6.3-6.9.4-.59,0-1.39.23-1.6-.59s.65-1.24,1.1-1.3c3.26-.46,4.33-2.61,5.77-5.38s2.51-5.32,2-8.49c-.24-1.47-.26-3,1.66-3.68a1.13,1.13,0,0,0,.38-1.93c-1.43-.91-.67-2.06-.67-3.13,0-.8,0-1.68,1-1.85s1.4.55,1.77,1.27c.16.32.14.81.94.66-1.16-6.24-1.12-12.66-3.37-18.73-1.12.68-.79,1.94-.82,3-.06,2.81.41,5.67-.71,8.37-.95,2.29-2.44,4.43-2.94,6.79a11.66,11.66,0,0,1-5.35,8c-.46.29-.84.82-1.41.65s-.41-.92-.46-1.43c-.15-1.48-.73-2-2.16-1.14-.59.37-1.4.44-1.9.88-.91.81-2.52,1-2.68,2.42-.08.76-.17,1.34-1,1.18a1.43,1.43,0,0,1-1.17-1.56,7.55,7.55,0,0,1,.53-1.8c.34-.93.68-2.07-.52-2.38-.94-.24-2.34-.14-2.82,1-.78,1.88-2.62,2.4-4,3.47-.48.37-1.35.46-1.05,1.23.53,1.41-.34,2-1.24,2.68-1.14.87-2.13,1.83-1.84,3.51.14.79-.43,1.08-1.18,1.08s-1.11-.43-1.11-1.18a3,3,0,0,1,.4-1.8c1.68-2.47,1-4.74-.66-6.9-.27-.34-.37-1-1-.69s-.88.9-.39,1.34c.89.81.32,1.36-.14,2a6.78,6.78,0,0,0-1.15,3.24c-.35,2.4-1.31,4.72-1.59,7.13A7.69,7.69,0,0,1,474,325.58ZM530.72,358a6.13,6.13,0,0,0-3.91-2.21c-6.15-1-12.31-2.13-18.58-1.93a11.53,11.53,0,0,1-6.45-1.71,5.38,5.38,0,0,0-1.51-.6,1,1,0,0,0-.85.21c-.28.38,0,.76.34,1,2.87,2,5.76,3.66,9.6,3.14a28.44,28.44,0,0,1,9.12,0c3.58.7,7.38.78,10.7,2.65C529.58,358.8,530.54,359.51,530.72,358ZM517.3,423.79c.39,1.15,1.34,1.53,2,2.08s1.78,0,2.4,1.12a2.84,2.84,0,0,0,3.66,1.46c2.11-.72,3.39-.28,3.11,2.28,0,.07.22.17.53.39.65-2,1.37-3.87,3.72-4.44.53-.13.47-1.16-.24-1.5a8,8,0,0,0-2-.57C526.16,423.84,521.76,424.25,517.3,423.79ZM503.64,548.58c-.79-.33-1.67-1-2.66-.44-3.42,1.81-7.38,1.14-10.91,2.43a1.45,1.45,0,0,1-1.34-.26c-.56-.4-1.18-1-1.77-.12-.27.41-1,.75-.61,1.39a1.78,1.78,0,0,0,2,.88,48.75,48.75,0,0,0,5.86-1.36c2.12-.71,4.12-1.54,6.32-.3C501.09,551.11,503.71,549.32,503.64,548.58ZM515.19,587l-3.45.46c-.76.1-1.72,0-1.5,1.21a1.31,1.31,0,0,0,1.78,1,12.08,12.08,0,0,1,3.21-.45c.8,0,2.06.3,2-.87S515.91,587.18,515.19,587ZM318.51,342.62c-1.67.18-3.34.31-5,.57-.48.08-1.16.39-1.06,1s.87.54,1.35.52C315.55,344.66,317,343.58,318.51,342.62Zm196.37,81.16c-2.58-.38-5.11-1.47-8.29-.77C509.53,424.84,512.25,423.91,514.88,423.77Z" transform="translate(-177.82 -0.43)"/><path class="cls-3" d="M387,538.43c-1.43-.51-2.76.27-4.15.36-7.17.48-14.05-.81-21-2.45-4.89-1.16-10-1.1-15.09-.93a137.62,137.62,0,0,1-14.33-.3c2.11.23,3.46-2.18,5.9-1.3.94.34,2.55-.52,3.48-1.58a2.51,2.51,0,0,1,2.52-.91,13.78,13.78,0,0,0,7.56-.65c3.81-1.39,6.75.45,9.62,2.15a15,15,0,0,0,6.92,2.35c3.28.23,6.78.13,9.66,2.31a2.93,2.93,0,0,0,2.5.36c2.8-.69,6,.34,8.45-2.07a1.67,1.67,0,0,1,1.95-.31c0,1.29-1.56,1.23-1.79,2.26A3.28,3.28,0,0,1,387,538.43Z" transform="translate(-177.82 -0.43)"/><path class="cls-2" d="M570.86,89.63c-1-.94-.8-2.28-1.12-3.46-3-10.77-5.94-21.56-9-32.3-2.1-7.3-4.4-14.53-6.6-21.8a4.87,4.87,0,0,1-.07-1.14c1.75,2.07,1.92,4.76,2.68,7.19,4.45,14.36,8.77,28.76,12.39,43.36C569.77,84.18,570.83,86.79,570.86,89.63Z" transform="translate(-177.82 -0.43)"/><path class="cls-2" d="M388.6,215.49a36.43,36.43,0,0,1-3.6,15.67A129.8,129.8,0,0,1,388.6,215.49Z" transform="translate(-177.82 -0.43)"/><path class="cls-2" d="M325.58,516.49c-1.53,1.32-3.28,2.33-4.16,4.25-.13.28-.62.46-1,.55-.56.13-1.26.77-1.7.1s.26-1.23.72-1.55C321.38,518.54,323.19,517,325.58,516.49Z" transform="translate(-177.82 -0.43)"/><path class="cls-2" d="M383.6,235.94c1.07,1.74-.06,3.48-.15,5.19-.15,2.83.45,5.61.21,8.42C381.87,245,382.49,240.48,383.6,235.94Z" transform="translate(-177.82 -0.43)"/><path class="cls-2" d="M383.53,251.17a16,16,0,0,0-3,3C380.46,252.14,381.64,251.31,383.53,251.17Z" transform="translate(-177.82 -0.43)"/><path class="cls-2" d="M572.32,95.3A8.29,8.29,0,0,1,571,90.44,9.89,9.89,0,0,1,572.32,95.3Z" transform="translate(-177.82 -0.43)"/><path class="cls-3" d="M468,441.11c1.27-1.86,2.25-.11,3.69.11-1.41.77-2.41-.32-3.46.07A.18.18,0,0,1,468,441.11Z" transform="translate(-177.82 -0.43)"/><path class="cls-2" d="M574.35,103.37c-1.07-1-.89-2.27-1-3.5A5.46,5.46,0,0,1,574.35,103.37Z" transform="translate(-177.82 -0.43)"/><path class="cls-2" d="M573.21,99.06A3,3,0,0,1,572.5,96,5.29,5.29,0,0,1,573.21,99.06Z" transform="translate(-177.82 -0.43)"/><path class="cls-2" d="M575.12,106.68a2,2,0,0,1-.62-2.36A2.87,2.87,0,0,1,575.12,106.68Z" transform="translate(-177.82 -0.43)"/><path class="cls-2" d="M379.3,256.41a1,1,0,0,1-.93,1.25C378,256.73,378.53,256.48,379.3,256.41Z" transform="translate(-177.82 -0.43)"/><path class="cls-2" d="M374.94,271.74c.61.25.62.66.33,1.17C374.63,272.67,374.14,272.39,374.94,271.74Z" transform="translate(-177.82 -0.43)"/><path class="cls-2" d="M377.56,261c.54.34.46.63-.08.88C377.22,261.55,377.19,261.25,377.56,261Z" transform="translate(-177.82 -0.43)"/><path class="cls-2" d="M384.82,232a.76.76,0,0,1-.41,1.14C384.3,232.65,384.27,232.22,384.82,232Z" transform="translate(-177.82 -0.43)"/><path class="cls-2" d="M377.79,259a2.25,2.25,0,0,1,.1.31s-.1.05-.16.08l-.16-.34Z" transform="translate(-177.82 -0.43)"/><path class="cls-2" d="M366.57,81.23c-1.13,5-4.11,9.23-5.62,14.07a80.71,80.71,0,0,1-5.25,12.43c-.35.68-.54,1.72-1.42,1.73-2.4,0-2.29,1.64-2.25,3.26,0,1.07-.07,1.71-1.47,2.12-2,.6-2.38,2.9-3.16,4.64-.31.69-.16,1.6-1.19,1.78,0-2.36,1.29-4.23,2.26-6.22,5.11-10.56,11.12-20.64,16.56-31C365.51,83.07,365.54,81.86,366.57,81.23Z" transform="translate(-177.82 -0.43)"/><path class="cls-2" d="M224.34,125c-2.71-1.15-4-2.59-4.59-4.88C222,121.36,222.89,123.46,224.34,125Z" transform="translate(-177.82 -0.43)"/><path class="cls-2" d="M371.22,73.09a23,23,0,0,1-4.32,7.64A22.35,22.35,0,0,1,371.22,73.09Z" transform="translate(-177.82 -0.43)"/><path class="cls-2" d="M348.55,124.15c2.34.15,3.33,2.16,4.81,3.5C351.06,127.43,350.09,125.39,348.55,124.15Z" transform="translate(-177.82 -0.43)"/><path class="cls-2" d="M285,159c1.8-.41,3.47,0,5.75,1-2.42-.08-4.21.27-5.72-1Z" transform="translate(-177.82 -0.43)"/><path class="cls-2" d="M372.6,71.15c.22.95-.23,1.4-1.12,1.54A1.91,1.91,0,0,1,372.6,71.15Z" transform="translate(-177.82 -0.43)"/><path class="cls-2" d="M285,158.95a4.23,4.23,0,0,1-2.61-.18c1-.5,1.81-.64,2.58.22Z" transform="translate(-177.82 -0.43)"/><path class="cls-1" d="M223.18,137.61c-2,.61-3-.41-4.19-1.46A6.28,6.28,0,0,1,223.18,137.61Z" transform="translate(-177.82 -0.43)"/><path class="cls-2" d="M497,69.14a2.25,2.25,0,0,0,0,1.95,3.66,3.66,0,0,1-1.16,5c-.86.52-1.16.75-2.05-.62-1.45-2.22.48-4.24-.53-6.31-.32-.65,1.31-2.13,2.61-2.05S496.79,68.61,497,69.14Z" transform="translate(-177.82 -0.43)"/><path class="cls-3" d="M485.85,529.46c.11-1.4.37-2.6-1.15-3.36-1.18-.59-.5-1.23.29-1.66,2-1.08,1.84-2.43.58-4s-1.09-3.2-1.06-4.91c0-1.5.18-3-1.31-4a1.64,1.64,0,0,1-.45-.53c-.83-1.4,1.57-2.37.92-2.93-1.27-1.08-1.19-1.8-.3-2.87,1.23-1.46,1.29-3.29,1.62-5,.13-.67-.53-2.3,1.31-1.22.06,0,.31-.23.47-.36-1.18-1.31.24-3.36-1.4-4.63-1.3-1-1.14-4.81.11-5.73.23-.17.72-.33.85-.22,2.17,1.85,3.22-.91,4.87-1.21.89-.16,1-1,.19-1.57-.39-.31-.81-.59-.38-1.12s1-.23,1.47,0a.7.7,0,0,1,.21.11c.63.68,1.13,1.62,1.91,2,1.44.72,1-.85,1.43-1.43.5-.76,1.73-.91,1.7-2.1,0-1,1-.72,1.53-1.18-1.33-1.14-2.75-2.06-1.33-4.24,1-1.58-.12-2.84-2.52-2.95.76-1.19,1.36-2.38.18-3.6a.91.91,0,0,1-.08-.87c1.83-2.32-.68-3.87-1-5.79-.24-1.28-1.51-.11-2.4-.71,2-1,2.26-2.35.71-3.89-.1-.1-.19-.35-.14-.43,1.33-2,.18-3.61-.43-5.54-.86-2.7-2.17-4.66-4.75-5.76-.44-.19-1-.38-.73-1s.82-.4,1.25-.34c2.4.31,4.79.72,7.19,1a128,128,0,0,0,24.33,0c2.46-.2,5,.38,7.37-.93.71-.4,1.4,0,1.61,1.11a6.61,6.61,0,0,1,0,2.93c-1.29,3.73-.53,7.62-1.29,11.44-.95,4.8-1.14,9.8-2.13,14.65-.8,3.92-1.34,7.9-3,11.64-1.24,2.89-1.75,6-3.08,8.93a80.2,80.2,0,0,1-4.89,8.93c-4.85,7.79-10.49,15.22-12.05,24.6a32.94,32.94,0,0,0-.62,8.62c.28,2.9-.56,3.71-3.45,4.35-4.55,1-9,.06-13.54-.17-2.91-.15-2.66-2.38-2.54-4.14.19-3,1-6,1.29-9C483.32,528.8,484.62,528.74,485.85,529.46Z" transform="translate(-177.82 -0.43)"/><path class="cls-3" d="M343,458.33c-2.07-.2-3-1.08-2.86-3,.06-.59-.34-1-.66-1.46a3.05,3.05,0,0,1,1.79-4.45c.7-.2,1.91-.85.81-1.52-1.87-1.15-2.48-2.57-1.94-4.88a26.93,26.93,0,0,0-2.8,1.58c-2.27,1.5-2.58-.46-3.16-1.58-.44-.85-.29-1.7,1.13-2,2.55-.48,2.71-1.21,1.59-3.71-.69-1.55.84-2.52,1.55-3.48s.52-1.3-.12-1.88c-1-.93-1.93-1.87-1.18-3.44.2-.43-.13-.94-.49-1.24s-.85.07-1.19.36c-1.72,1.46-1.89.35-1.93-1.13a6.49,6.49,0,0,0-4.74-6.17c-1-.34-1.05-.88-.51-1.53a3.45,3.45,0,0,0,.81-2.61c-.45-1.56-2.06-2.86-.63-4.67-1.66-1.34-1.85-3.58-3.12-5.16a6.61,6.61,0,0,1-1.34-6.32,3,3,0,0,0-.35-2.72c-1.4-1.71-.93-5-4.22-5.15-.16,0-.32-.33-.45-.51-1.72-2.38-2.84-5.19-5.14-7.22a7.06,7.06,0,0,1,4.15,2.11c2.7,2.41,5.94,3.92,8.92,5.84q8.19,5.3,16.85,9.83c2.68,1.41,4.4,3.87,6,6.72,3.68,6.5,5.52,13.61,8,20.48,2.76,7.59,5.19,15.3,7.47,23.05.7,2.38,1.3,4.57.71,7-.52,2.18.89,3.86,1.8,5.57a19.05,19.05,0,0,1,1.73,4.51c.8,3.16,1.6,6.42,4.26,8.77,1.31,1.16,1.08,3.1,1.81,4.63a26.62,26.62,0,0,1,2.4,7.3c.2,1.29,1,2.55-.72,3.45-.43.23-.33.83-.12,1.29a2.72,2.72,0,0,1-1.61,4c-3.11,1-3.84,3.1-3.25,5.8.69,3.18.43,6.59,2.1,9.55a.82.82,0,0,1-.28,1.22,5.74,5.74,0,0,0-1.22.7c-1.56,1.68-2.51,1.32-4.1-.34s-3.56-2.49-3.78-5.06c-.06-.75-5.82-2.2-6.47-1.72a1.71,1.71,0,0,0-.43.78c-.18.5.17,1.53-.92,1.1-.77-.3-1.38-1.24-.91-1.92,1.32-1.9-.12-4.1,1.11-6.21,1-1.65-.67-4-1-6.07-.24-1.66-1.34-3.17-.78-5a1.36,1.36,0,0,0-.49-1.47c-3.76-3.28-3.77-3.32-.74-7.21.34-.43.78-.79,1.07-1.24a1,1,0,0,0-.34-1.44.94.94,0,0,0-1.29.07c-.59.62-.69,2-2,1.51s-1.81-1.61-2.54-2.45a3.51,3.51,0,0,1-.84-4.06c.51-1,.07-2.12-.45-3.16-1.33-2.67-2.54-5.4-3.9-8.07a2.71,2.71,0,0,0-1.61-1.59c-1.54-.48-.42-2-.93-2.94S342.38,459.09,343,458.33Zm-12.07-41.91c-.59,0-.65.3-.62.58s.16.66.34.72c.42.14.48-.28.48-.56A2.75,2.75,0,0,0,330.91,416.42Z" transform="translate(-177.82 -0.43)"/><path class="cls-3" d="M474,325.58a7.69,7.69,0,0,0,3.21-5.42c.28-2.4,1.24-4.73,1.59-7.13a6.78,6.78,0,0,1,1.15-3.24c.46-.62,1-1.17.14-2-.48-.44-.18-1.07.39-1.34s.74.35,1,.69c1.69,2.16,2.34,4.43.66,6.9a3,3,0,0,0-.4,1.8c0,.75.29,1.18,1.11,1.18s1.32-.29,1.18-1.08c-.29-1.68.7-2.64,1.84-3.51.91-.69,1.78-1.26,1.24-2.68-.29-.78.57-.86,1.05-1.23,1.4-1.07,3.24-1.59,4-3.47.48-1.15,1.88-1.25,2.82-1,1.2.31.86,1.45.52,2.38a7.55,7.55,0,0,0-.53,1.8,1.43,1.43,0,0,0,1.17,1.56c.79.16.88-.42,1-1.18.16-1.46,1.77-1.62,2.68-2.42.5-.44,1.31-.52,1.9-.88,1.43-.89,2-.34,2.16,1.14.05.51-.24,1.21.46,1.43s1-.36,1.41-.65a11.66,11.66,0,0,0,5.35-8c.5-2.36,2-4.51,2.94-6.79,1.12-2.7.65-5.56.71-8.37,0-1.11-.31-2.37.82-3,2.25,6.07,2.21,12.49,3.37,18.73-.8.15-.78-.34-.94-.66-.37-.72-.83-1.43-1.77-1.27s-1,1-1,1.85c0,1.08-.76,2.22.67,3.13a1.13,1.13,0,0,1-.38,1.93c-1.92.67-1.9,2.21-1.66,3.68.51,3.16-.51,5.63-2,8.49s-2.5,4.92-5.77,5.38c-.45.06-1.31.5-1.1,1.3s1,.61,1.6.59c2.3-.1,4.6-.22,6.9-.4,3.94-.31,7.79.51,11.67.94,1,.11.59,1.12.84,1.69a1,1,0,0,1-.42,1.41,1.75,1.75,0,0,1-1.79-.21c-3.23-2.77-7.15-2.46-11-2.38a15.65,15.65,0,0,1-2.27,0,15.91,15.91,0,0,0-9.59,1.89,1.64,1.64,0,0,1-1.55.16,2,2,0,0,0-2,.13c-2.21,1.35-4.63,1.53-7.14,1.63-1.42.06-2.91,1.12-3.54-1.12-.1-.35-.54-.14-.84-.11-3.15.34-6.18.46-8.59-2.26C476.49,324.69,475.39,326.14,474,325.58Z" transform="translate(-177.82 -0.43)"/><path class="cls-3" d="M530.72,358c-.18,1.48-1.14.77-1.54.54-3.32-1.88-7.12-2-10.7-2.65a28.44,28.44,0,0,0-9.12,0c-3.83.52-6.73-1.12-9.6-3.14-.32-.22-.61-.61-.34-1a1,1,0,0,1,.85-.21,5.38,5.38,0,0,1,1.51.6,11.53,11.53,0,0,0,6.45,1.71c6.28-.2,12.43.91,18.58,1.93A6.13,6.13,0,0,1,530.72,358Z" transform="translate(-177.82 -0.43)"/><path class="cls-3" d="M517.3,423.79c4.46.46,8.86.05,13.2.83a8,8,0,0,1,2,.57c.71.34.78,1.37.24,1.5-2.35.58-3.07,2.46-3.72,4.44-.31-.22-.54-.32-.53-.39.27-2.56-1-3-3.11-2.28a2.84,2.84,0,0,1-3.66-1.46c-.61-1.1-1.73-.6-2.4-1.12S517.69,424.94,517.3,423.79Z" transform="translate(-177.82 -0.43)"/><path class="cls-3" d="M503.64,548.58c.07.75-2.55,2.53-3.08,2.23-2.2-1.24-4.2-.41-6.32.3a48.75,48.75,0,0,1-5.86,1.36,1.78,1.78,0,0,1-2-.88c-.36-.64.34-1,.61-1.39.59-.91,1.21-.28,1.77.12a1.45,1.45,0,0,0,1.34.26c3.53-1.29,7.49-.63,10.91-2.43C502,547.61,502.84,548.25,503.64,548.58Z" transform="translate(-177.82 -0.43)"/><path class="cls-3" d="M515.19,587c.72.18,2.06.17,2.08,1.4s-1.25.89-2,.87a12.08,12.08,0,0,0-3.21.45,1.31,1.31,0,0,1-1.78-1c-.22-1.19.74-1.12,1.5-1.21Z" transform="translate(-177.82 -0.43)"/><path class="cls-1" d="M318.51,342.62c-1.55,1-3,2-4.7,2.13-.48,0-1.24.23-1.35-.52s.58-1,1.06-1C315.17,342.93,316.84,342.8,318.51,342.62Z" transform="translate(-177.82 -0.43)"/><path class="cls-3" d="M514.88,423.77c-2.63.14-5.35,1.07-8.29-.77C509.76,422.31,512.29,423.4,514.88,423.77Z" transform="translate(-177.82 -0.43)"/><path class="cls-2" d="M330.91,416.42a2.75,2.75,0,0,1,.2.74c0,.28-.06.7-.48.56-.18-.06-.32-.46-.34-.72S330.33,416.37,330.91,416.42Z" transform="translate(-177.82 -0.43)"/></g><path class="cls-2" d="M193.07,133.67a4.22,4.22,0,0,1-4.16-3.16q3.32,2.78,6.76,5.41a21.38,21.38,0,0,0-10.76-6.59c-1.26-.32-3-.3-3.44.92s1.14,2.55,2.56,2.87,3.17.58,3.71,1.94l-6.69.17c-.63.55-.29,1.66.41,2.12a5.87,5.87,0,0,0,2.41.61,9.09,9.09,0,0,1,5.24,2.77,14.67,14.67,0,0,0-6.05,1.4c-.35.16-.72.38-.81.76-.17.76.89,1.11,1.66,1.18a23.33,23.33,0,0,1,13,5.27" transform="translate(-177.82 -0.43)"/><path class="cls-2" d="M193.07,131.17l-1.75-1.32-4.18,2.43c2.38,2,4.81,3.91,7.26,5.8s4.88-1.94,3-3.93c-3.2-3.43-11.6-10.1-16.68-6.76a4,4,0,0,0-1.35,5.27,5.6,5.6,0,0,0,2.49,2.33c.88.45,3.11.48,3.67,1.34l2.16-3.76-6.69.17a2.48,2.48,0,0,0-2.16,1.24c-3,6.25,5.52,5.79,8.45,8.54l1.77-4.27c-2.85.16-11,1.17-9.09,5.94.69,1.73,2.23,2.09,3.89,2.38,4.18.74,7.79,1.87,11.2,4.54,2.51,2,6.07-1.55,3.54-3.54a28.54,28.54,0,0,0-8.39-4.72c-1.06-.36-3.62-1.47-4.72-1.1q-.9-.29-.49,1.13-.77,1.67.44,1a26.84,26.84,0,0,0,3.64-.63c2.06-.11,3.43-2.71,1.77-4.27a13.23,13.23,0,0,0-3.74-2.61,12,12,0,0,0-2-.68,8,8,0,0,0-1.21-.22q-1.16-.49-.7,1L181,137.73l6.69-.17a2.52,2.52,0,0,0,2.16-3.76c-.66-1-4.7-4.43-5.42-2.57-.31.8,3.46,1.83,4.5,2.43a21,21,0,0,1,4.93,4l3-3.93q-3.18-2.45-6.25-5c-1.69-1.4-5.2-.13-4.18,2.43a7.25,7.25,0,0,0,6.58,5c3.2.34,3.17-4.66,0-5Z" transform="translate(-177.82 -0.43)"/><path class="cls-2" d="M184.26,138.15l-6.43-1.46a3.89,3.89,0,0,0,4.32,1.56" transform="translate(-177.82 -0.43)"/><path class="cls-2" d="M184.31,130.28a3.68,3.68,0,0,0-3.81,1.42,1.67,1.67,0,0,0,2.24.39c.65-.54.27-1.9-.57-1.82" transform="translate(-177.82 -0.43)"/><path class="cls-4" d="M491.84,605c7.38,7,23.1,7.23,31.06,1.15s7-18.18-1.43-23.45c-3.51-2.19-6.73,3.36-3.24,5.54,6.66,4.15,3.91,12.37-2.73,14.62-5.37,1.82-14.8,1.72-19.14-2.39-3-2.84-7.54,1.69-4.53,4.53Z" transform="translate(-177.82 -0.43)"/><path class="cls-2" d="M523.94,588.23c3,2.66,5.4,6.65,4.56,10.59a11.46,11.46,0,0,1-4.58,6.4,21.74,21.74,0,0,1-17.24,4,43,43,0,0,1-9.93-3.79,5.74,5.74,0,0,1-3.87-4.46l-1.57-4.83" transform="translate(-177.82 -0.43)"/><path class="cls-2" d="M522.17,590c3.36,3.23,5.63,7.59,2,11.66a17.76,17.76,0,0,1-10.27,5.17,21,21,0,0,1-11.31-1.53c-2.32-.91-4.24-1.68-5.94-3.53s-2.15-3.9-2.93-6.32c-1-3-5.82-1.74-4.82,1.33.9,2.77,1.52,6.52,3.58,8.76s5.27,3.16,7.87,4.23c5.9,2.43,12.1,3.11,18.22,1,4.74-1.61,9.94-4.87,11.82-9.76,2.13-5.51-.74-10.8-4.69-14.59-2.32-2.23-5.86,1.3-3.54,3.54Z" transform="translate(-177.82 -0.43)"/><path class="cls-2" d="M350.8,517.28c-10.54,1.26-29.87,2.77-39.77,6.62a7.52,7.52,0,0,0-2.78,1.59,2.67,2.67,0,0,0-.65,3,3.86,3.86,0,0,0,2.5,1.59,64.24,64.24,0,0,0,23.38,2.52" transform="translate(-177.82 -0.43)"/><path class="cls-2" d="M350.8,514.78c-13.15,1.54-28.43,1.47-40.74,6.83-4.49,2-7.62,7.12-2.2,10.23,3.38,1.95,8.45,2.34,12.25,2.83a69.79,69.79,0,0,0,13.37.38c3.2-.2,3.22-5.2,0-5a64.52,64.52,0,0,1-20.08-1.71c-4.53-1.15-1.95-2,1-2.95a68.83,68.83,0,0,1,6.92-1.71c9.74-2,19.67-2.76,29.52-3.91,3.16-.37,3.2-5.37,0-5Z" transform="translate(-177.82 -0.43)"/></svg>