<svg id="Layer_1" data-name="Layer 1" xmlns="http://www.w3.org/2000/svg" viewBox="0 0 400.86 604.83"><defs><style>.cls-1{fill:#fefefe;}.cls-2{fill:#744f3a;}.cls-3{fill:#bd997d;}</style></defs><title>engardePosition2</title><g id="engardenumber2_edit.psd"><path class="cls-1" d="M270.3,574.22q-39.83,0-79.66.05c-2,0-2.43-.34-2.43-2.39q.09-284.36,0-568.73c0-2.19.6-2.53,2.61-2.53Q388.64.7,586.45.63c2,0,2.63.3,2.63,2.52q-.1,284.36,0,568.73c0,2-.4,2.52-2.41,2.41-3.69-.2-7.39-.06-11.09-.06-3.3-4.9-7.4-9.15-11.11-13.71-2.48-3-5.74-5.76-4.79-10.42,1-5,.2-10.08.93-15,.69-4.63.2-9.32,1.59-13.93,5.58-18.52,9.83-37.32,11-56.71a73,73,0,0,0,.38-8.32,71.9,71.9,0,0,0-2.22-15.85,12.05,12.05,0,0,1-.23-5c1.16-7.91,2.12-15.82.41-23.82-.38-1.79-1.83-3.39-1.14-5.4.62-.67.29-1-.42-1.23l-.34-2.57c.48-1.47-.11-2.82-.48-4.19-1.11-4.07-2.3-8.08,1.22-11.74a2,2,0,0,0-.42-3.17l-1.72-8.05c.66-.64.32-1-.33-1.35l-1.49-5.88c0-3-.39-6-2.18-8.55l0-1c.28-5.36-1-10.55-1.77-15.79-.44-3.08-.16-6.36-1.87-9.2l-1.21-5.31c1-.54.47-1.3.3-2-1.38-5.92-2.7-11.86-4.18-17.76-.26-1,.48-2.62-1.28-3.07l-.93-5.39c.86-.7.61-1.15-.34-1.43-.95-7.29-1.45-14.68-3-21.86-1.66-7.88-2.61-16.18-8.47-22.55-.89-1-.65-2-.3-3.14,1.29-4,2.38-8.17,3.81-12.16,5.58-15.56,12.3-30.71,17-46.6,1.6-5.47,4.32-10.58,5.27-16.23q3-18.13,4.7-36.44c1.06-11.87,2.65-23.7,4.09-35.54.64-5.25,2-10.3,5.43-14.52,2.28-2.39,5.75-4.71,4.5-8.32-2-5.77-3.81-11.61-5.8-17.38-3.19-9.27-6.49-18.52-8.16-28.25-.58-3.37-2.27-6.23-5.71-7.65-5.33-2.19-10.72-3.93-16.59-2.5-.76.19-1.29.12-1.56-.7a19.12,19.12,0,0,1-1.34-4c-.23-2.51-1.61-3.15-3.82-3.13-4.81,0-9.66.39-14.42-.08-10.36-1-19.87-4.22-26.71-12.77-.42-.52-.69-1.17-1.52-1.09-1.45-.7-2.64.26-3.8.75-12.42,5.28-24.81,10.63-37.21,16-2-.16-2,1.34-2.14,2.63-.29,2.73-.52,5.47-.72,8.21-.37,5-.36,5,4.75,4.72l1.93.24c0,1.43-.55,2.73.08,4.32a8.5,8.5,0,0,1,0,6c-1.94,5.23.41,9.64,3.07,13.7,2.27,3.45,3.3,11,1.23,14.64a2.4,2.4,0,0,0,2.24,3.68c.92,0,1.81-.08,1.58.94-.72,3.25.62,6.61-.66,9.83-.37.94-.86,1.86-1.8,1.62-3.87-1-5.13,2.23-7.18,4.19-1.12,1.08-.75,2.81-1.6,4-3.37,4.59-5.07,9.86-6.36,15.31-3.49,1.73-1.81,4.39-1.22,6.85l-.11,1.26c-2.42.53-5,.17-7.28,1.52-1.15-.33-.56-.82-.17-1.39,1.86-2.73,3.68-5.49,5.53-8.24,1-1.48.65-2.67-.64-3.78-.91-.78-1.88-2.31-3-1.27-2.28,2.06-5.58,3.82-5.94,7-.39,3.42-2.67,5-4.5,7.22a2.68,2.68,0,0,0-.82,2.09c-1.81-.08-2.33,2-3.88,2.35-.5-.62-.21-1.25-.09-1.91.95-5.21,1.93-10.42,2.76-15.66.15-1,.67-2.37-.67-3s-1.76.75-2.53,1.47-1.35,1.69-2.52,1.34c-.69-.21-.82-.95-.94-1.65-.71-4.38-1.11-5.36-3.78-8.05a2.82,2.82,0,0,1-1-2c-.23-4.59-5.38-6.28-6.26-10.53-.12-.59-1.17-.48-1.83-.33-2.53.57-5,1.2-7.16-1.1a2.35,2.35,0,0,0-3.34,0,3.2,3.2,0,0,0-1.36,2.79c0,7,4.9,11.18,8.88,15.92.69,1.21.85,2.71,2,3.69-1.85,1.58-2.52-.08-3.29-1.25A21.75,21.75,0,0,0,400.82,99c-.29,2-.24,3.6,1,5.21,1.42,1.89,1.75,4.3,2.1,6.61.19,1.27,0,2.84-1.38,3-3.1.31-1.49,1.17-.39,2.05.69.56,1.43,1.05,2.36,1.73-5.15,2.89.72,4.66.77,7.5-1.25-.66-2.15-1.24-3.13-1.63-2.46-1-4.75.2-4.76,2.37-4.21-2-8.5-3.74-12.6-5.91-2.82-1.49-4.78-1.38-6.12,1.7-1.42.51-1.7,2-2.38,3.05-3.95,6-8.43,11.71-10.22,19-1.22,5-3.61,9.76-10,9.81-3.73,0-7.36,1.39-11.12.81-4.85-.76-9.43,1.85-14.24,1.19-3.55-.49-7-.9-10.51.52a6.35,6.35,0,0,1-4.58-.24c-3.17-1.51-6.34-.94-9.5-.52a23.2,23.2,0,0,1-5.33.23c-5.86-.58-11.73-1.14-17.54-2a214.52,214.52,0,0,1-21.59-4.13c-1.28-.34-2.88-1.12-2.74-2.1.62-4.41-2.61-7.12-4.25-10.49-.48-1-1.65-2.53-2.71-1.76-1.25.91.58,1.78,1,2.71a7.54,7.54,0,0,1,.64,1.85c.06.37-.14,1-.4,1.13a1.37,1.37,0,0,1-1.2-.32c-3.07-3.16-6.23-6.24-9-9.66-2.6-3.17-4.61-7.24-9.52-7.57l-.09-.06c-.36-2.58-2.71-2.94-4.47-3.84-.63-.32-1.53.25-1.23,1.36-.53,4.66,3.57,5.91,6.17,8.18,1.24,1.09,2.71,2,3.42,3.48.35.75.31,2-1.15.86-3-1.78-6.54-1.75-9.56-3.34-.4-.21-1.16-.26-1.13.13.18,2.26-2.21,1.28-2.87,2.4l-.4,0c-.12-.39-.35-.6-.78-.48l-.07-.08c-.11-.3-.13-.75-.34-.87-6.38-3.68-13.28-6.18-20.19-8.63-.88-.31-2.44-1.27-3.06.68a5.62,5.62,0,0,0-.62,1.86c.22,5-2.52,3.55-5.16,2.47-.11,0-.35.2-.52.32.22,2.54,1.93,3.84,4,4.87l-.7,2.2-.82.68c-1.88,1-1.88,1.74,0,3l.07.13c-.16.45,0,.66.48.69a9.26,9.26,0,0,0,3.37,2.77c1.8,2.4,5,2.29,7.19,3.9.55.4,1.27.85.9,1.56a1.13,1.13,0,0,1-1.76.16c-1.3-1.25-2.32-.52-3.09.47s-1.75,2.24,0,3.38a12.09,12.09,0,0,0,5.51,3.57c4.74,1.68,9.5,3.58,13.56,6.53,10.34,7.53,22.18,9.73,34.47,10.11,5.27.16,10.08.63,15.11,2.77,11.15,4.74,23.34,5.48,35.18,7.39,9.68,1.57,19.5,2.1,29.29,2.77,11.25.77,22.48,1.82,33.72,2.75a5.64,5.64,0,0,0,4.94-1.53c6.7-7.05,13.89-13.61,20.26-21a268.38,268.38,0,0,0,19.76-26.67,11,11,0,0,1,1.82.82c3.37,2.3,3.59,2.25,6-1.18.83-1.19,1.73-2.33,2.66-3.44.65-.77,1.61-1.16,2.3-.25,1.14,1.51,2.66,2.65,2,5.24-2.75,10.57-5.32,21.2-7.07,32-1.37,8.45-2.76,16.94-1.18,25.57.26,1.44.54,2.9,2.1,2.88,1.83,0,3.14-2.21,2.78-3.19-1.25-3.39,1.13-4.61,2.94-6.33a7.54,7.54,0,0,0,2.15-2.94c2.77-7.78,7.93-14.42,10.83-22.1,1.64-4.33,4.07-8.44,4.47-13.21l.15-.23-.12.26c-2.2-.16-4.17-.1-3.84,3a4,4,0,0,1-.69,1.85,31.14,31.14,0,0,0-3,9.72,20.73,20.73,0,0,1-3.65,9.53,19.1,19.1,0,0,1,0-3.45c1.48-6.82,3.29-13.54,5.19-20.26.78-2.75,2.32-5.51,1.38-8.59h0a.55.55,0,0,0-.46-.78l-.13-.06.08-.21-.15-.16-.14-4.78,1.81.22c.12,2.72.82,5,4.24,4.55,2.79-.37,4.85-2.87,8-2.63,1.26.1,1.34-1.62,1.41-2.7a36,36,0,0,1,2.07-8.83l0-.71-.28-4.72.32-2.64a1.82,1.82,0,0,0,.2-.53c.68-.15,1.47.1,2-.55l-.08,1.39-.22,0,.23-.07c.43,5.11,0,10.07-2.39,14.72-.81,1.57-.91,2.8,1.48,2.55.05,1.48-1,2.47-1.71,3.55-3.75,5.36-7.75,10.56-10.7,16.42-5.78,11.46-11.45,23-17.13,34.48-.67,1.35-2.31,2.44-1.26,5.25.77-3.3,3.29-4.25,4.58-6.29,4.66-7.36,9.8-14.46,13.89-22.11,6.3-11.78,14.94-21.94,22-33.2a7.64,7.64,0,0,0,3.39-2.38c.86-.93,1.8-1.89,3.07-.49-4.09,4.12-7.11,9.08-10.73,13.57-4.83,6-8.8,12.59-13.37,18.77-4.13,5.6-7.34,11.87-11,17.82q-9.38,15.18-19.62,29.79c-1.23,1.75-2,4-4.35,4.79.09-.93,1-1.65.72-2.69l.3-.09-.23-.25-.11.3c-1.45-.3-2.48.16-2.68,1.7-.12.93-.65,2.28.46,2.7s.75-1.38,1.57-1.73c-1.2,4.13-2.4,8.21-1.44,12.63.79,3.66,1.11,3.92,4.39,2a102.55,102.55,0,0,0,29.47-25.54,215.27,215.27,0,0,0,17.9-25.85c4.24-7.32,8.76-14.48,12.35-22.22,2.11-4.56,4-9.34,6.8-13.64a34.4,34.4,0,0,0,5.31-11.82l1.8-1c2.29,1.25-.67,3.59,1.09,5,1.4,1.16.85,2.74.18,4-3.62,6.85-7.27,13.69-11.47,20.22-6.4,9.94-12.59,20-19.7,29.5-5.73,7.65-11.26,15.46-17,23.14-6.64,8.94-14.19,16.52-24.8,20.51-2.19.82-4.51,1.32-6.7,2.16-2.67,1-2.86,2.47-.84,4.48a4.06,4.06,0,0,0,3,1.21c3.92-.2,7.54,1.61,11.62,1.12,6.53-.79,13.15.22,19.72.4,10.7.29,21.37.28,30.87-.26-1.85.6-2.76-2.77-5.77-3.1,2.94-1.24,5.39-2,7.51-3.22,3.74-2.21,6-6,8.93-9.06,5.11-5.32,11.09-9.71,14.23-16.86,1.25-2.85,4.17-5.1,6.86-7.11.59-.44,1-1.55,1.84-1.1,1,.53.55,1.56.19,2.36-1.75,3.95-3.28,8-5.41,11.76-1,1.68-.83,4-2.88,5.1-1.86,1-4.1,1.87-2.77,4.83a1.26,1.26,0,0,1-1,1.58c-2.9.5-4.46,3.35-7.3,3.83,1,3.12,5,.37,6.06,3.12-5.13,3.91-11.45,4.77-17.71,7.05,4.06.53,7.74-.5,10.84,2.09l-4.29.56c2.64,1.19,4.21,2.63,7,2.82,3.15.22,6.88,0,9.59,2.56-16.11-.44-32.18,1.35-48.31.42-14.06-.81-28.23,0-42.16-2.83-1-1.09-2.57-.78-3.63-1.46-2.76-1.78-4.71-1-7.1,1-2.67,2.25-4.55,5.31-7.81,7-1.18.62-3,2.17-2.24,4.39-.37,1.51-1.5,2.82-1.21,4.5-.2,0-.54,0-.6.06-3.85,7.09-10.66,11.69-15.24,18.25-3.19,4.56-7.82,8-11.82,12-4.34,4.29-8.31,9-12.41,13.55-3.49,3.87-7.39,7.42-10.07,12h0c-1.54,0-1.84,1.4-2.58,2.34-2.07,2.63-3.89,5.54-6.33,7.77-11.86,10.81-20.55,24-29.17,37.36a5.4,5.4,0,0,0-.58,4.17c1.35,7.79,2.53,15.6,4,23.36,3.21,16.68,5.84,33.48,9.86,50,2.08,8.56,3.59,17.27,6.46,25.63l.34,2.13a3.88,3.88,0,0,0,1,4l2.34,7.18a.91.91,0,0,0,.34,1.55l.81,2.48a8.07,8.07,0,0,0,1.89,5.61l2.51,5.88c-.29,2.52,2.56,3.86,2.37,6.37-.47,6.19.73,12.33.72,18.51l-.3,8.67c-.64.34-1.16.72-.41,1.45l-.32,1.91a.49.49,0,0,0-.29.76l-.25,1.29a.52.52,0,0,0-.42.71l-2.75,3.41c-4,1.22-7.29,3.74-10.65,6.11l-.82.53a1.6,1.6,0,0,0-1.72.91l-.91.49a1.78,1.78,0,0,0-1.83.84l-.89.46a1.87,1.87,0,0,0-1.84.84l-.06,0a2.7,2.7,0,0,0-2.71,1.25,44.64,44.64,0,0,1-12.42,4.72c-5,1.1-10.09,2.07-14.57,4.66S271.71,568.13,270.3,574.22ZM411.55,58.54c-4.13,1.11-5.41,4.6-6.74,8a1.15,1.15,0,0,0-1,1.05c0,.07.11.16.17.24l.83-1.33,6.74-8c.08-.29.89-.47.14-.9ZM247.67,129.36c-1.59-2.88-4-4.72-7.59-6.25A16.34,16.34,0,0,0,247.67,129.36Zm152.61-9.86c-1.65-1.78-3-3.17-4.26-4.6-.42-.48-.9-.72-1.42-.44s-.44.94-.15,1.43A6.63,6.63,0,0,0,400.29,119.51Zm34.35-70.64c2.6.31,3.88-.52,4.73-2.08A4.52,4.52,0,0,0,434.64,48.87Z" transform="translate(-188.21 -0.63)"/><path class="cls-2" d="M326.16,484l-2.34-7.18c.41-1.52-.25-2.79-1-4l-.34-2.13c1.13-.71.36-1.56.17-2.37-2.76-11.87-5.85-23.66-8.18-35.61-3.79-19.35-7.58-38.7-10.57-58.2-.08-.55-.39-1.14.08-1.58.67-.62,1.22,0,1.76.33,2.36,1.49,4.71,3,7.08,4.48.44.27,1,.74,1.43.05s-.11-1-.57-1.32a11,11,0,0,0-3.69-2.23,1.7,1.7,0,0,1-1.37-2c.18-1.09,1.1-1.31,2-1.53.57-.14,1.25.74,1.65-.15.48-1.56-1.83-2.22-1.25-4,3.89,1.09,6.72,4.21,10.8,4.73-2.36-1.17-.63-4.32-2.91-5.46-1-.48-2.09-1.19-1.6-2.58s1.81-1.2,2.84-1.45a16.14,16.14,0,0,1,3-.15c9.37-.45,18.77-.26,28.08-1.71.7-.11,1.68.14,1.57-1.68-1.93,0-3.9,0-5.87,0-6-.08-12.09.22-18.11-.49-.67-.08-1.81.31-1.69-1,.07-.77.81-.75,1.55-.81a7.78,7.78,0,0,0,6.82-6.93c.07-1.54.41-2.73,2.23-2.63,4.8.26,9.59-.23,14.41.43,6.07.84,12.07-.62,18.24-.7-.13-1.13-.59-1.48-1.11-1.61-5.08-1.22-10.12-2.72-15.27-3.46-3-.43-5.47.57-4.28-4.36.57-2.34,1-2.61,2.84-2.6,3.81,0,7.62.11,11.42,0,1.21,0,3.26.75,3.44-.88.15-1.39-2-1.33-3.18-1.67-3.53-1-7.54-1.33-10.2-3.86-3.33-3.17-7.36-4.56-11.36-6.21-.83-.34-1.8-.26-1.85-1.48h0a19.24,19.24,0,0,1,6-.41q16.61,2.23,33.22,4.46c10.43,1.39,20.94,1.67,31.43,2a49,49,0,0,0,10-.18c-1.91-2.63-4.56-1.78-6.66-2.2-9.3-1.86-18.64-3.49-28-5.13-4.49-.79-9-1.32-13.53-2.1a8.91,8.91,0,0,1-5.63-3.93,3.89,3.89,0,0,1,0-4.44c.92-1.33,2-.18,3.16.13,3.85,1,7.75,2,11.81,1.64.35,0,.65-.45,1.07-.76-.65-.88-2.25-.56-2.1-1.9,4.58-2.45,8.63,0,12.69,1.37,11.55,3.81,23.19,7.27,34.85,10.71,5.14,1.52,10.42.32,15.6,2.86,7,3.45,15.26,3.77,22.94,5.31a153.2,153.2,0,0,0,18.1,2.55,74.83,74.83,0,0,0,15.67-.09c2.39-.31,3.49-1.44,2.8-3.77s-2.52-1.31-3.8-.69a15.86,15.86,0,0,1-7.15,1.32c-10.11,0-20.06-1.44-30-3.07-5.4-.89-10.76-2-16.12-3.08-.92-.19-2.22-.46-2-1.81.23-1.2,1.44-.76,2.27-.79,12.22-.5,24.34,1,36.49,1.81,5.57.37,11.12,1,16.68,1.57,1.42.14,2.57-.21,2.69-1.76s-.45-2.61-2.23-2.72c-1.11-.07-2.24-.58-3.3-.43-3.65.53-4-1.78-4.08-4.43a7.36,7.36,0,0,1,.36-2.95c1-2.66,1.84-5.39,2.78-8.21-1.62-.19-3.15,1-4.6-.18a41.49,41.49,0,0,0,2.34-5.38,3.66,3.66,0,0,1,1.9-2.57c1.64-.65.49,2,2.15,1.91,2.14-4.46,4.87-8.77,6-13.78.37-1.64.51-3.62,2.47-4,2.46-.42,5.35-2,7.21,1.16.78,1.35,1.63,1,2.79.82,3.55-.47,6.64-4.17,10.67-1.49.37.24,1.25-.34,1.9-.45a3,3,0,0,1,2.58.33c1.16,1,2.59,1.29,3.64.38s.63-2.3.33-3.51c-.63-2.52-1-4.76,1.09-7.09,1.54-1.74,0-5.3-2.13-5.08-2.46.26-6.11-1.31-6.91,3.06a1.07,1.07,0,0,1-1.23.89c-.75-.13-.63-.83-.65-1.35a7.36,7.36,0,0,1,2.19-5.75,6.75,6.75,0,0,0,1.7-5.56c-.14-2-1.93-.38-3-1-2.95-1.75-3.65-3.36-2.29-6.49a15.52,15.52,0,0,0,1.06-6.38c0-4.4-1.29-9.22,2.29-13.14,1.4-1.53,1.28-3.83-.38-4.69-1.4-.73-3.14.11-4,2.3-.95,2.53-1.41,5.53-4.31,7.58.26-5.24,1.64-9.66,3-14.21,3-9.86,6.12-19.71,7.5-30,.88-6.54,1.53-13.19,1.92-19.68.45-7.61,1.85-15.17,1.67-22.85-.11-4.82,1.52-9.53.57-14.54a37.45,37.45,0,0,1-.27-7.48c.15-6.8,2.57-13.44,1.36-20.34a1.6,1.6,0,0,1,.25-1.23c2.68-2.65,1.46-6.23,1.39-9.05-.16-7.22.48-16.08,2.92-21,.72,1,.32,2.17.41,3.24s.3,2,1.52,2.3,1.7-.42,2.17-1.48c1.52-3.44,3.31-6.77,3.91-10.56.34-2.15.85-3.13,2.77-5.51-3.9,13.68-10.39,25.92-8.61,40,2-.85,3.8-1.62,5.62-2.42,7.29-3.22,14.94-5.79,20.92-11.4a28.79,28.79,0,0,1,9.34-3.84c.83,2.11,3,3.91,1.55,6.61-.06.11,1.09.89,1.68,1.35-3.45,4.23-4.79,9.27-5.43,14.52-1.45,11.84-3,23.67-4.09,35.54q-1.64,18.33-4.7,36.44c-1,5.66-3.66,10.76-5.27,16.23-4.66,15.89-11.37,31-17,46.6-1.43,4-2.52,8.11-3.81,12.16-.35,1.12-.6,2.17.3,3.14,5.86,6.37,6.81,14.67,8.47,22.55,1.51,7.17,2,14.56,3,21.86-.32.58-.37,1.09.34,1.43l.93,5.39a5,5,0,0,0-.23,1.62c1,4.87,1.61,9.86,3.19,14.53.75,2.21,0,5,2.19,6.7l1.21,5.3-.54,3c-1.3-.84-2.51-3.4-4-1.77s-2.22,1-3.54.5c-.69-.27-1.6-1.55-2.21-.24-.53,1.13.88,1.38,1.57,1.76a14.34,14.34,0,0,1,7.28,8.22c.22.66.6,1.31-.07,1.8s-1.06-.05-1.46-.44a3.53,3.53,0,0,0-4.53-.7l1.36.8c1,.56,2.26,1.21,1.54,2.51-.89,1.61-1.48-.61-2.41-.48s-1.52-1.05-2.61,0a17.57,17.57,0,0,1,5.21,6.06c-1.63-.49-2.76-.85-3.9-1.16s-2.07-.25-2.59.87a1.68,1.68,0,0,0,.92,2.26c3.57,1.76,1.73,2.64-.5,3.51-.52.21-1,.48-1,1.17a2.06,2.06,0,0,0,.39.48c3.15,2.08,8,.52,10.14,5.06.52,1.11,1.77.31,1.83-1,.06-1.52.16-3,1.34-4.21,1.81,2-.61,6.09,3.62,6.56l1.49,5.88a.86.86,0,0,0,.33,1.35l1.72,8.05c-.6.68.24,1.59-.64,2.4-2.85,2.61-4,6-2.35,9.55,1.09,2.34-.59,5.7,2.68,7.15l.34,2.57c-.77.72-.18,1,.42,1.23-.69,2,.75,3.61,1.14,5.4,1.7,8,.75,15.91-.41,23.82a12.05,12.05,0,0,0,.23,5,71.9,71.9,0,0,1,2.22,15.85,73,73,0,0,1-.38,8.32c-1.13,19.39-5.38,38.19-11,56.71-1.39,4.61-.89,9.3-1.59,13.93-.74,4.92.08,10-.93,15-.95,4.67,2.31,7.38,4.79,10.42,3.72,4.56,7.81,8.81,11.11,13.71H537.24c-1.74-2.5-4.1-4.42-4.59-7.9-1.42-10-.49-20,.39-30,.57-6.47,2.75-12.91-1.21-19.06a4.69,4.69,0,0,1-.38-1.28,135.91,135.91,0,0,1-4.52-28c-.26-4.21-1.39-8.41-.68-12.67a127.43,127.43,0,0,0,1.94-28c.42-1.37,1.34-1.81,2.76-1.85,3-.07,6-.32,9-.51,1-.06,2.19.16,2.48-1.15.26-1.15-.36-2.9-1-2.95-2.83-.19-2.69-2.95-4.11-4.3-1.2-1.14-1.56-2.76.65-3.67.7-.29,1.68-1,.57-1.65-1.74-1-2.91-3.51-4.82-3.29-6.17.71-12.17-3.88-18.54,0-2.81,1.7-6.49,2.11-10,1.87-1.75-.12-3.77,0-4.14,2.43s1.79,3.42,3.17,3.7c1.89.38,3.23,2,5.22,1.88a1.17,1.17,0,0,1,1.34,1.18c0,.69-.69.84-1.18,1-1.31.4-3,.81-3.41,1.94-1.14,3.09-3.16,2.48-5.43,1.9a14.8,14.8,0,0,0-3-.16l-.83-1.36c-.6-4.92-1.56-9.74-4-14.16l-.85-1.95a1,1,0,0,0-.49-1.4l-.86-2a4.57,4.57,0,0,0-1.14-3.44l-2.84-6c.25-.59.26-1.11-.42-1.42l-7.69-15.38c.29-.73,0-1.17-.7-1.41l-1.3-2.64c0-1.55-.15-3.06-1.69-4l-6.25-11.72a1,1,0,0,0-.86-1.19l-2.51-4.84a1,1,0,0,0-.85-1.21l-5.87-10.91a1,1,0,0,0-.83-1.2l-5.11-9.6a2.62,2.62,0,0,0-1.63-2.55,2.42,2.42,0,0,0-2.1-1.08c-2.71.65-5.43,1.27-7.41,3.46l-.65.44a1.09,1.09,0,0,0-1.36.93l-.63.44a4.51,4.51,0,0,0-3.4,2.26l-.64.43c-1.44,0-2.19.91-2.76,2.06l-.86.49A11.08,11.08,0,0,0,427,358.3l-.86.73c-1.52,0-2.21,1-2.71,2.25l-1.52,1a3.61,3.61,0,0,0-2.52,2.23l-1.56,1.11a1,1,0,0,0-1.15.83l-3.37,2.64a1.51,1.51,0,0,0-1.8,1.29l-.88.72c-4,2.33-7.75,4.95-10.6,8.67l-.81.74c-2.9.91-4.38,3.56-6.59,5.33l-1.43,1.42c-2,.44-3.58,1.41-4.16,3.54l-.53.49a2.87,2.87,0,0,0-2.58,2l-.77.72c-4.95,2.85-8.74,7.14-13.12,10.7-2,1.62-3.12,1.41-4.91.32-4.1-2.51-8.25-4.94-12.4-7.38-.63-.37-1.36-1.14-2.09-.47s0,1.44.28,2.13c1.14,2.79,2.5,5.5,3.4,8.37,6.85,21.91,7.82,44.71,10.11,67.31.71,7,1.09,14,1.19,21,.15,10.3,1.72,20.45,2.31,30.69.16,2.78-.16,5.79,1.14,8.48l.3,4c0,.1-.15.22-.12.29a3.31,3.31,0,0,0,.34.49l1.22,3.88c-.19.35-.07.59.27.74l.21.67a.51.51,0,0,0,.32.75l.37,1.27c.47,3.68,1.94,7.06,3.08,10.54,1.8,5.5-1.53,12.17-7.11,13.5-3.76.89-7.59,1.79-11.54,1.56-7.43-.43-14.9-1.54-22.29-1.13-7.58.41-15.14.25-22.71.48-1,0-2-.28-2.78.72-1.65.1-3.31.21-5,.29-4.86.23-9.74-.47-14.59.39-4,.12-8.11-.76-12.09.57H270.3c1.41-6.09,6.76-8.12,11.37-10.77s9.57-3.56,14.57-4.66a44.64,44.64,0,0,0,12.42-4.72,3.55,3.55,0,0,0,2.71-1.25l.06,0a1.71,1.71,0,0,0,1.84-.84l.89-.46a1.79,1.79,0,0,0,1.83-.84l.91-.49a1.71,1.71,0,0,0,1.72-.91l.82-.53c4.11-1.06,7.43-3.51,10.65-6.11l2.75-3.41.42-.71.25-1.29c.33-.16.47-.4.29-.76l.32-1.91a1,1,0,0,0,.41-1.45l.3-8.67c1.11-1,.54-2.3.67-3.47.49-4.36-1.24-8.71-.53-13,.63-3.74-1-6.07-3.23-8.44l-2.51-5.88a9.49,9.49,0,0,0-1.89-5.61l-.81-2.48A1.07,1.07,0,0,0,326.16,484Zm241.23-67.61c.94-1,.65-1.78.21-2.18-6.57-6-12-13.42-21.08-16.2a1.07,1.07,0,0,1-.93-1.09c-.37-3.28,1-4.47,4.22-3.43.7.22,1.23.51,1.77-.13s.63-1.36,0-1.79c-1.66-1.18-2.49-3.09-4.88-3.77-3.44-1-6.85-2.77-8.13-6.7-.25-.76-.42-1.8-1.38-1.47s-.87,1.73-.42,2.29c1.35,1.67.45,1.84-1,2.2-3,.74-5.12,2.1-3,5.64a1.25,1.25,0,0,1-.22,1.79c-.68.54-1.19-.11-1.8-.27-2.83-.74-4.77-3.28-7.73-3.71-1.49-.22-2.43-1.35-3.62-2.07-1.92-1.18-2.63-3.34-4.4-4.56-5.79-4-12.34-6.55-18.14-10.75A164.79,164.79,0,0,1,480,356.49a5.18,5.18,0,0,0-2.21-1.38c-3.31-1-5.87-3.35-8.45-5.39a76.72,76.72,0,0,0-12.41-7.64,30.52,30.52,0,0,0,7.52,8.77c2.05,1.67,4.48,3.05,6.06,5.09a44,44,0,0,0,9.23,8.86c2.12,1.53,4.88,2.83,6.17,5a22,22,0,0,0,6.93,6.83c2.89,1.92,5.41,4.29,8.27,6.22a28.92,28.92,0,0,1,6.87,6.62c3.21,4.24,7.9,7.33,11.4,11.47,3.21,3.81,8.52,5,11.32,9.41.69,1.07,1.81.08,2.18-1s-2.61-8.32-3.54-8.29c-2.69.11-2.74-2.66-4.37-3.63a1.1,1.1,0,0,1-.32-1.51,1.08,1.08,0,0,1,1.74-.21c.9.8,2.07.78,3.05,1.27,6.24,3.11,6.23,3.11,11.91,1.2a1.45,1.45,0,0,1,1.52.47c3.72,3.72,8.42,6,12.85,8.66A52.26,52.26,0,0,1,567.39,416.38Zm-4.7,7.35c-3.48,1.88-7.28,1.57-10.74,2.59-.85.25-2.45-.4-2.31,1.11.13,1.34,1.64.91,2.52.77,4.71-.78,9.41-1.66,14.1-2.56,1.4-.27,1.51-.92.62-2.1a7.42,7.42,0,0,0-3.26-2.57c-.85-.34-2.37-.61-2-1.82.59-2.15-.49-2.17-2-2.15a5.87,5.87,0,0,1-4.09-2.08,33.51,33.51,0,0,0-6.74-4.65c-.72-.42-1.41-1-2.07-.5-1,.79.1,1.56.33,2.33a3.83,3.83,0,0,0,2.51,2.51,9.53,9.53,0,0,1,4.61,3.81c1.42,2,3.12,3.32,5.72,3.19C561.27,421.52,561.89,422.61,562.69,423.73Zm-10.46.37c-5-4.42-10.46-6.11-15.85-9.28C538.65,420.28,545.44,424.29,552.23,424.09ZM326.89,383.94c1.59.37,2.45,3.26,4.09,1.55.48-.5,2-2.89.82-3.82C329.52,379.94,328.66,383.13,326.89,383.94Zm175.78-69.58c-.25-.75.08-2.08-1.51-1.84a2,2,0,0,0-1.91,2.27c.06,1.25,1,1.63,2,1.74C503,316.7,502.4,315.32,502.67,314.36ZM568.3,384l-.43-.36a2.41,2.41,0,0,0-.11.48c0,.05.17.18.2.16A2,2,0,0,0,568.3,384Z" transform="translate(-188.21 -0.63)"/><path class="cls-1" d="M410.64,371.1l.88-.72c.91,0,1.74-.11,1.8-1.29l3.37-2.64c.92.47,1.26.13,1.15-.83l1.56-1.11c1.72.25,2.31-.77,2.52-2.23l1.52-1c1.6.08,2.28-.93,2.71-2.26l.86-.73c2-.45,3.91-1,4.27-3.47l.86-.49c1.8.49,2.31-.74,2.76-2.06l.64-.43a3,3,0,0,0,3.4-2.27l.63-.44c.91.36,1.32,0,1.36-.93l.65-.44c2.73-.61,5.4-1.32,7.41-3.46a2.41,2.41,0,0,1,2.1,1.08c-.3,1.39,0,2.41,1.63,2.55l5.11,9.6c-.37.85,0,1.21.83,1.2l5.87,10.91c-.36.85,0,1.21.85,1.21l2.51,4.84c-.34.85,0,1.22.86,1.19L475,388.62c0,1.54.23,3,1.69,4l1.3,2.64c-.38.78-.17,1.26.7,1.41L486.37,412c-.7.72-.5,1.18.42,1.42l2.84,6a2.62,2.62,0,0,0,1.14,3.44l.86,2c-.51.7-.37,1.17.49,1.4l.85,1.94c.22,4.3,2.33,8.17,2.86,12.4.09.71,0,1.63,1.11,1.76l.83,1.36c.28,1.65,1.65,1.57,2.82,1.7,2.2.24,4.41.43,6.62.58,5.42.37,10.77,1.57,16.25,1.19,1.56-.11,3.22-1.33,4.74.16a127.43,127.43,0,0,1-1.94,28c-.72,4.26.41,8.46.68,12.67a135.91,135.91,0,0,0,4.52,28,4.69,4.69,0,0,0,.38,1.28c4,6.14,1.78,12.59,1.21,19.06-.87,10-1.8,19.95-.39,30,.49,3.48,2.85,5.4,4.59,7.9H364.44c-.24-2.09,1.47-1.44,2.45-1.66a11.13,11.13,0,0,0,8.72-7.38c2.56-6.81-1.42-12.13-3.6-17.89l-.37-1.27c.19-.38,0-.61-.32-.75l-.21-.67-.27-.74L369.61,540c0-.1.14-.22.11-.29a3.34,3.34,0,0,0-.33-.5l-.3-4c.6-.67.4-1.5.34-2.25-.68-8.43-1.1-16.89-2.21-25.26-.55-4.15-.15-8.25-.47-12.35C365.82,483.54,365,471.78,364,460c-.62-7.42-1.16-14.87-2.29-22.22-1.86-12.1-3.62-24.25-8.43-35.67-.28-.67-.82-1.54,0-2.14s1.52,0,2.18.38c2.12,1.25,4.21,2.53,6.31,3.81,6,3.66,6.19,3.9,11.39-.6,3.47-3,7.67-5.35,10-9.6l.77-.72c1.27-.13,2.45-.36,2.58-2l.53-.49c2.21-.21,3.31-1.73,4.16-3.54l1.43-1.42c3.2-.53,5.11-2.67,6.59-5.33l.81-.74C404.17,377.61,407.93,375,410.64,371.1Z" transform="translate(-188.21 -0.63)"/><path class="cls-3" d="M372,547.29c2.18,5.76,6.17,11.08,3.6,17.89a11.13,11.13,0,0,1-8.72,7.38c-1,.22-2.69-.43-2.45,1.66h-2.69c0-.17-.06-.48-.15-.5-.38-.1-.58.09-.52.5H350.32a.69.69,0,0,0-.74-.78c-.55,0-.69.3-.61.78h-8.74c.31-.59.2-1.19-.43-1.34a17.67,17.67,0,0,0-7.87,0c-.62.14-.75.73-.44,1.33H309.3c.38-.72-.52-.79-.64-1.26.73-1,1.81-.69,2.78-.72,7.57-.23,15.13-.07,22.71-.48,7.39-.4,14.85.7,22.29,1.13,3.94.23,7.77-.67,11.54-1.56,5.58-1.33,8.91-8,7.11-13.5C373.94,554.36,372.47,551,372,547.29Z" transform="translate(-188.21 -0.63)"/><path class="cls-1" d="M308.66,573c.12.47,1,.53.64,1.26H289.13a.62.62,0,0,0,0-.57c4.84-.86,9.73-.16,14.59-.39C305.35,573.18,307,573.06,308.66,573Z" transform="translate(-188.21 -0.63)"/><path class="cls-1" d="M331.49,574.22c-.31-.6-.18-1.19.44-1.33a17.67,17.67,0,0,1,7.87,0c.62.14.74.74.43,1.34Z" transform="translate(-188.21 -0.63)"/><path class="cls-3" d="M289.11,573.65a.62.62,0,0,1,0,.57H277C281,572.89,285.08,573.77,289.11,573.65Z" transform="translate(-188.21 -0.63)"/><path class="cls-1" d="M349,574.22c-.08-.48.06-.79.61-.78a.69.69,0,0,1,.74.78Z" transform="translate(-188.21 -0.63)"/><path class="cls-1" d="M361.07,574.22c-.06-.41.14-.6.52-.5.09,0,.1.33.15.5Z" transform="translate(-188.21 -0.63)"/><path class="cls-3" d="M568.85,85.25c-6,5.62-13.63,8.18-20.92,11.4-1.82.8-3.66,1.58-5.62,2.42-1.78-14.08,4.71-26.32,8.61-40-1.92,2.38-2.43,3.36-2.77,5.51-.6,3.79-2.4,7.11-3.91,10.56-.47,1.06-.9,1.78-2.17,1.48s-1.43-1.23-1.52-2.3.31-2.22-.41-3.24c-2.44,5-3.08,13.83-2.92,21,.06,2.82,1.29,6.4-1.39,9.05a1.6,1.6,0,0,0-.25,1.23c1.21,6.89-1.21,13.54-1.36,20.34a37.45,37.45,0,0,0,.27,7.48c1,5-.68,9.72-.57,14.54.17,7.67-1.22,15.24-1.67,22.85-.39,6.49-1,13.14-1.92,19.68-1.38,10.29-4.53,20.14-7.5,30-1.37,4.55-2.75,9-3,14.21,2.9-2.05,3.36-5,4.31-7.58.82-2.18,2.56-3,4-2.3,1.66.86,1.78,3.16.38,4.69-3.58,3.91-2.3,8.74-2.29,13.14a15.52,15.52,0,0,1-1.06,6.38c-1.36,3.14-.66,4.75,2.29,6.49,1.05.62,2.85-1,3,1a6.75,6.75,0,0,1-1.7,5.56,7.36,7.36,0,0,0-2.19,5.75c0,.52-.11,1.21.65,1.35a1.07,1.07,0,0,0,1.23-.89c.79-4.37,4.44-2.79,6.91-3.06,2.08-.22,3.67,3.34,2.13,5.08-2.07,2.33-1.72,4.57-1.09,7.09.3,1.2.59,2.71-.33,3.51s-2.48.62-3.64-.38a3,3,0,0,0-2.58-.33c-.66.11-1.54.7-1.9.45-4-2.68-7.13,1-10.67,1.49-1.16.15-2,.53-2.79-.82-1.85-3.19-4.75-1.58-7.21-1.16-2,.34-2.1,2.32-2.47,4-1.14,5-3.88,9.31-6,13.78-1.65.13-.51-2.57-2.15-1.91a3.66,3.66,0,0,0-1.9,2.57,41.49,41.49,0,0,1-2.34,5.38c1.45,1.2,3,0,4.6.18-.94,2.82-1.76,5.55-2.78,8.21a7.36,7.36,0,0,0-.36,2.95c.06,2.65.42,5,4.08,4.43,1.06-.15,2.19.36,3.3.43,1.78.1,2.34,1.26,2.23,2.72s-1.27,1.9-2.69,1.76c-5.56-.55-11.11-1.2-16.68-1.57-12.15-.8-24.27-2.31-36.49-1.81-.83,0-2-.4-2.27.79-.26,1.35,1,1.62,2,1.81,5.36,1.08,10.72,2.19,16.12,3.08,9.93,1.63,19.89,3.08,30,3.07a15.86,15.86,0,0,0,7.15-1.32c1.29-.62,3.07-1.79,3.8.69s-.41,3.46-2.8,3.77a74.83,74.83,0,0,1-15.67.09,153.2,153.2,0,0,1-18.1-2.55c-7.68-1.54-15.92-1.85-22.94-5.31-5.18-2.55-10.46-1.35-15.6-2.86-11.66-3.44-23.3-6.91-34.85-10.71-4.06-1.34-8.11-3.82-12.69-1.37-.15,1.34,1.45,1,2.1,1.9-.42.3-.72.72-1.07.76-4.06.39-8-.63-11.81-1.64-1.16-.3-2.24-1.45-3.16-.13a3.89,3.89,0,0,0,0,4.44,8.91,8.91,0,0,0,5.63,3.93c4.5.78,9,1.31,13.53,2.1,9.34,1.63,18.69,3.27,28,5.13,2.09.42,4.75-.43,6.66,2.2a49,49,0,0,1-10,.18c-10.5-.37-21-.66-31.43-2q-16.61-2.21-33.22-4.46a19.24,19.24,0,0,0-6,.41c2.68-4.56,6.58-8.11,10.07-12,4.1-4.55,8.07-9.26,12.41-13.55,4-3.95,8.63-7.43,11.82-12,4.58-6.55,11.39-11.16,15.24-18.25.05-.1.39,0,.6-.06-.3,2.07.41,3.26,2.57,3.93a25.59,25.59,0,0,1,5.33,2.77c10.35,6.2,19.87,13.73,30.62,19.29,5.29,2.73,9.24,7.81,15.57,8.75.92.14,1.3,1.57,1.28,2.53a1.26,1.26,0,0,1-1.7,1.13c-1.16-.3-1.37.45-1.4,1.29,0,1.15-.44,2.39,1.73,2.13s4.17,2.94,6.7.51a17.35,17.35,0,0,1,3.31-2.28c2.38-1.4,4.66-3.07,7.57-3.23-.09-1-2-1.59-1.51-1.7,1.7-.37,1.3-2.65,3.09-2.73,8.94-.38,17.8-1.48,26.68-2.53,2.86-.34,3.16-2,3.19-3.46,0-2.14-2-1.58-3.39-1.37-6.13.92-12.29.56-18.44.59-.76,0-2.13.23-2.15-.35-.2-4.48-2.76-1.06-4.16-1.3s-4.41,2-3.74-2.18c.15-.94-.92-.75-1.53-.78-1,0-1.44-.48-1.39-1.46.43-.2,1.1.26,1.38-.48a1.11,1.11,0,0,0-1.36.51c-1,.1-2,.15-3,.33s-2.21.88-2.76-.16c-.65-1.21,0-2.82.71-3.72a3.3,3.3,0,0,1,4.06-.46c3.32,2.18,6.94,1.79,10.56,1.92,5.91.21,11.85-.36,17.75.57,1.94.31,3.81,1.14,5.9.38a4.4,4.4,0,0,0,3-5.25c-.52-2.71-2.75-1.32-4.38-1-5.38,1.19-10.7,3.31-16.32,2-2.37-.56-4.7-2.16-7.09-1.16-4,1.66-7.72.14-11.57-.07-.95-.05-2.27.53-2.77-.91a1.87,1.87,0,0,1,1.9-.67c3,.16,6.24,1.18,8.24-2.33.14-.25.84-.31,1.26-.27,3.93.32,7.72-1.37,11.67-.76.54.08,1.2,0,1.34-.69.18-.93-.55-1-1.22-1.19-1.61-.39-3.55-.38-4.74-1.32-2.81-2.21-5.56-1.64-8.34-.46-5.1,2.16-10.12,4.53-15.72,5.17-1.41.16-2.82.32-.76,2s-1.37.87-1,1.89a7.46,7.46,0,0,0,4-.36c.82-.39,1.81-.58,2.34.45a2.12,2.12,0,0,1-.11,2.25,2.38,2.38,0,0,1-2.6.81c-2.87-.51-5.91-1.13-8.72-.7a9.94,9.94,0,0,1-7-1.35,18.17,18.17,0,0,0-7.9-2.4,6.49,6.49,0,0,1-2.84-.91c-4.9-2.92-10.18-5-15.41-7.2-.7-.29-1.72-.48-2-1-1.3-2.69-3.79-4.25-5.75-6.28-2.36-2.46-5.53-2.78-7.89-1.21-.74-2.21,1.06-3.76,2.24-4.39,3.25-1.72,5.14-4.78,7.81-7,2.39-2,4.34-2.77,7.1-1,1.06.68,2.65.37,3.63,1.46-.79,1.24.41,1.24,1,1.51a13.86,13.86,0,0,1,6.5,5.56,6.67,6.67,0,0,0,3,2.59,131.16,131.16,0,0,0,20.92,6.56c2.17.52,3.28-.14,4.36-1.89,1.53-2.47,1.64-2.4,4.34-.7l-3.35,3c7.37.85,14.21-.93,21.08-2.34a7.15,7.15,0,0,1,7.65,2.7,67,67,0,0,0,6,6.3,5,5,0,0,0,4.24,1.64c6-.87,11.05-2.89,14.12-8.72a56.41,56.41,0,0,1,7.11-10.14c.89-1,2.22-1.9,2.28-3.63-3-.06-5.85.63-8.72,0-2.71-2.57-6.44-2.35-9.59-2.56-2.75-.19-4.32-1.63-7-2.82l4.29-.56c-3.1-2.59-6.78-1.56-10.84-2.09,6.27-2.29,12.58-3.15,17.71-7.05-1.1-2.75-5,0-6.06-3.12,2.83-.48,4.4-3.34,7.3-3.83a1.26,1.26,0,0,0,1-1.58c-1.33-3,.91-3.83,2.77-4.83,2.05-1.11,1.93-3.42,2.88-5.1,2.12-3.74,3.66-7.81,5.41-11.76.36-.8.83-1.83-.19-2.36-.86-.45-1.25.66-1.84,1.1-2.68,2-5.6,4.26-6.86,7.11-3.14,7.14-9.13,11.53-14.23,16.86-2.94,3.06-5.19,6.84-8.93,9.06-2.13,1.26-4.57,2-7.51,3.22,3,.34,3.92,3.71,5.77,3.1-9.5.54-20.17.54-30.87.26-6.58-.18-13.2-1.19-19.72-.4-4.07.5-7.69-1.32-11.62-1.12a4.06,4.06,0,0,1-3-1.21c-2-2-1.83-3.45.84-4.48,2.18-.84,4.5-1.33,6.7-2.16,10.61-4,18.16-11.57,24.8-20.51,5.71-7.68,11.23-15.49,17-23.14,7.11-9.49,13.29-19.56,19.7-29.5,4.2-6.53,7.85-13.37,11.47-20.22.67-1.27,1.22-2.85-.18-4-1.77-1.46,1.19-3.8-1.09-5a4.06,4.06,0,0,1,4.9-1.47c1.31.4,4.41,1.09,4.32-1.46-.2-5.62,1.94-10.88,1.92-16.43,0-2.06-.87-2.35-2.63-2.33-1.47,0-2.5,1.78-3.65,1.25-2.76-1.27-5.48-.32-8.21-.42.31-2.74,3.53-4.33,3.13-7.65-4.08,1.82-6.08,5.12-7.78,8.67-.65-.88-.43-1.92-.55-2.9s.49-2.32-.87-2.52a5.39,5.39,0,0,0-3.14.77c-1.14.64-.65,2-.78,3.07-.19,1.54.36,3.59-.45,4.52-1.13,1.3-3-.2-4.53-.38a13.36,13.36,0,0,0-3.24.39c3.4-4.51,4.66-10.42,9.36-14.11,1.29-1,1.57-2.67,0-3.7-1.26-.83-2.87-1.47-3.91.61-1.32,2.63-3.65,4.4-5.66,6.44-2.65,2.68-5.41,5.26-6.76,8.92-4.16.75-4.47,1.18-4.1,5.62-.54.65-1.33.4-2,.55-.88-2,.92-5.37-3-5.68,1.29-5.45,3-10.72,6.36-15.31.85-1.16.48-2.89,1.6-4,2-2,3.31-5.2,7.18-4.19.93.24,1.43-.69,1.8-1.62,1.27-3.22-.06-6.58.66-9.83.23-1-.66-1-1.58-.94a2.4,2.4,0,0,1-2.24-3.68c2.07-3.6,1-11.18-1.23-14.64-2.67-4.06-5-8.46-3.07-13.7a8.5,8.5,0,0,0,0-6c-.62-1.59-.07-2.89-.07-4.32a48,48,0,0,0,17.31-5.53c8.77-5,16.38-11.51,24.17-17.82,1.12-.91.53-1.34,0-2.11-1.6-2.24-3.63-4.24-4.27-7.06.83-.08,1.1.57,1.52,1.09,6.84,8.55,16.35,11.73,26.71,12.77,4.76.48,9.61.12,14.42.08,2.2,0,3.59.63,3.82,3.13a19.12,19.12,0,0,0,1.34,4c.28.83.8.89,1.56.7,5.86-1.42,11.26.31,16.59,2.5,3.45,1.42,5.14,4.28,5.71,7.65,1.66,9.73,5,19,8.16,28.25,2,5.77,3.8,11.61,5.8,17.38,1.26,3.62-2.22,5.94-4.5,8.32-.59-.47-1.74-1.24-1.68-1.35,1.48-2.71-.71-4.5-1.55-6.61,1.54-1.77,3.78-.2,5.53-1.11C578.59,76.69,571.23,79.16,568.85,85.25ZM434.75,318.32c1.29-.44,3,.19,3.41-1.22.58-1.9-1.55-1.82-2.6-2.35a34,34,0,0,0-5.85-2.41c-10.48-3-21-5.81-31.09-10-5.45-2.26-10.91-4.56-16.92-4.95-1-.06-2.23-.36-2.62.85s.91,1.38,1.63,1.73c4.1,2,8.21,3.91,12.35,5.76,7.52,3.37,15.59,5,23.4,7.46C422.49,315.1,428.65,316.63,434.75,318.32Zm77.91-185.81c4.34.59,5.81-2.67,6.86-6.57.91-3.36-.79-5.91-4.38-7.19-1.15-.41-2.32-.77-3.5-1.09a1.52,1.52,0,0,1-1.27-2c.26-1.14,1.22-1.25,2.12-1.13,1.41.2,2.84.29,3.46,2.06a2.43,2.43,0,0,0,3.53,1.5c1.47-.73.63-2.23.3-3.31-1.42-4.65-8.31-6.43-12.33-3.25-4.57,3.62-4,8.84,1.34,11.16a39,39,0,0,0,4.74,1.63c1,.29,2.18.47,2,1.76-.18,1.46-1.48,2-2.76,1.88a4.4,4.4,0,0,1-4.22-2.66c-1-2.13-3.57-1.9-4.94-1.2-1.55.8-.61,2.77.31,4.08A9.94,9.94,0,0,0,512.66,132.51ZM405.23,253.38a4,4,0,0,0,1.34,4.05c3.78,3.93,7.78,7.66,12.95,9.71,7.24,2.87,14.53,5.6,21.85,8.28.84.31,2.14,1.59,2.86.12a2.93,2.93,0,0,0-.62-3.7c-2.8-2.19-5.72-4.6-9.36-4.64-3.46,0-5.91-1.52-8.26-3.61a11.77,11.77,0,0,0-3.27-2.2A178.23,178.23,0,0,1,405.23,253.38Zm-16.87,17.69c1.38.44,2.85.7,3.9,1.73,9.17,9,21,14,31.42,21.08.91.61,1.71.6,2.25-.4s-.41-1.12-.94-1.68c-3.21-3.37-7.7-4.8-11.24-7.57A154.76,154.76,0,0,0,392,270.06C390.53,269.24,389.24,268.71,388.36,271.07ZM449.07,312c.87.51,1.21.88,1.59.92a205.83,205.83,0,0,0,32,.73c.73,0,2.09-.12,1.93-1.36s-1.39-.8-2.21-.89a165.45,165.45,0,0,0-22.7-.51C456.35,311,452.84,310.22,449.07,312Zm-3.19-74.5c2.78,0,4.68-.1,6.56,0,2.9.19,4.67-1.77,3.46-4.33-.65-1.38-.09-1.8.77-2.35a15.15,15.15,0,0,0,2.5-1.54c.58-.57,1.24-1.48.4-2.35a1.53,1.53,0,0,0-2.15-.06C453.86,230.3,449.68,233.07,445.88,237.48ZM465,300.83a135.38,135.38,0,0,0,22.64-.26,22.49,22.49,0,0,1,2.35-.08c1,0,1.48-.42,1.35-1.43s-.94-.56-1.52-.58c-5.67-.22-11.32.78-17,.14A10.37,10.37,0,0,0,465,300.83ZM517.22,107a2.4,2.4,0,0,0,2.56,2.82c1.35,0,1.93-1.37,1.8-2.75s-.38-2.74-2.21-2.75S517.13,105.48,517.22,107Zm53.37-28.53c3.12-1.8,6.92-1.36,10.44-3.29C576.64,74.25,572.18,75.61,570.59,78.48ZM498.22,287.26A9.06,9.06,0,0,0,500.4,278,22.64,22.64,0,0,0,498.22,287.26Z" transform="translate(-188.21 -0.63)"/><path class="cls-2" d="M195.28,132.46c-2.05-1-3.77-2.33-4-4.87.17-.12.41-.37.52-.32,2.64,1.08,5.38,2.5,5.16-2.47a5.6,5.6,0,0,1,.63-1.86c-.2,1.08.51,1.09,1.31,1.38,3.65,1.31,7.43,2,11,3.92,3.31,1.79,6.92,4.32,11.26,3.53l.07.08c0,.56.32.66.78.48l.4,0c1.23.53,2.8.89,1.3,2.73-.83,1,0,1.54.67,2.17,3.38,3.23,6.79,6.19,11.8,2.87.78-.52,2.71.34,2.29-1.49-.28-1.23-1.92-1.24-3.05-1.5-.85-.19-1.37.8-2.06.89-1.29.18-2.74.15-3.48-1.23s-1.76-2.69-.94-4,2.23-.22,3.41,0,2.42.24,3.63.35c1.46,1.15,1.5-.11,1.15-.86-.71-1.51-2.18-2.39-3.42-3.48-2.59-2.27-6.7-3.52-6.17-8.18,2.21.12,3.47,2.4,5.7,2.47l.09.06c.17.39.23.95.53,1.15,4.37,3,5.8,7.66,7.67,12.21.88,2.15,1.33,4.64,3.59,6.22,3.21,2.24,6.19,4.8,5.89,9.39-.06,1,.66,1.75,1.83,2.08,3.64,1,7.23,2.23,10.87,3.26,6.48,1.84,13.39,2.53,18.79,7.18a9,9,0,0,0,2.1.92c5.12,2.6,10.83,2.74,16.28,3.81,5.65,1.1,11.29,2.55,17.18,2.29a45.06,45.06,0,0,1,6.25-.3c3.73.33,7.54.92,11.25.71,8.14-.46,16.24-1.27,24.3.69a6.25,6.25,0,0,0,3-.14,24.43,24.43,0,0,1,8.27-1c1.43.11,2.23-.36,3.12-1.76,3.06-4.77,7.26-8.8,9.79-13.9,1.3-2.62,3.95-4,5-6.52a40.81,40.81,0,0,1,5.23-8.27,11.61,11.61,0,0,0,1.58-4.64c.29-1.43-1.47-1.1-2-1.84-2-2.77-5.45-4-6.85-7.71-1.23-3.27-4.05-6-8.39-5.28,1.34-3.09,3.3-3.2,6.12-1.7,4.09,2.17,8.39,4,12.6,5.91,4.39,3.42,9.62,5.31,14.46,7.89,3,1.59,3.27,2.6.84,4.35a268.38,268.38,0,0,1-19.76,26.67c-6.37,7.39-13.56,13.95-20.26,21a5.64,5.64,0,0,1-4.94,1.53c-11.24-.93-22.47-2-33.72-2.75-9.79-.67-19.6-1.2-29.29-2.77-11.84-1.92-24-2.65-35.18-7.39-5-2.14-9.84-2.6-15.11-2.77-12.29-.38-24.13-2.58-34.47-10.11-4.05-2.95-8.82-4.85-13.56-6.53a12.09,12.09,0,0,1-5.51-3.57c.69-2.34,2.28-1.66,3.67-1,.91.46,1.92,1.28,2.71.51,1.63-1.59,3.3-.73,5-.51.91.12,1.84.85,3-.51-6.09-2.45-11.18-6.57-17.57-8a9.26,9.26,0,0,1-3.37-2.77.52.52,0,0,0-.48-.69l-.07-.13q0-1.5,0-3l.82-.68c.77.13,1.58.06,1.84-.75S196.17,132.54,195.28,132.46ZM234,163.9c1.29,0,2.3,0,3.31,0,.81,0,1.52-.69,1-1.25-2.57-3-1.66-7.25-4.19-10.28-.84-1-2.71-1.94-1.91-3.92,1.2-3-.53-4.09-3-4.49a7.29,7.29,0,0,1-6-4.2c-.35-.77-.13-1.88-1.52-1.71s-.9,1.27-1.25,2c-.8,1.7-1.61,4.07-4,3.31-5.15-1.62-10.51-2.77-15.1-5.89-.55-.38-1.67-1.42-2.25-.17s.22,2.07,1.5,2.48c7.27,2.33,13,7.54,20,10.47,1.12.47,1.92,1.37,1.05,2.65-1.48,2.18-.49,3.68,1.16,5.12,1.43,1.25,3.42,1.68,4.63,3.23A6.86,6.86,0,0,0,234,163.9Zm-21.29-11a11.54,11.54,0,0,0,4.65,3.48c.54.16,1.09.38,1.53-.13s.08-1-.12-1.54C217.68,151.93,216.17,151.48,212.72,152.93Z" transform="translate(-188.21 -0.63)"/><path class="cls-3" d="M378.64,121.64c4.34-.69,7.16,2,8.39,5.28,1.39,3.69,4.83,4.94,6.85,7.71.54.74,2.3.41,2,1.84a11.61,11.61,0,0,1-1.58,4.64,40.81,40.81,0,0,0-5.23,8.27c-1.07,2.48-3.72,3.9-5,6.52-2.52,5.09-6.73,9.13-9.79,13.9-.89,1.39-1.69,1.86-3.12,1.76a24.43,24.43,0,0,0-8.27,1,6.25,6.25,0,0,1-3,.14c-8.07-2-16.16-1.15-24.3-.69-3.71.21-7.52-.38-11.25-.71a45.06,45.06,0,0,0-6.25.3c-5.89.26-11.53-1.18-17.18-2.29-5.45-1.06-11.16-1.21-16.28-3.81a9,9,0,0,1-2.1-.92c-5.4-4.66-12.31-5.35-18.79-7.18-3.64-1-7.23-2.24-10.87-3.26-1.18-.33-1.9-1.1-1.83-2.08.29-4.59-2.68-7.15-5.89-9.39-2.26-1.58-2.71-4.07-3.59-6.22-1.87-4.55-3.3-9.25-7.67-12.21-.3-.2-.36-.76-.53-1.15,4.91.32,6.92,4.4,9.52,7.57,2.81,3.42,6,6.49,9,9.66a1.37,1.37,0,0,0,1.2.32c.26-.11.45-.76.4-1.13a7.54,7.54,0,0,0-.64-1.85c-.41-.92-2.23-1.8-1-2.71,1.07-.77,2.23.77,2.71,1.76,1.64,3.38,4.87,6.08,4.25,10.49-.14,1,1.46,1.76,2.74,2.1a214.52,214.52,0,0,0,21.59,4.13c5.81.91,11.68,1.46,17.54,2a23.2,23.2,0,0,0,5.33-.23c3.16-.42,6.33-1,9.5.52a6.35,6.35,0,0,0,4.58.24c3.52-1.41,7-1,10.51-.52,4.82.66,9.39-1.94,14.24-1.19,3.76.59,7.39-.78,11.12-.81,6.41,0,8.79-4.8,10-9.81,1.79-7.32,6.27-13,10.22-19C376.94,123.65,377.22,122.15,378.64,121.64Z" transform="translate(-188.21 -0.63)"/><path class="cls-3" d="M489.66,133.42a34.4,34.4,0,0,1-5.31,11.82c-2.83,4.31-4.69,9.08-6.8,13.64-3.59,7.74-8.11,14.89-12.35,22.22a215.27,215.27,0,0,1-17.9,25.85,102.55,102.55,0,0,1-29.47,25.54c-3.27,1.88-3.6,1.62-4.39-2-1-4.41.25-8.5,1.44-12.63l0,.05c2.37-.76,3.12-3,4.35-4.79q10.24-14.61,19.62-29.79c3.67-5.94,6.88-12.22,11-17.82,4.57-6.18,8.54-12.78,13.37-18.77,3.62-4.49,6.64-9.45,10.73-13.57,4.25.65,5.75-.41,5.31-6.3a16.88,16.88,0,0,1,3.67-11.9l1.25.12c0,.89-.76,1.31-1.14,2-2.12,3.6-3.11,7.23-1.08,11.34C483.56,131.68,486.52,132.58,489.66,133.42Z" transform="translate(-188.21 -0.63)"/><path class="cls-3" d="M412.66,138.08c2.43-1.75,2.15-2.75-.84-4.35-4.85-2.58-10.08-4.47-14.46-7.89,0-2.17,2.3-3.34,4.76-2.37,1,.39,1.88,1,3.13,1.63,0-2.84-5.92-4.61-.77-7.5-.94-.68-1.67-1.18-2.36-1.73-1.1-.89-2.7-1.75.39-2.05,1.38-.14,1.57-1.71,1.38-3-.35-2.31-.68-4.72-2.1-6.61-1.21-1.61-1.26-3.19-1-5.21a21.75,21.75,0,0,1,9.67,8.47c.76,1.17,1.43,2.83,3.29,1.25,1.91.88,1.86,4.17,5.13,3.81-1.36-5.25-2.49-10.48-6-15,2.25,3-1.38,5-1.13,7.46-4-4.74-8.89-8.93-8.88-15.92a3.2,3.2,0,0,1,1.36-2.79,2.35,2.35,0,0,1,3.34,0c2.19,2.3,4.63,1.68,7.16,1.1.66-.15,1.71-.26,1.83.33.89,4.25,6,5.94,6.26,10.53a2.82,2.82,0,0,0,1,2c2.67,2.69,3.07,3.67,3.78,8.05.11.7.25,1.44.94,1.65,1.17.35,1.86-.71,2.52-1.34s1.1-2.15,2.53-1.47.82,2,.67,3c-.83,5.23-1.81,10.44-2.76,15.66-.12.66-.4,1.3.09,1.91a6,6,0,0,0,.35,5.71c2.95,4.63,2.27,7.42-2.64,9.53-2.51,1.08-3.08,2.58-1.75,4.9-2.17,2.32-1.24,5.43-2,8.1-1,.88-.83,1.86-.28,3a4.26,4.26,0,0,0,.35-2.94c2.57-2.18,2.24-6.1,4.92-8.22,1.85-1.1,3.53-2.38,6-1.91a2.54,2.54,0,0,0,3.24-2.09c.94,3.08-.59,5.84-1.38,8.59-1.9,6.71-3.72,13.44-5.19,20.26a19.1,19.1,0,0,0,0,3.45,20.73,20.73,0,0,0,3.65-9.53,31.14,31.14,0,0,1,3-9.72,4,4,0,0,0,.69-1.85c-.33-3.14,1.64-3.19,3.84-3l0,0c-.4,4.76-2.83,8.88-4.47,13.21-2.9,7.68-8.07,14.32-10.83,22.1A7.54,7.54,0,0,1,427,190.2c-1.81,1.71-4.19,2.93-2.94,6.33.36,1-1,3.17-2.78,3.19-1.56,0-1.84-1.44-2.1-2.88-1.58-8.62-.19-17.12,1.18-25.57,1.74-10.79,4.32-21.42,7.07-32,.67-2.59-.85-3.73-2-5.24-.69-.9-1.65-.52-2.3.25-.93,1.11-1.83,2.25-2.66,3.44-2.39,3.43-2.61,3.47-6,1.18A11,11,0,0,0,412.66,138.08Zm4.28-8.57c-.15,2.21,2,3.39,2.45,5.33,0,.09.63.12.92,0,1.28-.39,4.34-5.2,3.71-6.18-2.13-3.28-1.76-7.34-3.58-10.71-.58-1.07-.67-2.08-2.28-1.36s-1.21,1.83-.58,2.7c1.51,2.09.58,4.22.33,6.32A29.36,29.36,0,0,1,416.94,129.51Z" transform="translate(-188.21 -0.63)"/><path class="cls-2" d="M392.2,259.67c2.36-1.58,5.53-1.25,7.89,1.21,2,2,4.45,3.59,5.75,6.28.26.54,1.29.73,2,1,5.23,2.2,10.52,4.28,15.41,7.2a6.49,6.49,0,0,0,2.84.91,18.17,18.17,0,0,1,7.9,2.4,9.94,9.94,0,0,0,7,1.35c2.81-.43,5.85.18,8.72.7a2.38,2.38,0,0,0,2.6-.81,2.12,2.12,0,0,0,.11-2.25c-.52-1-1.52-.84-2.34-.45a7.46,7.46,0,0,1-4,.36c-.41-1,2.9-.31,1-1.89s-.64-1.82.76-2c5.6-.64,10.61-3,15.72-5.17,2.77-1.17,5.52-1.74,8.34.46,1.19.94,3.13.93,4.74,1.32.67.16,1.4.26,1.22,1.19-.14.69-.8.78-1.34.69-3.95-.61-7.74,1.08-11.67.76-.42,0-1.12,0-1.26.27-2,3.51-5.23,2.5-8.24,2.33a1.87,1.87,0,0,0-1.9.67c.5,1.44,1.82.86,2.77.91,3.84.21,7.61,1.74,11.57.07,2.38-1,4.72.6,7.09,1.16,5.62,1.33,10.94-.79,16.32-2,1.64-.36,3.86-1.75,4.38,1a4.4,4.4,0,0,1-3,5.25c-2.09.75-4-.08-5.9-.38-5.9-.94-11.83-.36-17.75-.57-3.62-.13-7.23.26-10.56-1.92a3.3,3.3,0,0,0-4.06.46c-.73.9-1.36,2.51-.71,3.72.56,1,1.8.33,2.76.16s2-.23,3-.33l0,0c-.05,1,.4,1.42,1.39,1.46.61,0,1.68-.16,1.53.78-.67,4.19,2.2,1.92,3.74,2.18s4-3.18,4.16,1.3c0,.58,1.4.36,2.15.35,6.15,0,12.31.32,18.44-.59,1.36-.2,3.42-.77,3.39,1.37,0,1.48-.33,3.12-3.19,3.46-8.88,1.06-17.74,2.15-26.68,2.53-1.78.08-1.39,2.36-3.09,2.73-.49.11,1.42.72,1.51,1.7-2.92.16-5.19,1.83-7.57,3.23a17.35,17.35,0,0,0-3.31,2.28c-2.53,2.43-4.51-.78-6.7-.51s-1.76-1-1.73-2.13c0-.84.24-1.59,1.4-1.29a1.26,1.26,0,0,0,1.7-1.13c0-1-.36-2.39-1.28-2.53-6.33-.94-10.28-6-15.57-8.75-10.75-5.55-20.27-13.09-30.62-19.29a25.59,25.59,0,0,0-5.33-2.77c-2.16-.67-2.87-1.85-2.57-3.93C390.71,262.49,391.83,261.18,392.2,259.67Zm1.16,4.43.17.19c0-.06.08-.15.05-.19s-.13-.09-.2-.13Z" transform="translate(-188.21 -0.63)"/><path class="cls-3" d="M340.85,320c.05,1.22,1,1.14,1.85,1.48,4,1.65,8,3,11.36,6.21,2.65,2.53,6.66,2.88,10.2,3.86,1.22.34,3.33.28,3.18,1.67-.18,1.63-2.23.85-3.44.88-3.81.09-7.62,0-11.42,0-1.82,0-2.27.26-2.84,2.6-1.2,4.94,1.32,3.94,4.28,4.36,5.15.74,10.19,2.25,15.27,3.46.52.12,1,.48,1.11,1.61-6.17.08-12.17,1.54-18.24.7-4.81-.67-9.61-.17-14.41-.43-1.82-.1-2.16,1.08-2.23,2.63a7.78,7.78,0,0,1-6.82,6.93c-.74.06-1.48,0-1.55.81-.12,1.28,1,.89,1.69,1,6,.71,12.07.42,18.11.49,2,0,3.94,0,5.87,0,.11,1.82-.87,1.57-1.57,1.68-9.31,1.45-18.71,1.26-28.08,1.71a16.14,16.14,0,0,0-3,.15c-1,.25-2.39.18-2.84,1.45s.63,2.1,1.6,2.58c2.28,1.14.55,4.29,2.91,5.46-4.08-.52-6.91-3.64-10.8-4.73-.57,1.74,1.74,2.41,1.25,4-.4.89-1.08,0-1.65.15-.87.22-1.79.43-2,1.53a1.7,1.7,0,0,0,1.37,2,11,11,0,0,1,3.69,2.23c.46.36,1,.69.57,1.32s-1,.22-1.43-.05c-2.37-1.48-4.71-3-7.08-4.48-.53-.34-1.09-1-1.76-.33-.47.44-.17,1-.08,1.58,3,19.5,6.79,38.85,10.57,58.2,2.34,11.95,5.43,23.75,8.18,35.61.19.81,1,1.65-.17,2.37-2.86-8.36-4.37-17.07-6.46-25.63-4-16.51-6.65-33.31-9.86-50-1.49-7.76-2.68-15.57-4-23.36a5.4,5.4,0,0,1,.58-4.17c8.62-13.31,17.31-26.55,29.17-37.36,2.44-2.23,4.27-5.14,6.33-7.77C339,321.41,339.31,320.05,340.85,320Z" transform="translate(-188.21 -0.63)"/><path class="cls-2" d="M503.45,251.13c2.87.66,5.77,0,8.72,0-.05,1.74-1.38,2.59-2.28,3.63a56.41,56.41,0,0,0-7.11,10.14c-3.07,5.83-8.16,7.85-14.12,8.72a5,5,0,0,1-4.24-1.64,67,67,0,0,1-6-6.3,7.15,7.15,0,0,0-7.65-2.7c-6.87,1.41-13.71,3.19-21.08,2.34l3.35-3c-2.7-1.7-2.81-1.77-4.34.7-1.09,1.75-2.2,2.41-4.36,1.89a131.16,131.16,0,0,1-20.92-6.56,6.67,6.67,0,0,1-3-2.59,13.86,13.86,0,0,0-6.5-5.56c-.58-.27-1.79-.27-1-1.51,13.93,2.8,28.09,2,42.16,2.83C471.26,252.48,487.34,250.69,503.45,251.13Z" transform="translate(-188.21 -0.63)"/><path class="cls-2" d="M500.28,3.47c.64,2.82,2.67,4.82,4.27,7.06.55.77,1.14,1.2,0,2.11C496.78,19,489.17,25.46,480.4,30.46A48,48,0,0,1,463.09,36l-1.93-.24a11.76,11.76,0,0,0-.63-4.15c-.94-3.7-2.49-7.44-1.26-11.42,12.4-5.33,24.79-10.69,37.21-16C497.64,3.73,498.83,2.77,500.28,3.47Z" transform="translate(-188.21 -0.63)"/><path class="cls-3" d="M467.45,136c-7,11.26-15.66,21.42-22,33.2-4.09,7.66-9.23,14.76-13.89,22.11-1.29,2-3.81,3-4.58,6.29-1-2.81.59-3.89,1.26-5.25,5.68-11.51,11.35-23,17.13-34.48,3-5.86,7-11.06,10.7-16.42.76-1.08,1.77-2.06,1.71-3.55,1.64-.08,2-1.18,2-2.53l2.81-2.95C464.47,133.29,465,135.92,467.45,136Z" transform="translate(-188.21 -0.63)"/><path class="cls-3" d="M566.35,367.89c-4.23-.47-1.8-4.54-3.62-6.56-1.17,1.21-1.27,2.7-1.34,4.21-.06,1.36-1.31,2.16-1.83,1-2.11-4.54-7-3-10.14-5.06a2.06,2.06,0,0,1-.39-.48c0-.7.48-1,1-1.17,2.23-.88,4.07-1.75.5-3.51a1.68,1.68,0,0,1-.92-2.26c.53-1.12,1.55-1.15,2.59-.87s2.26.67,3.9,1.16a17.57,17.57,0,0,0-5.21-6.06c1.09-1.07,1.83.1,2.61,0s1.51,2.09,2.41.48c.72-1.3-.55-1.95-1.54-2.51l-1.36-.8a3.53,3.53,0,0,1,4.53.7c.4.39.93.83,1.46.44s.28-1.14.07-1.8a14.34,14.34,0,0,0-7.28-8.22c-.69-.38-2.1-.63-1.57-1.76.61-1.31,1.52,0,2.21.24,1.32.52,2.11,1.07,3.54-.5s2.69.93,4,1.77l.54-3c1.71,2.84,1.43,6.12,1.87,9.2.75,5.24,2,10.43,1.77,15.79l0,1C566,361.92,566.31,364.87,566.35,367.89Zm-6-29.32a2.14,2.14,0,0,0,.3,2.5C560.83,340,561.22,339.3,560.4,338.58Zm1.29,20,.56.25c.08-.19.26-.41.21-.56s-.34-.18-.53-.26Z" transform="translate(-188.21 -0.63)"/><path class="cls-2" d="M489.66,133.42c-3.14-.83-6.1-1.73-7.75-5.07-2-4.11-1-7.73,1.08-11.34.38-.65,1.16-1.08,1.14-2a16.6,16.6,0,0,1,4-3.5c2.73.09,5.45-.85,8.21.42,1.15.53,2.18-1.23,3.65-1.25,1.77,0,2.63.27,2.63,2.33,0,5.55-2.12,10.8-1.92,16.43.09,2.54-3,1.85-4.32,1.46a4.06,4.06,0,0,0-4.9,1.47ZM492,116.53c-3,.06-6.31,3.5-6.15,6.44a4.94,4.94,0,0,0,4.49,4.62c3,0,6.54-3.61,6.47-6.59A4.45,4.45,0,0,0,492,116.53Z" transform="translate(-188.21 -0.63)"/><path class="cls-2" d="M467.45,136c-2.43-.07-3-2.7-4.82-3.56-1.65-7.38,1.66-12.64,7.26-16.91a13.36,13.36,0,0,1,3.24-.39c1.55.18,3.4,1.69,4.53.38.81-.93.26-3,.45-4.52.13-1.05-.36-2.43.78-3.07a5.39,5.39,0,0,1,3.14-.77c1.35.2.75,1.61.87,2.52s-.1,2,.55,2.9l-.56,2.35a16.88,16.88,0,0,0-3.67,11.9c.44,5.89-1.05,6.95-5.31,6.3-1.27-1.4-2.21-.44-3.07.49A7.64,7.64,0,0,1,467.45,136Zm10-13c-1.59-3.22-4.48-2.71-7.05-2.1a4.9,4.9,0,0,0-3.85,4.51c-.24,2.68.69,4.77,3.37,5.8C472.9,131.16,477,126.67,477.45,122.95Z" transform="translate(-188.21 -0.63)"/><path class="cls-2" d="M445.14,123.79c2.25-1.35,4.86-1,7.28-1.52l3.85.74.28,4.72c-.07.07-.21.14-.2.2a3.05,3.05,0,0,0,.17.51,36,36,0,0,0-2.07,8.83c-.07,1.08-.15,2.79-1.41,2.7-3.12-.24-5.19,2.26-8,2.63-3.42.46-4.12-1.83-4.24-4.55C439.09,131.1,440.34,127,445.14,123.79Zm.62,14.21c3.87,0,6.89-4.18,5.74-8-.46-1.54-1-3-3-3a3.65,3.65,0,0,0-3.92,2.49,53.83,53.83,0,0,0-1.38,5.81C442.71,137.36,443.87,138,445.75,138Z" transform="translate(-188.21 -0.63)"/><path class="cls-3" d="M445.14,123.79c-4.8,3.17-6,7.3-4.3,14.26l-1.81-.22c-.8-1.56-.14-3.27-.5-4.86-.6-2.67-.37-5.69-3-7.58a2.68,2.68,0,0,1,.82-2.09c1.83-2.17,4.11-3.8,4.5-7.22.36-3.15,3.66-4.91,5.94-7,1.14-1,2.12.49,3,1.27,1.29,1.11,1.64,2.3.64,3.78-1.85,2.74-3.66,5.5-5.53,8.24C444.58,123,444,123.46,445.14,123.79Z" transform="translate(-188.21 -0.63)"/><path class="cls-2" d="M435.56,125.39c2.59,1.9,2.37,4.91,3,7.58.36,1.59-.3,3.3.5,4.86l.14,4.78-.5.3.58.06.13.06a.56.56,0,0,0,.46.78h0a2.54,2.54,0,0,1-3.24,2.09c-2.48-.47-4.17.81-6,1.91a5.17,5.17,0,0,1-2.93.07c-1.34-2.32-.76-3.82,1.75-4.9,4.91-2.11,5.59-4.9,2.64-9.53a6,6,0,0,1-.35-5.71C433.23,127.39,433.75,125.31,435.56,125.39Z" transform="translate(-188.21 -0.63)"/><path class="cls-3" d="M236,133.09c-1.21-.11-2.43-.16-3.63-.35s-2.66-1.13-3.41,0,.28,2.74.94,4,2.19,1.41,3.48,1.23c.68-.1,1.21-1.08,2.06-.89,1.14.26,2.77.27,3.05,1.5.42,1.83-1.51,1-2.29,1.49-5,3.33-8.41.36-11.8-2.87-.66-.63-1.5-1.15-.67-2.17,1.5-1.85-.06-2.2-1.3-2.73.67-1.12,3.05-.15,2.87-2.4,0-.39.73-.34,1.13-.13C229.46,131.34,233,131.31,236,133.09Z" transform="translate(-188.21 -0.63)"/><path class="cls-2" d="M459.81,135.38c0,1.35-.35,2.45-2,2.53-2.39.24-2.29-1-1.48-2.55,2.4-4.65,2.83-9.61,2.39-14.72v.05l.08-1.39c-.37-4.44-.06-4.87,4.1-5.62.3,2,1.23,4.12-1.57,5.15-.54.45-.46.8.18,1a4.56,4.56,0,0,1,0,4.75c-1.71,3-2,6.32-2,9.69a.59.59,0,0,0,.23.91Z" transform="translate(-188.21 -0.63)"/><path class="cls-2" d="M411.79,105c-.25-2.5,3.38-4.46,1.13-7.46,3.48,4.47,4.61,9.71,6,15-3.27.36-3.22-2.93-5.13-3.81C412.65,107.75,412.49,106.26,411.79,105Z" transform="translate(-188.21 -0.63)"/><path class="cls-3" d="M197.68,141.92c6.39,1.43,11.48,5.56,17.57,8-1.16,1.36-2.09.63-3,.51-1.69-.22-3.36-1.08-5,.51-.79.77-1.8,0-2.71-.51-1.4-.71-3-1.39-3.67,1-1.7-1.14-.74-2.38,0-3.38s1.78-1.71,3.09-.47a1.13,1.13,0,0,0,1.76-.16c.37-.71-.35-1.16-.9-1.56C202.63,144.21,199.47,144.32,197.68,141.92Z" transform="translate(-188.21 -0.63)"/><path class="cls-3" d="M221.18,131.76c-4.34.79-8-1.73-11.26-3.53-3.58-1.94-7.35-2.61-11-3.92-.81-.29-1.51-.29-1.31-1.38.61-1.95,2.18-1,3.05-.68,6.91,2.45,13.81,5,20.19,8.63C221.05,131,221.07,131.46,221.18,131.76Z" transform="translate(-188.21 -0.63)"/><path class="cls-3" d="M459.27,20.19c-1.22,4,.32,7.71,1.26,11.42a11.76,11.76,0,0,1,.63,4.15c-5.11.31-5.13.3-4.75-4.72.2-2.74.43-5.48.72-8.21C457.27,21.54,457.29,20,459.27,20.19Z" transform="translate(-188.21 -0.63)"/><path class="cls-3" d="M331.72,499.52c2.22,2.37,3.86,4.7,3.23,8.44-.71,4.26,1,8.61.53,13-.13,1.17.43,2.49-.67,3.47,0-6.18-1.2-12.31-.72-18.51C334.28,503.38,331.43,502,331.72,499.52Z" transform="translate(-188.21 -0.63)"/><path class="cls-3" d="M569.58,402.28c-3.27-1.45-1.58-4.81-2.68-7.15-1.65-3.55-.5-6.94,2.35-9.55.88-.81,0-1.72.64-2.4a2,2,0,0,1,.42,3.18C566.8,390,568,394,569.1,398.09,569.47,399.45,570.06,400.81,569.58,402.28Z" transform="translate(-188.21 -0.63)"/><path class="cls-3" d="M559.31,328.1c-2.23-1.7-1.44-4.49-2.19-6.7-1.59-4.67-2.22-9.66-3.19-14.53a5,5,0,0,1,.23-1.62c1.76.45,1,2,1.28,3.07,1.48,5.9,2.8,11.84,4.18,17.76C559.78,326.8,560.32,327.56,559.31,328.1Z" transform="translate(-188.21 -0.63)"/><path class="cls-2" d="M453.75,114.17c4,.31,2.16,3.72,3,5.68a1.82,1.82,0,0,1-.2.53c-1.34.3-2.62,1-4.07.64C451.94,118.56,450.26,115.9,453.75,114.17Z" transform="translate(-188.21 -0.63)"/><path class="cls-3" d="M404.81,66.58c1.34-3.44,2.62-6.94,6.74-8l0,0-6.74,8Z" transform="translate(-188.21 -0.63)"/><path class="cls-3" d="M247.67,129.36a16.34,16.34,0,0,1-7.59-6.25C243.66,124.65,246.08,126.49,247.67,129.36Z" transform="translate(-188.21 -0.63)"/><path class="cls-3" d="M330.08,542.59c-3.23,2.6-6.54,5.05-10.65,6.11C322.78,546.33,326.06,543.81,330.08,542.59Z" transform="translate(-188.21 -0.63)"/><path class="cls-3" d="M400.29,119.51a6.63,6.63,0,0,1-5.83-3.6c-.29-.49-.46-1.1.15-1.43s1,0,1.42.44C397.3,116.34,398.63,117.73,400.29,119.51Z" transform="translate(-188.21 -0.63)"/><path class="cls-3" d="M434.64,48.87a4.52,4.52,0,0,1,4.73-2.08C438.52,48.34,437.24,49.18,434.64,48.87Z" transform="translate(-188.21 -0.63)"/><path class="cls-3" d="M233.26,123c-2.23-.07-3.49-2.35-5.7-2.47-.3-1.12.6-1.68,1.23-1.36C230.54,120.11,232.9,120.47,233.26,123Z" transform="translate(-188.21 -0.63)"/><path class="cls-3" d="M452.53,121c1.44.35,2.73-.34,4.07-.64l-.32,2.64-3.85-.74Z" transform="translate(-188.21 -0.63)"/><path class="cls-3" d="M415.56,215.18c.29,1-.62,1.75-.72,2.69l0-.05c-.82.35-.39,2.17-1.57,1.73s-.58-1.77-.46-2.7c.19-1.54,1.23-2,2.68-1.7Z" transform="translate(-188.21 -0.63)"/><path class="cls-3" d="M327.31,488a9.49,9.49,0,0,1,1.89,5.61A8.07,8.07,0,0,1,327.31,488Z" transform="translate(-188.21 -0.63)"/><path class="cls-3" d="M322.87,472.76c.7,1.26,1.37,2.53,1,4A3.89,3.89,0,0,1,322.87,472.76Z" transform="translate(-188.21 -0.63)"/><path class="cls-3" d="M193.76,135.33q0,1.5,0,3C191.87,137.07,191.87,136.29,193.76,135.33Z" transform="translate(-188.21 -0.63)"/><path class="cls-3" d="M311.37,552.82a3.55,3.55,0,0,1-2.71,1.25A2.7,2.7,0,0,1,311.37,552.82Z" transform="translate(-188.21 -0.63)"/><path class="cls-3" d="M195.28,132.46c.89.08,1.4.62,1.14,1.45s-1.06.88-1.84.75Z" transform="translate(-188.21 -0.63)"/><path class="cls-3" d="M404.77,66.55l-.83,1.33c-.06-.08-.17-.17-.17-.24a1.15,1.15,0,0,1,1-1.05Z" transform="translate(-188.21 -0.63)"/><path class="cls-3" d="M326.16,484a1.07,1.07,0,0,1,.34,1.55A.91.91,0,0,1,326.16,484Z" transform="translate(-188.21 -0.63)"/><path class="cls-3" d="M334.5,533.06a1,1,0,0,1-.41,1.45C333.34,533.78,333.87,533.41,334.5,533.06Z" transform="translate(-188.21 -0.63)"/><path class="cls-3" d="M570.34,406.08c-.6-.25-1.2-.51-.42-1.23C570.63,405.06,571,405.41,570.34,406.08Z" transform="translate(-188.21 -0.63)"/><path class="cls-3" d="M568.18,375.12a.86.86,0,0,1-.33-1.35C568.5,374.09,568.84,374.48,568.18,375.12Z" transform="translate(-188.21 -0.63)"/><path class="cls-3" d="M553.23,299.86c-.71-.34-.65-.85-.34-1.43C553.84,298.71,554.09,299.15,553.23,299.86Z" transform="translate(-188.21 -0.63)"/><path class="cls-3" d="M318.61,549.24a1.71,1.71,0,0,1-1.72.91A1.6,1.6,0,0,1,318.61,549.24Z" transform="translate(-188.21 -0.63)"/><path class="cls-3" d="M316,550.65a1.79,1.79,0,0,1-1.83.84A1.79,1.79,0,0,1,316,550.65Z" transform="translate(-188.21 -0.63)"/><path class="cls-3" d="M313.26,551.95a1.71,1.71,0,0,1-1.84.84A1.87,1.87,0,0,1,313.26,551.95Z" transform="translate(-188.21 -0.63)"/><path class="cls-3" d="M411.55,58.54l.1-.93c.74.43-.06.6-.14.9Z" transform="translate(-188.21 -0.63)"/><path class="cls-3" d="M458.73,120.69v-.05l-.23.07Z" transform="translate(-188.21 -0.63)"/><path class="cls-3" d="M222,132.32c-.47.18-.77.08-.78-.48C221.68,131.72,221.91,131.93,222,132.32Z" transform="translate(-188.21 -0.63)"/><path class="cls-3" d="M456.53,128.45a3.05,3.05,0,0,1-.17-.51c0-.05.13-.13.2-.2Z" transform="translate(-188.21 -0.63)"/><path class="cls-3" d="M193.82,138.46a.52.52,0,0,1,.48.69C193.85,139.12,193.66,138.91,193.82,138.46Z" transform="translate(-188.21 -0.63)"/><path class="cls-3" d="M439.25,143l-.58-.06.5-.3.15.16Z" transform="translate(-188.21 -0.63)"/><path class="cls-3" d="M333.25,538.47l-.42.71A.52.52,0,0,1,333.25,538.47Z" transform="translate(-188.21 -0.63)"/><path class="cls-3" d="M333.78,536.43c.18.36,0,.59-.29.76A.49.49,0,0,1,333.78,536.43Z" transform="translate(-188.21 -0.63)"/><path class="cls-3" d="M439.83,143.81a.56.56,0,0,1-.46-.78A.55.55,0,0,1,439.83,143.81Z" transform="translate(-188.21 -0.63)"/><path class="cls-3" d="M444.46,152l.12-.26-.15.23Z" transform="translate(-188.21 -0.63)"/><path class="cls-3" d="M415.52,215.15l.11-.3.23.25-.3.09Z" transform="translate(-188.21 -0.63)"/><path class="cls-2" d="M564.18,359.34l0-1Z" transform="translate(-188.21 -0.63)"/><path class="cls-3" d="M567.39,416.38a52.26,52.26,0,0,0-11.66-9.06c-4.42-2.67-9.12-4.95-12.85-8.66a1.45,1.45,0,0,0-1.52-.47c-5.68,1.91-5.68,1.91-11.91-1.2-1-.49-2.16-.47-3.05-1.27a1.08,1.08,0,0,0-1.74.21,1.1,1.1,0,0,0,.32,1.51c1.64,1,1.68,3.74,4.37,3.63.92,0,3.89,7.27,3.54,8.29s-1.5,2.08-2.18,1c-2.8-4.38-8.11-5.6-11.32-9.41-3.49-4.14-8.19-7.23-11.4-11.47a28.92,28.92,0,0,0-6.87-6.62c-2.86-1.93-5.38-4.3-8.27-6.22a22,22,0,0,1-6.93-6.83c-1.29-2.16-4-3.47-6.17-5a44,44,0,0,1-9.23-8.86c-1.58-2-4-3.41-6.06-5.09a30.52,30.52,0,0,1-7.52-8.77,76.72,76.72,0,0,1,12.41,7.64c2.58,2,5.14,4.44,8.45,5.39a5.18,5.18,0,0,1,2.21,1.38,164.79,164.79,0,0,0,16.83,13.66c5.8,4.2,12.35,6.76,18.14,10.75,1.77,1.22,2.48,3.39,4.4,4.56,1.19.73,2.13,1.85,3.62,2.07,3,.44,4.9,3,7.73,3.71.61.16,1.12.81,1.8.27a1.25,1.25,0,0,0,.22-1.79c-2.1-3.54,0-4.9,3-5.64,1.47-.36,2.37-.52,1-2.2-.45-.55-.69-1.92.42-2.29s1.13.72,1.38,1.47c1.28,3.93,4.69,5.71,8.13,6.7,2.38.69,3.22,2.59,4.88,3.77.61.43.48,1.21,0,1.79s-1.07.35-1.77.13c-3.24-1-4.6.15-4.22,3.43a1.07,1.07,0,0,0,.93,1.09c9,2.78,14.51,10.21,21.08,16.2C568,414.6,568.33,415.36,567.39,416.38Z" transform="translate(-188.21 -0.63)"/><path class="cls-3" d="M528.19,447.31c-1.52-1.5-3.18-.27-4.74-.16-5.48.37-10.83-.82-16.25-1.19-2.21-.15-4.42-.34-6.62-.58-1.17-.13-2.53,0-2.82-1.7a14.82,14.82,0,0,1,3,.16c2.27.58,4.29,1.19,5.43-1.9.42-1.13,2.11-1.54,3.41-1.94.5-.15,1.18-.3,1.18-1a1.17,1.17,0,0,0-1.34-1.18c-2,.1-3.33-1.5-5.22-1.88-1.38-.28-3.53-1.35-3.17-3.7s2.39-2.56,4.14-2.43c3.55.25,7.23-.16,10-1.87,6.36-3.86,12.37.72,18.54,0,1.91-.22,3.07,2.31,4.82,3.29,1.11.63.13,1.37-.57,1.65-2.21.91-1.85,2.53-.65,3.67,1.42,1.35,1.27,4.11,4.11,4.3.65,0,1.27,1.8,1,2.95-.3,1.31-1.5,1.09-2.48,1.15-3,.18-6,.44-9,.51C529.53,445.5,528.61,445.95,528.19,447.31Zm-9.85-5.1c-.17-.53.58-2.31-.68-2.11a5,5,0,0,0-3.75,3.82c-.36,1.46,1.26,1.09,2.16,1.21C518.06,445.39,518.64,444.33,518.34,442.21Z" transform="translate(-188.21 -0.63)"/><path class="cls-3" d="M383.16,394c-2.3,4.25-6.51,6.59-10,9.6-5.19,4.5-5.39,4.26-11.39.6-2.1-1.28-4.19-2.57-6.31-3.81-.66-.39-1.44-.91-2.18-.38s-.3,1.47,0,2.14c4.81,11.42,6.57,23.57,8.43,35.67,1.13,7.35,1.67,14.8,2.29,22.22,1,11.75,1.79,23.51,2.72,35.27.32,4.11-.08,8.2.47,12.35,1.11,8.37,1.53,16.83,2.21,25.26.06.75.26,1.57-.34,2.25-1.3-2.69-1-5.7-1.14-8.48-.59-10.24-2.16-20.39-2.31-30.69-.1-7-.48-14-1.19-21-2.29-22.6-3.26-45.4-10.11-67.31-.9-2.86-2.27-5.58-3.4-8.37-.28-.69-1-1.46-.28-2.13s1.46.1,2.09.47c4.15,2.43,8.3,4.86,12.4,7.38,1.78,1.09,2.91,1.3,4.91-.32C374.42,401.13,378.21,396.84,383.16,394Z" transform="translate(-188.21 -0.63)"/><path class="cls-3" d="M562.69,423.73c-.8-1.12-1.42-2.2-2.85-2.13-2.6.13-4.29-1.16-5.72-3.19a9.53,9.53,0,0,0-4.61-3.81,3.83,3.83,0,0,1-2.51-2.51c-.23-.77-1.36-1.54-.33-2.33.66-.51,1.35.07,2.07.5a33.51,33.51,0,0,1,6.74,4.65,5.87,5.87,0,0,0,4.09,2.08c1.52,0,2.6,0,2,2.15-.33,1.21,1.19,1.48,2,1.82a7.42,7.42,0,0,1,3.26,2.57c.89,1.18.78,1.83-.62,2.1-4.69.9-9.39,1.77-14.1,2.56-.88.15-2.39.57-2.52-.77-.15-1.51,1.46-.86,2.31-1.11C555.41,425.29,559.21,425.61,562.69,423.73Z" transform="translate(-188.21 -0.63)"/><path class="cls-3" d="M552.23,424.09c-6.79.2-13.58-3.81-15.85-9.28C541.77,418,547.26,419.68,552.23,424.09Z" transform="translate(-188.21 -0.63)"/><path class="cls-1" d="M568.85,85.25c2.38-6.1,9.74-8.56,14.87-4.95-1.75.91-4-.67-5.53,1.11A28.79,28.79,0,0,0,568.85,85.25Z" transform="translate(-188.21 -0.63)"/><path class="cls-3" d="M410.64,371.1c-2.71,3.89-6.47,6.52-10.6,8.67C402.89,376,406.65,373.43,410.64,371.1Z" transform="translate(-188.21 -0.63)"/><path class="cls-3" d="M496.93,442.32c-1.09-.13-1-1.05-1.11-1.76-.53-4.23-2.64-8.1-2.86-12.4C495.37,432.58,496.34,437.4,496.93,442.32Z" transform="translate(-188.21 -0.63)"/><path class="cls-3" d="M326.89,383.94c1.77-.81,2.63-4,4.91-2.27,1.23.93-.34,3.31-.82,3.82C329.34,387.21,328.48,384.31,326.89,383.94Z" transform="translate(-188.21 -0.63)"/><path class="cls-3" d="M399.23,380.5c-1.48,2.67-3.38,4.8-6.59,5.33C394.85,384.07,396.34,381.42,399.23,380.5Z" transform="translate(-188.21 -0.63)"/><path class="cls-3" d="M449,344.32c-2,2.14-4.69,2.85-7.41,3.46C443.55,345.59,446.27,345,449,344.32Z" transform="translate(-188.21 -0.63)"/><path class="cls-3" d="M502.67,314.36c-.27,1,.3,2.34-1.37,2.17-1-.1-2-.49-2-1.74a2,2,0,0,1,1.91-2.27C502.75,312.28,502.42,313.61,502.67,314.36Z" transform="translate(-188.21 -0.63)"/><path class="cls-3" d="M391.21,387.26c-.85,1.81-2,3.33-4.16,3.54C387.63,388.67,389.2,387.7,391.21,387.26Z" transform="translate(-188.21 -0.63)"/><path class="cls-3" d="M431.27,354.83c-.36,2.47-2.27,3-4.27,3.47A11.08,11.08,0,0,1,431.27,354.83Z" transform="translate(-188.21 -0.63)"/><path class="cls-3" d="M438.92,349.59a3,3,0,0,1-3.4,2.27A4.51,4.51,0,0,1,438.92,349.59Z" transform="translate(-188.21 -0.63)"/><path class="cls-3" d="M421.92,362.29c-.21,1.46-.8,2.48-2.52,2.23A3.61,3.61,0,0,1,421.92,362.29Z" transform="translate(-188.21 -0.63)"/><path class="cls-3" d="M426.14,359c-.43,1.32-1.11,2.34-2.71,2.26C423.93,360,424.62,359,426.14,359Z" transform="translate(-188.21 -0.63)"/><path class="cls-3" d="M476.68,392.58c-1.46-.94-1.65-2.42-1.69-4C476.53,389.53,476.64,391,476.68,392.58Z" transform="translate(-188.21 -0.63)"/><path class="cls-3" d="M434.89,352.28c-.45,1.32-1,2.55-2.76,2.06C432.7,353.19,433.45,352.27,434.89,352.28Z" transform="translate(-188.21 -0.63)"/><path class="cls-3" d="M490.77,422.85a2.62,2.62,0,0,1-1.14-3.44A4.57,4.57,0,0,1,490.77,422.85Z" transform="translate(-188.21 -0.63)"/><path class="cls-3" d="M452.71,348c-1.64-.15-1.94-1.16-1.63-2.55A2.62,2.62,0,0,1,452.71,348Z" transform="translate(-188.21 -0.63)"/><path class="cls-3" d="M386.52,391.29c-.13,1.61-1.31,1.85-2.58,2A2.87,2.87,0,0,1,386.52,391.29Z" transform="translate(-188.21 -0.63)"/><path class="cls-3" d="M413.32,369.09c-.06,1.19-.89,1.3-1.8,1.29A1.51,1.51,0,0,1,413.32,369.09Z" transform="translate(-188.21 -0.63)"/><path class="cls-3" d="M478.69,396.63c-.88-.15-1.09-.63-.7-1.41C478.68,395.46,479,395.9,478.69,396.63Z" transform="translate(-188.21 -0.63)"/><path class="cls-3" d="M492.12,426.22c-.85-.23-1-.7-.49-1.4A1,1,0,0,1,492.12,426.22Z" transform="translate(-188.21 -0.63)"/><path class="cls-3" d="M486.79,413.43c-.92-.24-1.12-.7-.42-1.42C487.05,412.33,487,412.84,486.79,413.43Z" transform="translate(-188.21 -0.63)"/><path class="cls-3" d="M468.74,376.9c-.88,0-1.2-.34-.86-1.19A1,1,0,0,1,468.74,376.9Z" transform="translate(-188.21 -0.63)"/><path class="cls-3" d="M465.37,370.88c-.85,0-1.21-.36-.85-1.21A1,1,0,0,1,465.37,370.88Z" transform="translate(-188.21 -0.63)"/><path class="cls-3" d="M417.84,365.62c.11,1-.23,1.29-1.15.83A1,1,0,0,1,417.84,365.62Z" transform="translate(-188.21 -0.63)"/><path class="cls-3" d="M458.66,358.76c-.86,0-1.21-.35-.83-1.2A1,1,0,0,1,458.66,358.76Z" transform="translate(-188.21 -0.63)"/><path class="cls-3" d="M440.91,348.22c0,.92-.45,1.29-1.36.93A1.1,1.1,0,0,1,440.91,348.22Z" transform="translate(-188.21 -0.63)"/><path class="cls-3" d="M568.3,384a2,2,0,0,1-.34.28s-.21-.11-.2-.16a2.41,2.41,0,0,1,.11-.48Z" transform="translate(-188.21 -0.63)"/><path class="cls-3" d="M371.31,545.27c.36.14.51.38.32.75A.51.51,0,0,1,371.31,545.27Z" transform="translate(-188.21 -0.63)"/><path class="cls-3" d="M370.83,543.85l.27.74C370.76,544.44,370.63,544.2,370.83,543.85Z" transform="translate(-188.21 -0.63)"/><path class="cls-3" d="M369.38,539.19a3.34,3.34,0,0,1,.33.5c0,.07-.07.19-.11.29a3.33,3.33,0,0,1-.34-.5C369.24,539.41,369.34,539.28,369.38,539.19Z" transform="translate(-188.21 -0.63)"/><path class="cls-2" d="M434.75,318.32c-6.1-1.69-12.26-3.22-18.29-5.11-7.81-2.45-15.89-4.09-23.4-7.46-4.15-1.86-8.25-3.8-12.35-5.76-.72-.35-2-.53-1.63-1.73s1.63-.91,2.62-.85c6,.39,11.47,2.69,16.92,4.95,10.1,4.18,20.61,7,31.09,10a34,34,0,0,1,5.85,2.41c1.05.53,3.18.44,2.6,2.35C437.73,318.51,436,317.87,434.75,318.32Z" transform="translate(-188.21 -0.63)"/><path class="cls-2" d="M512.66,132.51a9.94,9.94,0,0,1-8.72-4.29c-.92-1.31-1.86-3.29-.31-4.08,1.37-.7,4-.93,4.94,1.2A4.4,4.4,0,0,0,512.8,128c1.28.09,2.58-.42,2.76-1.88.16-1.29-1-1.47-2-1.76a39,39,0,0,1-4.74-1.63c-5.31-2.32-5.92-7.54-1.34-11.16,4-3.18,10.91-1.41,12.33,3.25.33,1.08,1.17,2.59-.3,3.31a2.43,2.43,0,0,1-3.53-1.5c-.62-1.77-2.05-1.87-3.46-2.06-.9-.13-1.86,0-2.12,1.13a1.52,1.52,0,0,0,1.27,2c1.18.33,2.35.68,3.5,1.09,3.59,1.28,5.28,3.83,4.38,7.19C518.47,129.84,517,133.09,512.66,132.51Z" transform="translate(-188.21 -0.63)"/><path class="cls-2" d="M405.23,253.38a178.23,178.23,0,0,0,17.49,8,11.77,11.77,0,0,1,3.27,2.2c2.35,2.08,4.8,3.58,8.26,3.61,3.64,0,6.56,2.44,9.36,4.64a2.93,2.93,0,0,1,.62,3.7c-.71,1.47-2,.19-2.86-.12-7.31-2.67-14.61-5.4-21.85-8.28-5.16-2-9.17-5.78-12.95-9.71A4,4,0,0,1,405.23,253.38Z" transform="translate(-188.21 -0.63)"/><path class="cls-1" d="M461.34,118.83c2.8-1,1.87-3.18,1.57-5.15,1.35-3.66,4.12-6.24,6.76-8.92,2-2,4.34-3.8,5.66-6.44,1-2.08,2.65-1.44,3.91-.61,1.57,1,1.29,2.69,0,3.7-4.7,3.69-6,9.6-9.36,14.11-5.6,4.27-8.91,9.52-7.26,16.91l-2.81,2.95-.08-.15a.58.58,0,0,0-.23-.91c0-3.37.34-6.65,2-9.69a4.56,4.56,0,0,0,0-4.75Z" transform="translate(-188.21 -0.63)"/><path class="cls-2" d="M388.36,271.07c.89-2.37,2.18-1.83,3.69-1a154.76,154.76,0,0,1,21.71,14.17c3.54,2.78,8,4.2,11.24,7.57.52.55,1.47.68.94,1.68s-1.34,1-2.25.4c-10.46-7-22.26-12.11-31.42-21.08C391.21,271.77,389.74,271.51,388.36,271.07Z" transform="translate(-188.21 -0.63)"/><path class="cls-2" d="M449.07,312c3.77-1.75,7.28-1,10.59-1.1a165.45,165.45,0,0,1,22.7.51c.82.09,2.06-.32,2.21.89s-1.21,1.33-1.93,1.36a205.83,205.83,0,0,1-32-.73C450.28,312.85,449.94,312.49,449.07,312Z" transform="translate(-188.21 -0.63)"/><path class="cls-1" d="M445.88,237.48c3.8-4.41,8-7.18,11.54-10.61a1.53,1.53,0,0,1,2.15.06c.84.87.18,1.78-.4,2.35a15.15,15.15,0,0,1-2.5,1.54c-.87.56-1.43,1-.77,2.35,1.21,2.56-.56,4.53-3.46,4.33C450.56,237.38,448.66,237.48,445.88,237.48Z" transform="translate(-188.21 -0.63)"/><path class="cls-2" d="M465,300.83a10.37,10.37,0,0,1,7.81-2.2c5.67.64,11.33-.36,17-.14.58,0,1.37-.54,1.52.58s-.39,1.42-1.35,1.43a22.49,22.49,0,0,0-2.35.08A135.38,135.38,0,0,1,465,300.83Z" transform="translate(-188.21 -0.63)"/><path class="cls-1" d="M482.88,114.92l.56-2.35c1.71-3.56,3.7-6.85,7.78-8.67.4,3.32-2.82,4.91-3.13,7.65a16.59,16.59,0,0,0-4,3.5Z" transform="translate(-188.21 -0.63)"/><path class="cls-2" d="M517.22,107c-.08-1.53.33-2.69,2.15-2.67s2.09,1.37,2.21,2.75-.45,2.71-1.8,2.75A2.4,2.4,0,0,1,517.22,107Z" transform="translate(-188.21 -0.63)"/><path class="cls-1" d="M570.59,78.48c1.6-2.86,6.05-4.23,10.44-3.29C577.51,77.12,573.7,76.67,570.59,78.48Z" transform="translate(-188.21 -0.63)"/><path class="cls-2" d="M498.22,287.26A22.64,22.64,0,0,1,500.4,278,9.06,9.06,0,0,1,498.22,287.26Z" transform="translate(-188.21 -0.63)"/><path class="cls-2" d="M459.25,283.76a1.11,1.11,0,0,1,1.36-.51c-.28.75-1,.29-1.38.48Z" transform="translate(-188.21 -0.63)"/><path class="cls-3" d="M234,163.9a6.86,6.86,0,0,1-6.54-2.65c-1.21-1.55-3.2-2-4.63-3.23-1.65-1.44-2.64-2.94-1.16-5.12.87-1.28.06-2.18-1.05-2.65-7-2.94-12.72-8.15-20-10.47-1.28-.41-2.06-1.27-1.5-2.48s1.7-.2,2.25.17c4.59,3.12,10,4.27,15.1,5.89,2.42.76,3.22-1.61,4-3.31.35-.74-.06-1.84,1.25-2s1.17.94,1.52,1.71a7.29,7.29,0,0,0,6,4.2c2.47.41,4.2,1.54,3,4.49-.81,2,1.07,2.92,1.91,3.92,2.53,3,1.62,7.33,4.19,10.28.49.56-.22,1.22-1,1.25C236.3,163.92,235.29,163.9,234,163.9Z" transform="translate(-188.21 -0.63)"/><path class="cls-3" d="M212.72,152.93c3.45-1.46,5-1,6.06,1.81.2.51.56,1,.12,1.54s-1,.29-1.53.13A11.54,11.54,0,0,1,212.72,152.93Z" transform="translate(-188.21 -0.63)"/><path class="cls-2" d="M416.94,129.51a29.34,29.34,0,0,0,1-3.87c.25-2.1,1.18-4.23-.33-6.32-.63-.87-1-2,.58-2.7s1.7.3,2.28,1.36c1.82,3.37,1.45,7.42,3.58,10.71.64,1-2.43,5.8-3.71,6.18-.29.09-.9.05-.92,0C418.91,132.9,416.79,131.72,416.94,129.51Z" transform="translate(-188.21 -0.63)"/><path class="cls-1" d="M427.65,147.88a5.17,5.17,0,0,0,2.93-.07c-2.67,2.12-2.34,6-4.91,8.22l-.06-.05C426.41,153.31,425.47,150.2,427.65,147.88Z" transform="translate(-188.21 -0.63)"/><path class="cls-1" d="M425.66,156a4.26,4.26,0,0,1-.35,2.94c-.55-1.13-.7-2.11.28-3Z" transform="translate(-188.21 -0.63)"/><path class="cls-3" d="M393.36,264.1l0-.14c.07,0,.16.07.2.13s0,.12-.05.19Z" transform="translate(-188.21 -0.63)"/><path class="cls-2" d="M560.4,338.58c.82.73.43,1.42.3,2.5A2.14,2.14,0,0,1,560.4,338.58Z" transform="translate(-188.21 -0.63)"/><path class="cls-2" d="M561.7,358.57l.24-.57c.19.08.48.13.53.26s-.13.37-.21.56Z" transform="translate(-188.21 -0.63)"/><path class="cls-3" d="M492,116.53a4.45,4.45,0,0,1,4.8,4.47c.07,3-3.48,6.59-6.47,6.59a4.94,4.94,0,0,1-4.49-4.62C485.71,120,489,116.59,492,116.53Z" transform="translate(-188.21 -0.63)"/><path class="cls-3" d="M469.92,131.15c-2.68-1-3.61-3.11-3.37-5.8a4.9,4.9,0,0,1,3.85-4.51c2.57-.61,5.47-1.11,7.05,2.1C473.66,124.5,470.53,126.67,469.92,131.15Z" transform="translate(-188.21 -0.63)"/><path class="cls-1" d="M469.92,131.15c.61-4.48,3.74-6.64,7.53-8.2C477,126.67,472.9,131.16,469.92,131.15Z" transform="translate(-188.21 -0.63)"/><path class="cls-1" d="M445.76,138c-1.88,0-3-.64-2.57-2.79a53.83,53.83,0,0,1,1.38-5.81,3.65,3.65,0,0,1,3.92-2.49c2,.08,2.55,1.51,3,3C452.64,133.82,449.62,138,445.76,138Z" transform="translate(-188.21 -0.63)"/><path class="cls-3" d="M459.5,134.32a.58.58,0,0,1,.23.91A.59.59,0,0,1,459.5,134.32Z" transform="translate(-188.21 -0.63)"/><path class="cls-3" d="M461.34,118.83l.18,1C460.88,119.63,460.8,119.28,461.34,118.83Z" transform="translate(-188.21 -0.63)"/><path class="cls-2" d="M518.34,442.21c.3,2.12-.27,3.18-2.27,2.92-.9-.12-2.52.25-2.16-1.21a5,5,0,0,1,3.75-3.82C518.92,439.91,518.17,441.69,518.34,442.21Z" transform="translate(-188.21 -0.63)"/></g><path class="cls-3" d="M523.14,115.33a63.36,63.36,0,0,0-.24-8.65c-.24-2.56-4.44-3.67-4.91-.66l-2.28,14.5,4.91.66.84-19.36c.12-2.83-4.2-3.38-4.91-.66A117.2,117.2,0,0,0,513.47,118h5a48,48,0,0,0-.62-11.36c-.49-2.93-4.73-2-4.91.66a163.8,163.8,0,0,0,4.51,50.46c.57,2.28,4.4,2.49,4.82,0,1.6-9.44-.89-19.38-2.39-28.71q-2.6-16.14-5.74-32.19c-.58-3-4.62-1.91-4.91.66a65.54,65.54,0,0,0-.35,10.69,2.5,2.5,0,0,0,5,0l.36-.41-3.67-1.49a176.66,176.66,0,0,0,3.94,17.83c.46,1.65,3,2.64,4.18,1.1a10.29,10.29,0,0,0,2.49-6.45h-5l0,14.2c0,3.24,4.8,3.19,5,0A51.09,51.09,0,0,0,517,109.22c-.81-1.89-4.28-1.47-4.57.6l-2.05,14.86,4.91.66A93.28,93.28,0,0,0,513,110.53c-.67-2.81-4.82-2.09-4.91.66q-.42,12.78-.2,25.56h5a140.24,140.24,0,0,0-4.51-29.29c-.76-2.86-4.68-2-4.91.66A64.29,64.29,0,0,0,505,128.71c.68,2.83,4.79,2.08,4.91-.66a84.11,84.11,0,0,0-1.69-20.93c-.61-2.95-4.66-2-4.91.66a205.45,205.45,0,0,0-.85,23.69c.07,3.23,4.82,3.2,5,0a27.76,27.76,0,0,0-1.82-11.77,2.51,2.51,0,0,0-4.91.66q-.52,9.67-.15,19.32c.12,3.26,4.72,3.17,5,0a58.51,58.51,0,0,0-.15-11.84c-.3-2.64-4.11-3.58-4.91-.66a8.06,8.06,0,0,0,1.15,7.36c1.5,2.22,5.51.91,4.57-1.93-2.52-7.61-11.58-9.91-17-3.61a2.51,2.51,0,0,0,3,3.93c2-1,5.18-2.52,7.22-.54l2.43-4.18a19.9,19.9,0,0,0-21.21,7.85l4.66,1.26a115.73,115.73,0,0,1,1.76-18.65l-4.91-.66a7.75,7.75,0,0,1-2.64,6.44l4.27,1.77c-.07-4.54,2.21-8.81,6.75-10.23,3.7-1.16,6.44.76,10,1.25,4.13.58,7.45-2.41,6.42-6.56a2.53,2.53,0,0,0-3.67-1.49q-3.66,2-7.24,4.1l3.76,2.16.55-1.56-4.18-2.43a19,19,0,0,1-1.78,6.07l4.66,1.26c-.34-2.85-2.22-5-5.34-4.9-3.64.14-5.34,3.72-6.4,6.68l4.82,1.33.95-3.83a2.51,2.51,0,0,0-4.57-1.93l-6.48,9.68,4.66,1.26a17.08,17.08,0,0,1,1-5.54c1-2.9-3-4-4.57-1.93a31.85,31.85,0,0,0-3.59,6c-1.09,2.38,1.91,5.34,3.93,3a49.81,49.81,0,0,1,7.69-7.23l-3.67-2.82a25.43,25.43,0,0,1-2.61,7.42c-1.55,2.87,2.49,5.14,4.32,2.52l3.82-5.47-4.32-2.52L484,128.47c-1.43,2.37,2.08,5.26,3.93,3a22.63,22.63,0,0,1,6-5.2l-3.67-2.82a15.09,15.09,0,0,1-4.91,6.79l3.54,3.54a109.21,109.21,0,0,1,15.36-14.11c2.13-1.6,1-5.39-1.93-4.57a6.6,6.6,0,0,0-4.65,3.83l4.57,1.93.66-3.75a2.5,2.5,0,0,0-4.82-1.33c-1,2.75-2.44,6-2,9a2.61,2.61,0,0,0,2.5,2.5l.48,0a2.41,2.41,0,0,0,2.16-1.24l.17-.37c1.34-2.9-3-5.45-4.32-2.52l-.17.37,2.16-1.24-.48,0,2.5,2.5c-.33-2.46,1.06-5.41,1.87-7.66l-4.82-1.33-.66,3.75c-.45,2.56,3.28,4.69,4.57,1.93l1.66-1.53-1.93-4.57a115.72,115.72,0,0,0-16.37,14.89,2.5,2.5,0,0,0,3.54,3.54,19.8,19.8,0,0,0,6.19-9c.75-2.09-1.89-3.89-3.67-2.82a26.49,26.49,0,0,0-7,6l3.93,3,4.76-7.89c1.69-2.79-2.5-5.12-4.32-2.52L485,126.05l4.32,2.52a29.58,29.58,0,0,0,3.12-8.61c.37-1.88-1.76-4.26-3.67-2.82a55.77,55.77,0,0,0-8.7,8l3.93,3a31.85,31.85,0,0,1,3.59-6L483,120.22a21.22,21.22,0,0,0-1.17,6.86c0,2.6,3.33,3.24,4.66,1.26l6.48-9.68-4.57-1.93-.95,3.83c-.78,3.16,3.75,4.33,4.82,1.33a4.77,4.77,0,0,1,1.92-3.11c.26,2.18,3.46,3.76,4.66,1.26a24,24,0,0,0,2.28-7.27c.35-2.46-2.16-4.14-4.18-2.43a5.11,5.11,0,0,0-2,5.09c.24,1.8,2,3.22,3.76,2.16q3.58-2.12,7.24-4.1L502.25,112c-.13-.54-8.15-1.5-9.28-1.45a14.89,14.89,0,0,0-7.57,2.5,15.13,15.13,0,0,0-6.47,13.17A2.53,2.53,0,0,0,483.2,128a12.53,12.53,0,0,0,4.1-10c-.09-2.67-4.46-3.57-4.91-.66a124.11,124.11,0,0,0-1.94,20c0,2.66,3.26,3.17,4.66,1.26A14.71,14.71,0,0,1,500.68,133c2.37.58,4.27-2.39,2.43-4.18-3.88-3.78-8.86-2.31-13.28-.24l3,3.93c2.76-3.23,7.17-2.91,8.6,1.4L506,132l-.64-3.51-4.91-.66a58.51,58.51,0,0,1,.15,11.84h5q-.37-9.67.15-19.32l-4.91.66a24.41,24.41,0,0,1,1.64,10.45h5a205.45,205.45,0,0,1,.85-23.69l-4.91.66A78.59,78.59,0,0,1,505,128l4.91-.66a60,60,0,0,1-1.41-19.25l-4.91.66a133.69,133.69,0,0,1,4.33,28c.15,3.2,5.06,3.24,5,0q-.22-12.78.2-25.56l-4.91.66a84.65,84.65,0,0,1,2.09,13.48c.19,2.6,4.5,3.64,4.91.66l2.05-14.86-4.57.6a45.88,45.88,0,0,1,3.5,21.21h5l0-14.2c0-3.24-4.83-3.2-5,0l-1,2.91,4.18,1.1a176.66,176.66,0,0,1-3.94-17.83c-.28-1.65-2.39-2.21-3.67-1.49a5,5,0,0,0-2.84,4.72h5a65.54,65.54,0,0,1,.35-10.69l-4.91.66q2.76,14.16,5.12,28.4c1.57,9.51,4.64,20.25,3,29.85h4.82a159.26,159.26,0,0,1-4.33-49.13l-4.91.66a42.44,42.44,0,0,1,.44,10c-.22,3.25,4.65,3.13,5,0a108,108,0,0,1,2.91-15.48l-4.91-.66-.84,19.36c-.12,2.76,4.47,3.48,4.91.66l2.28-14.5-4.91-.66a63.36,63.36,0,0,1,.24,8.65c-.13,3.22,4.87,3.21,5,0Z" transform="translate(-188.21 -0.63)"/><path class="cls-3" d="M486.19,118.34c-1.47,1.42-1.68,3.94-3.14,5.19-1.3,1.11-3.72,1.1-5.21,2.16-1.29.92-1.86,2.23-2.86,3.38-3,3.52-4.82,2-8.64,2.18l1.77,4.27c.82-.86,5.38-.46,6.53-.71a10.33,10.33,0,0,0,4.91-2.4c2-1.84,3.5-5.44,1.76-7.92a2.5,2.5,0,0,0-2.16-1.24c-.48.05-1,.12-1.44.2l2.82,1.15c-.75-1.52-.44-5.78-.14-7.39.49-2.65,2-5.32,3.07-7.8l-4.66-1.26a31.77,31.77,0,0,1,.43,7c-.22,2.17-1.45,4.32-1.36,6.51s.73,2.94,2.68,3.92c-.85-.43-1.18-1.06-2.16-1.27-2.46-.51-3.42,1.24-4.89,2.7-2,2-4.64,4.37-4.76.26-.07-2.58,1.5-9.06,6.06-7.45l-1.1-4.18a5,5,0,0,0-1.53,4.35l3.16-2.41c-6.29-1-9.64-.06-12.09,6.41-1.84,4.85-2,9.91,3.38,12.14,3,1.24,4.26-3.59,1.33-4.82-1.42-.6-.32-5.44.3-6.4A5.53,5.53,0,0,1,474,122.4c1.4.21,3.39-.62,3.16-2.41l.06-.81a2.54,2.54,0,0,0-1.1-4.18c-5.29-1.88-12.7,3.89-13,9.39s2.26,13.6,9.42,10.51a9.51,9.51,0,0,0,3.31-2.62,10.33,10.33,0,0,0,1.52-2.11c.6-1.26-.56-.84,0-.76,2.09.32,3.35,2.1,5.5-.21,1.84-2,1-4,.5-6.27-.59-2.44.48-4.52.76-6.94a33,33,0,0,0-.33-7.83c-.26-2.09-3.56-3.85-4.66-1.26-2.58,6.09-6.2,13.57-2.92,20.23a2.56,2.56,0,0,0,2.82,1.15l.11,0L477,127c1.19,1.69-5.11,3.12-5.35,3.15-1.31.16-2.64.06-3.94.3a4.94,4.94,0,0,0-3.12,1.52c-1.43,1.5-.47,4.37,1.77,4.27,2.66-.12,5.45.91,8.05,0,2.33-.78,3.16-2.33,4.57-4.13,2-2.58,4-2.74,6.6-4.3s2.21-4.09,4.16-6c2.31-2.24-1.22-5.78-3.54-3.54Z" transform="translate(-188.21 -0.63)"/><path class="cls-3" d="M460.42,112.67a14.31,14.31,0,0,0,.29,4.25.63.63,0,0,0,1.21,0,8.36,8.36,0,0,0,.37-3.76.63.63,0,0,0-1.25,0v5a.63.63,0,0,0,1.25,0v-1.56H461l0,1.16a.63.63,0,0,0,1.23.17,4.54,4.54,0,0,0,.33-2.51.63.63,0,0,0-1.25,0v2.43h1.25l0-3-1.23.17.33,1.92a.63.63,0,0,0,1.25,0v-2.52a.63.63,0,0,0-1.25,0v1.41a.63.63,0,0,0,1.25,0l.07-1.18-1.23.17.24,2.3h1.25v-1.54a.63.63,0,0,0-1.25,0v.2a.63.63,0,0,0,.63.63h.28a.64.64,0,0,0,.6-.79,1.2,1.2,0,0,0-.54-.92.63.63,0,0,0-1,.28l-.67,3.17h1.21l-.36-2.4a.63.63,0,0,0-1.21,0,9.16,9.16,0,0,0-.17,3.14H462l-.41-3.44c-.09-.78-1.26-.83-1.25,0a9.27,9.27,0,0,1-.6,4.33H461a7.67,7.67,0,0,1-.78-3.93c0-.67-1.12-.89-1.23-.17a12.11,12.11,0,0,0-.24,3.59.63.63,0,0,0,1.25,0v-4a.63.63,0,0,0-1.25,0v6.09a.63.63,0,0,0,1.25,0,31.68,31.68,0,0,0-.35-6.36c-.11-.71-1.23-.52-1.23.17v8.05h1.25l0-8.13h-1.25l.71,6.87c.08.78,1.25.82,1.25,0V113.5l-1.23.17a9.15,9.15,0,0,1,.95,4,.63.63,0,0,0,1.25,0v-4.27H460v13.22l1.23-.17-.66-4.93c-.1-.71-1.23-.52-1.23.17v4.35h1.25a12.7,12.7,0,0,1,.27-4.09H459.7l.48,2.79a.63.63,0,0,0,1.21,0l.56-2.89-1.23-.17,0,2.29H462v-1.94a.63.63,0,0,0-1.25,0v3.38H462l0-2.21h-1.25c.22,3.78-2.61,6.61-3.15,10.19a13,13,0,0,0,.75,6.31c.18.53,1.1.66,1.21,0a40.22,40.22,0,0,0,.47-8.69.63.63,0,0,0-1.25,0l0,4.45H460c-.18-3.43-1.42-9.26.19-12.37l-1.16-.32a33.26,33.26,0,0,1-2.49,14.72l1.23.17,1-3.81a.63.63,0,0,0-1.08-.63,37.07,37.07,0,0,0-2.23,4.3.64.64,0,0,0,.37.92,1.83,1.83,0,0,0,2-.2c-.24.2-.45-2.68-.16-3.65s.7-1.76,1-2.64c1.7-4.76,1.62-10.22,3.52-14.79H461a29.11,29.11,0,0,1,.39,6.48c0,.8,1.21.8,1.25,0a31.89,31.89,0,0,0-.43-6.81c-.12-.69-1-.49-1.21,0-.94,2.26-1,4.69-1.42,7.07a55.62,55.62,0,0,1-3.06,10.13c-1.3,3.28-1.13,3.3,1.76,5.58a.64.64,0,0,0,1-.13l.34-.51a.63.63,0,0,0,0-.63c-.57-1.1-.73-.31-1.37-1.06,0-.06-.31,0-.33,0-.87-1.37-.19-1.75.82-3.42l-1.08-.63a6.88,6.88,0,0,0-1.12,4.44.63.63,0,0,0,1.23.17,33.83,33.83,0,0,0,2.53-15c0-.58-.86-.9-1.16-.32-1.88,3.64-.57,9.11-.36,13a.63.63,0,0,0,1.25,0l0-4.45h-1.25a38.32,38.32,0,0,1-.43,8.36h1.21c-1.51-4.52-.19-7.26,1.46-11.35a9.92,9.92,0,0,0,1-4.82c0-.8-1.26-.81-1.25,0l0,2.21a.63.63,0,0,0,1.25,0v-3.38h-1.25V124a.63.63,0,0,0,1.25,0l0-2.29c0-.69-1.09-.87-1.23-.17l-.56,2.89h1.21l-.48-2.79a.63.63,0,0,0-1.21,0,19.61,19.61,0,0,0-.32,4.42.63.63,0,0,0,1.25,0v-4.35l-1.23.17.66,4.93c.1.71,1.23.52,1.23-.17V113.43a.63.63,0,0,0-1.25,0v4.27h1.25a13.58,13.58,0,0,0-1-4.36.63.63,0,0,0-1.23.17v8.38h1.25L459.6,115c-.08-.78-1.25-.82-1.25,0l0,8.13a.63.63,0,0,0,1.25,0v-8.05l-1.23.17a29,29,0,0,1,.3,6h1.25v-6.09h-1.25v4H460l.19-3.26-1.23-.17a11.36,11.36,0,0,0,.82,4.26.63.63,0,0,0,1.21,0,14,14,0,0,0,.65-4.66h-1.25l.41,3.44c.09.78,1.29.82,1.25,0l.12-2.81h-1.21l.36,2.4c.09.61,1.08.58,1.21,0a11,11,0,0,1,.8-2.88H462v1.54a.63.63,0,0,0,1.25,0,6.31,6.31,0,0,0-.28-2.63c-.17-.72-1.18-.51-1.23.17l-.07,1.18H463v-1.41h-1.25v2.52H463a5.16,5.16,0,0,0-.37-2.26.63.63,0,0,0-1.23.17l0,3a.63.63,0,0,0,1.25,0v-2.43h-1.25l-.28,2.18,1.23.17,0-1.16a.63.63,0,0,0-1.25,0v1.56h1.25v-5H461l-.32,3.43h1.21a9.43,9.43,0,0,1-.24-3.92c.06-.8-1.19-.8-1.25,0Z" transform="translate(-188.21 -0.63)"/><path class="cls-3" d="M456.14,137.19a6.27,6.27,0,0,0,.57,4.45.63.63,0,0,0,1.16-.32l.1-4a.63.63,0,0,0-.62-.62,2.21,2.21,0,0,0-1.92,1.65,4.49,4.49,0,0,0,.71,3.26c.37.72,1.45.08,1.08-.63a4.33,4.33,0,0,1-.64-1.83c0-.47.22-1.13.77-1.2l-.62-.62-.1,4,1.16-.32a4.92,4.92,0,0,1-.44-3.49c.19-.78-1-1.12-1.21-.33Z" transform="translate(-188.21 -0.63)"/><path class="cls-3" d="M452.29,115.5v3H456a4.37,4.37,0,0,1,.53-2.92l-3.68-.5a28.93,28.93,0,0,0,1.19,5.85,1.88,1.88,0,0,0,3.62-1l-1.2-6.83c-.3-1.72-2.61-1.65-3.43-.45a9.83,9.83,0,0,0-1.29,9.17c1.81,5.56.18,10.77-.92,16.38l1.81-1.38c-2.26.25-6.08,2.32-7.86,1.77-2.55-.8-2-4.83-1.48-6.79a6.06,6.06,0,0,1,1.94-3.68q2.23-2.91,5.56-.68l3.2-1.33c-2.86-3.21-8.92-3.17-11.61.33-2.43,3.16-3.34,10.57.11,13.36s8.55,0,10.71-3.17A9.92,9.92,0,0,0,451,123c-1.87-1.48-4.54,1.15-2.65,2.65a6.15,6.15,0,0,1,2.75,5.31c-.06,1.41-1.75,6.92-4.3,6-1.55-.54-2.45-3-2.5-4.38-.1-3.06,4.15-7.24,7.12-3.91,1,1.14,3.39.3,3.2-1.33-1.12-9.66-12.51-3.58-14.72,2.39a12.17,12.17,0,0,0,1.67,11.55c3.29,4,7.17-.36,11.14-.8a1.93,1.93,0,0,0,1.81-1.38c.73-3.73,1.74-7.51,2.1-11.3.45-4.73-3.21-9-.27-13.36l-3.43-.45,1.2,6.83,3.62-1a17.09,17.09,0,0,1-1.06-4.85,1.89,1.89,0,0,0-3.68-.5,8.4,8.4,0,0,0-.66,3.91c.11,2.4,3.76,2.43,3.75,0v-3c0-2.41-3.76-2.42-3.75,0Z" transform="translate(-188.21 -0.63)"/><path class="cls-3" d="M451.28,134.88a4.77,4.77,0,0,0,1.44,5,5.88,5.88,0,0,0,5.27,1.77,1.89,1.89,0,0,0,1.31-2.31A1.91,1.91,0,0,0,457,138c-.55.11-1.26-.44-1.63-.81s-.67-.82-.47-1.32a1.89,1.89,0,0,0-1.31-2.31,1.92,1.92,0,0,0-2.31,1.31Z" transform="translate(-188.21 -0.63)"/><path class="cls-3" d="M460.2,137.29c-4-3.75-1.1-7.2-.36-11.52.53-3.07,0-6.17-.55-9.21-.41-2.37-4-1.37-3.62,1a22.14,22.14,0,0,1,.41,7.7c-.4,2.28-1.64,4.3-1.85,6.63a9.69,9.69,0,0,0,3.32,8.05c1.76,1.64,4.42-1,2.65-2.65Z" transform="translate(-188.21 -0.63)"/><path class="cls-3" d="M455.52,117.55a37.49,37.49,0,0,1-5.38,11c-2.1,2.9-4.9,5.22-6.55,8.43a1.88,1.88,0,0,0,2.94,2.27,25.58,25.58,0,0,0,7.27-10.56l-3.62-1a21.7,21.7,0,0,1-3.22,7.53l3.43,1.44a105.38,105.38,0,0,1,2.16-10.5c.62-2.41-2.71-3.15-3.62-1a35.49,35.49,0,0,1-4.07,7.46l3.43,1.44a20.57,20.57,0,0,0,1.68-6.56c.12-1.82-2.7-2.61-3.49-.95-.87,1.83-1.66,3.67-2.38,5.56h3.62c-.3-.76,2.33-4.53,2.74-5.3,1.12-2.13-2-4-3.24-1.89a22.19,22.19,0,0,0-3,8.39c-.33,2.36,3.28,3.38,3.62,1a19.69,19.69,0,0,1,2.6-7.5l-3.24-1.89c-1.15,2.17-4.15,5.6-3.11,8.19a1.89,1.89,0,0,0,3.62,0c.6-1.59,1.27-3.13,2-4.67l-3.49-.95a17.51,17.51,0,0,1-1.55,5.56c-.87,2.12,2.28,3,3.43,1.44a39.61,39.61,0,0,0,4.45-8.36l-3.62-1a105.38,105.38,0,0,0-2.16,10.5,1.88,1.88,0,0,0,3.43,1.44,24.44,24.44,0,0,0,3.6-8.43,1.88,1.88,0,0,0-3.62-1,21.77,21.77,0,0,1-6.3,8.91l2.94,2.27c1.82-3.54,5.07-6.17,7.28-9.48a41.24,41.24,0,0,0,5-10.84c.71-2.31-2.91-3.3-3.62-1Z" transform="translate(-188.21 -0.63)"/><path class="cls-2" d="M366.91,559.87c4.72,11.36-16.21,11.64-22.51,12.41-9.78,1.19-19.56,2.41-29.34,3.58a213.16,213.16,0,0,1-29.38,2c-1.36,0-5.73.5-6.73-.47-2.87-2.78,2.82-4.27,4.47-4.9,5.15-2,10.69-3.51,16.23-2.71v-4.82a60.19,60.19,0,0,0-22.12,8.77l3,.39a6.54,6.54,0,0,1-2.49-3.27,2.51,2.51,0,0,0-2.16-1.24c-6.33-.35-6.62,7-3,10.56,4.7,4.59,11.69,4.42,17.69,3.31,8.93-1.66,17.59-4.5,26.56-6.08a220.31,220.31,0,0,1,31-3.14l-.66-4.91a187.82,187.82,0,0,1-64.06,3.34v5a214,214,0,0,0,33.23-2.24c2.76-.4,2.14-5.2-.66-4.91a115.06,115.06,0,0,0-17.22,3c-3.05.8-18,7.44-18.38,1.6-.22-3.19-5.22-3.22-5,0,.43,6.34,6.38,8.55,12,7.21,4.3-1,8.42-2.87,12.72-4a106.18,106.18,0,0,1,15.89-2.84l-.66-4.91a205.58,205.58,0,0,1-31.9,2.06c-3.3,0-3.11,4.63,0,5a191.83,191.83,0,0,0,65.39-3.52c2.74-.62,2.16-5-.66-4.91a228.66,228.66,0,0,0-37.9,4.36c-5.87,1.19-11.6,2.8-17.4,4.23a35.31,35.31,0,0,1-8.75,1.31,14.68,14.68,0,0,1-4.11-.53l-1.88-.78a3.16,3.16,0,0,1-2.27-3.26l-2.16-1.24a12.7,12.7,0,0,0,3.27,4.29,2.56,2.56,0,0,0,3,.39A56.68,56.68,0,0,1,301,569.74c2.35-.43,2.43-4.47,0-4.82-6.89-1-13.3.57-19.74,3-3.7,1.4-8.87,4-8.66,8.7.2,4.39,4.61,5.63,8.19,6,8.07.8,16.46.07,24.5-.69,15.58-1.49,31.11-3.66,46.65-5.56,5.34-.65,11.19-1.06,15.62-4.45,4.1-3.14,6.23-8.46,4.19-13.37-1.22-2.93-6.06-1.64-4.82,1.33Z" transform="translate(-188.21 -0.63)"/><path class="cls-2" d="M534.47,568.18c2.24,8.51,9.12,15,15.84,20.3,5.92,4.65,16.24,7.1,23.37,3.7,6-2.85,6.93-10.52,4.44-16.08-1.71-3.8-4.63-6.86-7.44-9.87l-12-12.87c-1.84-2-4.58.15-4.18,2.43,1.64,9.35,11.44,12.7,15.48,20.56.94,1.84,3.21,6.62,2.2,8.73-1.3,2.71-6.09.27-8.19-.45-3.42-1.17-17-5.52-16.54-10.46l-3.16,2.41c6.35,1.11,12.89.55,19.17,1.63,1.38.24,3.83.61,4.72,1.93,2.8,4.2-.88,3.21-2.73,2.75-.26-.06-10.45-4.47-10.38-4.68L553.29,580c5.07-1.15,11.9.56,14.2,5.49l1.49-3.67a3.67,3.67,0,0,1-4.82-2.15l-1.49,3.67a9.83,9.83,0,0,0,7-12.45l-4.57,1.93.86,1.47c1.62,2.78,5.95.26,4.32-2.52l-.86-1.47c-1.41-2.42-5.38-.83-4.57,1.93a4.78,4.78,0,0,1-3.46,6.3,2.54,2.54,0,0,0-1.49,3.67,8.29,8.29,0,0,0,10.47,4.44,2.55,2.55,0,0,0,1.49-3.67,13.36,13.36,0,0,0-8.2-7c-2.95-1-9.85-2.56-12.5-.35-6.43,5.35,10.88,11.73,14.13,12.43,6.31,1.36,11.92-3.84,7.69-9.94-2.08-3-5.66-4.43-9.16-4.89-6.06-.79-12.1-.37-18.18-1.43a2.55,2.55,0,0,0-3.16,2.41c-.62,7.14,9.37,10.82,14.57,13.08,4.49,2,14,7,18.47,2.52s.4-13.86-2.43-18c-4.13-6-12.4-9.65-13.74-17.31l-4.18,2.43c4.06,4.34,29.27,26.73,15.26,31.05-7.23,2.23-14.48-1-19.77-5.77-4.83-4.33-9.62-8.85-11.32-15.33-.82-3.11-5.64-1.79-4.82,1.33Z" transform="translate(-188.21 -0.63)"/><path class="cls-2" d="M548.05,574.27q5.2,3.16,10.33,6.42l1.93-4.57a34.61,34.61,0,0,1-12.07-4.53c-2.52-1.52-4.85,1.85-3,3.93,4.88,5.57,9.7,11.2,14.65,16.71,3.73,4.15,7.67,6.39,13.38,6,10.14-.77,9.23-17.34,3.67-23-2-2-5.32.56-3.93,3a33.09,33.09,0,0,1,3.93,10.54c.29,1.63.91,3.74-.27,4.76s-4.11-.09-5.57-.42a36.83,36.83,0,0,1-17.54-9.68c-2-1.89-5.69.68-3.93,3,4.74,6.32,15.22,17.62,24.28,14.44,7.56-2.66,5.72-14.35-2.51-12.08a2.53,2.53,0,0,0-1.49,3.67,30.76,30.76,0,0,0,5.73,7.12,2.54,2.54,0,0,0,3,.39c2.42-1.8,3.56-4.27,2.43-7.23l-4.57,1.93q-3.53,4.52-6.37,1.11a17.26,17.26,0,0,1-2.28-2.79c-1.86-2.59-6.2-.1-4.32,2.52,3,4.18,7.48,8.6,13.16,6.95a7,7,0,0,0,4.12-10.32c-1.34-2.41-5.61-.77-4.57,1.93l-.13,1.58,3,.39a26.39,26.39,0,0,1-4.94-6.11l-1.49,3.67q-2.49,3.67-5.25,1.72a16.53,16.53,0,0,1-2.7-1.43,33.36,33.36,0,0,1-3.69-2.6,40.19,40.19,0,0,1-7.15-7.4L550,587c6.66,6.46,17.84,13.14,27.6,11.86,9.93-1.31,2.4-18.35-.29-23.11l-3.93,3c2.88,2.91,3.48,9.09,1.47,12.78-2.24,4.11-8.08.69-10.44-1.71-5.51-5.62-10.47-11.93-15.66-17.85l-3,3.93a38.63,38.63,0,0,0,13.26,5,2.51,2.51,0,0,0,1.93-4.57q-5.14-3.26-10.33-6.42c-2.76-1.68-5.27,2.64-2.52,4.32Z" transform="translate(-188.21 -0.63)"/><path class="cls-2" d="M555.88,548.2c1.62,10.7,11.61,17.3,17.34,25.77a53.11,53.11,0,0,1,7.53,16.22c.42,1.62,2.36,7.45,1.32,8.87-1.19,1.65-7,.29-8-1l-2.82,3.67A34.9,34.9,0,0,0,582.89,603a2.55,2.55,0,0,0,2.5-2.5,8.53,8.53,0,0,0-3.78-7.41c-1.61-1.24-3.68.48-3.76,2.16-.14,2.92-3.73,4.22-6.12,3.88a12.66,12.66,0,0,1-4-1.56,32.34,32.34,0,0,1-6.36-4.67,39.46,39.46,0,0,1-8.3-11.08c-1.48-2.86-5.79-.33-4.32,2.52,3.93,7.62,10.26,14.88,18.23,18.43,6.67,3,15.44.89,15.84-7.51l-3.76,2.16,1.3,3.09,2.5-2.5a31,31,0,0,1-10.3-1.09c-1.92-.53-4.19,1.86-2.82,3.67,3.07,4.07,9.79,5.56,14.51,3.32,5.26-2.49,2.26-11.59,1.09-15.78a59.6,59.6,0,0,0-10.59-20.44c-5.12-6.57-12.75-12.07-14.06-20.77-.48-3.17-5.3-1.82-4.82,1.33Z" transform="translate(-188.21 -0.63)"/><path class="cls-2" d="M532.41,558.18c-3.23,16.85,11.18,28.12,23.16,37,5.44,4.05,12.6,9.6,19.67,10.19,2.6.22,5.36-.42,6.88-2.74,2-3,.23-6.27.83-9.49s-4.23-4.49-4.82-1.33c-.29,1.54.52,4.74,0,5.93-.74,1.71-3.45,2.25-4.93,2s-3.33-1.42-4.68-2.12a94.16,94.16,0,0,1-13.9-9.43c-8.91-6.94-19.84-16.06-17.4-28.75.6-3.14-4.21-4.49-4.82-1.33Z" transform="translate(-188.21 -0.63)"/></svg>