<svg xmlns="http://www.w3.org/2000/svg" viewBox="0 0 479.91 234.29"><defs><style>.cls-1{fill:#5e7d8b;}.cls-2,.cls-3{fill:none;}.cls-2,.cls-3,.cls-6{stroke:#5f7c8a;stroke-miterlimit:10;}.cls-2{stroke-width:18.63px;}.cls-3{stroke-width:7.45px;}.cls-4{fill:#fff;}.cls-5,.cls-6{fill:#5f7c8a;}.cls-6{stroke-width:1.86px;}</style></defs><title>LOGO V.2</title><g id="Layer_2" data-name="Layer 2"><path class="cls-1" d="M636.16,184.24v46.11h-19V414.67H557.25V230.36H521.81V184.24Z" transform="translate(-156.25 -183.53)"/><path class="cls-1" d="M504.33,183.53V367.48h36.36v46H444.53v-230Z" transform="translate(-156.25 -183.53)"/><polyline class="cls-2" points="36.94 90.39 36.94 221.71 195.04 221.71"/><polyline class="cls-2" points="81.03 9.36 236.25 9.36 236.25 188.18"/><polyline class="cls-3" points="94.07 31.09 213.9 31.09 213.9 176.07"/><path class="cls-4" d="M168.43,207.81c.07.35-.08.48-.42.45Z" transform="translate(-156.25 -183.53)"/><path class="cls-5" d="M233,241.68l-.07.69c-.4.07-.77.16-1.15.19a1.23,1.23,0,0,0-1.08.43c-.12.17-.45.18-.68.27-.18.87,0,1.3.7,1.73a2.42,2.42,0,0,1,.71.64,10,10,0,0,0,.93.9c.65-.36.65-1.09,1.09-1.5.35.52.35.56,0,1-.68.79-.69.8,0,1.56,1.18,1.27,2.38,2.51,3.57,3.77.3.32.58.65.87,1a.93.93,0,0,0,1.54-.07c0,.21,0,.37,0,.45a1,1,0,0,0,.13,1.37c1,1.11,2.06,2.25,3.08,3.38s1.91,2.12,2.88,3.16c1.54,1.64,3.09,3.25,4.64,4.88.49.52,1,1.06,1.45,1.57a3.52,3.52,0,0,0,.67.41,6.53,6.53,0,0,0,.63.85q3.12,3.16,6.27,6.29c.67.67,1.36,1.31,2,2a1,1,0,0,0,1.38.24.81.81,0,0,0,.15,1.23c1,1,1.92,2,2.9,2.94a1.19,1.19,0,0,0,.5.19,8.18,8.18,0,0,0,.7.95c1,1,1.93,1.89,2.89,2.84s1.88,1.93,2.85,2.87c1.53,1.48,3.09,2.94,4.62,4.42.24.23.41.52.65.75.78.76,1.58,1.5,2.36,2.26.22.21.36.55.62.67.67.31,1,1,1.44,1.44,1.12,1.08,2.26,2.13,3.39,3.19.07.07.13.16.2.23l1.85,1.93c.25.26.51.5.76.75.71.71,1.4,1.44,2.12,2.14s1.68,1.6,2.46,2.47c-2.74-2.39-5.24-5-8-7.56.87,1.19,13,13.23,14.2,14.11l-1.3-1.39.12-.13c.3.28.6.55.89.84s.83.9,1.28,1.32a3.26,3.26,0,0,0,.79.37c0,.62.61,1,1.08,1.51,1,1,2,2,3,3,.56.56,1.09,1.14,1.66,1.69.92.89,1.86,1.75,2.77,2.64.34.34.6.77,1,1.09,1.45,1.25,2.7,2.69,4.05,4l5.2,5.17q2.93,2.91,5.86,5.83c2.09,2.09,4.16,4.2,6.25,6.29l5,5c1.18,1.19,2.36,2.39,3.56,3.6l.54-.41c0,.08.13.16.11.19-.28.57,0,.93.4,1.33q4.46,4.47,8.9,9c2,2,4,4,5.93,6,2.16,2.2,4.31,4.43,6.47,6.64,1.23,1.26,2.49,2.49,3.73,3.73.48.49.95,1,1.43,1.49q2.4,2.47,4.81,4.93c.8.82,1.64,1.6,2.44,2.42s1.59,1.72,2.39,2.58l2.15,2.28c1.4,1.48,2.78,3,4.21,4.44.83.85,1.74,1.63,2.59,2.46s1.39,1.43,2.08,2.14q.61.63,1.2,1.28a2.35,2.35,0,0,1,.36.49.39.39,0,0,1-.14.53,8.2,8.2,0,0,0-.67.7,3.6,3.6,0,0,1-1.57-1.37,4.45,4.45,0,0,0-1.25-1.41,6.49,6.49,0,0,1-1.39-1.78,6.64,6.64,0,0,0-.44-.61l-4.49-4.71c-.93-1-1.85-2-2.8-2.93a9.5,9.5,0,0,0-.95-.75c-.1-.08-.26-.14-.28-.24-.26-.9-1.08-1.33-1.65-2-.84-1-1.76-1.85-2.66-2.75-1.1-1.1-2.22-2.18-3.33-3.27-.36-.36-.67-.76-1-1.12q-2.19-2.23-4.41-4.44c-.54-.54-1.12-1-1.68-1.54a1.43,1.43,0,0,1-.21-.22,35.23,35.23,0,0,0-3.38-3.54,26.41,26.41,0,0,0-2.22-2.22c-.7-.59-1.24-1.32-1.91-1.94a25.69,25.69,0,0,0-2.05-1.83c-.4-.3-.64-.71-1-1s-.7-.53-1.21-.91c-.08-.8-.86-1.31-1.56-1.91-1-.87-1.95-1.79-2.88-2.72a5.59,5.59,0,0,0-1.24-1.19,3.45,3.45,0,0,1-.76-.75c-.12-.13-.22-.29-.35-.41L340.15,358a3.71,3.71,0,0,1-.38-.47,1.27,1.27,0,0,0-1.18-.54c.13-.49-.16-.75-.51-1-.52-.44-1-1-1.44-1.45s-1-.9-1.46-1.38c-1.11-1.15-2.2-2.31-3.3-3.48-.05-.06-.08-.16-.14-.18-.64-.16-1-.7-1.44-1.1a14.4,14.4,0,0,1-1.18-1.18,7.22,7.22,0,0,0-1-1,17.77,17.77,0,0,1-1.79-1.75,3.07,3.07,0,0,0-1.81-1.12l0-.65-.77-.73c-.17-.16-.31-.4-.5-.46-.56-.18-.78-.66-1.11-1.06a5.8,5.8,0,0,0-2-1.67c-.13-.06-.31-.18-.32-.29,0-.59-.54-.79-.9-1.06a10.52,10.52,0,0,1-1.21-1.25c-.3-.31-.62-.59-.94-.88s-.59-.55-.91-.8a8.9,8.9,0,0,0-.83-.51,2.6,2.6,0,0,0-1.07-1.42,2.35,2.35,0,0,1-.36-.39c-.07-.08-.11-.22-.18-.24-1-.28-1.17-1.37-1.92-1.87-.17-.11-.29-.3-.47-.38a1.31,1.31,0,0,1-.81-.74c-.05-.14-.17-.32-.28-.34-.56-.11-.8-.57-1.09-1,0,0,0-.05,0-.06-.7-.08-.72-.83-1.15-1.18-.27-.23-.3-.67-.82-.69-.27,0-.28-.52-.66-.65s-.49-.55-.8-.73a1,1,0,0,1-.58-.81c0-.1-.19-.2-.3-.29a9.72,9.72,0,0,1-1.19-.95,9.62,9.62,0,0,0-1.57-1.48c-.36-.25-.55-.76-.91-1a27.61,27.61,0,0,1-3-2.81,1,1,0,0,0-.36-.26.51.51,0,0,1-.4-.49c0-.4-.35-.6-.67-.77-.11-.06-.27-.06-.35-.14-.61-.6-1.2-1.22-1.8-1.84a3.68,3.68,0,0,0-.31-.33,12.72,12.72,0,0,1-1.75-1.65,5.59,5.59,0,0,0-1.15-1c-.17-.12-.46-.07-.69-.1.06-1,.06-1-.82-1.62-.32-.24-.59-.55-.89-.81s-.44-.33-.65-.51-.48-.43-.71-.66-.15-.26-.25-.28c-.61-.12-.82-.63-1.1-1.09a1.66,1.66,0,0,0-.31-.34l-1.35-1.21-2-1.84a1.39,1.39,0,0,1-.32-.33.68.68,0,0,0-.9-.35c-.05,0-.13,0-.26-.09l.49-.44-.44-.24c-.13-.08-.33-.14-.36-.25-.25-.91-1.13-1.25-1.67-1.89a.68.68,0,0,0-.32-.19,1.48,1.48,0,0,1-.9-.86c-.24-.46-.51-1-1.1-1.09a.23.23,0,0,1-.13-.07c-.64-1-2-1.27-2.48-2.42,0-.08-.15-.13-.24-.18a5.61,5.61,0,0,1-1.67-1.61,8.48,8.48,0,0,0-.67-.73c-.73-.69-.93-.69-1.64,0,.07-.15.14-.29.22-.44.28-.51.22-.63-.3-.93a1.58,1.58,0,0,1-.61-.62c-.29-.59-.33-.64-1-.56.13-.83-.31-1.28-1.67-1.69a7.42,7.42,0,0,1-.27-.69c-.11-.37-.51-.18-.68-.36s-.21-.59-.36-.62c-.74-.13-.92-.79-1.29-1.26s-.64-1-1.26-1.17a1.05,1.05,0,0,1-.44-.4,5.67,5.67,0,0,0-2.56-2l0-.78-1-.18a1.2,1.2,0,0,0-1.4-1c.29-.6,0-.91-.4-1.21s-.62-.58-.86-.8c-.37,0-.39.54-.71.28a4.23,4.23,0,0,0-.06-1,.83.83,0,0,0-.51-.48c-.37-.09-.21.36-.42.63a4,4,0,0,0-.13-1.21c-.14-.3-.55-.46-.72-.75a1.72,1.72,0,0,0-.89-.79,2.93,2.93,0,0,1-1.29-1.21c-.21-.3-.58-.45-.77-.79,0-.07-.36,0-.49,0a12.7,12.7,0,0,0-.85-1.15c-.39-.42-.81-.26-1.3.19,0-.28,0-.48.05-.52.42-.27.27-.53,0-.82s-.39-.66-.82-.31l-1.36-1.85a.56.56,0,0,0-.78-.13c-.07-.08-.13-.11-.13-.15a1.82,1.82,0,0,0-.87-1.43,18.26,18.26,0,0,1-1.54-1.23l-.37.29c0-.52-.19-.91-.72-1-.09,0-.22-.12-.22-.18,0-.63-.57-.86-.83-1.3a1.23,1.23,0,0,0-1.3-.64c-.15-.58-.16-1.33-1.07-1.19a1.41,1.41,0,0,0-1.45-1,3,3,0,0,0-1-1.47c-.73-.69-1.34-1.51-2-2.24a9.68,9.68,0,0,0-1.07-.84,2.07,2.07,0,0,1-.38-.33,5.1,5.1,0,0,0-.57-.79c-.51-.44-1.07-.82-1.66-1.26l.1-.36-.75-.31c-.3-.14-.58-.27-.63-.68,0-.17-.27-.36-.46-.45a7.07,7.07,0,0,0-.86-.3,1.42,1.42,0,0,1-.46-.21c-.46-.41-.73-.43-1.14,0a5.64,5.64,0,0,0-.54.64c-.36.48-.36.48-1.09.61a1.13,1.13,0,0,1,.39-.86c.27-.3.56-.59.8-.92.38-.51.29-.85-.29-1.24-.31.16-.63.31-.93.48a1,1,0,0,0-.33.3c-.4.63-.4.64-1.22.34a4.78,4.78,0,0,1,1.67-1.32c-.06-.18-.07-.47-.21-.57-.69-.5-.8-1.34-1.21-2-.16-.26-.31-.52-.46-.79s-.13-.62.32-.71a2.4,2.4,0,0,1,.68-.08,2,2,0,0,0,1.46-.23c.08-.06.25,0,.39,0l.45-.69c.81.39.81.39,1.44-.29.37-.39.75-.77,1.11-1.17s.43-.59.72-1a1.57,1.57,0,0,0,.37,0c.19,0,.46,0,.53-.16a1.37,1.37,0,0,1,1-.66,2.74,2.74,0,0,0,.59-.39l-.51,1.8,1.57.47c.32-.56,1-.53,1.61-.67l-.14.57.76.56Zm64.86,72.86C296.55,312.87,284.35,301,283,300c0,0,0,.11,0,.14a2.25,2.25,0,0,0,.3.44C287.93,305.3,292.35,310.33,297.82,314.54ZM229,244.5c0,.37.06.77-.29,1,0,0,0,.25.05.35a1.29,1.29,0,0,0,1.44.53.77.77,0,0,1,1,.18q.75.76,1.52,1.5a2.44,2.44,0,0,0,.4.25C232.92,247.51,230.31,245.08,229,244.5ZM389.27,406.89l.17-.13a1.26,1.26,0,0,0-.15-.4q-1.21-1.37-2.45-2.73c-.07-.08-.2-.09-.4-.18,0,.22,0,.36.09.44A39.5,39.5,0,0,0,389.27,406.89ZM227,243.3c-.27.74-.1,1,.57,1a1.41,1.41,0,0,0,.45,0,1.86,1.86,0,0,0,.4-.26c-.1-.13-.17-.33-.3-.39A11.24,11.24,0,0,0,227,243.3Zm4.76-1.53c.33.17.57.21.81,0C232.22,241.25,232.16,241.24,231.77,241.77Zm-2.5.58c0,.11,0,.2,0,.24a.19.19,0,0,0,.19,0,.22.22,0,0,0,0-.2S229.36,242.36,229.27,242.35Zm-3,4.75-.08-.08-.3.32.08.08Z" transform="translate(-156.25 -183.53)"/><path d="M293.47,308.64l.8.75a3,3,0,0,1,1.5-.89c0,.76-.88.54-1,1.14a4.35,4.35,0,0,0,1.23,1.44,3.17,3.17,0,0,1,1,1.17l-3.68-3.49Z" transform="translate(-156.25 -183.53)"/><path d="M215.46,194" transform="translate(-156.25 -183.53)"/><path d="M197.7,253.1c.79,0,.78,0,1,.51a5.09,5.09,0,0,0,.42.67A2.34,2.34,0,0,1,197.7,253.1Z" transform="translate(-156.25 -183.53)"/><path d="M297.71,307.44c.41-.75.85-.16,1.25-.16A1.11,1.11,0,0,1,297.71,307.44Z" transform="translate(-156.25 -183.53)"/><path d="M292.55,305a.93.93,0,0,1,.19-1.21c.1.13.28.26.26.33A7.08,7.08,0,0,1,292.55,305Z" transform="translate(-156.25 -183.53)"/><path d="M297.11,307.63l-.88.77C296.08,307.77,296.41,307.46,297.11,307.63Z" transform="translate(-156.25 -183.53)"/><path d="M310.37,323.13c.26.72.26.72-.35,1l.18-1Z" transform="translate(-156.25 -183.53)"/><path d="M190.66,200.5" transform="translate(-156.25 -183.53)"/><path d="M213.94,192.86" transform="translate(-156.25 -183.53)"/><path d="M228.18,221.13l.37,1c-.45-.34-.45-.34-.53-.95Z" transform="translate(-156.25 -183.53)"/><path d="M309,330.43c-.11.42-.47.56-.87.66l.73-.77Z" transform="translate(-156.25 -183.53)"/><path d="M292.84,301.38c-.12-.49.16-.53.54-.57C293.28,301.13,293.15,301.31,292.84,301.38Z" transform="translate(-156.25 -183.53)"/><path d="M174.54,208.86" transform="translate(-156.25 -183.53)"/><path d="M284.55,296.4c-.27-.66-.27-.66.32-.6Z" transform="translate(-156.25 -183.53)"/><path d="M281.92,296.26v-1A.64.64,0,0,1,281.92,296.26Z" transform="translate(-156.25 -183.53)"/><path d="M232.74,220.62" transform="translate(-156.25 -183.53)"/><path d="M275.29,288.24c.12.35.12.35-.18.58a1.33,1.33,0,0,1,0-.35C275.13,288.39,275.21,288.33,275.29,288.24Z" transform="translate(-156.25 -183.53)"/><path d="M312.32,324.73l.2.71C312.22,325.13,312.22,325.13,312.32,324.73Z" transform="translate(-156.25 -183.53)"/><path d="M221.6,249.12l-.45.37c-.05-.07-.11-.12-.1-.15C221.1,249.12,221.19,249,221.6,249.12Z" transform="translate(-156.25 -183.53)"/><path d="M231.64,239.2v.66C231.31,239.56,231.4,239.38,231.64,239.2Z" transform="translate(-156.25 -183.53)"/><path d="M303.53,326.66l-.41.09a.33.33,0,0,1,0-.12l.38-.2Z" transform="translate(-156.25 -183.53)"/><path d="M315.58,327.58c-.19,0-.3,0-.35,0s0-.16,0-.25.16,0,.2,0S315.48,327.43,315.58,327.58Z" transform="translate(-156.25 -183.53)"/><path d="M291,301.82l-.25,0a1,1,0,0,1,.06-.26s.18,0,.18,0A1.18,1.18,0,0,1,291,301.82Z" transform="translate(-156.25 -183.53)"/><path d="M300,314.37a1.44,1.44,0,0,1,0-.33s.11,0,.17,0a.49.49,0,0,1,0,.2S300.12,314.29,300,314.37Z" transform="translate(-156.25 -183.53)"/><path d="M312.3,322.74c-.1,0-.19,0-.22,0s0-.13,0-.19.16,0,.2,0S312.28,322.64,312.3,322.74Z" transform="translate(-156.25 -183.53)"/><path d="M283.82,297.17c0-.11,0-.19,0-.23s.11-.06.17-.09,0,.14,0,.19S283.91,297.11,283.82,297.17Z" transform="translate(-156.25 -183.53)"/><path d="M340.39,354.22c0-.07,0-.14,0-.15a1,1,0,0,1,.19-.07s0,.11,0,.13A.84.84,0,0,1,340.39,354.22Z" transform="translate(-156.25 -183.53)"/><path d="M270.95,292.92l.14-.3.11,0-.1.32Z" transform="translate(-156.25 -183.53)"/><path d="M297.63,312.34l-.06.38C297.33,312.54,297.33,312.54,297.63,312.34Z" transform="translate(-156.25 -183.53)"/><path d="M270.51,296.74c.05-.13.06-.21.11-.24s.12,0,.18,0,0,.11-.05.13A1.14,1.14,0,0,1,270.51,296.74Z" transform="translate(-156.25 -183.53)"/><path d="M295.6,306.84a1.78,1.78,0,0,1,.36.19.19.19,0,0,1,0,.18.21.21,0,0,1-.19,0S295.71,307.15,295.6,306.84Z" transform="translate(-156.25 -183.53)"/><path d="M197.25,255.12l.06-.24a.82.82,0,0,1,.19.05.15.15,0,0,1,0,.13A.87.87,0,0,1,197.25,255.12Z" transform="translate(-156.25 -183.53)"/><path d="M194.61,253v-.18s.12,0,.13,0a.57.57,0,0,1,0,.18Z" transform="translate(-156.25 -183.53)"/><path d="M222.5,247.47a.64.64,0,0,1,.17.08s0,.12,0,.12l-.18,0Z" transform="translate(-156.25 -183.53)"/><path d="M266,289.1a.5.5,0,0,1,0-.2s.11,0,.18,0a1,1,0,0,1,0,.21S266,289.1,266,289.1Z" transform="translate(-156.25 -183.53)"/><path d="M296.45,310.71s0-.09,0-.13.07,0,.11,0l0,.17Z" transform="translate(-156.25 -183.53)"/><path d="M208.87,256.56h-.13l0-.16s.09,0,.11.05S208.89,256.52,208.87,256.56Z" transform="translate(-156.25 -183.53)"/><path d="M301.8,302.55c.05-.1.07-.18.12-.22s.12,0,.18,0,0,.16-.07.19S301.91,302.55,301.8,302.55Z" transform="translate(-156.25 -183.53)"/><path d="M303.83,361.67a.89.89,0,0,1,0,.16l-.19,0s0-.12,0-.13A.71.71,0,0,1,303.83,361.67Z" transform="translate(-156.25 -183.53)"/><path d="M244.75,417.83c-.1,0-.19,0-.21-.08s0-.12,0-.17a.15.15,0,0,1,.12,0A.79.79,0,0,1,244.75,417.83Z" transform="translate(-156.25 -183.53)"/><path d="M320.31,331.36a.68.68,0,0,1,0,.19s-.08,0-.13,0a1,1,0,0,1,0-.19A.7.7,0,0,1,320.31,331.36Z" transform="translate(-156.25 -183.53)"/><path d="M336.45,355l-.23,0a.57.57,0,0,1,0-.19.14.14,0,0,1,.12,0A.65.65,0,0,1,336.45,355Z" transform="translate(-156.25 -183.53)"/><path d="M173.77,210.72s-.06-.08-.05-.11.07,0,.11-.06l.07.15Z" transform="translate(-156.25 -183.53)"/><path d="M273.49,294.71a.91.91,0,0,1-.09.2s-.08,0-.13,0a1,1,0,0,1,0-.18Z" transform="translate(-156.25 -183.53)"/><path d="M180.59,244.26s-.09,0-.11,0,0-.08,0-.11.09,0,.11.05S180.6,244.22,180.59,244.26Z" transform="translate(-156.25 -183.53)"/><path d="M287.64,284.71l-.11.05s0-.09,0-.11.07,0,.11-.05Z" transform="translate(-156.25 -183.53)"/><path d="M279.5,293l0-.14h.18s0,.11,0,.13S279.54,293,279.5,293Z" transform="translate(-156.25 -183.53)"/><path d="M275.21,296.22l-.12.16s-.09-.06-.09-.09a.17.17,0,0,1,.08-.11S275.14,296.2,275.21,296.22Z" transform="translate(-156.25 -183.53)"/><path d="M274.43,287a1,1,0,0,1,0-.2s.08,0,.12,0a1.26,1.26,0,0,1,0,.2Z" transform="translate(-156.25 -183.53)"/><path d="M287.91,298.66l.12,0s0,.13,0,.14a.46.46,0,0,1-.17,0Z" transform="translate(-156.25 -183.53)"/><path d="M231.52,210.2l.08-.27h.09l0,.28Z" transform="translate(-156.25 -183.53)"/><path d="M228.43,213.36s-.09,0-.11,0,0-.08,0-.11.09,0,.11,0S228.44,213.32,228.43,213.36Z" transform="translate(-156.25 -183.53)"/><path class="cls-5" d="M226.89,232.39A6.25,6.25,0,0,1,229.4,230l1.27.67c-.72,1.4-1.42,2.82-2.18,4.2s-1.48,2.55-2.26,3.81a12.87,12.87,0,0,1-1,1.37A9.68,9.68,0,0,0,223,243c-.08.25-.35.45-.53.67-1.3,1.53-2.59,3.07-3.9,4.59a8.91,8.91,0,0,1-1.06,1,1.28,1.28,0,0,1-.66.27c-.8.08-1.61.09-2.41.19a2.25,2.25,0,0,0-.88.38,7.51,7.51,0,0,0-1.39,1,4,4,0,0,1-3.3,1.28,1.79,1.79,0,0,0-.78.29c-.18.09-.33.33-.5.33-1.19,0-1.25.85-1.41,1.74a6.15,6.15,0,0,1-1.9,3.35c-.48-.85-.46-1.07.06-1.78a4.77,4.77,0,0,0,.83-1.34,1.51,1.51,0,0,0-.19-1.24c-.35-.4-.82-.1-1.18.23a4.48,4.48,0,0,1-.42.3c.13-1.08.27-1.17,1.19-1.32a11.26,11.26,0,0,0,2.11-.6.88.88,0,0,0,.62-1.13,12.82,12.82,0,0,0-2.87-.08,8.3,8.3,0,0,1-1.92-.23,1.46,1.46,0,0,1-1.15-1.15,2,2,0,0,0-.63-.82c-.67-.62-1.35-1.24-2.07-1.82a7.34,7.34,0,0,0-1.16-.62,15.06,15.06,0,0,1,.87-1.46c1.39-1.83,2.82-3.63,4.21-5.45,2.52-3.29,5.46-6.22,8.17-9.35,1.75-2,3.38-4.12,5.1-6.16.87-1,1.81-2,2.72-3,0,0,.15,0,.41-.09.14.36.32.74.45,1.14a3.35,3.35,0,0,0,3.11,2.26,4.93,4.93,0,0,1,1.1.11,3,3,0,0,0,2.25-.3c.46-.24,1-.31,1.48-.53a13,13,0,0,0,1.32-.82c.25,1.1.25,1.1-1,1.45-.14.62,0,1.3-.53,1.91a2.14,2.14,0,0,1-1.57.95c-.45,0-.88.47-1.39.78,1.72.92,2.49.77,3.49-.54.42-.56.83-1.12,1.3-1.64.15-.16.47-.16.72-.24,0,.26.08.59,0,.77-.65.9-1.33,1.77-2,2.62a3.73,3.73,0,0,0-.69,3.4c-.33.11-.79.13-.7.63,0,.14.33.23.6.41Zm-2.64,5.27c0,.2,0,.36.09.4a.33.33,0,0,0,.31,0c.07-.06.06-.2.09-.3Z" transform="translate(-156.25 -183.53)"/><path class="cls-4" d="M186.55,223.46a12.67,12.67,0,0,1-1.52-.66c-1.71-1-3.4-2.05-5.09-3.1-.8-.5-1.56-1.06-2.38-1.53-1-.57-2-1-3-1.61a4.31,4.31,0,0,1-1.53-1,1.31,1.31,0,0,1,1.21.11c1,.44,1.93.93,2.88,1.41.23.11.44.26.67.37,1.83.9,3.49,2.1,5.23,3.15.76.46,1.5,1,2.26,1.42a4.42,4.42,0,0,1,1.39,1.26Z" transform="translate(-156.25 -183.53)"/><path class="cls-4" d="M190.62,238.47a15.64,15.64,0,0,1-2.49-3.5c.59.12.8.61,1.1,1s.59.76.9,1.14A1.86,1.86,0,0,1,190.62,238.47Z" transform="translate(-156.25 -183.53)"/><path class="cls-4" d="M204.07,244.74c.21,0,.41,0,.52,0a9.94,9.94,0,0,1,1.78,1.62A3.58,3.58,0,0,1,204.07,244.74Z" transform="translate(-156.25 -183.53)"/><path class="cls-4" d="M200.74,249.14a5.86,5.86,0,0,1,1.76,1.17C202,250.32,201.7,250.15,200.74,249.14Z" transform="translate(-156.25 -183.53)"/><path class="cls-4" d="M174.75,225l.21-1.19c.42,0,.53.21.64.53Z" transform="translate(-156.25 -183.53)"/><path class="cls-4" d="M174.1,226a1,1,0,0,1-.12-1.22C174.45,225.14,174.46,225.22,174.1,226Z" transform="translate(-156.25 -183.53)"/><path class="cls-4" d="M180,213.2l1.2-.55c-.12.28-.14.45-.22.5C180.74,213.29,180.51,213.58,180,213.2Z" transform="translate(-156.25 -183.53)"/><path class="cls-4" d="M205,233.69l.17-1.11c.19.24.32.34.33.45S205.48,233.52,205,233.69Z" transform="translate(-156.25 -183.53)"/><path class="cls-4" d="M207.5,249.09a.62.62,0,0,1-.43.85A.77.77,0,0,1,207.5,249.09Z" transform="translate(-156.25 -183.53)"/><path class="cls-4" d="M193.53,232.18a1.57,1.57,0,0,1-.55-.05c-.07,0-.05-.24-.08-.37a1.31,1.31,0,0,1,.48,0C193.46,231.74,193.47,232,193.53,232.18Z" transform="translate(-156.25 -183.53)"/><path class="cls-4" d="M178.26,239.53c.19.09.35.12.38.19a1.08,1.08,0,0,1,0,.41c-.11,0-.27,0-.31-.1A1.51,1.51,0,0,1,178.26,239.53Z" transform="translate(-156.25 -183.53)"/><path class="cls-4" d="M174.25,227c-.52.17-.63,0-.43-.47Z" transform="translate(-156.25 -183.53)"/><path class="cls-4" d="M175.47,231.9c.17,0,.33,0,.34,0a2.93,2.93,0,0,1,.11.45c-.09,0-.23,0-.27,0A1.77,1.77,0,0,1,175.47,231.9Z" transform="translate(-156.25 -183.53)"/><path class="cls-4" d="M173,227.2c.17.06.26.06.29.11a.93.93,0,0,1,.1.25c-.08,0-.19.06-.23,0S173.05,227.44,173,227.2Z" transform="translate(-156.25 -183.53)"/><path class="cls-4" d="M202.92,250.63l.27.26-.08.11-.31-.22Z" transform="translate(-156.25 -183.53)"/><path class="cls-4" d="M176.05,212.94c0-.09-.09-.18-.13-.28l.1-.06c.07.08.12.16.18.24Z" transform="translate(-156.25 -183.53)"/><path class="cls-4" d="M297.82,314.54c-5.47-4.2-9.89-9.23-14.59-14a2.25,2.25,0,0,1-.3-.44s0-.09,0-.14C284.35,301,296.55,312.87,297.82,314.54Z" transform="translate(-156.25 -183.53)"/><path class="cls-4" d="M229,244.5c1.27.59,3.88,3,4.09,3.84a2.44,2.44,0,0,1-.4-.25q-.77-.74-1.52-1.5a.77.77,0,0,0-1-.18,1.29,1.29,0,0,1-1.44-.53c-.05-.1-.1-.31-.05-.35C229.11,245.27,229,244.87,229,244.5Z" transform="translate(-156.25 -183.53)"/><path class="cls-4" d="M389.27,406.89a39.5,39.5,0,0,1-2.75-3c-.06-.07,0-.22-.09-.44.2.09.33.11.4.18q1.24,1.35,2.45,2.73a1.26,1.26,0,0,1,.15.4Z" transform="translate(-156.25 -183.53)"/><path class="cls-4" d="M227,243.3a11.24,11.24,0,0,1,1.12.36c.13.06.2.26.3.39a1.86,1.86,0,0,1-.4.26,1.41,1.41,0,0,1-.45,0C226.9,244.33,226.73,244,227,243.3Z" transform="translate(-156.25 -183.53)"/><path class="cls-4" d="M231.77,241.77c.39-.52.46-.52.81,0C232.34,242,232.09,241.93,231.77,241.77Z" transform="translate(-156.25 -183.53)"/><path class="cls-4" d="M229.27,242.35c.1,0,.19,0,.22,0a.22.22,0,0,1,0,.2.19.19,0,0,1-.19,0S229.28,242.45,229.27,242.35Z" transform="translate(-156.25 -183.53)"/><path class="cls-4" d="M226.24,247.09l-.3.32-.08-.08.3-.32Z" transform="translate(-156.25 -183.53)"/><path d="M223.91,234.08l0,.64c-.17-.11-.36-.17-.38-.25-.05-.31.23-.32.43-.39Z" transform="translate(-156.25 -183.53)"/><path d="M222.27,237.36l.3,0c0,.06,0,.15-.05.19a.21.21,0,0,1-.19,0S222.29,237.48,222.27,237.36Z" transform="translate(-156.25 -183.53)"/><path class="cls-5" d="M219.86,219.65s5.24-10,8.94-10c0,0-2.32,13.71-6.08,18.37" transform="translate(-156.25 -183.53)"/><path class="cls-5" d="M203.38,249.55s-13,11-16.45,9.7c0,0,6.82-12.11,11.93-15.23" transform="translate(-156.25 -183.53)"/><path class="cls-5" d="M210.28,231.06s-43.15-28.2-49.37-28.07l-4.66,5.38s45.17,22,49.47,30.47" transform="translate(-156.25 -183.53)"/><path class="cls-2" d="M401.81,375.75" transform="translate(-156.25 -183.53)"/><path class="cls-6" d="M401.81,375.75" transform="translate(-156.25 -183.53)"/><polyline class="cls-5" points="227.01 187.02 227.01 195.17 245.63 214.26 245.63 187.31"/><polyline class="cls-5" points="193.89 212.4 199.7 212.4 218.79 231.02 194.18 231.02"/><polyline class="cls-5" points="210.19 175.29 210.19 178.54 217.61 186.15 217.61 175.4"/></g></svg>