<svg id="Layer_1" data-name="Layer 1" xmlns="http://www.w3.org/2000/svg" viewBox="0 0 563.21 612"><defs><style>.cls-1{fill:#fefefe;}.cls-2{fill:#734c34;}.cls-3{fill:#b29379;}</style></defs><title>lungeImage</title><g id="lunge4_edit.psd"><path class="cls-1" d="M681.1,306q0,151.44.06,302.89c0,2.54-.57,3.11-3.11,3.11q-278.49-.1-557,0c-2.54,0-3.11-.57-3.11-3.11q.1-302.89,0-605.77c0-2.54.57-3.11,3.11-3.11Q399.56.1,678,0c2.54,0,3.12.57,3.11,3.11Q681.05,154.56,681.1,306Zm-40.5,30.78a.82.82,0,0,0,.94.88l.16.09c.59,1,1.09,1.13,1.44-.15l.1-.11c1-.16,1-.71.62-1.46l.32-3.25.08-.69,0-1.44a2.7,2.7,0,0,0-.11-3.43l-.34-2a5.74,5.74,0,0,0,.07-4.56A77,77,0,0,1,639.77,307l-.69-2.77c.67-2.1-.89-3.28-1.91-4.7-3-4.14-5.69-8.5-9.21-12.25l-.25-1a2.93,2.93,0,0,0-1.22-3.25,2.51,2.51,0,0,0-.27-.53,4.87,4.87,0,0,0-2.57-4.08l-.06-.11a.46.46,0,0,0-.32-.71l-1.84-3.22c-.13-1.33-1.07-2.18-1.88-3.09q-6.94-7.78-13.93-15.52c-3.43-3.78-6.3-8.08-10.26-11.39l-.1-.11a2.85,2.85,0,0,0-2.1-2.52l-24.51-28.39c-2.52-4.68-7-7.36-10.84-10.73-4.29-3.8-9.8-6-14-9.79-7.57-6.69-14.18-14.41-20.54-22.24s-7.13-8.42-15.29-3.94c-.16.09-.23.35-.34.54l0,.05a19.75,19.75,0,0,0-6.11,3.33l-8.66,5.61c-1-.07-2.45-.17-2.27-1.4.23-1.6.22-2.39-1.66-2.15-.42.05-.49-.52-.3-.73,2.59-2.74-.26-4.58-1.06-7-1.42,1.78-.55,3.73-1.06,5.39s-1.1,3.56-3.88,1.83c2.61-1.76,1.89-4,1.58-6.56-.8-6.48-1.81-13-.71-19.55.55-3.26-1.89-8.64-4.75-10-1.11-.53-2.25,0-1.78.83,1.78,3.15,0,6.6,1.15,9.72.82,2.23-.7,2-1.91,1.66-1.52-.47-4.05-7.07-3.14-8.49,1.49-2.3.16-2.35-1.46-2-1.12.22-2.46.93-2.83-.56s1.17-1.56,2.27-1.65,1.8-.39,2-1.47-.56-1.67-1.31-2.18c-1-.71-1.45.36-2.2.75-4.29,2.25-5.11,7.17-8.17,10.35-.72.74-1,1.67-2.28,1.4-1.58-.33.19-1.88-1.19-2.55-4.1,3.74-8.44,7.36-11.95,11.87-.8,1-.13,2.43-1.24,3.37-4.22,3.57-8.56,6.94-12.51,10.92-3.69,3.71-6.49,8.46-11.75,10.86-3.07,1.4-5,5-7,8-1.71-.65-3.25,1.22-5,.33a6.33,6.33,0,0,1,1.85-4.23,54.75,54.75,0,0,1,5.36-5.13c1.78-1.33,2-2.58.78-4.22-1.48-2-2.56-.05-3.64.54a39.38,39.38,0,0,0-4.73,3.2c-1.62,1.24-3.67,1.61-4.93.35-1.43-1.44.34-3,1.08-4.46,1.69-3.36,5.38-2.73,8-4.28,1-.6,2-1.05,1.83-2.49s-1.26-1.54-2.43-1.79a5.62,5.62,0,0,0-4.75.81c-2.64,2-5.76,3.26-7.88,5.9-.46.57-1.15,1-1.77.57-3-2-2.69,1-3.23,2.24-.42.94-.1,2.22-.11,3.34l-3-.56c.15-3-1.21-5-3.08-4.44-1,.3-2,1.49-3,.14s-.15-2.23.63-3.33c2.5-3.51,2-5.61-1.56-8.11s-8-3.28-11.29-6.37c-.69-.66-3.42-7.72-2.92-8.58a2.25,2.25,0,0,1,.76-.61c3.79-2.46,11.35-2.22,15.06.52,1.31,1,2.3,2.67,4.35,1.51.76-.43,1.36-1,1.11-1.88-.54-1.77-2.09-2.55-3.66-3.23-.31-.13-.67-.13-1-.26a10.74,10.74,0,0,1-5-4.8c-.5-.89-1.14-2.68.74-2.39,2.27.35,4.13-.38,6.2-.78,1.66-.32,3.76-.8,5.2.57,3.67,3.5,8.2,2.38,12.48,2.55,1.39.06,1.81-1.05,1.17-2.09-2-3.2.61-3.82,2.57-4.44,3.82-1.2,7.56,1.17,11.42.59,1.08-.16,2.59.35,3-.92.5-1.56-1.31-1.82-2.18-2.52a3.83,3.83,0,0,0-2.2-.75c-3.59,0-6.67-1.84-10-2.8a13,13,0,0,1-5.45-3c-3.05-2.78-7.13-3.57-11.26-3.31-1.3.08-2.48.16-3.45-.78a1.12,1.12,0,0,1-.09-1.55c1-1,2.3-.44,3.49-.24a7.67,7.67,0,0,1,1.65.34c3.85,1.58,7.35.69,11-1,1.74-.82,1.31-1.94,1.52-3.16.33-1.91-1.12-1.28-1.94-1.39-1.05-.14-2-.28-2.48-1.41l4.66-1.41a10.38,10.38,0,0,0,5.6-1.85,30,30,0,0,0,6.91-3.28,33.49,33.49,0,0,0,8.64-4.76c1.19-.57,2.82-1.12,2.5-2.63a3.84,3.84,0,0,0-3.22-3.35c-3.92.11-7.83.26-11.57,1.63l-3.24.27a28.86,28.86,0,0,0-8.35,1.37l-12,1.31a.93.93,0,0,0-1.43.45c-2.47.52-5.77-1.11-7,2.71l-2.61,4h-1.2a18,18,0,0,1-2.85-5.21c-1.67-5-5.71-6.81-10.73-5.11-1.81.61-3.61,1.25-5.38,2-4.53,1.78-8.59-.83-12.85-1.4-5.17-.69-6.49.34-5.75,5.66.27,2-.54,3.5-2.24,4-2.16.67-5,1.18-6.66.84-3.44-.7-2.87.79-2.64,2.68.07.58.34,1.11-.36,1.39a1.05,1.05,0,0,1-1.44-.48c-.31-.53-.66-1-1-1.6-2.51,5.78,1.91,11,1,16.66a128.55,128.55,0,0,1-11.21-19.47c-2,1.87-.6,3.83-.78,5.64-.05.54,0,1.25-.73,1.25-.33,0-.73-.41-1-.73-1.64-2-1.73-5-5.59-5.73-2-.37-5.42-2.79-5.39-6.52,0-.38-.66-.89-1.12-1.14-4.2-2.26-8.27-4.86-12.68-6.61-5.58-2.21-11-4.86-16.93-6.2a3.46,3.46,0,0,1-2.69-2.65c-.33-1,.47-1.35,1.09-1.86,1.17-1,2.26-1.35,3.59-.22s2.62.83,4.4-.24c-2.71-1.72-5.42-2.37-8-3.31-1.35-.5-1,.81-1.23,1.42h0a3.85,3.85,0,0,0-1,0c-2.62.83-5,1.92-8,.27-1.77-1-4.86,2.32-4.61,4.53.12,1,0,1.78-1.08,2.18a1.62,1.62,0,0,1-2.42-.93,9.18,9.18,0,0,0-2.53-2.64c-.86-.69-1.54-1.39-1.2-2.54a2.31,2.31,0,0,1,2.4-1.51c1.33-.05,2.56-.31,3.16-1.56.76-1.59.6-3.55,2-4.95.34-.35,0-.79-.43-1.07-3-1.94-5.3-4.75-9.24-5.52-4.88-1-9.9-.75-14.66-2-16.79-4.26-33.63-8.41-50-14.11-3.33-1.16-7.35-1.91-9.24-5.18a36.33,36.33,0,0,1-3.58-9.8c-2.13-9-5.55-17.53-11.36-24.89-.69-.88-1.49-2.4-3-1.55A3.36,3.36,0,0,0,154.91,9c.18,1.1.67,2.15,1,3.23.88,3.25,1.75,6.51,1.3,9.94l-1.05.61c-1.12-.48-2.17-1.22-3.48-1.13L150,19.5a.57.57,0,0,0-.66-.61l-1-.41a5.3,5.3,0,0,0-2.66-3.32A54,54,0,0,1,135.49,6c-1.57-1.8-3.69-2.41-5.53-3.61-2.77-1.79-3.71.55-5.51,1.71-4.29,2.74-4.42,2.54-3,7.42a4.45,4.45,0,0,0,.65,3.24,6.69,6.69,0,0,0,3.43,6.13l.44.63c-.1,2,1.21,2.91,2.7,3.71a1.3,1.3,0,0,0,.35.46l.11,1.84-.53.53a11.31,11.31,0,0,1-2-1.14c-1.11-1-2.12-2.43-3.66-.88-1.33,1.34-.93,3,.09,4.29,1.59,2,3,4.28,5.65,5.08l.74.69a8,8,0,0,0,2.87,4.06,50.68,50.68,0,0,1,5.89,6.48c6.56,8.13,14.54,14.09,25.17,15.7a32.92,32.92,0,0,1,10.85,3.36c5.86,3.14,11.79,6.13,17.76,9.06,4,2,7.8,4.49,12.19,5.71l1.14.42c.84,1.34,2.22,1.5,3.61,1.61l1,.57a3.08,3.08,0,0,0,2.82,1.06l.07,0c.79,1.42,2.11,1.65,3.56,1.6l1.68.72a5.59,5.59,0,0,0,4.2,1.67l1.33.83a5.45,5.45,0,0,0,4.08,1.87,1.66,1.66,0,0,0,.63.23,2.73,2.73,0,0,0,2.76,1.13,1.67,1.67,0,0,0,.63.22,1.09,1.09,0,0,0,1.65.61,12.67,12.67,0,0,0,4.35,1.71c1.39.75,2.79,1.5,4.46,1l8.45,2.83a1.73,1.73,0,0,0,2.4.63l1.21.31c.35.62.77.77,1.32.23l1.84.22a1.51,1.51,0,0,0,2.23.53l1.78.3a4.78,4.78,0,0,0,3.82,1.18l1.06.56a1.13,1.13,0,0,0,1.66.75l1.06.6a1.17,1.17,0,0,0,1.63.83l2.45,1.18c.28.78.77,1.16,1.62.84l2.36,1.49.78.32,1.28.85a11.1,11.1,0,0,0,7.81,3.35l1.72.78c.62,1.26,2,1.33,3,1.95a53.51,53.51,0,0,0,13.48,5.24c2.85.78,4.37,2.21,4.79,5.24.38,2.76,1.58,5.4,2.05,8.16.51,3,2.13,4.72,4.72,6.09,5.67,3,11.21,6.26,16.83,9.35,2,1.13,3.13,2.52,3,5.08-.41,7.75-.46,15.54-.92,23.27-.35,6-.69,11.89-.8,17.85-.06,3-1.33,5.93-.11,8.93l-.27,10.22c-.65.29-.84.69-.33,1.28a8.72,8.72,0,0,0,0,4.08c-.79,5-.1,10-.5,14.94a107.9,107.9,0,0,0-.34,14c-1.85,5.51-.49,11.11-.42,16.67s-1,11-.76,16.5a30.21,30.21,0,0,1-.49,9.41c-.46,1.72,0,2.79,2.14,3.73,2.91,1.31,6.23,1.47,9.3,3.35-5.57.54-5.57.54-3.79,6.13.14.43.25.86.38,1.29-2.79,1.54-6.36.46-9,2.64-3.45,1.51-3,4-1.53,6.6,1,1.68,1.47,3.21.25,4.92l-1.11.47a3.38,3.38,0,0,0-2.63.07c-9.72,3.66-19.43,7.35-29.16,11s-18.5,8.65-27.41,13.67c-5.64,3.18-11.63,5.87-16.91,9.57a256.37,256.37,0,0,0-33.22,28.42,7.49,7.49,0,0,0-2.62,6.27c.74,8.5,1.26,17,2.28,25.49.36,3,.24,6.31,2.2,9l.3,1.22a3.1,3.1,0,0,0,1,3.54l1.57,7.3c-.65.74-.21,1.16.44,1.52l1,3.91A28.54,28.54,0,0,0,229,453.47l1.46,4.48a3.38,3.38,0,0,0,1.27,3.65l.46,1.16a2,2,0,0,0,.77,2.31l.28,1.21a8.15,8.15,0,0,0,1.74,5.56l.31,1.22a3.37,3.37,0,0,0,1,3.53l.3,1.21a3,3,0,0,0,1.17,3.46l1.47,5.15a3.6,3.6,0,0,0,1.16,3.71l.86,3.07a3.81,3.81,0,0,0,1.14,3.7l.9,3.09a1,1,0,0,0,.54,1.63c2.6,9.32,5.63,18.53,6.34,28.29.77,10.73-1.39,20.59-14.63,23.11-7.63,1.45-15.14,3.62-22.62,5.77a72.14,72.14,0,0,0-20.05,8.81c-.83.55-1.94,1.06-1.7,2.26s1.32,1.05,2.21,1.17A221.25,221.25,0,0,0,225,572.85c19.59-.1,39.19-.5,58.76-1.73,2.68-.17,3.38-1,3.47-3.6.27-8.24-1.09-16.41-.77-24.66a128.3,128.3,0,0,0-.79-16.18c-1.32-14.88-2.77-29.76-5.19-44.53-3.71-22.68-8.75-44.93-19.45-65.5-1.11-2.14-.91-3.31,1.37-4.51,9.76-5.17,19.45-10.49,29.11-15.84,2.76-1.53,3,.42,3.49,2.2.65,1.86,1.21,3.76,2,5.58.51,1.21,1.2,2.76,2.62.62l.62-.35c.84.23,1.3-.13,1.46-1l.59-.38c.85.21,1.3-.16,1.43-1l.59-.4a2.52,2.52,0,0,0,2.79-1.64l.59-.38c1.71-.21,3.27-.69,4.19-2.31a3,3,0,0,0,.57-.35,3.13,3.13,0,0,0,2.48-.83c7.12-4.83,15.27-7.44,23-10.89,3.73-1.66,7.82-2.49,11.24-4.85l1.26-.12c4.48.22,8.52-1.88,12.86-2.43l2.53-.25c.65.36,1.15.27,1.47-.45l9.4,0c1.42.49,2.83,1.06,4.39.61l3.11,0a7.07,7.07,0,0,0,5.5,1.9l3.25,1c.94,1.18,2.27,1.33,3.64,1.38l1.16.56a2.46,2.46,0,0,0,3,1.2l1.76.85a2.47,2.47,0,0,0,3,1.19l1.17.7c1.36,1.89,3.35,2.6,5.53,3l.59.39c1.8,2.47,4.86,2.89,7.25,4.42,4.07,2.61,8.33,4.91,12.51,7.35l.59.39c.24,1.16.85,1.83,2.13,1.65l.58.39a4.15,4.15,0,0,0,3.48,2.34l.57.4c1,1.69,2,3.36,4.13,3.71l3.36,3c.09.86.57,1.17,1.4,1l1.31,1a1.14,1.14,0,0,0,1.25,1.24l.8.8a1.12,1.12,0,0,0,1.23,1.23c8.9,8.24,16,18,22.72,28,1.36,2,3,2.42,5.22,2,10.07-1.84,20.37-1,30.47-2.51,1.39-.21,2.3.76,3.16,1.68q4.61,4.94,9.2,9.88c8,8.68,16.2,17.24,24.07,26.07,11.29,12.67,22.63,25.31,33.49,38.37,8.48,10.2,17.73,19.77,25.6,30.46,4.68,6.35,11,11.57,13.61,19.43a11.73,11.73,0,0,0,2.51,4c7.6,8.4,15.43,16.61,22.88,25.14,5.64,6.45,12.54,8.72,20.59,6.76,4.27-1,9.14-1.84,10.75-7.38a11,11,0,0,0-1.47-9,74.49,74.49,0,0,0-7.6-10.31c-5.45-6.43-12.38-11.3-17.51-18.19-5.82-7.81-13.09-14.55-19.78-21.7-4.7-5-9.51-9.93-14.22-14.93a8.11,8.11,0,0,1-1.61-2.54c-3.55-9-8-17.63-12.45-26.26a248,248,0,0,0-16.17-26.94c-7.77-11.35-16.86-21.64-26.25-31.66a73.55,73.55,0,0,0-11-9.36c-.59-2.24-2.45-3.48-4.12-4.7a73.74,73.74,0,0,1-7.43-6.11c-2.86-2.73-4.59-6.65-9.43-6.3a.72.72,0,0,0,.25-.43,1.35,1.35,0,0,0,1.34-.77c1.65-2.5.25-6.68-3.24-9.61-2.89-3.77-4.67-8.36-8.41-11.51l0,0c-.64-3-1.68-5.63-4.8-6.85l.07.1c.88-1.59.17-2.27-1.41-2.45l0,.07c.3-1.71-.28-2.83-2.09-3.12l.06.06c.91-.84-.19-1.28-.38-1.9a67,67,0,0,0-9.74-15.07l-.07-.09c-1.9-2.19-2.88-4.93-4.37-7.36a159.81,159.81,0,0,0-8.94-13.43c-2.49-3.26-4.15-7.21-7.65-9.66l-.09-.6c.84-2-1.12-2.13-2-3,0-1-1.08-1-1.53-1.6-.33-2-1.49-3.7-2.44-5.45-3.09-5.71-8.17-10.15-10.42-16.41-.44-1.24-1.32-3.11-2.21-3.25-3.31-.51-1.58-2.92-2.08-4.45-.06-.18-.25-.32-.58-.71-2.47,2.89-5.28,5.26-9.34,5.29-.65,0-1.45.16-1.76-.61s.5-1.11,1-1.53c2.17-1.91,4.31-3.86,6.52-5.73,1.93-1.63,1.75-2.68-.76-3.12-3-.53-4.12-2.23-3.43-5.18.08-.36.25-.87-.51-1.21-1.27,1.73-1.59,4.61-4.72,4.42-2.84-.16-5.58-.52-8.05-2.12a18.69,18.69,0,0,0-5.37-2.75c-6.71-1.78-12-6.34-18.1-9.42a3.91,3.91,0,0,1-1.47-1.35c-2.36-3.75-5-7.34-6.64-11.52a63.86,63.86,0,0,0-5.12-10.45c-1.37-2.14-.76-5-3.2-6.69-1.06-.74.57-1.09,1.39-1.34,3.76-1.14,5.79,3,9.17,3,.16,0,.37.52.49.82a37.49,37.49,0,0,0,6,9.45c1.15,1.44,2,1.91,3.74.27-2.08,2.34-2.4,4.33-.13,6.23,1.45,1.22,3.22.68,4.87.81,3.1.25,6.19,3,4.89,4.92-2.65,3.87-.63,5,2.24,6.59,3.11,1.74,4.52,5,6.46,7.83,2.66,3.89,6.78,3.75,9.55-.1a25.47,25.47,0,0,0,2.32-4.45c.3-.66-.08-1.8,1-1.9s1.15,1.16,1.65,1.85c1.72,2.38,1.37,5.11,1.41,7.79,0,.92.07,2.08,1.46,1.4.85-.41,3,.37,2.18-1.95q-.49-1.43-1-2.88c-1.65-5.15-5-9.32-8.14-13.54a5.19,5.19,0,0,1-1.08-5c1.35-5.1,2.49-10.27,3.53-15.45,5.06-25.17,10.76-50.19,16.26-75.26.45-2.06.94-2.55,2.75-1.22,4.44,3.25,9,6.33,13.41,9.64,2.29,1.72,4.28,3.85,6.87.46.33-.43,1.25-.41,1.89-.6,12.66,13.18,27.44,24.27,38.63,38.92a33,33,0,0,0,8.41,8.37q20.54,15.33,41.08,30.65c7.56,5.63,15.2,11.15,22.7,16.85,4.38,3.34,8,7.3,8.49,13.21.71,2.1-.17,4.6,1.61,6.44a13.5,13.5,0,0,0,4.07,7.53c3.11,3.21,6.12,6.51,9.18,9.78,1.53,4.34,5.14,6.86,8.48,9.62,1.66,4.92,0,9.53-1.3,14.17-.46.12-.63.33-.21.71l.21,1.34a1.85,1.85,0,0,0,1.93,2.3c1.35.05,2.09-1,1.92-2.43a5.84,5.84,0,0,1,3-2.88l1.29.26.08.12c-.07.58.06,1,.75,1.09Zm-229.9-186c-.21-1.35-1.67-2.33-3.6-2.92-6.69-2.06-11.59,2-16.74,5a2.63,2.63,0,0,0-.94,3c.59,1.36,1.78.22,2.64,0,1.6-.37,3.24-3,4.66.27.05.12.83,0,1.19-.11a39.52,39.52,0,0,1,10.92-2.69C409.95,153.13,410.82,153,410.7,150.74Zm-73.6-60C329.59,87.89,321.73,89.37,314,89,321.7,89.28,329.37,90.08,337.1,90.73Zm174.72,65.49a22.25,22.25,0,0,0-5.2-9.23A18.07,18.07,0,0,0,511.82,156.22Z" transform="translate(-117.95 0)"/><path class="cls-2" d="M412.74,389.82l-.59-.39c-1.43-1.76-3.47-2.39-5.53-3l-1.17-.7a3.07,3.07,0,0,0-3-1.19l-1.76-.85a3,3,0,0,0-3-1.2l-1.16-.56c-.83-1.47-2.23-1.44-3.64-1.38l-3.24-1c-1.57-1.4-3.21-2.6-5.5-1.9l-3.11,0c-1.3-1.39-2.65-2.36-4.39-.61l-9.4,0c-.77-.77-1.14-.23-1.47.45l-2.53.25c-4.66-1.18-8.76.6-12.86,2.42l-1.26.12c-.7-.33-1.31,0-1.93.25-8.74,2.84-17.08,6.68-25.47,10.34-3.28,1.43-7,2.87-9.35,6a3,3,0,0,1-.57.35,5.75,5.75,0,0,0-4.19,2.31l-.59.38a3,3,0,0,0-2.79,1.64l-.59.4a1.17,1.17,0,0,0-1.43,1l-.59.38a1.15,1.15,0,0,0-1.46,1l-.62.35c-1.7-.11-2-1.5-2.45-2.72s-.46-2.92-2.14-3.48c-.5-1.78-.72-3.73-3.49-2.2-9.66,5.35-19.35,10.67-29.11,15.84-2.28,1.21-2.49,2.37-1.37,4.51,10.7,20.58,15.74,42.82,19.45,65.5,2.42,14.77,3.87,29.65,5.19,44.53a128.3,128.3,0,0,1,.79,16.18c-.32,8.24,1,16.41.77,24.66-.09,2.58-.78,3.43-3.47,3.6-19.57,1.23-39.17,1.63-58.76,1.73A221.25,221.25,0,0,1,193.37,571c-.89-.12-2-.1-2.21-1.17s.88-1.71,1.7-2.26a72.14,72.14,0,0,1,20.05-8.81c7.48-2.15,15-4.32,22.62-5.77,13.24-2.52,15.4-12.38,14.63-23.11-.7-9.76-3.73-19-6.34-28.29a1.12,1.12,0,0,0-.54-1.63l-.9-3.09a3.56,3.56,0,0,0-1.14-3.7l-.86-3.07a3.89,3.89,0,0,0-1.16-3.71l-1.47-5.15a4,4,0,0,0-1.17-3.46l-.3-1.2a3.66,3.66,0,0,0-1-3.53l-.31-1.22a8.09,8.09,0,0,0-1.74-5.56l-.28-1.21c.43-1,.33-1.82-.77-2.31l-.46-1.16a4.24,4.24,0,0,0-1.27-3.65L229,453.48a41.25,41.25,0,0,0-3.85-11.59l-1-3.91a1,1,0,0,0-.44-1.53l-1.57-7.3a4,4,0,0,0-1-3.54l-.3-1.22c-.8-7.32-1.92-14.62-2.28-22-.26-5.37-3.28-11,1-16.18,1.49-1.8,2.58-3.94,4.5-5.38.84-.64,2.13-1.35,2.32.18.45,3.7,3.26,1.81,4.13,1.35a7.8,7.8,0,0,1,4.79-.85l.68.94.67-.94c3.1-2.23,6.18-4.48,10.36-2.87a1.38,1.38,0,0,0,1-.1,14.45,14.45,0,0,1,11.57-1c2.1.68,4.89,2.23,7-.5.15-.18.65-.2.95-.13,1.05.25,2.26,1,2.85-.55.5-1.31-.34-2.34-1.07-3.37-1.15-1.62-2.47-3.19-2.59-6.13,2.23,2.59,3.9,4.66,5.73,6.59.76.8,1.47,2.43,2.77,1.8,1.88-.92,4-.83,5.86-1.71-.44-2.66-3.52-3.7-3.76-6.74,1.71.87,2.27,2.64,4,2.51.08.23,0,.66.47.28l-.43-.32c-1.2-3.8-4.25-6.54-5.81-10.14a5.46,5.46,0,0,0-1.86-2.34c-1-.63-2.41-1.06-1.53-2.35.66-1,1.88.11,2.6.63,5.37,3.89,11.62,5.89,17.7,8.23a209.93,209.93,0,0,0,23.67,7.52c-2-2.18-4.75-2.73-7.36-3.6-3.41-1.14-7-1.85-10.17-3.58-.54-.29-1.46-.4-1.37-1.26s.89-.95,1.5-1.18c3.12-1.21,6.19-.41,9.09.66,6.24,2.29,12.32,5,18.84,6.48,1.28.29,2.57.8,4.16-.37-4.81-4.5-12.05-3.77-16.65-8.15.47-.92,1.26-1.07,2-1.33,2.66-.94,2.13-2.79.34-3.52-2.45-1-4-3.09-6.36-4.25-1.71-.85-4.2-3-2.62-6.35,2,1.29,4,2.34,5.77,3.69a93,93,0,0,0,11.8,7.7c.9.5,2,1.18,2.63.08.49-.85-.67-1.53-1.31-2.12-1.39-1.3-3.17-2-4.58-3.38-3.47-3.33-5.61-7.61-8.6-11.27-.6-.73-2-1.57-1-2.47s2.06.09,2.91.82c4.91,4.24,10.91,6.56,16.58,9.45.21.11.6-.14,1.43-.38-1.74-1.54-3.22-2.85-4.71-4.15-4.57-4-9.24-7.84-12.6-13l.22-.21c5.47.37,8,6.24,13.18,7.28-2.28-3.33-6.57-6-2.66-10.68a.34.34,0,0,0,0-.32c-2.28-2.6.38-3.35,1.72-4.59l1.11-.47c2.76-.23,2.41-2.11,1.51-3.57-1.66-2.71-2-5.25-.22-8,2.61-2.18,6.17-1.1,9-2.64,1.85.18,3.42-1,5.55-.31,8.14,2.49,16.41,4.51,24.64,6.72,5.63,1.51,11.2,3.35,17,3.71,4.95.3,9.93.19,14.89.15,13.54-.13,27.05-.49,40-5.05a4.57,4.57,0,0,1,3-.37c-.22,1.6-1.6,2.55-2.2,3.93-2,1.79-2.62,4.62-4.86,6.3-1.12.84-3.61,1.69-2.41,3.36s3.19,0,4.8-.56a3,3,0,0,0,.59-.32c2.82-1.72,5.8-.9,8.75-.55a2.78,2.78,0,0,0,.18,1c3.89,6.11,6,6.64,12.67,4.1,4.29-1.63,8.51-4,13.41-2.9.45.59,1.54.57,1.53,1.6a27.51,27.51,0,0,0-2.07,3.8c-.87,2.38-1.9,3.62-4.85,2.8-2.12-.59-4.53-.11-7.12-.11,1.7,2.66,4.51,1.64,6.38,2.75,3.87,2.29,5.09-.14,6.52-3,.62-1.27.55-3.68,3.13-3.19l.09.6c0,2.47-.39,4.74-3.18,5.71-1.21.42-1.05,1.52-1.17,2.55-.33,2.75-1.14,3-3.25,1.44s-3.84-1.8-5.61.79c-2,2.88-2.45,6.7-5.6,8.88-.56.39-1.63,1.32-1.08,2.2a2.56,2.56,0,0,0,2.78.79c.83-.18,1.63-.48,2.44-.73.4,1,.32,1.89-.38,2.33-2.72,1.72-2.28,3.45-.2,5.3.23.2.6.63.56.68-1.66,2.2-1.49,5.5-4.1,7.09-.87.53-2,.69-1.67,2.06.42,1.6,1.81,1.07,2.83,1,2.34-.11,4.69-.63,7-.49,1.49.09,4.75.05,1.7,3.07a1.46,1.46,0,0,0-.11,2.13c.39.48,1.19.82,1.47.46,1.15-1.46,3.77.07,4.57-2.77.44-1.57,3.28-2.28,5.34-2,2.6.33,9-2,9.46-4.3.73-3.71,3.82-4.9,6-7.36.4,4.22-.41,7.64-3.09,10.71s-5.83,5.38-8.83,8.09a2.07,2.07,0,0,0,2.16.3c3.59-.7,6.69-2.57,9.94-4.08,1.24-.58,2.47-.81,3.16.69a2.3,2.3,0,0,1-.73,3.17c-3,2.53-4.44,6.79-8.81,8.16a28.94,28.94,0,0,0,10.32-1.24c.91-.23,2.25-.81,2.71.28s-1,1.5-1.71,2.12c-1.69,1.43-4.25,1.77-5.63,4.53l5.6-1.17,0,0c-1.05,3.21-4.12,2.54-6.42,3.21-1.74.51-3.73.33-5.37,2.64,4.77-.5,9-.72,13.07-1.46,2.71-.49,2.74,1.3,1.88,2.31-1.53,1.81.06,2.08.74,3.08,2,3,5.8,2.94,8.45,4.93,1.18.89.85,2.51,2.65,3.1,2.39.79,4-.41,6-.87l0,0c-.14,1.08-.25,2.15,1.38,2.05l0,0c-.18,1.7-.35,3.34,2.29,2.27a5.82,5.82,0,0,1,2-.07.72.72,0,0,1-.25.42c-7.69,2.37-15.53,4.22-23.9,6,1.45,1.4,2.62,1,3.66,1,5.57-.15,10.74-2.16,16-3.52,2.25-.58,4.44-1.48,6.83-1.42a1.88,1.88,0,0,1,2.06,1.36c.16.6,0,1.18-.64,1.32-3.75.78-3.53,2.93-2,5.57l0,0c-5.26-.44-2.78,5.31-5.78,6.65,1.9,1.83,3.24-.53,5.13-.22-1.54,3.06-3.8,5.53-4.47,9.18a35.24,35.24,0,0,0,7.76-5.43c1.23-1.11,2.88-2.3,2.77-4-.2-3,2-4.1,3.81-6.07.49,2.84-.15,5.38,1.41,7.6a1.82,1.82,0,0,1-.81,2.61c-1.54.77-2.4,1.77-1.18,3.42,1.08,1.46,2.42,2.48,4.32,1.47s4.21-.92,6.2-3.08c1.73-1.87,1.54-2.14.28-3.49-.44-.48-1-1-.59-1.75a73.52,73.52,0,0,1,11,9.36c9.39,10,18.47,20.31,26.25,31.66a248,248,0,0,1,16.17,26.94c4.43,8.63,8.9,17.22,12.45,26.26a8.11,8.11,0,0,0,1.61,2.54c4.71,5,9.52,9.91,14.22,14.93,6.7,7.15,14,13.88,19.78,21.7,5.13,6.89,12.06,11.76,17.51,18.19a74.49,74.49,0,0,1,7.6,10.31,11,11,0,0,1,1.47,9c-1.61,5.54-6.48,6.33-10.75,7.38-8,2-14.95-.31-20.59-6.76-7.45-8.53-15.28-16.74-22.88-25.14a11.73,11.73,0,0,1-2.51-4c-2.59-7.86-8.93-13.07-13.61-19.43-7.87-10.69-17.12-20.26-25.6-30.46-10.86-13.06-22.2-25.69-33.49-38.37-7.87-8.83-16-17.39-24.07-26.07q-4.59-5-9.2-9.88c-.86-.92-1.77-1.89-3.16-1.68-10.1,1.51-20.4.67-30.47,2.51-2.22.41-3.86,0-5.22-2-6.73-10-13.82-19.72-22.72-28,0-.85-.38-1.26-1.23-1.24l-.8-.79a1.08,1.08,0,0,0-1.25-1.24l-1.31-1a1.2,1.2,0,0,0-1.4-1l-3.36-3c-1-1.61-2-3.26-4.13-3.71l-.56-.4A4,4,0,0,0,435.8,404l-.58-.39A2.17,2.17,0,0,0,433.1,402l-.59-.39C426.87,396.07,419.87,392.85,412.74,389.82Zm-130-18.46c-.08-.22,0-.66-.47-.28l.42.33.37.3ZM437.08,350c-3.44-3.1-7.14-2.12-10.59-2.31-.48,0-1.24.12-1.12.9s.41,1.44,1.12,1.54C429.86,350.62,433.25,351.73,437.08,350Zm22.66,31.58c-1.59.11-3.19,1-3.2,2.64,0,1.79,2.14,1.65,3.43,1.93,1.53.33,2.2-.75,2.18-2.22S461.4,381.65,459.74,381.58Z" transform="translate(-117.95 0)"/><path class="cls-3" d="M475.64,325.45c-4.9-1.05-9.12,1.28-13.41,2.9-6.72,2.55-8.79,2-12.67-4.1a2.78,2.78,0,0,1-.18-1l0,0c4.76-1.17,8.37-4.54,12.61-6.71,1.22-.62,3.22-2,2-3.64-1-1.39-3.16-.69-4.71-.1-1,.38-1.75,1.36-2.72,1.84-2.24,1.09-4.55,2-7.3,3.27.53-2.35,2-2.82,3.23-3.72,2.46-1.83,5.89-2.58,7-5.93.29-.87,1.19-1.87.2-2.81s-2.23-.09-3,.48a19.54,19.54,0,0,1-7.46,3.58c0-.73.27-1.62-.92-1.73a1.64,1.64,0,0,0-1.63.87c-.5.78-.12,2.09-1.42,2.39-.23-.24-.46-.43-.63.06l.09,0a4.57,4.57,0,0,0-3,.37c-13,4.56-26.5,4.93-40,5.05-5,0-9.94.15-14.89-.15-5.84-.35-11.42-2.2-17-3.71-8.22-2.21-16.5-4.23-24.64-6.72-2.12-.65-3.7.49-5.55.31-.13-.43-.24-.86-.38-1.29-1.78-5.59-1.78-5.59,3.79-6.13-3.07-1.88-6.39-2-9.3-3.35-2.1-.94-2.59-2-2.14-3.73a30.21,30.21,0,0,0,.49-9.41c-.28-5.54.84-11,.76-16.5s-1.44-11.16.41-16.67c1.41-3.75,1-7.73,1.51-11.61.12-1,.2-2.07-1.16-2.38.4-5-.29-10,.5-14.94,1,.13.37,1.6,1.32,1.84.22-4.89.47-9.71.63-14.53,0-1.1.66-2.63-1.31-2.89-1.22-3,.05-6,.11-8.93.11-6,.45-11.9.8-17.85.46-7.73.51-15.52.92-23.27.14-2.56-.94-4-3-5.08-5.62-3.09-11.16-6.35-16.83-9.35-2.59-1.37-4.21-3.12-4.72-6.09-.48-2.76-1.67-5.4-2.05-8.16-.42-3-1.94-4.47-4.79-5.24a53.51,53.51,0,0,1-13.48-5.24c-1-.62-2.42-.68-3-1.95a2.49,2.49,0,0,1,1.92.42,90.87,90.87,0,0,0,16.09,5.93c1.79.48,2.56.26,2-1.88-1.29-5.17-2.42-10.38-3.61-15.57a1.89,1.89,0,0,0-1.12-1.57c-3.85-1.39-7.56-3.45-11.43-4.36-7.34-1.73-14.39-4.65-21.91-5.57-2.53-.31-5.14-1.68-7.67.23a2.26,2.26,0,0,1-2.55,0,66.85,66.85,0,0,0-15.25-5.65,22.63,22.63,0,0,1-9.06-4.38c-5.62-4.83-12.3-7.33-19.31-9.18-3.77-1-7.69-.89-11.42-2.6-3.47-1.59-7-3.29-10.55-4.54a69.39,69.39,0,0,1-13.66-6.86c-5.43-3.39-10.45-7-17.15-7.53-2.89-.21-5.75-5.09-4-6.42,1.53-1.19.66-1.58.26-2.54-2-4.76-2-9.71-1.16-14.69.35-2,1.35-4.08-1.87-4.53.45-3.43-.41-6.69-1.3-9.94-.29-1.09-.78-2.13-1-3.23a3.36,3.36,0,0,1,1.45-3.56c1.47-.86,2.27.67,3,1.55,5.8,7.36,9.23,15.85,11.36,24.89a36.33,36.33,0,0,0,3.58,9.8c1.88,3.27,5.91,4,9.24,5.18,16.38,5.69,33.22,9.85,50,14.11,4.76,1.21,9.78,1,14.66,2,3.94.77,6.24,3.58,9.24,5.52.43.28.77.72.43,1.07-1.35,1.4-1.2,3.36-2,4.95-.59,1.25-1.83,1.5-3.16,1.56a2.31,2.31,0,0,0-2.4,1.51c-.34,1.15.34,1.85,1.2,2.54a9.18,9.18,0,0,1,2.53,2.64,1.62,1.62,0,0,0,2.42.93c1-.4,1.19-1.16,1.08-2.18-.25-2.21,2.84-5.51,4.61-4.53,3,1.65,5.35.56,8-.27a3.85,3.85,0,0,1,1,0,.89.89,0,0,0,.13.25s.13,0,.2,0l-.32-.29c.27-.61-.12-1.92,1.23-1.42,2.56.95,5.27,1.59,8,3.31-1.78,1.07-3.12,1.33-4.4.24s-2.42-.76-3.59.22c-.61.51-1.41.9-1.09,1.86A3.46,3.46,0,0,0,274,83.49c5.89,1.35,11.35,4,16.93,6.2,4.41,1.75,8.48,4.35,12.68,6.61.46.25,1.12.76,1.12,1.14,0,3.73,3.41,6.15,5.39,6.52,3.85.71,3.94,3.68,5.59,5.73.25.32.66.73,1,.73.77,0,.68-.71.73-1.25.17-1.8-1.19-3.77.78-5.64A128.55,128.55,0,0,0,329.39,123c.92-5.64-3.5-10.88-1-16.66.36.56.7,1.07,1,1.6a1.05,1.05,0,0,0,1.44.48c.7-.28.43-.81.36-1.39-.23-1.9-.8-3.39,2.64-2.68,1.66.34,4.51-.17,6.66-.84,1.7-.52,2.51-2.06,2.24-4-.74-5.32.58-6.35,5.75-5.66,4.26.57,8.33,3.18,12.85,1.4,1.78-.7,3.58-1.34,5.38-2,5-1.7,9.06.08,10.73,5.11a18,18,0,0,0,2.85,5.21c-2.85.16-3-2.16-3.59-4-1.66-5.07-4.82-6.6-10.53-5-2.51.68-6,6.69-5.42,9.33.16.73.81,1,1.39,1.37,3.83,2.38,6.57,2.07,10.37-1.38a9.93,9.93,0,0,1,.83,2.91,2.54,2.54,0,0,0,2.56,2.92c1.38.09,3.1,1.19,4.17-1.22a8.47,8.47,0,0,1,3.87-3.85c.67-.32,2.31,1.4,3.51,2.17.28.18.62.27.91.43a20.29,20.29,0,0,0,14.21,1.91c.46,1.13,1.42,1.27,2.48,1.41.82.11,2.27-.53,1.94,1.39-.21,1.22.22,2.34-1.52,3.16-3.62,1.7-7.12,2.59-11,1a7.67,7.67,0,0,0-1.65-.34c-1.19-.2-2.45-.78-3.49.24a1.12,1.12,0,0,0,.09,1.55c1,.95,2.15.86,3.45.78,4.13-.26,8.2.54,11.26,3.31a13,13,0,0,0,5.45,3c3.32,1,6.4,2.76,10,2.8a3.83,3.83,0,0,1,2.2.75c.88.7,2.68,1,2.18,2.52-.41,1.27-1.91.76-3,.92-3.87.57-7.6-1.79-11.42-.59-2,.62-4.57,1.24-2.57,4.44.65,1,.23,2.15-1.17,2.09-4.28-.17-8.81.94-12.48-2.55-1.44-1.37-3.54-.9-5.2-.57-2.06.4-3.93,1.13-6.2.78-1.88-.29-1.24,1.5-.74,2.39a10.74,10.74,0,0,0,5,4.8c.3.14.67.13,1,.26,1.57.67,3.12,1.45,3.66,3.23.25.84-.35,1.45-1.11,1.88-2,1.17-3-.54-4.35-1.51-3.72-2.74-11.27-3-15.06-.52a2.25,2.25,0,0,0-.76.61c-.5.86,2.23,7.92,2.92,8.58,3.24,3.08,7.74,3.86,11.29,6.37s4.05,4.61,1.56,8.11c-.78,1.1-1.5,2.11-.63,3.33s2,.16,3-.14c1.86-.56,3.22,1.42,3.08,4.44l0-.08c-3.53.82-7.14-1.55-11,.14,3,1.38,6.87,1.43,6.59,5.91-6-1.44-10.49,1.62-11.87,7.55-1,4.32.86,7.5,3,10.75-1.1.26-2.15-1.2-3.37.09-1.71,1.81-4,1.39-5.92-.86,1.58-.07,3.9,1.26,3.77-2-.21-5.21,2.12-10.15,1.57-15.42-.09-.88,1-2.08-.85-2.13-1.13,0-2.67-.57-2.86,1.38-.59,6-1.15,12.07-1.72,18.11-2.49,0-2.68,1.29-1.53,3a12.66,12.66,0,0,1,2,6.33c.1,1.43.09,2.38,1.63,3,1.07.45,1.78,1.93.85,2.81s-2.77.16-3.17-.75c-1.86-4.21-6.23-6.72-7.47-11.3-.18-.66-.51-1.4-1.31-1.19s-.62,1.11-.57,1.73c.32,3.85,1,7.85,4,10.4,2.63,2.27,6.11,3.27,8.69,6.12,1.14,1.26,2.91,2.42,3.5,4.14.69,2,2,3.55,3,5.52.26-2.26.94-3.56,3.35-2.59a1.32,1.32,0,0,0,1.72-.7c.83-1.93,2.41-1.28,3.77-1.05a9.33,9.33,0,0,1,5,2.69c1,1,2.39,1.35,3.21,3.06,1.81,3.78,1.29-1.81,2.68-1l1.15.69c.51.3,1.15.51,1.56,0,2-2.23,5.14-3.1,6.78-5.76.76-1.24,1.43-2.34-.53-3.18-1.08-.46-2.1-1.59-1.4-2.65,1.36-2.06,2.9-3.88,4.12-6.13,1.45-2.67,4.64-4.78,6.43-7.73l4.09,2.18v3.53l4-3c.56,0,1.12-.08,1.68-.1a5.9,5.9,0,0,0,6-5c.76-3.16-1.25-5.07-3.82-6.4-1.29-.66-2.71-1.06-4-1.74s-3.45-.77-2.33-2.82c.89-1.62,2.83-1,4.31-.49a2.73,2.73,0,0,1,1.68,2.29c.43,2.18,2.76,1.74,3.85,1.51,1.68-.36.6-2,.2-3-.23-.63-.54-1.23-.82-1.84,1.11-1,.73-1.92-.16-2.85s-1.69-1.87-1.19-2.95c.89-2-.38-2.61-1.61-3.32-1.57-.92-3.21-1-4.5.45-1.81,2.08-3.91,4-4.74,6.77l-2.57,3.88-1.27.85c-.87-2.3,1-5-1-7.12,2-3,3.95-6.57,7-8,5.26-2.4,8.06-7.15,11.75-10.86,3.95-4,8.29-7.34,12.51-10.92,1.1-.93.43-2.33,1.24-3.37,3.51-4.51,7.85-8.13,11.95-11.87,1.38.66-.39,2.21,1.19,2.55,1.27.27,1.57-.66,2.28-1.4,3.06-3.18,3.88-8.1,8.17-10.35.74-.39,1.15-1.46,2.2-.75.75.51,1.49,1.12,1.31,2.18s-1,1.38-2,1.47-2.66,0-2.27,1.65,1.71.78,2.83.56c1.62-.32,2.94-.27,1.46,2-.91,1.41,1.62,8,3.14,8.49,1.21.37,2.74.57,1.91-1.66-1.15-3.13.63-6.57-1.15-9.72-.47-.84.67-1.36,1.78-.83,2.86,1.36,5.3,6.73,4.75,10-1.1,6.54-.09,13.07.71,19.55.31,2.52,1,4.8-1.58,6.56,2.78,1.73,3.32,0,3.88-1.83s-.36-3.61,1.06-5.39c.8,2.47,3.65,4.31,1.06,7-.2.21-.13.78.3.73,1.88-.24,1.89.55,1.66,2.15-.18,1.23,1.24,1.33,2.27,1.4-.6,1.6-3.23,2-2.61,4.32-.65.19-1.56.17-1.89.6-2.59,3.39-4.59,1.25-6.87-.46-4.4-3.31-9-6.39-13.41-9.64-1.81-1.32-2.29-.84-2.75,1.22-5.5,25.07-11.2,50.1-16.26,75.26-1,5.18-2.18,10.35-3.53,15.45a5.19,5.19,0,0,0,1.08,5c3.18,4.22,6.49,8.39,8.14,13.54q.46,1.44,1,2.88c.8,2.32-1.33,1.53-2.18,1.95-1.39.68-1.44-.48-1.46-1.4,0-2.68.31-5.41-1.41-7.79-.5-.68-.47-2-1.65-1.85s-.67,1.24-1,1.9a25.47,25.47,0,0,1-2.32,4.45c-2.77,3.85-6.89,4-9.55.1-1.94-2.83-3.35-6.1-6.46-7.83-2.88-1.61-4.89-2.72-2.24-6.59,1.3-1.9-1.79-4.67-4.89-4.92-1.64-.13-3.41.41-4.87-.81-2.27-1.91-2-3.9.13-6.23-1.7,1.64-2.6,1.17-3.74-.27a37.49,37.49,0,0,1-6-9.45c-.12-.3-.32-.82-.49-.82-3.39,0-5.41-4.12-9.17-3-.82.25-2.45.6-1.39,1.34,2.44,1.71,1.83,4.55,3.2,6.69a63.86,63.86,0,0,1,5.12,10.45c1.68,4.18,4.28,7.77,6.64,11.52a3.91,3.91,0,0,0,1.47,1.35c6.07,3.07,11.39,7.64,18.1,9.42a18.69,18.69,0,0,1,5.37,2.75c2.47,1.6,5.21,2,8.05,2.12,3.13.18,3.45-2.7,4.72-4.42.76.33.6.84.51,1.21-.68,3,.41,4.66,3.43,5.18,2.51.44,2.69,1.49.76,3.12-2.21,1.86-4.35,3.82-6.52,5.73-.48.42-1.33.67-1,1.53s1.11.61,1.76.61c4.05,0,6.87-2.4,9.34-5.29.32.39.52.53.58.71.5,1.53-1.23,3.94,2.08,4.45.9.14,1.77,2,2.21,3.25,2.25,6.26,7.33,10.71,10.42,16.41C474.15,321.76,475.31,323.42,475.64,325.45ZM372,175.42c-.07-.54.07-1.34-.24-1.58-3.92-3.05-5.71-6.73-3.73-11.65a1,1,0,0,0,0-.67c-1.06-2.88-2.14-5.75-3.29-8.84-3.64,2.85.94,5.62-.43,8.19-1.39.13-.65-2.67-2.65-1.82.56,4.9,3.8,9.09,3.75,14.13-.69,2.39.32,5.07-1,7.5-4.44-3.9-9.4-1.62-10,3.17-.2,1.55-.68,3.07-.93,4.62-.5,3.12-.12,6.06,2.06,8.53,2.47,2.81,6.1,1.08,9.06,2.2,1.22.46,1.24-1.21,1.54-2.14,2.18-6.81,1.69-14,2.78-20.93l1,.63c.11,1.67.42,3.09,2.65,2.93,1.06-.07,1.61-.32,1.69-1.49C374.31,176.56,374,175.38,372,175.42Zm-16.91,37c.17-2.3-1.62-3.61-1.32-5.56.4-2.59-1.11-4.75-1.93-7.07-.47-1.32-1.45-1.35-2.44-1.09A1.82,1.82,0,0,0,348,201a39,39,0,0,1,.79,3.88c.62,6.69,1.08,13.44,2.41,20,1.67,8.22,4,16.31,6.31,24.39,1.67,5.89,3.08,11.95,7.09,16.89.38.47.66.93,1.29.82a1.06,1.06,0,0,0,.85-1.26,8.12,8.12,0,0,0-.36-2.64c-1.85-4.25-2.52-8.84-3.81-13.25-2.2-7.5-3.65-15.19-5.86-22.7C355.28,222.29,352.27,217.38,355.09,212.42Zm85.32-10.58c.31-1.69-.72-1.77-1.55-2.11-1-.41-2.16-.76-2.67.4-1.14,2.63-3.11,4.87-4.13,7.42-2.25,5.65-3.81,11.58-5.6,17.42-.4,1.29,0,1.78,1.54,1.5a3,3,0,0,0,2.24-1.74c.57-1,.91-2.47,2.45-.44,1.05,1.39,2.76,1.47,3.16-1.1.24-1.54,1-3,1.21-4.53.52-3.42,1.7-6.64,1.62-10.3C438.64,206.56,438.76,203.42,440.41,201.84Zm-97.57-20.72c3.85-1.58,5.44-.72,6.21,3,.63,3-.83,4.78-3.51,5.56-1.47.43-1.29,1.2-1.1,2.26.38,2.17,1.81,3.24,3.79,3.8,1.35.38,1.69-.45,2.09-1.51a47.45,47.45,0,0,0,3-12.67c.24-2.77,1.77-5.79-3.27-4.35-.27.08-.7-.47-1.08-.69-1.64-1-3.39-1.43-5.1-.37S342.94,179.12,342.84,181.13Zm41.89-49.67c1.46.4,2.13-1.14,3.29-1.69s3.4-1,2.56-2.6-3.15-1.48-4.85-1c-1.38.38-2.11,1.67-2.71,3.05C382.21,131,382.6,131.69,384.73,131.45ZM392.17,251c-1.38-2.33-1.7-4.77-3.36-6.57a2.41,2.41,0,0,0-2.43-.81,1.22,1.22,0,0,0-1.06,1.13C385.1,246.84,389.47,251.07,392.17,251Zm53.07,24.55c-.23-1.53-.46-2.85-.62-4.18-.1-.8-.17-1.86-1.07-1.85-1.39,0-.78,1.34-.88,2.1a29,29,0,0,1-.24,3.68c-.35,1.29-.29,2.58,1,2.69C444.88,278.12,445.18,276.63,445.24,275.55Z" transform="translate(-117.95 0)"/><path class="cls-2" d="M490.16,180.62c-.62-2.34,2-2.72,2.61-4.32l8.66-5.61c2.71.12,4.42-1.57,6.11-3.33l0-.05c1.68.2,4.88-1,4.44,1.67-.91,5.61.6,9.38,5,13.05,3.54,3,6.91,6.17,10.85,8.56,5.56,3.37,12,5.47,15.59,11.5a2.5,2.5,0,0,0,2,1.13c1.24.11,2.44.86,2.54,1.88.15,1.63-1.85.62-2.57,1.49s-1.26.18-2-.17c-1.91-.89-3.71-2.07-5.85-2.41s-4.19.31-4.65,2.29,1.5,2.74,3.27,3.09c5.87,1.17,10.86,3.66,14.35,8.81,1.47,2.18,3.48,1.7,4.61-.89.26-.59.46-1,1.16-.84,3.37.6,6.68-1,9.92-.59,2.58.3,2-1.28,2.43-2.43l24.51,28.39c.13,1.31.1,2.77,2.1,2.52l.1.11a5.08,5.08,0,0,0,1.81,4.38c1.27,1.12,2.27,3,1.47,4.45-1.05,1.86-.19,2.65.62,4.08,1.71,3,4.69,2.83,7.32,3.34,2.08.4,2.19.82,1.49,2.81s-2.3,4.35.6,6.74c3.85,3.17,7.7,5.25,12.77,4.19l1.84,3.21c-.26.4-.14.63.32.71l.06.11c.28,1.72.54,3.46,2.57,4.08a2.49,2.49,0,0,1,.27.53c-1.21,3.15-3.39,1.16-5.11.84-7.22-1.34-8.1-1.06-10.26,3.85-.38.86-1,.7-1.65.81-.48-5.91-4.11-9.87-8.49-13.21-7.5-5.71-15.15-11.22-22.7-16.85q-20.55-15.31-41.08-30.65a18.86,18.86,0,0,0-8.41-8.37C517.6,204.9,502.83,193.81,490.16,180.62Z" transform="translate(-117.95 0)"/><path class="cls-2" d="M157.17,22.19c3.22.45,2.22,2.53,1.87,4.53-.86,5-.81,9.93,1.16,14.69.4,1,1.26,1.35-.26,2.54-1.71,1.33,1.14,6.22,4,6.42,6.7.48,11.72,4.14,17.15,7.53a69.39,69.39,0,0,0,13.66,6.86c3.56,1.25,7.08,3,10.55,4.54,3.73,1.71,7.66,1.61,11.42,2.6,7,1.84,13.69,4.35,19.31,9.18a22.63,22.63,0,0,0,9.06,4.38,66.85,66.85,0,0,1,15.25,5.65,2.26,2.26,0,0,0,2.55,0c2.52-1.9,5.14-.53,7.67-.23,7.52.92,14.57,3.83,21.91,5.57,3.87.91,7.59,3,11.43,4.36a1.89,1.89,0,0,1,1.12,1.57c1.19,5.19,2.32,10.4,3.61,15.57.53,2.14-.24,2.36-2,1.88A90.87,90.87,0,0,1,290.56,114a2.49,2.49,0,0,0-1.92-.42l-1.72-.78c-2.39-1.6-4.84-3.09-7.81-3.35l-1.28-.85c-.15-.38-.39-.53-.78-.32l-2.36-1.49a1.18,1.18,0,0,0-1.62-.84l-2.44-1.18a1.24,1.24,0,0,0-1.63-.83l-1.06-.6a1.26,1.26,0,0,0-1.66-.75l-1.06-.56c-1-1.36-2.36-1.39-3.82-1.18l-1.78-.3a1.72,1.72,0,0,0-2.23-.53l-1.84-.22c-.35-.58-.76-.83-1.32-.23L253,99.23c-.62-.89-1.49-.83-2.4-.63l-8.45-2.83a5.36,5.36,0,0,0-4.46-1,12.66,12.66,0,0,1-4.35-1.71c-.35-.75-.86-1.05-1.65-.61a1.67,1.67,0,0,1-.63-.22,1.92,1.92,0,0,0-2.76-1.13,1.66,1.66,0,0,1-.63-.23c-.85-1.74-2.34-2.09-4.08-1.87l-1.33-.83a4.81,4.81,0,0,0-4.21-1.67l-1.68-.71c-.88-1.21-2.21-1.44-3.56-1.6l-.07,0a2.43,2.43,0,0,0-2.82-1.06l-1-.57c-.77-1.5-2.22-1.49-3.61-1.61l-1.13-.42c-.18-.93-1-1.13-1.7-1.48-3.68-1.94-7.36-3.89-11.07-5.77q-10.86-5.52-21.76-11a5.07,5.07,0,0,0-2-.42c-12.55-.65-21.46-7.48-28.92-16.87a41.49,41.49,0,0,0-9.31-8.86l-.74-.69c-.77-2.43-3.72-3.33-3.9-6.32L136,39.31c1.6-5.82-4.17-5.22-6.11-7.71.54-.86,2.92.11,1.93-1.9-.7-1.43-.89-3.32-2.75-4a1.3,1.3,0,0,1-.35-.46c0-1.93-1.39-2.78-2.7-3.71l-.44-.62c-.57-2.36-2.1-4.19-3.43-6.13a4.45,4.45,0,0,1-.65-3.24c.74-.42.65-1,.51-1.75-.68-3.42,2.41-3.86,4.27-5.12s1.94,1.15,2.92,1.75c4.48,2.73,7.38,7.06,11.07,10.58,2,1.87,4.93,3.7,8.11,1.45l1,.41q-.05.72.66.61l2.62,2.18c.86,1.29,1.72,2.6,3.48,1.13Zm-17.39,6.27a1.79,1.79,0,0,0-.4,2.76c.68,1,1.65,1.8,1.5,3.22-.24,2.25,1.78,2.87,3.07,4a1.09,1.09,0,0,0,1.52-.07c.37-.39.07-.78-.07-1.2a49.2,49.2,0,0,0-3.84-7.6A2,2,0,0,0,139.78,28.47Zm-1.42.42c.13-1.23-2.5-3.7-4.16-3.82-.68-.05-1.84-.44-1.58.9.41,2.2,2.12,3.3,4.06,4A1.18,1.18,0,0,0,138.36,28.89Zm.27,8.62-.22.53c-.62,1.45,2,5.75,3.59,5.83a.86.86,0,0,0,1-.59C143.47,42,140.39,37.43,138.63,37.52Z" transform="translate(-117.95 0)"/><path class="cls-3" d="M281.29,369.38c-1.74.13-2.3-1.65-4-2.51.23,3,3.32,4.08,3.76,6.74-1.82.88-4,.79-5.86,1.71-1.3.64-2-1-2.77-1.8-1.83-1.93-3.5-4-5.73-6.59.12,2.94,1.44,4.51,2.59,6.13.73,1,1.57,2.06,1.07,3.37-.59,1.56-1.8.8-2.85.55-.3-.07-.8-.05-.95.13-2.15,2.73-4.94,1.18-7,.5a14.45,14.45,0,0,0-11.57,1,1.38,1.38,0,0,1-1,.1c-4.17-1.61-7.26.64-10.36,2.87h0c-.46-.92-.92-.94-1.37,0h0a7.8,7.8,0,0,0-4.79.85c-.87.47-3.68,2.36-4.13-1.35-.19-1.53-1.48-.82-2.32-.18-1.92,1.45-3,3.58-4.5,5.38-4.28,5.18-1.27,10.82-1,16.18.35,7.34,1.48,14.64,2.28,22-2-2.69-1.84-6-2.2-9-1-8.46-1.54-17-2.28-25.49a7.49,7.49,0,0,1,2.62-6.27,256.37,256.37,0,0,1,33.22-28.42c5.28-3.7,11.27-6.39,16.91-9.57,8.9-5,17.79-10.07,27.41-13.67s19.44-7.33,29.16-11a3.38,3.38,0,0,1,2.63-.07c-1.35,1.24-4,2-1.72,4.59a.34.34,0,0,1,0,.32c-3.91,4.71.38,7.35,2.66,10.68-5.22-1-7.72-6.91-13.19-7.28-.14-.23-.26-.55-.56-.16,0,0,.22.24.35.37,3.36,5.14,8,9,12.6,13,1.49,1.3,3,2.61,4.71,4.15-.83.23-1.22.48-1.43.38-5.67-2.89-11.67-5.21-16.58-9.45-.84-.73-2.06-1.65-2.91-.82s.43,1.74,1,2.47c3,3.66,5.13,7.94,8.6,11.27,1.42,1.36,3.19,2.08,4.58,3.38.63.59,1.79,1.27,1.31,2.12-.63,1.1-1.73.42-2.63-.08a93,93,0,0,1-11.8-7.7c-1.74-1.35-3.73-2.4-5.77-3.69-1.58,3.37.91,5.51,2.62,6.35C312.46,352,314,354,316.47,355c1.79.73,2.32,2.58-.34,3.52-.73.26-1.52.4-2,1.33,4.6,4.38,11.84,3.65,16.65,8.15-1.6,1.17-2.88.66-4.16.37-6.51-1.48-12.6-4.19-18.84-6.48-2.91-1.07-6-1.86-9.09-.66-.6.23-1.42.41-1.5,1.18s.83,1,1.37,1.26c3.2,1.73,6.77,2.44,10.17,3.58,2.6.87,5.35,1.42,7.36,3.6a209.93,209.93,0,0,1-23.67-7.52c-6.08-2.34-12.33-4.33-17.7-8.23-.72-.52-1.95-1.58-2.6-.63-.89,1.29.57,1.72,1.53,2.35a5.46,5.46,0,0,1,1.86,2.34c1.56,3.61,4.6,6.35,5.81,10.14Zm-16.18-3.93c-.1.3-.24.51-.19.63a4.44,4.44,0,0,0,.53.74c.06-.19.21-.41.16-.57A4,4,0,0,0,265.11,365.45Z" transform="translate(-117.95 0)"/><path class="cls-3" d="M523.22,408c-2,.47-3.62,1.66-6,.87-1.8-.59-1.46-2.21-2.65-3.1-2.65-2-6.42-1.93-8.45-4.93-.67-1-2.27-1.27-.74-3.08.86-1,.83-2.8-1.88-2.31-4.1.74-8.3,1-13.07,1.46,1.64-2.31,3.63-2.13,5.37-2.64,2.31-.67,5.37,0,6.42-3.21,1.23.06,2.29-.09,2.55-1.81-1.4.19-2.49.3-2.58,1.79l-5.6,1.17c1.39-2.76,3.95-3.1,5.63-4.53.73-.62,2.2-1,1.71-2.12s-1.8-.51-2.71-.28a28.94,28.94,0,0,1-10.32,1.24c4.37-1.38,5.78-5.63,8.81-8.16a2.3,2.3,0,0,0,.73-3.17c-.69-1.51-1.91-1.27-3.16-.69-3.25,1.51-6.35,3.38-9.94,4.08a2.07,2.07,0,0,1-2.16-.3c3-2.71,6.2-5.08,8.83-8.09s3.49-6.48,3.09-10.71c-2.22,2.46-5.32,3.65-6,7.36-.45,2.3-6.86,4.63-9.46,4.3-2.06-.26-4.9.45-5.34,2-.8,2.84-3.42,1.31-4.57,2.77-.28.36-1.08,0-1.47-.46a1.46,1.46,0,0,1,.11-2.13c3-3-.21-3-1.7-3.07-2.32-.14-4.67.38-7,.49-1,0-2.41.58-2.83-1-.36-1.37.8-1.53,1.67-2.06,2.62-1.58,2.44-4.88,4.1-7.09,0-.06-.33-.48-.56-.68-2.08-1.85-2.52-3.58.2-5.3.7-.44.77-1.32.38-2.33-.81.25-1.61.55-2.44.73a2.56,2.56,0,0,1-2.78-.79c-.55-.88.53-1.81,1.08-2.2,3.14-2.19,3.62-6,5.6-8.88,1.77-2.58,3.52-2.38,5.61-.79s2.93,1.31,3.25-1.44c.12-1,0-2.13,1.17-2.55,2.78-1,3.13-3.25,3.18-5.71,3.51,2.45,5.16,6.4,7.65,9.66a159.81,159.81,0,0,1,8.94,13.43c1.49,2.43,2.47,5.17,4.37,7.36-1.44,0-2.35.54-1.86,2.34l1.93-2.25A67,67,0,0,1,510,376.26c-1.41.94-1.11,1.54.38,1.9l-.06-.06a4.76,4.76,0,0,0,2.09,3.12l0-.07a2.77,2.77,0,0,0,1.41,2.45l-.07-.1c1.22,2.55,2.2,5.26,4.8,6.85l0,0c.93,4.49,4.1,7.74,6.41,11.45.51.82,1.31.72,2,.06,3.49,2.93,4.89,7.12,3.24,9.61a1.36,1.36,0,0,1-1.34.77,5.86,5.86,0,0,0-2,.07c-2.64,1.07-2.47-.57-2.29-2.27l.14-.18-.12.2c-1.62.1-1.51-1-1.38-2.05l.68-.69c.2,0,.44,0,.58-.14s.61.32.54-.25l-1.1.41Z" transform="translate(-117.95 0)"/><path class="cls-3" d="M568.62,213.47c-.44,1.15.14,2.73-2.43,2.43-3.24-.38-6.55,1.19-9.92.59-.71-.12-.91.26-1.16.84-1.13,2.58-3.13,3.06-4.61.89-3.49-5.15-8.48-7.64-14.35-8.81-1.77-.35-3.72-1.16-3.27-3.09s2.54-2.62,4.65-2.29,3.95,1.52,5.85,2.41c.74.35,1.32,1,2,.17s2.72.14,2.57-1.49c-.1-1-1.3-1.78-2.54-1.88a2.5,2.5,0,0,1-2-1.13c-3.6-6-10-8.13-15.59-11.5-3.94-2.39-7.31-5.59-10.85-8.56-4.38-3.67-5.89-7.44-5-13.05.44-2.68-2.76-1.48-4.44-1.67.11-.18.18-.45.34-.54,8.16-4.49,8.83-4,15.29,3.94s13,15.55,20.54,22.24c4.24,3.75,9.75,6,14,9.79C561.59,206.11,566.11,208.79,568.62,213.47Z" transform="translate(-117.95 0)"/><path class="cls-3" d="M609.47,288.63c.63-.11,1.27.05,1.65-.81,2.16-4.91,3-5.18,10.26-3.85,1.71.32,3.89,2.31,5.11-.84a2.93,2.93,0,0,1,1.22,3.25c-.82.13-1.6-.9-2.44-.11a.78.78,0,0,0,0,1.15c.9,1.06,1.77.13,2.64-.09,3.52,3.74,6.21,8.11,9.21,12.25,1,1.42,2.58,2.6,1.91,4.7l-4.74.69,0,0c.47-1.88-1-2.85-1.68-4.24-.76-1.55-1.37-2.12-2.84-1.92s-2.84-1.61-3.75-.93c-2,1.51-.06,3.46.31,5.12.28,1.3,1.52,2.4,2.39,3.55,2.44,3.27,5,6.46,7.34,9.78,1.76,2.48,1.12,3.95-1.86,4.89a9.66,9.66,0,0,0-1.45.74c-3.34-2.76-6.94-5.28-8.48-9.62,1.87-1.49.13-2.56-.4-3.82-1.33-3.18-5.19-4-6.59-6.95s-3.77-4.75-6.26-6.54C609.31,293.23,610.19,290.73,609.47,288.63Z" transform="translate(-117.95 0)"/><path class="cls-2" d="M402.59,109.12a20.29,20.29,0,0,1-14.21-1.91c-.29-.16-.63-.25-.91-.43-1.21-.77-2.84-2.49-3.51-2.17a8.47,8.47,0,0,0-3.87,3.85c-1.07,2.4-2.8,1.3-4.17,1.22a2.54,2.54,0,0,1-2.56-2.92,9.93,9.93,0,0,0-.83-2.91c-3.8,3.45-6.53,3.77-10.37,1.38-.58-.36-1.23-.63-1.39-1.37-.59-2.65,2.91-8.65,5.42-9.33,5.71-1.55,8.87,0,10.53,5,.6,1.84.73,4.16,3.59,4h1.2c3.51.37,2.07-2.47,2.61-4,1.19-3.81,4.49-2.18,7-2.71.82.93,1.24.6,1.43-.45l12-1.31a22.36,22.36,0,0,1,2.73,12.61Zm-36.87-4.53-.21-.55c-.18.07-.46.1-.51.22s.11.35.18.53Z" transform="translate(-117.95 0)"/><path class="cls-2" d="M632.81,322a9.66,9.66,0,0,1,1.45-.74c3-.95,3.62-2.42,1.86-4.89-2.36-3.32-4.9-6.52-7.34-9.78-.86-1.15-2.1-2.26-2.39-3.55-.36-1.66-2.31-3.62-.31-5.12.91-.68,2.29,1.13,3.75.93s2.08.37,2.84,1.92c.68,1.39,2.15,2.36,1.68,4.24l-.14.24.12-.26,4.74-.69.69,2.77c-1,.94-.46,2-.38,3.12.39,5.36,4,9.76,4.45,15.1l.34,2a3.39,3.39,0,0,0,.11,3.43l0,1.44c-.09.05-.26.12-.26.16a3.58,3.58,0,0,0,.18.54l-.32,3.25a1.14,1.14,0,0,0-.62,1.46l-.1.11-1.44.15-.16-.09c.09-.73-.35-.89-.94-.88l-.11-.11a.88.88,0,0,0-.75-1.09l-.08-.12c-.26-.91-.7-1-1.29-.26a5.84,5.84,0,0,0-3,2.88c-1.26.91-2.53,1.17-3.86.13l-.21-1.34.21-.72C632.83,331.53,634.47,326.91,632.81,322Z" transform="translate(-117.95 0)"/><path class="cls-3" d="M530.65,422.91c-1.56-2.64-1.78-4.79,2-5.57.68-.14.8-.73.64-1.32a1.88,1.88,0,0,0-2.06-1.36c-2.39-.06-4.58.85-6.83,1.42-5.31,1.36-10.48,3.38-16,3.52-1,0-2.21.41-3.66-1,8.37-1.76,16.2-3.61,23.9-6,4.84-.35,6.57,3.56,9.43,6.29a73.74,73.74,0,0,0,7.43,6.11c1.67,1.22,3.52,2.45,4.12,4.7-.42.79.15,1.27.59,1.75,1.26,1.35,1.45,1.62-.28,3.49-2,2.15-4.2,2-6.2,3.08s-3.24,0-4.32-1.47c-1.22-1.66-.36-2.65,1.18-3.42a1.82,1.82,0,0,0,.81-2.61c-1.56-2.22-.92-4.76-1.41-7.6-1.83,2-4,3-3.81,6.07.11,1.74-1.54,2.93-2.77,4a35.24,35.24,0,0,1-7.76,5.43c.67-3.65,2.93-6.12,4.47-9.18-1.88-.31-3.23,2.05-5.13.22,3-1.34.52-7.09,5.78-6.65a3.94,3.94,0,0,1-1,2.1c-.69,1.1.11,2,.78,2.68,1.21,1.21,1.33-.48,1.93-.89,2.25-1.52,2.47-4.15,4-6.41C533.73,420.34,533,423.34,530.65,422.91Z" transform="translate(-117.95 0)"/><path class="cls-2" d="M413.32,186.87c2,2.13.16,4.82,1,7.12-.76,2.65-2.45,5.05-2.21,8a1.13,1.13,0,0,0-.48,1.56,2.86,2.86,0,0,1-1.48,3.32c-1.93-.35-3.42-2.16-5.6-1.69-2.3,0-4.68,1.88-6.88-.31-1.26-1.61-3.4-2.39-4.21-4.43-.36-3-.44-5.92.87-8.72,1.38-2.53,3.8-4.05,5.85-5.93l1.64.13c.34.36.6.26.78-.16l1.91-.12a9.49,9.49,0,0,1,3.8,1.57C410.07,188.09,411.61,186.22,413.32,186.87ZM397.83,198c1.66,2.66,4.27,3.7,6.88,2.38,3.67-1.85,4.15-4.25,2.44-7.7-1.28-3-3.54-2.51-5.82-1.58A5.94,5.94,0,0,0,397.83,198Z" transform="translate(-117.95 0)"/><path class="cls-2" d="M377.57,201.26c-2.19-3.24-4.06-6.43-3-10.75,1.39-5.94,5.86-9,11.87-7.55,1.6,1.55,2.62,1.39,3.09-.94.35-1.72.87-3.4,1.31-5.1l0,.08,3,.56,1,.93-.62,3.64-.91,9.07a19.07,19.07,0,0,0-2.19,7.36.63.63,0,0,0-.26.89l0,1c-.81,1.11.43,4.57-2.24,3.23-3.2-1.6-6.48-.69-9.57-1.66Zm6.74-4.06c1.73-1.39,4.37-2.13,3.78-5.21a5.81,5.81,0,0,0-1.85-3.46,4,4,0,0,0-6-.53c-2.18,1.72-3.31,4-1.54,6.71C380.05,196.75,381.1,199.4,384.31,197.21Z" transform="translate(-117.95 0)"/><path class="cls-3" d="M394.72,178.48l-1-.93c0-1.13-.31-2.4.11-3.34.54-1.21.24-4.26,3.23-2.24.61.41,1.31,0,1.77-.57,2.12-2.64,5.25-3.94,7.88-5.9a5.62,5.62,0,0,1,4.75-.81c1.17.25,2.24.32,2.43,1.79s-.83,1.89-1.83,2.49c-2.58,1.54-6.28.92-8,4.28-.75,1.48-2.51,3-1.08,4.46,1.25,1.26,3.3.89,4.93-.35a39.38,39.38,0,0,1,4.73-3.2c1.07-.6,2.16-2.55,3.64-.54,1.21,1.64,1,2.9-.78,4.22a54.75,54.75,0,0,0-5.36,5.13,6.33,6.33,0,0,0-1.85,4.23,9.49,9.49,0,0,0-3.8-1.57c1.49-2.69.55-3.59-2.33-3.39-1.28.09-2.66.42-4.18-.49,1.81-1.31,1.72-2.2-.45-2.79C396.63,178.7,395.78,178.07,394.72,178.48Z" transform="translate(-117.95 0)"/><path class="cls-3" d="M621.42,274.49c-5.07,1.06-8.92-1-12.77-4.19-2.9-2.39-1.33-4.66-.6-6.74s.6-2.41-1.49-2.81c-2.63-.51-5.6-.32-7.32-3.34-.81-1.43-1.67-2.22-.62-4.08.79-1.41-.2-3.33-1.47-4.45a5.08,5.08,0,0,1-1.81-4.38c4,3.31,6.83,7.6,10.26,11.39q7,7.72,13.93,15.52C620.35,272.3,621.29,273.15,621.42,274.49Z" transform="translate(-117.95 0)"/><path class="cls-3" d="M148.37,18.47c-3.18,2.24-6.15.42-8.11-1.45-3.69-3.52-6.58-7.85-11.07-10.58-1-.6-1.05-3-2.92-1.75s-5,1.7-4.27,5.12c.14.7.23,1.33-.51,1.75-1.45-4.88-1.32-4.68,3-7.42C126.25,3,127.19.64,130,2.43c1.85,1.19,4,1.81,5.53,3.61a54,54,0,0,0,10.21,9.11A5.3,5.3,0,0,1,148.37,18.47Z" transform="translate(-117.95 0)"/><path class="cls-3" d="M129.43,36.13A41.49,41.49,0,0,1,138.74,45c7.46,9.39,16.38,16.22,28.92,16.87a5.07,5.07,0,0,1,2,.42q10.9,5.44,21.76,11c3.71,1.89,7.39,3.84,11.07,5.77.68.36,1.52.55,1.7,1.48-4.38-1.22-8.16-3.74-12.19-5.71-6-2.92-11.9-5.92-17.76-9.06a32.92,32.92,0,0,0-10.85-3.36c-10.63-1.6-18.61-7.57-25.17-15.7a50.68,50.68,0,0,0-5.89-6.48A8,8,0,0,1,129.43,36.13Z" transform="translate(-117.95 0)"/><path class="cls-3" d="M410.7,150.74c.12,2.22-.75,2.4-1.88,2.56A39.52,39.52,0,0,0,397.9,156c-.36.16-1.14.23-1.19.11-1.42-3.31-3.06-.64-4.66-.27-.85.2-2,1.34-2.64,0a2.63,2.63,0,0,1,.94-3c5.16-3,10.05-7.05,16.74-5C409,148.41,410.49,149.39,410.7,150.74Z" transform="translate(-117.95 0)"/><path class="cls-3" d="M428.4,97.81a33.47,33.47,0,0,1-8.64,4.76c-.39-1.52-.83-3-1.14-4.57-.36-1.8-.58-3.63-2.51-4.55,3.74-1.37,7.65-1.52,11.57-1.63C427.41,93.88,428.2,95.81,428.4,97.81Z" transform="translate(-117.95 0)"/><path class="cls-2" d="M416.11,93.45c1.93.92,2.15,2.75,2.51,4.55.31,1.54.76,3,1.14,4.57a30,30,0,0,1-6.91,3.28c-2.27,0-.5-1.39-.56-2-.4-3.4-.83-6.85.58-10.16Z" transform="translate(-117.95 0)"/><path class="cls-3" d="M129,25.72c1.87.65,2.06,2.55,2.75,4,1,2-1.39,1-1.93,1.9,1.93,2.5,7.71,1.89,6.11,7.71L124.78,29.12c.18,3,3.13,3.89,3.9,6.32-2.68-.8-4.06-3.1-5.65-5.08-1-1.28-1.42-3-.09-4.29,1.54-1.55,2.55-.08,3.66.88a11.18,11.18,0,0,0,2,1.14l.75.22-.21-.74Z" transform="translate(-117.95 0)"/><path class="cls-3" d="M412.88,93.73c-1.42,3.31-1,6.76-.58,10.16.07.58-1.71,2,.56,2a10.38,10.38,0,0,1-5.6,1.85,22.36,22.36,0,0,0-2.73-12.61A28.86,28.86,0,0,1,412.88,93.73Z" transform="translate(-117.95 0)"/><path class="cls-2" d="M611.08,295.07c2.49,1.79,4.84,3.59,6.26,6.54s5.26,3.76,6.59,6.95c.53,1.26,2.27,2.33.4,3.82-3.05-3.26-6.07-6.57-9.18-9.78A13.5,13.5,0,0,1,611.08,295.07Z" transform="translate(-117.95 0)"/><path class="cls-3" d="M312.44,396.94c2.38-3.12,6.07-4.55,9.35-6,8.39-3.66,16.74-7.5,25.47-10.34.62-.2,1.23-.58,1.93-.25-3.43,2.36-7.51,3.2-11.24,4.85-7.76,3.45-15.92,6.07-23,10.89A3.13,3.13,0,0,1,312.44,396.94Z" transform="translate(-117.95 0)"/><path class="cls-3" d="M479.17,330c-2.58-.49-2.51,1.92-3.13,3.19-1.43,2.9-2.66,5.33-6.52,3-1.87-1.1-4.68-.09-6.38-2.75,2.59,0,5-.47,7.12.11,3,.82,4-.42,4.85-2.8a27.51,27.51,0,0,1,2.07-3.8C478,327.91,480,328,479.17,330Z" transform="translate(-117.95 0)"/><path class="cls-3" d="M337.1,90.73c-7.73-.65-15.4-1.45-23.12-1.69C321.73,89.37,329.59,87.89,337.1,90.73Z" transform="translate(-117.95 0)"/><path class="cls-3" d="M412.74,389.82c7.12,3,14.13,6.25,19.76,11.77-4.18-2.43-8.45-4.74-12.51-7.35C417.61,392.71,414.54,392.29,412.74,389.82Z" transform="translate(-117.95 0)"/><path class="cls-3" d="M643.84,325.26c-.45-5.33-4.05-9.74-4.45-15.1-.08-1.08-.59-2.18.38-3.12a77,77,0,0,0,4.14,13.65A5.74,5.74,0,0,1,643.84,325.26Z" transform="translate(-117.95 0)"/><path class="cls-2" d="M526.91,401.81c-.69.66-1.49.76-2-.06-2.31-3.72-5.47-7-6.41-11.45C522.24,393.45,524,398,526.91,401.81Z" transform="translate(-117.95 0)"/><path class="cls-2" d="M334.72,204.7c2,.26,1.35,1.78,1.31,2.89-.16,4.82-.41,9.64-.63,14.53-1-.24-.28-1.71-1.32-1.84a8.72,8.72,0,0,1,0-4.08c.63-.29,1-.66.33-1.28Z" transform="translate(-117.95 0)"/><path class="cls-3" d="M511.82,156.22a18.07,18.07,0,0,1-5.2-9.23A22.25,22.25,0,0,1,511.82,156.22Z" transform="translate(-117.95 0)"/><path class="cls-2" d="M333.57,235.22c1.37.31,1.28,1.41,1.16,2.38-.48,3.87-.1,7.86-1.51,11.61A108,108,0,0,1,333.57,235.22Z" transform="translate(-117.95 0)"/><path class="cls-3" d="M330.62,308.93c-1.77,2.71-1.43,5.25.22,8,.9,1.47,1.25,3.34-1.51,3.57,1.22-1.71.74-3.24-.25-4.93C327.57,313,327.17,310.44,330.62,308.93Z" transform="translate(-117.95 0)"/><path class="cls-3" d="M528.79,219.54a18.86,18.86,0,0,1,8.41,8.37A33,33,0,0,1,528.79,219.54Z" transform="translate(-117.95 0)"/><path class="cls-3" d="M350.45,380.24c4.09-1.83,8.2-3.6,12.86-2.42C359,378.36,354.93,380.46,350.45,380.24Z" transform="translate(-117.95 0)"/><path class="cls-3" d="M225.1,441.89A41.24,41.24,0,0,1,229,453.48,28.54,28.54,0,0,1,225.1,441.89Z" transform="translate(-117.95 0)"/><path class="cls-2" d="M428.4,97.81c-.2-2-1-3.93-.72-6a3.84,3.84,0,0,1,3.22,3.35C431.22,96.69,429.59,97.24,428.4,97.81Z" transform="translate(-117.95 0)"/><path class="cls-2" d="M518.54,390.34c-2.59-1.59-3.57-4.3-4.8-6.85C516.86,384.71,517.9,387.39,518.54,390.34Z" transform="translate(-117.95 0)"/><path class="cls-3" d="M295,398.49c1.68.56,1.62,2.21,2.14,3.48s.74,2.61,2.45,2.72c-1.42,2.14-2.11.59-2.62-.62C296.22,402.25,295.66,400.35,295,398.49Z" transform="translate(-117.95 0)"/><path class="cls-3" d="M279.11,109.41c3,.26,5.41,1.74,7.81,3.35A11.1,11.1,0,0,1,279.11,109.41Z" transform="translate(-117.95 0)"/><path class="cls-3" d="M631.52,338.22c1.32,1,2.6.77,3.86-.13.17,1.46-.58,2.48-1.92,2.43A1.85,1.85,0,0,1,631.52,338.22Z" transform="translate(-117.95 0)"/><path class="cls-3" d="M122.13,14.79c1.33,1.94,2.85,3.77,3.43,6.13A6.69,6.69,0,0,1,122.13,14.79Z" transform="translate(-117.95 0)"/><path class="cls-3" d="M384.2,377.65c2.29-.7,3.93.49,5.5,1.9A7.07,7.07,0,0,1,384.2,377.65Z" transform="translate(-117.95 0)"/><path class="cls-3" d="M439.85,406.75c2.09.45,3.09,2.1,4.13,3.71C441.81,410.11,440.82,408.44,439.85,406.75Z" transform="translate(-117.95 0)"/><path class="cls-3" d="M406.63,386.45c2.06.58,4.1,1.21,5.53,3C410,389.05,408,388.34,406.63,386.45Z" transform="translate(-117.95 0)"/><path class="cls-3" d="M507.53,167.36c-1.68,1.76-3.4,3.46-6.11,3.33A19.75,19.75,0,0,1,507.53,167.36Z" transform="translate(-117.95 0)"/><path class="cls-3" d="M233.2,466.28a8.09,8.09,0,0,1,1.74,5.56A8.15,8.15,0,0,1,233.2,466.28Z" transform="translate(-117.95 0)"/><path class="cls-3" d="M126,21.54c1.31.94,2.75,1.79,2.7,3.71C127.2,24.45,125.89,23.51,126,21.54Z" transform="translate(-117.95 0)"/><path class="cls-3" d="M384.12,99.56c-.54,1.56.9,4.4-2.61,4Z" transform="translate(-117.95 0)"/><path class="cls-3" d="M376.71,377.07c1.73-1.75,3.09-.78,4.39.61C379.54,378.13,378.13,377.56,376.71,377.07Z" transform="translate(-117.95 0)"/><path class="cls-3" d="M307.67,399.6a5.75,5.75,0,0,1,4.19-2.31C310.94,398.91,309.38,399.39,307.67,399.6Z" transform="translate(-117.95 0)"/><path class="cls-3" d="M223.62,89c1.75-.22,3.23.13,4.08,1.87A5.45,5.45,0,0,1,223.62,89Z" transform="translate(-117.95 0)"/><path class="cls-3" d="M435.8,404a4,4,0,0,1,3.48,2.34A4.15,4.15,0,0,1,435.8,404Z" transform="translate(-117.95 0)"/><path class="cls-3" d="M237.72,94.77a5.36,5.36,0,0,1,4.46,1C240.51,96.27,239.11,95.53,237.72,94.77Z" transform="translate(-117.95 0)"/><path class="cls-3" d="M626.22,282.6c-2-.62-2.29-2.36-2.57-4.08A4.87,4.87,0,0,1,626.22,282.6Z" transform="translate(-117.95 0)"/><path class="cls-3" d="M644.3,330.64a3.39,3.39,0,0,1-.11-3.43A2.7,2.7,0,0,1,644.3,330.64Z" transform="translate(-117.95 0)"/><path class="cls-3" d="M218.08,86.51a4.81,4.81,0,0,1,4.21,1.67A5.59,5.59,0,0,1,218.08,86.51Z" transform="translate(-117.95 0)"/><path class="cls-3" d="M392.95,380.56c1.41-.06,2.81-.09,3.64,1.38C395.22,381.89,393.89,381.74,392.95,380.56Z" transform="translate(-117.95 0)"/><path class="cls-3" d="M221.07,425.62a4,4,0,0,1,1,3.54A3.1,3.1,0,0,1,221.07,425.62Z" transform="translate(-117.95 0)"/><path class="cls-3" d="M230.41,458a4.24,4.24,0,0,1,1.27,3.65A3.38,3.38,0,0,1,230.41,458Z" transform="translate(-117.95 0)"/><path class="cls-3" d="M235.25,473.06a3.66,3.66,0,0,1,1,3.53A3.37,3.37,0,0,1,235.25,473.06Z" transform="translate(-117.95 0)"/><path class="cls-3" d="M236.59,477.8a4,4,0,0,1,1.17,3.46A3,3,0,0,1,236.59,477.8Z" transform="translate(-117.95 0)"/><path class="cls-3" d="M239.23,486.41a3.89,3.89,0,0,1,1.16,3.71A3.6,3.6,0,0,1,239.23,486.41Z" transform="translate(-117.95 0)"/><path class="cls-3" d="M241.25,493.19a3.56,3.56,0,0,1,1.14,3.7A3.81,3.81,0,0,1,241.25,493.19Z" transform="translate(-117.95 0)"/><path class="cls-3" d="M261.4,100.81c1.46-.21,2.85-.18,3.82,1.18A4.78,4.78,0,0,1,261.4,100.81Z" transform="translate(-117.95 0)"/><path class="cls-2" d="M628,287.33c-.88.22-1.74,1.15-2.64.09a.78.78,0,0,1,0-1.15c.83-.79,1.62.23,2.44.11Z" transform="translate(-117.95 0)"/><path class="cls-3" d="M205.29,80.91c1.39.12,2.84.11,3.61,1.61C207.51,82.41,206.14,82.25,205.29,80.91Z" transform="translate(-117.95 0)"/><path class="cls-3" d="M156.12,22.81c-1.76,1.47-2.61.16-3.48-1.13C153.95,21.59,155,22.32,156.12,22.81Z" transform="translate(-117.95 0)"/><path class="cls-3" d="M212.84,84.19c1.35.17,2.68.39,3.56,1.6C215,85.84,213.63,85.61,212.84,84.19Z" transform="translate(-117.95 0)"/><path class="cls-3" d="M304.29,401.62a3,3,0,0,1,2.79-1.64A2.52,2.52,0,0,1,304.29,401.62Z" transform="translate(-117.95 0)"/><path class="cls-3" d="M402.47,384.56a3.07,3.07,0,0,1,3,1.19A2.47,2.47,0,0,1,402.47,384.56Z" transform="translate(-117.95 0)"/><path class="cls-3" d="M397.74,382.5a3,3,0,0,1,3,1.2A2.46,2.46,0,0,1,397.74,382.5Z" transform="translate(-117.95 0)"/><path class="cls-2" d="M512.45,381.22a4.76,4.76,0,0,1-2.09-3.12C512.17,378.39,512.75,379.51,512.45,381.22Z" transform="translate(-117.95 0)"/><path class="cls-3" d="M595.24,244.38c-2,.25-2-1.2-2.1-2.52A2.85,2.85,0,0,1,595.24,244.38Z" transform="translate(-117.95 0)"/><path class="cls-3" d="M433.1,402a2.17,2.17,0,0,1,2.13,1.65C433.94,403.81,433.33,403.14,433.1,402Z" transform="translate(-117.95 0)"/><path class="cls-3" d="M228.33,91.11a1.92,1.92,0,0,1,2.76,1.13A2.73,2.73,0,0,1,228.33,91.11Z" transform="translate(-117.95 0)"/><path class="cls-3" d="M209.94,83.09a2.43,2.43,0,0,1,2.82,1.06A3.08,3.08,0,0,1,209.94,83.09Z" transform="translate(-117.95 0)"/><path class="cls-3" d="M232.14,462.76c1.1.49,1.2,1.31.77,2.31A2,2,0,0,1,232.14,462.76Z" transform="translate(-117.95 0)"/><path class="cls-2" d="M510.42,378.16c-1.49-.36-1.79-1-.38-1.9C510.23,376.88,511.33,377.32,510.42,378.16Z" transform="translate(-117.95 0)"/><path class="cls-3" d="M257.39,100a1.72,1.72,0,0,1,2.23.53A1.51,1.51,0,0,1,257.39,100Z" transform="translate(-117.95 0)"/><path class="cls-3" d="M250.63,98.59c.91-.19,1.78-.26,2.4.63A1.73,1.73,0,0,1,250.63,98.59Z" transform="translate(-117.95 0)"/><path class="cls-2" d="M513.82,383.59a2.77,2.77,0,0,1-1.41-2.45C514,381.32,514.7,382,513.82,383.59Z" transform="translate(-117.95 0)"/><path class="cls-3" d="M300.22,404.34a1.15,1.15,0,0,1,1.46-1C301.52,404.21,301.06,404.57,300.22,404.34Z" transform="translate(-117.95 0)"/><path class="cls-3" d="M302.27,403a1.17,1.17,0,0,1,1.43-1C303.56,402.84,303.12,403.21,302.27,403Z" transform="translate(-117.95 0)"/><path class="cls-3" d="M643.24,337.48a1.14,1.14,0,0,1,.62-1.46C644.27,336.77,644.22,337.33,643.24,337.48Z" transform="translate(-117.95 0)"/><path class="cls-3" d="M273.07,105.91a1.18,1.18,0,0,1,1.62.84C273.85,107.07,273.36,106.7,273.07,105.91Z" transform="translate(-117.95 0)"/><path class="cls-3" d="M334.45,214.92c.63.62.3,1-.33,1.28C333.61,215.61,333.8,215.2,334.45,214.92Z" transform="translate(-117.95 0)"/><path class="cls-3" d="M447.34,413.5a1.2,1.2,0,0,1,1.4,1C447.91,414.67,447.44,414.36,447.34,413.5Z" transform="translate(-117.95 0)"/><path class="cls-3" d="M450.05,415.53a1.08,1.08,0,0,1,1.25,1.24A1.15,1.15,0,0,1,450.05,415.53Z" transform="translate(-117.95 0)"/><path class="cls-3" d="M641.7,337.75l1.44-.15C642.79,338.88,642.29,338.74,641.7,337.75Z" transform="translate(-117.95 0)"/><path class="cls-3" d="M269,103.9a1.24,1.24,0,0,1,1.63.83A1.17,1.17,0,0,1,269,103.9Z" transform="translate(-117.95 0)"/><path class="cls-3" d="M254.23,99.54c.56-.6,1-.35,1.32.23C255,100.31,254.58,100.15,254.23,99.54Z" transform="translate(-117.95 0)"/><path class="cls-3" d="M266.28,102.55a1.26,1.26,0,0,1,1.66.75A1.13,1.13,0,0,1,266.28,102.55Z" transform="translate(-117.95 0)"/><path class="cls-3" d="M452.1,417.56c.85,0,1.26.38,1.23,1.24A1.12,1.12,0,0,1,452.1,417.56Z" transform="translate(-117.95 0)"/><path class="cls-3" d="M392.51,96.4c-.19,1.05-.61,1.38-1.43.45A.93.93,0,0,1,392.51,96.4Z" transform="translate(-117.95 0)"/><path class="cls-3" d="M223.64,436.46a1,1,0,0,1,.44,1.53C223.44,437.62,223,437.2,223.64,436.46Z" transform="translate(-117.95 0)"/><path class="cls-3" d="M231.72,92.46c.79-.44,1.3-.15,1.65.61A1.1,1.1,0,0,1,231.72,92.46Z" transform="translate(-117.95 0)"/><path class="cls-3" d="M365.84,377.56c.33-.68.7-1.22,1.47-.45C367,377.83,366.48,377.93,365.84,377.56Z" transform="translate(-117.95 0)"/><path class="cls-3" d="M243.29,500a1.12,1.12,0,0,1,.54,1.63A1,1,0,0,1,243.29,500Z" transform="translate(-117.95 0)"/><path class="cls-3" d="M638.38,335.21c.59-.7,1-.65,1.29.26Z" transform="translate(-117.95 0)"/><path class="cls-3" d="M639.75,335.59a.88.88,0,0,1,.75,1.09C639.8,336.62,639.67,336.17,639.75,335.59Z" transform="translate(-117.95 0)"/><path class="cls-3" d="M640.6,336.78c.59,0,1,.15.94.88A.82.82,0,0,1,640.6,336.78Z" transform="translate(-117.95 0)"/><path class="cls-3" d="M644.18,332.77a3.58,3.58,0,0,1-.18-.54s.17-.1.26-.16Z" transform="translate(-117.95 0)"/><path class="cls-3" d="M277.06,108.24c.39-.21.63-.06.78.32Z" transform="translate(-117.95 0)"/><path class="cls-3" d="M150,19.5q-.72.11-.66-.61A.57.57,0,0,1,150,19.5Z" transform="translate(-117.95 0)"/><path class="cls-3" d="M623.58,278.41c-.46-.08-.58-.31-.32-.71A.46.46,0,0,1,623.58,278.41Z" transform="translate(-117.95 0)"/><path class="cls-3" d="M631.51,336.17l-.21.72C630.88,336.5,631,336.29,631.51,336.17Z" transform="translate(-117.95 0)"/><path class="cls-3" d="M449.37,323.27c-2.95-.35-5.93-1.17-8.75.55a3,3,0,0,1-.59.32c-1.61.53-3.71,2.08-4.8.56s1.3-2.52,2.41-3.36c2.24-1.68,2.85-4.51,4.86-6.3.71,2.13,3.29.41,4.24,2.05a16.08,16.08,0,0,1,2.58,6.19Z" transform="translate(-117.95 0)"/><path class="cls-3" d="M437.08,350c-3.84,1.73-7.23.62-10.6.13-.71-.1-1-.89-1.12-1.54s.65-.93,1.12-.9C429.94,347.89,433.64,346.9,437.08,350Z" transform="translate(-117.95 0)"/><path class="cls-1" d="M446.76,317.11c-.95-1.65-3.53.08-4.24-2.05.61-1.38,2-2.34,2.2-3.94l-.09,0,.63-.06c1.3-.3.92-1.61,1.42-2.39a1.64,1.64,0,0,1,1.63-.87c1.19.1.91,1,.92,1.73C445.81,311.23,446.66,314.3,446.76,317.11Z" transform="translate(-117.95 0)"/><path class="cls-3" d="M459.74,381.58c1.66.07,2.4.85,2.42,2.34s-.65,2.55-2.18,2.22c-1.29-.28-3.44-.14-3.43-1.93C456.55,382.61,458.16,381.69,459.74,381.58Z" transform="translate(-117.95 0)"/><path class="cls-3" d="M236.59,381.55l-.67.94-.68-.94h1.35Z" transform="translate(-117.95 0)"/><path class="cls-3" d="M282.7,371.36l.32.35-.37-.3Z" transform="translate(-117.95 0)"/><path class="cls-3" d="M282.65,371.41l-.42-.33c.44-.38.39.06.47.28Z" transform="translate(-117.95 0)"/><path class="cls-3" d="M281.34,369.34l.43.32c-.44.39-.39,0-.47-.28Z" transform="translate(-117.95 0)"/><path class="cls-1" d="M377.57,201.26l1.32.73c-.74,1.34-2.08,2.3-2.38,3.94-.2,1.07-1.81,2.2-.17,3.16a2.84,2.84,0,0,0,3.85-.78,4.9,4.9,0,0,1,5-1.65,11.57,11.57,0,0,0,5.25-.59l0,0c0,1.93.8,2,2.56,1.54,1.92-.49,2.58-2.9,4.75-2.71,2.2,2.19,4.58.31,6.88.31.88,2.17-1,4.65.9,7.28.56-3.1,3.83-3.19,4.7-5.59a2.86,2.86,0,0,0,1.48-3.32c.9-.29,1.38-.71.48-1.56-.24-2.93,1.45-5.33,2.21-8l1.27-.85.12,2c-.25.37-.11.65.22.88a4.87,4.87,0,0,0,2.35,3.2l-.85,1.34c-1.14.17-2.66-.94-3.36.29s-.1,2.56.63,3.73c.29.46.56.94.83,1.41-1.78,2.94-5,5.06-6.43,7.73-1.22,2.24-2.76,4.07-4.12,6.13-.7,1.06.32,2.19,1.4,2.65,2,.84,1.29,1.94.53,3.18-1.64,2.66-4.78,3.53-6.78,5.76-.41.46-1,.26-1.56,0l-1.15-.69c-1.39-.84-.87,4.75-2.68,1-.82-1.71-2.18-2-3.21-3.06a9.33,9.33,0,0,0-5-2.69c-1.36-.23-2.94-.88-3.77,1.05a1.32,1.32,0,0,1-1.72.7c-2.41-1-3.09.32-3.35,2.59-1-2-2.32-3.51-3-5.52-.59-1.71-2.36-2.87-3.5-4.14-2.58-2.85-6.06-3.85-8.69-6.12-3-2.55-3.63-6.55-4-10.4-.05-.62-.28-1.51.57-1.73s1.13.53,1.31,1.19c1.24,4.57,5.61,7.08,7.47,11.3.4.92,2.2,1.67,3.17.75s.22-2.35-.85-2.81c-1.54-.65-1.53-1.61-1.63-3a12.66,12.66,0,0,0-2-6.33c-1.15-1.72-1-3,1.53-3l.11.08c1.91,2.26,4.21,2.67,5.92.86C375.42,200.07,376.46,201.52,377.57,201.26Z" transform="translate(-117.95 0)"/><path class="cls-1" d="M355.09,212.42c-2.82,5,.18,9.87,1.61,14.73,2.2,7.51,3.66,15.2,5.86,22.7,1.29,4.41,2,9,3.81,13.25a8.12,8.12,0,0,1,.36,2.64,1.06,1.06,0,0,1-.85,1.26c-.63.1-.91-.36-1.29-.82-4-4.94-5.42-11-7.09-16.89-2.29-8.08-4.64-16.17-6.31-24.39-1.33-6.56-1.79-13.32-2.41-20A39,39,0,0,0,348,201a1.82,1.82,0,0,1,1.41-2.3c1-.26,2-.23,2.44,1.09.82,2.32,2.33,4.48,1.93,7.07C353.48,208.81,355.26,210.12,355.09,212.42Z" transform="translate(-117.95 0)"/><path class="cls-2" d="M415.74,195.13l-.12-2,2.57-3.88c4.44-1.73,8.6-1.69,12.2,1.9.28.61.59,1.21.82,1.84.39,1.08,1.48,2.68-.2,3-1.08.23-3.42.67-3.85-1.51a2.73,2.73,0,0,0-1.68-2.29c-1.48-.54-3.42-1.13-4.31.49-1.12,2,1.19,2.21,2.33,2.82s2.7,1.07,4,1.74c2.57,1.33,4.58,3.24,3.82,6.4a5.9,5.9,0,0,1-6,5c-.56,0-1.12.06-1.68.1-1.26-.65-2.66-.39-4-.58L415.55,206c-.28-.47-.55-.95-.83-1.41-.73-1.17-1.26-2.63-.63-3.73s2.22-.12,3.36-.29a2.33,2.33,0,0,1,1.56,1.53c.86,2.2,2.89,2.59,5,2.67a2.1,2.1,0,0,0,2.33-1.52c.33-1.26-.57-1.84-1.59-2.15-2.13-.66-4.27-1.25-6.41-1.87A4.87,4.87,0,0,1,416,196Z" transform="translate(-117.95 0)"/><path class="cls-2" d="M368.85,176.16c-1.09,7-.6,14.12-2.78,20.93-.3.93-.32,2.6-1.54,2.14-3-1.13-6.59.61-9.06-2.2-2.17-2.47-2.56-5.42-2.06-8.53.25-1.55.73-3.07.93-4.62.62-4.8,5.58-7.08,10-3.17,1.36-2.43.35-5.11,1-7.5C367.37,173.22,369,173.64,368.85,176.16ZM360.76,193c2-.52,3-1.67,2.5-3.85,1-2.39-.29-4.06-2-5.32-1.16-.84-2.95-.92-3.66.37a10,10,0,0,0-.54,8.17C357.73,194.42,359.46,193,360.76,193Z" transform="translate(-117.95 0)"/><path class="cls-1" d="M440.41,201.84c-1.65,1.58-1.77,4.71-1.73,6.51.09,3.67-1.09,6.89-1.62,10.3-.24,1.54-1,3-1.21,4.53-.4,2.56-2.1,2.49-3.16,1.1-1.54-2-1.87-.6-2.45.44a3,3,0,0,1-2.24,1.74c-1.49.28-1.93-.21-1.54-1.5,1.79-5.83,3.35-11.76,5.6-17.42,1-2.55,3-4.79,4.13-7.42.5-1.16,1.66-.81,2.67-.4C439.7,200.07,440.72,200.15,440.41,201.84Z" transform="translate(-117.95 0)"/><path class="cls-2" d="M446.76,317.11c-.1-2.82-.95-5.88,2.47-7.54a19.54,19.54,0,0,0,7.46-3.58c.78-.58,1.87-1.56,3-.48s.09,1.94-.2,2.81c-1.13,3.35-4.56,4.1-7,5.93-1.2.89-2.7,1.37-3.23,3.72,2.76-1.22,5.06-2.17,7.3-3.27,1-.48,1.73-1.46,2.72-1.84,1.55-.6,3.71-1.29,4.71.1,1.19,1.65-.82,3-2,3.64-4.24,2.17-7.85,5.54-12.61,6.71A16.09,16.09,0,0,0,446.76,317.11Z" transform="translate(-117.95 0)"/><path class="cls-2" d="M342.84,181.13c.1-2-.78-3.86,1-5s3.46-.59,5.1.37c.38.22.81.77,1.08.69,5-1.44,3.51,1.58,3.27,4.35a47.45,47.45,0,0,1-3,12.67c-.4,1.06-.74,1.89-2.09,1.51-2-.56-3.41-1.63-3.79-3.8-.19-1.05-.37-1.83,1.1-2.26,2.68-.78,4.14-2.53,3.51-5.56C348.28,180.41,346.69,179.54,342.84,181.13Z" transform="translate(-117.95 0)"/><path class="cls-1" d="M368.85,176.16c.17-2.52-1.48-2.94-3.45-3,0-5-3.19-9.24-3.75-14.13,2-.85,1.26,1.95,2.65,1.82,1.37-2.57-3.21-5.34.43-8.19,1.15,3.09,2.23,6,3.29,8.84a1,1,0,0,1,0,.67c-2,4.92-.19,8.6,3.73,11.65.3.24.17,1,.24,1.58-1.17-.26-1.64.58-2.13,1.37Z" transform="translate(-117.95 0)"/><path class="cls-2" d="M368.18,200.41c.57-6,1.13-12.08,1.72-18.11.19-2,1.73-1.41,2.86-1.38,1.82.06.76,1.26.85,2.13.55,5.26-1.77,10.21-1.57,15.42.13,3.28-2.19,2-3.77,2Z" transform="translate(-117.95 0)"/><path class="cls-1" d="M430.39,191.17c-3.61-3.6-7.77-3.63-12.2-1.9.83-2.78,2.93-4.69,4.74-6.77,1.29-1.48,2.93-1.37,4.5-.45,1.22.72,2.5,1.37,1.61,3.32-.49,1.08.41,2.13,1.19,2.95S431.5,190.15,430.39,191.17Z" transform="translate(-117.95 0)"/><path class="cls-1" d="M390.79,176.92c-.44,1.7-1,3.38-1.31,5.1-.47,2.34-1.49,2.49-3.09.94.28-4.48-3.55-4.53-6.59-5.91C383.65,175.37,387.26,177.74,390.79,176.92Z" transform="translate(-117.95 0)"/><path class="cls-1" d="M384.73,131.45c-2.13.24-2.52-.41-1.71-2.25.61-1.39,1.34-2.67,2.71-3.05,1.7-.47,4-.56,4.85,1s-1.31,2-2.56,2.6S386.19,131.85,384.73,131.45Z" transform="translate(-117.95 0)"/><path class="cls-1" d="M392.17,251c-2.71.07-7.07-4.16-6.85-6.24a1.22,1.22,0,0,1,1.06-1.13,2.41,2.41,0,0,1,2.43.81C390.47,246.23,390.79,248.67,392.17,251Z" transform="translate(-117.95 0)"/><path class="cls-2" d="M445.24,275.55c-.06,1.08-.36,2.58-1.82,2.44-1.28-.11-1.33-1.4-1-2.69a29,29,0,0,0,.24-3.68c.1-.76-.51-2.09.88-2.1.9,0,1,1,1.07,1.85C444.78,272.7,445,274,445.24,275.55Z" transform="translate(-117.95 0)"/><path class="cls-2" d="M369.87,176.79c.5-.79,1-1.63,2.13-1.37,2,0,2.31,1.14,2.21,2.81-.08,1.17-.63,1.42-1.69,1.49C370.29,179.88,370,178.46,369.87,176.79Z" transform="translate(-117.95 0)"/><path class="cls-1" d="M419.64,208.17c1.33.19,2.73-.07,4,.58l-4,3Z" transform="translate(-117.95 0)"/><path class="cls-1" d="M271.16,76.63l.32.29c-.07,0-.16,0-.2,0a.89.89,0,0,1-.13-.25Z" transform="translate(-117.95 0)"/><path class="cls-2" d="M445.26,311.1l-.63.06C444.8,310.67,445,310.86,445.26,311.1Z" transform="translate(-117.95 0)"/><path class="cls-3" d="M139.78,28.47a2,2,0,0,1,1.78,1.07,49.2,49.2,0,0,1,3.84,7.6c.14.42.44.82.07,1.2a1.09,1.09,0,0,1-1.52.07c-1.3-1.1-3.32-1.72-3.07-4,.15-1.43-.81-2.22-1.5-3.22A1.79,1.79,0,0,1,139.78,28.47Z" transform="translate(-117.95 0)"/><path class="cls-3" d="M138.36,28.89A1.18,1.18,0,0,1,136.67,30c-1.93-.69-3.64-1.79-4.06-4-.25-1.34.9-1,1.58-.9C135.86,25.2,138.49,27.66,138.36,28.89Z" transform="translate(-117.95 0)"/><path class="cls-3" d="M138.63,37.52c1.77-.09,4.84,4.52,4.39,5.77a.86.86,0,0,1-1,.59c-1.54-.08-4.21-4.38-3.59-5.83Z" transform="translate(-117.95 0)"/><path class="cls-2" d="M265.11,365.45a4,4,0,0,1,.5.81c.05.16-.1.38-.16.57a4.44,4.44,0,0,1-.53-.74C264.87,366,265,365.75,265.11,365.45Z" transform="translate(-117.95 0)"/><path class="cls-2" d="M236.6,381.56h-1.37C235.69,380.62,236.14,380.64,236.6,381.56Z" transform="translate(-117.95 0)"/><path class="cls-2" d="M315.79,329.44c-.12-.13-.36-.34-.35-.37.3-.39.42-.07.56.16Z" transform="translate(-117.95 0)"/><path class="cls-2" d="M502.2,391c.09-1.48,1.18-1.6,2.58-1.79-.26,1.72-1.33,1.87-2.55,1.81Z" transform="translate(-117.95 0)"/><path class="cls-2" d="M500.3,361.19l-1.93,2.25c-.49-1.8.42-2.29,1.86-2.34Z" transform="translate(-117.95 0)"/><path class="cls-2" d="M523.91,407.31l1.1-.41c.07.58-.37.11-.54.25s-.38.1-.58.14Z" transform="translate(-117.95 0)"/><path class="cls-2" d="M524.58,410l.12-.2-.14.18Z" transform="translate(-117.95 0)"/><path class="cls-2" d="M523.89,407.29l-.68.69,0,0,.69-.69Z" transform="translate(-117.95 0)"/><path class="cls-3" d="M365.73,104.59l-.54.21c-.07-.18-.24-.4-.18-.53s.33-.15.51-.22Z" transform="translate(-117.95 0)"/><path class="cls-3" d="M634.34,305l-.12.26.14-.24Z" transform="translate(-117.95 0)"/><path class="cls-2" d="M530.65,422.91c2.36.43,3.08-2.57,5.75-2.56-1.48,2.26-1.7,4.89-4,6.41-.61.41-.73,2.1-1.93.89-.67-.67-1.47-1.58-.78-2.68a3.94,3.94,0,0,0,1-2.1Z" transform="translate(-117.95 0)"/><path class="cls-3" d="M390.42,206.08a11.57,11.57,0,0,1-5.25.59,4.9,4.9,0,0,0-5,1.65,2.84,2.84,0,0,1-3.85.78c-1.64-1,0-2.08.17-3.16.3-1.64,1.64-2.6,2.38-3.94,3.09,1,6.37.06,9.57,1.66,2.67,1.34,1.43-2.12,2.24-3.23h2.79c.81,2,2.95,2.82,4.21,4.43-2.17-.2-2.83,2.22-4.75,2.71-1.75.45-2.54.4-2.56-1.54a.91.91,0,0,0,.25-.08s0-.12.05-.18Z" transform="translate(-117.95 0)"/><path class="cls-1" d="M397.83,198a5.94,5.94,0,0,1,3.5-6.91c2.28-.93,4.55-1.37,5.82,1.58C404.4,195,402.44,198.84,397.83,198Z" transform="translate(-117.95 0)"/><path class="cls-3" d="M393.19,191.2l.91-9.07c2.23-.19,3.79,1.7,6,1.87,1.26.1.54,1.13.15,1.78-2,1.88-4.46,3.4-5.85,5.93C394.33,190.71,393.79,190.89,393.19,191.2Z" transform="translate(-117.95 0)"/><path class="cls-3" d="M397.83,198c4.62.87,6.57-2.93,9.33-5.32,1.71,3.46,1.22,5.85-2.44,7.7C402.1,201.67,399.48,200.63,397.83,198Z" transform="translate(-117.95 0)"/><path class="cls-1" d="M400.21,185.78c.39-.65,1.12-1.68-.15-1.78-2.18-.18-3.74-2.06-6-1.87l.62-3.64c1.06-.42,1.9.21,2.86.48,2.17.59,2.26,1.48.45,2.79,1.51.92,2.9.59,4.18.49,2.88-.21,3.82.7,2.33,3.39l-1.91.12-.78.16Z" transform="translate(-117.95 0)"/><path class="cls-1" d="M393.19,191.2c.6-.31,1.14-.48,1.18.51-1.31,2.81-1.24,5.75-.87,8.72H390.7l0-1a.61.61,0,0,0,.26-.89A19.07,19.07,0,0,1,393.19,191.2Z" transform="translate(-117.95 0)"/><path class="cls-3" d="M410.18,206.86c-.87,2.4-4.14,2.49-4.7,5.59-1.92-2.63,0-5.11-.9-7.28C406.76,204.7,408.25,206.51,410.18,206.86Z" transform="translate(-117.95 0)"/><path class="cls-3" d="M412.14,202c.91.85.43,1.27-.48,1.56A1.13,1.13,0,0,1,412.14,202Z" transform="translate(-117.95 0)"/><path class="cls-3" d="M401.85,185.91l.78-.16C402.44,186.17,402.19,186.27,401.85,185.91Z" transform="translate(-117.95 0)"/><path class="cls-3" d="M384.31,197.21c-3.21,2.2-4.25-.46-5.56-2.49-1.77-2.75-.64-5,1.54-6.71a4,4,0,0,1,6,.53,5.81,5.81,0,0,1,1.85,3.46c-1.4-.51-2.49-.13-2.94,1.3C384.76,194.57,384.58,195.9,384.31,197.21Z" transform="translate(-117.95 0)"/><path class="cls-1" d="M384.31,197.21c.27-1.3.45-2.64.85-3.9.45-1.43,1.54-1.81,2.94-1.3C388.67,195.07,386,195.81,384.31,197.21Z" transform="translate(-117.95 0)"/><path class="cls-3" d="M391,198.56a.61.61,0,0,1-.26.89A.63.63,0,0,1,391,198.56Z" transform="translate(-117.95 0)"/><path class="cls-1" d="M129.16,27.56l.21.74-.75-.22Z" transform="translate(-117.95 0)"/><path class="cls-3" d="M418.3,199.21c2.14.62,4.28,1.21,6.41,1.87,1,.31,1.92.89,1.59,2.15a2.1,2.1,0,0,1-2.33,1.52c-2.08-.08-4.1-.47-5-2.67a2.33,2.33,0,0,0-1.56-1.53Z" transform="translate(-117.95 0)"/><path class="cls-3" d="M415.74,195.13l.22.88C415.63,195.78,415.48,195.51,415.74,195.13Z" transform="translate(-117.95 0)"/><path class="cls-3" d="M360.76,193c-1.3,0-3,1.45-3.73-.62a10,10,0,0,1,.54-8.17c.71-1.29,2.5-1.21,3.66-.37,1.74,1.26,3,2.93,2,5.32C360.08,188.88,360.78,191.16,360.76,193Z" transform="translate(-117.95 0)"/><path class="cls-1" d="M360.76,193c0-1.81-.68-4.09,2.5-3.85C363.8,191.29,362.76,192.45,360.76,193Z" transform="translate(-117.95 0)"/><path class="cls-1" d="M390.42,206.08l.27-.3c0,.06,0,.15-.05.18a.91.91,0,0,1-.25.08Z" transform="translate(-117.95 0)"/></g><path class="cls-3" d="M345,179.43a21.23,21.23,0,0,0,13.87,9c2.36.43,5-2.69,2.65-4.56l-15.21-12.06c-2.68-2.13-6.52,1.47-3.86,3.86a63.29,63.29,0,0,0,15.9,10.5l2.1-5L342,174.14c-2.16-.83-4.42,2.12-3.08,4A14.63,14.63,0,0,0,347,184l-1.2-4.56c-3.17,3.34-3.13,7.62-.23,11.1,1.33,1.6,4.08.66,4.56-1.2a13.4,13.4,0,0,0,.54-4.15h-5.45v8.88h5.45l-.07-5.29c0-2.54-3.88-3.93-5.08-1.38l-3.09,6.6,5,2.1,3.49-9.45-5.36-.72a12.46,12.46,0,0,0,.79,5.29,2.77,2.77,0,0,0,5,.65,15.46,15.46,0,0,0,2.18-4.56l-5.36-.72a16.46,16.46,0,0,0,3.2,8.51c1.29,1.73,4.41,1.85,5-.65a17.74,17.74,0,0,0,0-8.14c-.57-2.62-4.66-2.58-5.26,0a11.07,11.07,0,0,0,1.18,8.5,2.75,2.75,0,0,0,4.28.55,9.09,9.09,0,0,0,2.61-6.79,2.74,2.74,0,0,0-5.36-.72,11.21,11.21,0,0,0,1.5,10.25,2.81,2.81,0,0,0,3.73,1c1.77-.9,2.14-1.59,2.86-3.39a2.74,2.74,0,0,0-1.9-3.35c-4.91-1.13-6.56,5.28-2.17,7.34,6.75,3.16,9.7-5.51,10-10.35h-5.45v5.05c0,3.56,5.15,3.44,5.45,0l1-11.79h-5.45l0,5.48c0,3.51,5.4,3.51,5.45,0,.07-4.4-.05-8.78-.36-13.17-.24-3.46-5.45-3.55-5.45,0v2.66l5.08-1.38a57.64,57.64,0,0,1-5.12-8.12l-3.73,3.73a21.22,21.22,0,0,1,9.14,10.84,2.77,2.77,0,0,0,4,1.63c2.24-1.28,4.1-3.45,3.27-6.18a4.44,4.44,0,0,0-5.57-2.88c-2.58.93-2.58,3.41-2.29,5.69.77,6.15,1.19,11.3-.53,17.4l5-.65c-4.38-6.43-8.63-12.85-10.58-20.47l-4.56,2.65c8.11,7.78,22.13,18.6,34.12,15.14a2.75,2.75,0,0,0,1.2-4.56,58.92,58.92,0,0,0-14.26-9.72l-.65,5a14.37,14.37,0,0,1,13.33,4.84l2.65-4.56a43,43,0,0,0-12.16-2.81c-2.41-.19-6-.72-8.09.85a3.9,3.9,0,0,0-1.19,4.91,5.36,5.36,0,0,0,2.11,2.42c1.06.67,5.72,2.24,1.49-1.26a2.74,2.74,0,0,0-4.28,3.3c3,5.57,12.38,15.13,18.72,8.26,4.75-5.15-1.94-12.36-7.22-7.79-1.21,1-.85,2.76,0,3.86,1.6,2.06,3.8,6.64,7,6.43,3-.2,3.71-3.34,3.63-5.83-.07-2.12-.74-4.2-.75-6.32,0-2.64,1.33-4.37,2.16-6.72,1-3,.78-6-1.68-8.16a2.79,2.79,0,0,0-4.28.55,5.42,5.42,0,0,0-.9,5.09c.84,3.5,5.75,1.92,5.26-1.45-.79-5.44-5.25-11.5-11.46-10-5.8,1.37-7.7,8.47-6.39,13.6a17.58,17.58,0,0,0,13.74,12.63c8.22,1.45,17.16-7.31,24.67-2.81,2.59,1.55,5.71-2.24,3.3-4.28-4.66-4-12.05-7.56-18.29-5.22-5.31,2-7,8.26-5.21,13.24s6.74,9.59,12.41,7.83c6.68-2.07,8.1-9.35,7.78-15.45-.16-3-4.59-3.84-5.36-.72-.39,1.6-1.23,8.45-2.19,8.94-2.13,1.08-8.5-1.91-10.59-2.75a2.69,2.69,0,0,0-2.65.7c-3.05,2.84-.82,6.25,2.34,7.63,6.5,2.83,13.88,4.63,20.69,6.62,2.17.64,3.66-1.4,3.35-3.35a29.39,29.39,0,0,0-2.67-8.32l-1,3.73c-1.22.79,1.44,3.33,2.6,4.1a8,8,0,0,0,6.15,1.18,7.22,7.22,0,0,0,5.08-9.45l-5,2.1-.17,2.14c-1.83,1.11-1.78,4.59.65,5,4.32.69,8.08-2.57,7-7.16a8.16,8.16,0,0,0-3.79-4.83c-2.72-1.7-8.48-1.45-9.76-4.71l-1.9,3.35a12.13,12.13,0,0,1,11.1,3.93c1.7,1.78,4.56.35,4.66-1.93.29-6.76-8.32-11.25-14.25-8.24a5.85,5.85,0,0,0-3,6.11c.5,3.66,3.53,5.64,6.62,7.11s5.92-3.2,2.75-4.71c-1.35-.64-2.69-.78-2.69-2.54,0-3.45,5.11,1,5.06,2.27l4.66-1.93a17.79,17.79,0,0,0-16.41-5.33,2.73,2.73,0,0,0-1.9,3.35,9.38,9.38,0,0,0,4.32,5.12,17.4,17.4,0,0,0,3.19,1.24q1.46.38,2.91.8a3.1,3.1,0,0,1,2.83,2.83l.65,5a6.53,6.53,0,0,0,2.13-9.6c-1.7-2.29-6-1.08-5,2.1q-3.28,3.23-4.21.7a6.92,6.92,0,0,0-1.06-1.66,4.83,4.83,0,0,0-1.75-1.42,4.2,4.2,0,0,0-4.3.39,2.81,2.81,0,0,0-1,3.73,24.33,24.33,0,0,1,2.12,7l3.35-3.35c-3.54-1-7-2.19-10.56-3.32l-5.21-1.68-2.6-.84q-2-1.61-2.25.71l-2.65.7c3.66,1.48,10.51,4.37,14.49,2.59s4.11-9,5-12.58l-5.36-.72c.14,2.57.33,5.76-1.16,8-2.88,4.34-7.71,1-8.49-3-1.84-9.52,10.79-4.8,14.56-1.6l3.3-4.28c-8.58-5.14-15.35,1.81-23.9,2.29a12.08,12.08,0,0,1-11.32-6.87c-1.26-2.68-1.64-6.69,1.41-8.05,3.35-1.5,4.83,2.52,5.25,5.41l5.26-1.45.35-.89-4.28.55c1.63,1.42-1.76,7.2-2,9.11-.18,1.49,1.34,8.76.57,9.41l2.65-.7c-1-.29-3.21-4.06-3.89-4.93v3.86c-3.9,3.37-9.33-4.61-10.64-7.08l-4.28,3.3c2.29,1.9,5,3.82,8.14,2.56a5,5,0,0,0,3.13-5.87,5.21,5.21,0,0,0-1.86-2.47,4.92,4.92,0,0,0-1.6-.78c-.59-.12-3.65.27-3.31,1.18,0,.12,7.85.42,8.5.54a40.46,40.46,0,0,1,7.26,2.14c2.72,1,4.33-2.72,2.65-4.56a20,20,0,0,0-18.63-6.24c-2.27.38-2.68,4-.65,5a54.07,54.07,0,0,1,13.16,8.86l1.2-4.56c-9.68,2.8-22.34-7.52-28.81-13.73a2.75,2.75,0,0,0-4.56,2.65c2.06,8.09,6.47,15,11.13,21.78a2.76,2.76,0,0,0,5-.65,40.54,40.54,0,0,0,1.66-11c0-2.8.38-12-4.56-9.2l4,1.63A27.21,27.21,0,0,0,362,167.1c-2.43-1.47-4.95,1.4-3.73,3.73A57.64,57.64,0,0,0,363.4,179c1.53,2,5.08,1.56,5.08-1.38v-2.66H363c.31,4.39.43,8.77.36,13.17h5.45l0-5.48c0-3.56-5.15-3.44-5.45,0l-1,11.79h5.45v-5.05c0-3.53-5.26-3.49-5.45,0-.11,2-.86,8.94-3.8,8.27l-1.9-3.35-.35.13,3.73,1a6.37,6.37,0,0,1-1-6l-5.36-.72-1,2.93,4.28.55a4.6,4.6,0,0,1-.63-4.3H351.1a8.9,8.9,0,0,1,0,5.24l5-.65a11.3,11.3,0,0,1-2.46-5.75c-.34-2.93-4.4-3.85-5.36-.72a7.64,7.64,0,0,1-1.63,3.26l5,.65A6,6,0,0,1,351,186c.16-3.25-4.35-3.45-5.36-.72l-3.49,9.45c-1.06,2.87,3.67,4.9,5,2.1l3.09-6.6-5.08-1.38.07,5.29c0,3.51,5.46,3.52,5.45,0v-8.88c0-3.51-5.43-3.51-5.45,0l-.35,2.7,4.56-1.2.23-3.39a2.76,2.76,0,0,0-1.2-4.56,8.42,8.42,0,0,1-4.85-3.38l-3.08,4L359,186.48c2.86,1.09,4.91-3.69,2.1-5a58.54,58.54,0,0,1-14.8-9.65l-3.86,3.86,15.21,12.06,2.65-4.56a15.75,15.75,0,0,1-10.62-6.52c-2-2.84-6.75-.12-4.71,2.75Z" transform="translate(-117.95 0)"/><path class="cls-3" d="M362.45,194.31a4.57,4.57,0,0,0,4,6.66,2.73,2.73,0,0,0,0-5.45c-.49,0,.7.16.23,0s.27.12.31.13c-.41-.18.48.44.16.13s.31.48.15.21,0-.25.07.26c0-.12-.11-.51,0,0q0,.42,0,.12v-.12l-.06.48q.11-.4-.15.3a2.94,2.94,0,0,0,.27-2.1,2.73,2.73,0,0,0-5-.65Z" transform="translate(-117.95 0)"/><path class="cls-2" d="M280.47,566.15c-.07,3.89-17,3.15-19.84,3.31l-22.8,1.28c-13.41.75-30.25,4.3-42.72-2.1v4.71a11.88,11.88,0,0,1,9-2.31c3.48.41,3.45-5,0-5.45a16.22,16.22,0,0,0-11.75,3.05c-1.54,1.11-2,3.7,0,4.71,7.08,3.63,14.7,4.32,22.55,4.08,10-.3,19.91-1.07,29.85-1.63s19.84-1,29.74-1.67c5.08-.35,11.31-1.85,11.42-8,.06-3.51-5.39-3.51-5.45,0Z" transform="translate(-117.95 0)"/></svg>