<svg id="Layer_1" data-name="Layer 1" xmlns="http://www.w3.org/2000/svg" viewBox="0 0 527.05 539.87"><defs><style>.cls-1{opacity:0.7;}.cls-2{fill:#d3c8b9;}.cls-3{fill:#262523;}.cls-4{fill:#92867c;}.cls-5{fill:#fff;}</style></defs><title>maskandswordv3</title><g id="imageedit_swordandmask.psd" class="cls-1"><path class="cls-2" d="M159.3.31,519.68,173h0a.75.75,0,0,0-.64-.67l0,0a2.64,2.64,0,0,0-.47-.66,27.8,27.8,0,0,1-6.69-7,42.61,42.61,0,0,0-14.69-13.66c-4.27-2.41-9-3.55-13.59-5a1.35,1.35,0,0,0-1.29.07l-.49-.06a16.65,16.65,0,0,0-6.36-1.06c-3.19-.1-6.39.17-9.58-.17a.62.62,0,0,1-.26-.14,1.28,1.28,0,0,0-1.37-.61l-2.31-.77a2.54,2.54,0,0,0-2.24-.7l-.84-.25c-1.69-1.11-3.67-1.45-5.52-2.14-9.51-3.52-19.12-6.78-28.77-9.88-3.14-1-6.12-2.52-9.43-3l-.82-.28a2.89,2.89,0,0,0-2.2-.77l-1.23-.4a1.06,1.06,0,0,0-.27-.2,121.86,121.86,0,0,0-29.37-5.83c-1.76-.11-3.62-.4-5.23.74l-.62.11c-.45-.26-.88,0-1.3.06a100.61,100.61,0,0,0-23.31,9,160.82,160.82,0,0,0-15.39,9c-2,1.37-4.37,2.27-6,4.24a.58.58,0,0,1-.2.15,2.11,2.11,0,0,0-1.79,1.25.67.67,0,0,1-.23.13A2.92,2.92,0,0,0,325,146l-1.58,1.13a.79.79,0,0,0-.79.55l-2,1.42a.79.79,0,0,0-.79.51,1.11,1.11,0,0,1-.22.16.77.77,0,0,0-.75.6.59.59,0,0,1-.22.13.85.85,0,0,0-.82.89c0,.36.28.43.58.43l.82.29.06.09.1,0a27,27,0,0,0,10,4.65c5.5,1.26,11,2.52,16.18,4.9,2.8,1.29,5.34,3.11,8.34,4,4.08,1.19,8.17,2.32,12.17,3.8,2.17.8,4.17,1.93,6.24,2.89a55.74,55.74,0,0,1,9,4.82c.58,1.08,1.63.69,2.52.79l.67.35a.27.27,0,0,0,.39.2l.83.33c.82.88,1.88.39,2.84.49l.55.15c1.11,1.07.71,1.87-.52,2.39a12.45,12.45,0,0,0-4.06,2.92c-4.43,4.6-9.56,8.46-13.68,13.42-3.79,4.57-7.78,8.95-11,14-1.65,2.6-3.78,4.87-5.34,7.57a30.94,30.94,0,0,1-3.59,5c-.85,1-2.13,1.79-1.5,3.43l0,0c-1.1.2-1.65,1.07-2.31,1.84-3.5,4.1-5.21,9.33-8.67,13.48-1.88,2.25-3.21,5-4.81,7.43-2.54,3.93-4.8,8-7.1,12.07-.17.29-.37.49-.64.38-1.66-.7-2.33.83-3.75,1.51,1.79.49,1.65,1.25.76,2.23a14.84,14.84,0,0,1-1.33,1.51c-1.35,1.14-2.78,2.2-2.5,4.36a1.76,1.76,0,0,1-1.26,1.66,2.28,2.28,0,0,0-1.43,2.27c.34,2.05-.86,2.89-2.3,3.61-.68.34-1,.7-.67,1.41.57,1.35-.15,2.15-1.21,2.73-.8.44-1.53,1-1.3,1.93a2.81,2.81,0,0,1-1.1,2.82,7.91,7.91,0,0,0-1.14,1.93,11.15,11.15,0,0,0-2,5.45c0,.22-.28.5-.5.66a2.56,2.56,0,0,0-.92,1.54c-.32,1.2-3.45,2-4.38,1.11a1.17,1.17,0,0,1-.28-.94,15.88,15.88,0,0,0,0-1.86c-.26-1.8,0-3.91-1.92-4.95-2.12-1.18-2.28-3.73-4-5.16-.34-.29-.19-1,0-1.47.28-.88,1-1.71.07-2.64a17.53,17.53,0,0,0-2.05-2.2c-3.24-2.27-6.63-4.4-9-7.61-1.25-1.67-3.45-2.56-3.92-4.87-.1-.5-.71-.46-.89,0-.61,1.54-1.82,2.89-2.3,4.27-.85,2.41-.64,5.2-.84,7.84a2,2,0,0,0,.25.78,13.1,13.1,0,0,1,1.39,5.39,4,4,0,0,0,.49,2.28,4.55,4.55,0,0,1,.38,3.25,13.19,13.19,0,0,0,.2,5.66,3.61,3.61,0,0,1-.74,3.61c-1,1-2,.29-3,.06-1.74-.4-2.47-2-3.66-3.05-3-2.55-4.93-6.06-7.81-8.73a1.67,1.67,0,0,1-.73-1.28c.1-1.56-.87-1.73-2.07-1.67-.84,0-1.67.08-2.51.19-1.08.14-2.36.19-3.07-.8s-1.77-1.75-2.81-1.24-2.49,1.39-2.7,3A8.93,8.93,0,0,1,247,293a5.21,5.21,0,0,0-1.11,2.21c-1.11,3.62-.49,7.26-.23,10.88.15,2.1,1.79,3.13,3.87,3.17,1.82,0,3.63.53,5.44-.11a1.38,1.38,0,0,1,.81.16c3.15,1.21,6.4,1.08,9.7.95,2.7-.11,5.33-.83,8-.76a15.46,15.46,0,0,0,3.41-.23c1.46-.28,3.35-1.24,4.53.82.11.2.49.24.75.35a5.4,5.4,0,0,1,2.36,2.06c.93,1.35,1.28,3.23,2.42,4.16,2,1.61,1.18,4.27,2.8,5.87.09.09,0,.47-.1.63-.46.63,0,1.23,0,1.81,0,1.91,1.39,3.22,1.69,5,.77,4.61-.52,9.14-.24,13.72a1.76,1.76,0,0,1-.14.48c-.58,2.23.38,4.69-1,6.82-.11.17.13.53.14.81a42.64,42.64,0,0,0,1.4,7.92c.81,3.59.33,7.28.4,10.93a6.7,6.7,0,0,1-.29,1.65c-.13.53-.37,1-1,.79s-2,.54-2.15-.66-1.42-2.19-1.25-3.59a.76.76,0,0,0-.57-.91c-.72-.17-.88-.76-1.14-1.34-.86-2-.76-4.06-.94-6.11a3.81,3.81,0,0,0-.78-2.1c-.8-1.08-1.95-2.66-1.65-3.63.53-1.7-.25-2.86-.8-4a63.86,63.86,0,0,0-3.72-6.54c-1.37-2.22-2.59-4.65-5.51-5.28A1.43,1.43,0,0,1,271,338a1.68,1.68,0,0,0-2.05-1,24.33,24.33,0,0,0-6.06,1.11c-1.93.75-4.63,3.75-4.72,5.84-.16,3.9,2.06,7,3.43,10.41.43,1.06,2,1.84.43,3.19-.33.28,0,.86.18,1.28a6,6,0,0,1,.61,1.9c-.12,2.39,1.6,3.91,3,5.09a21.78,21.78,0,0,1,4.49,4.46c1.66,2.43,4,4.41,5.24,7.21.6,1.31,2.11,2.13,2.94,3.43a1,1,0,0,0,.69.44c3.33.27,6.53,1.83,10,1a1.93,1.93,0,0,1,2,.89c.9,1.07-.27,6.78-1.57,7.21-3.16,1.05-6.35,1.94-9.48-.23-2.45-1.7-5.32-2.58-7.9-4.08-1.66-1-3.39-1.54-4.9-3-1.9-1.83-3.84-3.81-6.41-4.87-1-.42-1.48-1.79-2.41-2-1.62-.35-2.58-1.86-4.24-2-.56-.06-.87-.75-1.23-1.28-1-1.39-.79-3-1.15-4.5-.69-2.86-1.93-5.62-1.47-8.68.1-.68-.47-.9-.86-1.31a43.68,43.68,0,0,1-4.58-5.1c-.64-.92-2.18-1.22-3.32-1.77-.06,0-.27.17-.38.3-.44.54-.9,1.23-.61,1.84.65,1.35.29,2.72.43,4.06s-.7,2.88-.36,4.09c.83,3,.06,6.19,1.29,9.11a22.6,22.6,0,0,0,2.21,4.64,6.55,6.55,0,0,1,1.61,3.31,6.82,6.82,0,0,0,1.77,4.07c.29.34.46.77.75,1.12a1,1,0,0,1,.07,1.38,1.19,1.19,0,0,1-1.47.51,5.29,5.29,0,0,1-1.28-.78c-1.28-1-2.22-.71-2.62.89a3.08,3.08,0,0,0,.47,2.41,14.13,14.13,0,0,1,2.34,5.76,8.94,8.94,0,0,0,4.13,6.23c1.88,1.23,2.1,1.88,1.51,4.24a3,3,0,0,0,1.38,3.51,9.2,9.2,0,0,0,2.19.84c2.44.75,3,1.7,2.89,4.28a21.79,21.79,0,0,0,.27,3.68,1.16,1.16,0,0,0,1.12,1.1c2.62,0,4.69,1.46,6.85,2.53,1.86.92,3.92,1.52,5.28,3.48,1.59,2.28,1.94,4.46.07,6.51-.84.91-.72,1.45,0,2.23a7.06,7.06,0,0,1,.8,1.28,1.77,1.77,0,0,1-1,2.68,7.38,7.38,0,0,1-3.67.23,4.86,4.86,0,0,0-2.4.3c-2.09.77-3.75,2.31-6,2.83-1.64.37-3.74.2-4.88,2a7.92,7.92,0,0,1-2.39,2,12.66,12.66,0,0,0-2.45,1.69,1.68,1.68,0,1,1-2.11-2.55,22.31,22.31,0,0,0,5-5.12c.27-.44,1-.9.52-1.47a1.52,1.52,0,0,0-1.88-.2c-1.7,1.11-3.75,1.33-5.45,2.45-1.89,1.24-3.71,3-6.34,2-.2-.08-.54.11-.77.25a2.11,2.11,0,0,1-2.65-.34,5.41,5.41,0,0,0-4-1.38c-1.13.05-3.78-1.65-3.91-2.57-.32-2.13-3-2.5-3.32-4.58,0,0-.23-.13-.29-.09-1.29.79-3,.78-4.1,1.72a44.55,44.55,0,0,0-8.08,9.43c-.83,1.27-.33,2.63-.44,3.94-.07.95.1,1.94-1.09,2.17.08.57.84.29.76.87-.35.51-1.14,0-1.44.61.3.6,1.26,0,1.48.81a2.26,2.26,0,0,1-2.67-.53,47.06,47.06,0,0,0-4.91-5.21.75.75,0,0,1-.13-.94c1-1.92.23-3.62-.6-5.34a18.35,18.35,0,0,1-2.12-6.34c-.35-4.69-2.92-8.15-5.53-11.66a1.74,1.74,0,0,1-.32-1.09,21.52,21.52,0,0,0-1-4.47c-.27-1.1-1.8-2-1.42-3.46.31-1.19-1.22-1.28-1.11-2.06.15-1.09-.37-1.22-1.19-1.35s-3.43-3.93-3.13-4.46c1.5-2.71-1.7-5-.6-7.65.15-.35-.38-.63-.65-.92s-.62-.65-.55-.78c.81-1.54-.61-2.7-.64-4.09,0-1,.29-2-.36-2.92-.95-1.31-.63-3.26-2.18-4.27a.65.65,0,0,1-.14-.62c.77-1.2.43-2.21,0-3.54s-.14-3.14-.54-4.83a10.45,10.45,0,0,1,.09-6.24c.12-.31.27-.68,0-1-2.12-2.27-.26-5.23-1.37-7.67,1.19-3.85-2-6-3.56-8.66a13,13,0,0,1-.63-1.43c-1-2.11.81-4.43-.62-6.53a5.24,5.24,0,0,1-.88-4.46.5.5,0,0,0-.21-.41c-2.09-1.31-1.68-3.65-2.28-5.56-.24-.77-.22-1.65-1.33-1.58s-1.33.89-1.3,1.68a43.39,43.39,0,0,0-.13,4.51,16.48,16.48,0,0,1,0,5.18c-.43,2.27.29,4.4.42,6.58s.81,4.29.65,6.49a19.66,19.66,0,0,0,.67,6.59,20,20,0,0,1,1.06,6.53,4.12,4.12,0,0,0,.78,3.33,1.64,1.64,0,0,1-.21,2.17c-.42.48-.68.94,0,1.4,1.33.88,1.19,2.18,1,3.49-.07.49-.48,1.13,0,1.43,2.25,1.47.93,4,1.83,6,.49,1.07.42,2.63,1.27,3.78.33.45.53.9-.14,1.25-.3.15-.46.47-.25.68,1.07,1.1,1,2.76,1.75,3.88,1.24,1.84.93,4.1,2.11,6a11.8,11.8,0,0,1,1,3.78c.29,2,1.32,4.06,1.95,6.12.24.79-.23,1.81.55,2.39,1.2.9.62,2.77,2,3.53.07,0,0,.45-.07.59-.58.72-.11,1.05.42,1.49,1.08.87,2.27,1.76,2.48,3.24a5.59,5.59,0,0,0,1.36,2.84,3.94,3.94,0,0,1,.81,2.48c.09,1.65,0,3.44.67,4.88a35.41,35.41,0,0,1,1.87,7c.81,3.51,1.45,7.09,2.3,10.6.74,3.08,1.95,6,3,9,.29.85-.19,1-.82,1a2,2,0,0,1-1.38-.83c-1.1-1.14-.6-2.74-1.37-4a25.67,25.67,0,0,1-2.61-8,21.66,21.66,0,0,0-1.56-5.09,20.8,20.8,0,0,1-1.9-4.25c-.54-2.24-.29-4.83-2.35-6.44a3.13,3.13,0,0,1-1.2-2.62,4,4,0,0,0-.94-2.46,8.27,8.27,0,0,1-2-4.71,4.44,4.44,0,0,0-1.57-2.85c-1.09-1.08-1.24-2.79-1.83-4.17-.81-1.92-.3-4.49-2.56-5.77-.15-.08-.2-.4-.22-.62a37,37,0,0,0-1-5.32c-.29-1.28-.46-2.23-1.5-3-.3-.23-.1-.73-.07-1.13a5.5,5.5,0,0,0-1-4.12,3.05,3.05,0,0,1-.79-2.3A6.06,6.06,0,0,0,170.4,390a2.25,2.25,0,0,1-.31-1.42,18.53,18.53,0,0,0-1.24-6.83,8.23,8.23,0,0,1-.71-3.06c0-1,.3-2.28-.2-2.9-1.06-1.31-1-2.82-1.39-4.24-.26-.91-1.1-1.84-.73-2.69.58-1.31,0-2.26-.44-3.31a4.8,4.8,0,0,1-.47-1.78q-.32-6-.7-12c-.1-1.66-.38-3.31-.44-5-.05-1.49.59-3.06-.11-4.47a7.15,7.15,0,0,1-.54-4.23,11.53,11.53,0,0,0,0-2.19c-.18-2.57-.56-5.14-.56-7.71,0-5,.21-10.07.36-15.11a7.68,7.68,0,0,1,.26-1.48c.56-2.45.37-5,1-7.44a.4.4,0,0,0-.34-.51c-.46.1-.54.51-.61.88-.73,3.75-1.92,7.38-2.41,11.2-.57,4.42-1.71,8.78-1.73,13.26,0,3.58-.27,7.15-.13,10.75a130.24,130.24,0,0,0,2,18.22c1.73,9.62,4,19.12,6.12,28.67,3.81,17.36,7.89,34.64,12.47,51.81,3.81,14.26,8.17,28.33,12.88,42.31a3.39,3.39,0,0,0,3.3,2.59,71.75,71.75,0,0,0,8.22.38,44.91,44.91,0,0,0,11.69-2.32c4.86-1.59,9.17-4.24,13.61-6.65,6.24-3.39,12.13-7.32,18-11.27a229,229,0,0,0,20.59-15.77c4.35-3.71,8.84-7.28,13-11.27,2.95-2.86,5.92-5.69,8.88-8.53a7,7,0,0,1,2.44-1.47c6-2.27,11.77-5.1,17.58-7.79a100.66,100.66,0,0,0,13.05-7.4c4-2.63,8-5.21,10.48-9.57.49-.87,1.05-1.91,2.31-2l4.35,1.11c.15.34.36.51.72.24l.63.11c.16.34.37.5.72.23l1,.1c.16.34.37.5.72.23l4,.45c.16.34.37.5.72.24l1.65.1c.15.34.36.51.72.24l2.32.1c.15.34.37.5.72.24l6,.09c.15.34.36.51.72.24h9.8c.35.27.57.11.72-.24,4.87.16,9.67-.6,14.49-1.13.35.28.56.11.71-.23l1.65-.09c.36.27.57.1.72-.24l2-.12c.35.28.56.12.72-.22l1.65-.11c.35.29.56.12.72-.22l.63-.1c.36.27.57.1.72-.24l1-.11c.36.28.56.1.71-.24l.64-.09c.36.29.57.11.71-.24l.64-.11c.36.29.56.11.71-.23l1-.09c.35.27.57.11.72-.23l.63-.1a6.94,6.94,0,0,0,3.75-.93l.64-.1c.36.28.57.11.71-.24l.64-.1c.36.29.56.11.71-.23l.64-.11c.57.29,1.11,0,1.61-.18,6.14-2,12.28-4,18.38-6.16,1.49-.52,3.15-.83,4.35-2l.85-.33a3.39,3.39,0,0,0,2.53-1l1.53-.69a7.77,7.77,0,0,0,4.22-2l.85-.34a8.06,8.06,0,0,0,4.23-2l7.61-3.94a3,3,0,0,0,2.19-1.12l.5-.25a.61.61,0,0,0,.79-.5l1.57-.85a.62.62,0,0,0,.79-.5q12.09-7,23.54-15a.61.61,0,0,0,.77-.55l5.65-4.19a.62.62,0,0,0,.78-.53.65.65,0,0,1,.23-.16.6.6,0,0,0,.78-.53l.58-.48a.59.59,0,0,0,.77-.54l1.26-1.16a.58.58,0,0,0,.77-.54l1.27-1.14A.6.6,0,0,0,498,350l.93-.8a.61.61,0,0,0,.76-.55l1.26-1.16a.58.58,0,0,0,.77-.53l1.26-1.16a1,1,0,0,0,1.12-.86l.92-.81a.6.6,0,0,0,.76-.55l1.27-1.13a.59.59,0,0,0,.75-.56l.93-.81a.59.59,0,0,0,.77-.53,14.53,14.53,0,0,1,2.36-2,1.46,1.46,0,0,0,1.07-.95l.55-.48a2.07,2.07,0,0,0,1.45-1.25l.67-.67a1.28,1.28,0,0,0,1-1l.33-.34a1.57,1.57,0,0,0,1.21-1.48l.49-.54a4,4,0,0,0,1.56-2.15l.47-.55a2.11,2.11,0,0,0,1.23-1.78l0,0c.41,0,.64-.26.6-.69a.64.64,0,0,1,.13-.23c.51-.2.9-.51.88-1.13a.66.66,0,0,1,.13-.23.69.69,0,0,0,.55-.79.66.66,0,0,1,.13-.23.69.69,0,0,0,.56-.78A.57.57,0,0,1,525,323a2.14,2.14,0,0,0,1.25-1.79.7.7,0,0,1,.13-.22.7.7,0,0,0,.55-.79.67.67,0,0,1,.12-.23,1.06,1.06,0,0,0,.82-1.16l.54-.86a4.75,4.75,0,0,0,2.16-3.2.86.86,0,0,1,.16-.22,8.74,8.74,0,0,0,2.3-3.78.66.66,0,0,1,.12-.23,9.52,9.52,0,0,0,2.48-4.22.82.82,0,0,1,.16-.23c1.38-1.06,1.93-2.71,2.7-4.15,1.42-2.64,3.07-5.19,3.86-8.14l.6-.84a3.86,3.86,0,0,0,1.38-2.88l.64-1.18c1.11-1.05,1.4-2.49,1.81-3.87l.26-.5a3,3,0,0,0,.82-2.18l.48-.89c.39-.1.47-.44.59-.75a186.68,186.68,0,0,0,6-17.71c.53-1.9.54-4,1.6-5.73.6.24.46.68.5,1,.27,2.65.38,5.31.72,8,.66,5.22,1.11,10.46,1.6,15.69.24,2.57.24,5.16.6,7.71.59,4.17,1,8.36,1.41,12.54.27,2.66.45,5.34.72,8,.38,3.84.75,7.69,1.18,11.52s.75,7.47,1.08,11.2c.47,5.28,1.25,10.53,1.65,15.83.11,1.45,0,3,.88,4.37l.07.63c-.75,1.13-.1,2.3,0,3.42.18,2.36.11,4.77.92,7.05l0,1.19a20.93,20.93,0,0,0,.59,5.91l.11.51c.09,1.66-.91,2.12-2.33,2.13a11.38,11.38,0,0,0-1.85,0c-8.92,1.54-17.72,3.4-26,7.36a54.58,54.58,0,0,0-17.41,13c-6.16,6.91-9.89,15.09-12.06,24a54.25,54.25,0,0,0-1.54,9.63c-.24,4.14-.35,8.28-.18,12.45a19.31,19.31,0,0,0,3.27,10.28c8.49,12.59,17.08,25.1,25.62,37.66a5.57,5.57,0,0,0,2.36,2.08A69.64,69.64,0,0,0,554,495c8.55,1.64,17,3.61,25.65,4.87,9.32,1.36,18.63,2.78,28,4,2.82.36,4.41,1.93,5.8,4a160.33,160.33,0,0,1,8.11,14.78c2.66,5.14,5,10.44,7.56,15.65.34.69.38,1.72,1.48,1.83l4.57,0c.45,0,.9,0,1.34,0,1.3.13,1.22-.42.82-1.37-4-9.57-8-19.15-11.8-28.8A83.63,83.63,0,0,0,621,499.7V499c.36-.14.53-.34.22-.69l.09-1c1.48-1.56,2.49-3.54,4.65-4.49a28.34,28.34,0,0,1,9-2.1,81.62,81.62,0,0,1,11.1,0,58.27,58.27,0,0,1,8.87.63,1.25,1.25,0,0,0,1.67-.93c1.2-3.45,2.74-6.82,3.59-10.35a9.22,9.22,0,0,1,5.73-6.84,33.29,33.29,0,0,0,11.63-9c.55-.62,1.44-1.14,1.27-2.22l.52-.61c.47,0,.65-.27.51-.73a.78.78,0,0,1,.18-.27c.74-.2.9-.74.82-1.42l.26-.52a.58.58,0,0,0,.41-.84l.64-1.17c.42-.11.54-.32.22-.67l.17-.64a.56.56,0,0,0,.25-.87l.74-2.18c.4-.14.52-.36.18-.69l.5-8.24a1.39,1.39,0,0,0,.28-1.11c-.29-2.69-.55-5.38-.9-8.06-.81-6.07-3-11.75-5.46-17.27a59.44,59.44,0,0,0-14.73-20.47,76,76,0,0,0-19.87-12.86c-10.24-4.59-21.08-7.25-32.15-9.13a196.13,196.13,0,0,0-28-2.26,2.45,2.45,0,0,1-2.75-2.23q-2.31-10-4.22-20.12c-.11-.59-.09-1.25-.68-1.65l-.13-1.24a2.75,2.75,0,0,0,0-1.66c-1.52-7.2-2.46-14.5-3.59-21.76s-2-14.78-3.07-22.16c-1.09-7.59-2-15.21-3-22.8-.29-2-.18-4.12-1-6l-.11-.92a3.9,3.9,0,0,0,.14-1c-.43-3.78-.8-7.57-1.37-11.33a42.19,42.19,0,0,0-1-6.37l-.78-7c.24-.63.37-1.25-.23-1.77l-.12-.92a2.82,2.82,0,0,0,.06-1.65c-.53-4.5-1.07-9-1.55-13.5-.5-4.67-.93-9.35-1.43-14-.74-6.9-1.48-13.79-2.32-20.68-.37-3-.3-6.16-1.19-9.14a22.27,22.27,0,0,1-.56-5.21c-.39-4.52-1.09-9-1.54-13.54-.66-6.59-1.13-13.2-1.83-19.79-1.18-11.06-2.5-22.11-3.71-33.16-1.33-12.07-2.73-24.12-3.85-36.21-.79-8.56-1.8-17.1-2.27-25.7q-.84-15.49-1.78-31c-.24-4-.52-7.93-1.05-11.86a16.34,16.34,0,0,0-.59-4.22,1.77,1.77,0,0,0-.52,1.54c0,4.76-.4,9.51,0,14.28.19,2.12.05,4.27.14,6.4.16,3.81.39,7.62.58,11.44.3,5.89.53,11.79.92,17.68.55,8.41,1.2,16.8,1.83,25.2.42,5.66.88,11.32,1.33,17a4.67,4.67,0,0,0,.16,2.81l.25,1.89a2.48,2.48,0,0,0,.09,2.17l.17.91a1,1,0,0,0,.18,1.12l.14,2.27a2.07,2.07,0,0,0,.18,1.78l0,.69v.33l.09.93a6.41,6.41,0,0,0,.24,3.12l.25,1.49,0,.08.07.06.09,2.07a1.46,1.46,0,0,0,.29,1.71l.08,1.63a2.07,2.07,0,0,0,.24,2.08l.09,2a2.08,2.08,0,0,0,.25,2.07l.07,1a5.84,5.84,0,0,0,.35,3.78l0,.91a1.52,1.52,0,0,0,.21,1.75l.15,2.63a.78.78,0,0,0,.18,1.09,12,12,0,0,1,.25,3.25.54.54,0,0,0,.15.8l.17,1.56a1.22,1.22,0,0,0,.16,1.48l.15,1.24a21.58,21.58,0,0,0,.51,7.21l.09,1a78,78,0,0,0,.76,9.66c.17,1.19-.3,2.48.51,3.57l.14.92a2.51,2.51,0,0,0,.17,2.46l.17.91a80.08,80.08,0,0,0,.66,10.47,15.26,15.26,0,0,0,.91,5.17l.09.59a2.51,2.51,0,0,0-.2.79c.38,4.28.63,8.58,1.23,12.83s.54,8.37,1.13,12.52c.19,1.3-.56-.21-.7.2A138.77,138.77,0,0,0,541,195.52a.56.56,0,0,0-.48-.67l-4.25-5.6,0-.08-.08,0c-3-3.33-5.82-6.74-9-9.82a1.39,1.39,0,0,0-1.06-.93l-2-1.69a6.75,6.75,0,0,0-3-2.74l-1-.77A.27.27,0,0,0,519.68,173ZM333.13,208.48a1.06,1.06,0,0,0,1.12-.82,3.14,3.14,0,0,1,1.52-1.75c2.22-1.3,3.36-3.65,5.25-5.32,1.68-1.48,3.37-3.06,5.15-4.38,1.1-.82,1.57-2.38,3.13-2.61a4.25,4.25,0,0,0,2.37-1.52,1.8,1.8,0,0,1,1.43-.73,1.52,1.52,0,0,0,1.57-1.05c.12-.29.09-.59-.21-.73a2.35,2.35,0,0,0-2,0,3.78,3.78,0,0,0-.67.51c-1.6,1.19-3.75,1.46-5,3.19a1,1,0,0,1-1.6-.23c-.34-.58.19-.86.6-1.19,1.26-1,2.85-1.51,4-2.79a3.16,3.16,0,0,1,2.17-1.1c.78,0,1.38-.08,1.34-.73-.06-.87-1-.49-1.51-.51a1.83,1.83,0,0,0-1.08.42c-1.46,1.13-3.31,1.53-4.78,2.73-1,.82-2.5,1.08-3.52,2.11-.33.33-1.17.57-1.53.12s.2-1,.56-1.4c1.31-1.58,3.1-2.54,4.7-3.74.65-.49,1.13-1.26,2.14-1.15.58.07,1.2-.13,1.12-.91s-.77-1-1.4-.82a7.73,7.73,0,0,0-2.54.86,4.35,4.35,0,0,1-6-.54c-.57-.53-1-.88-.4-1.65.33-.46.51-1.27-.08-1.46s-1.65-.27-2,.49c-.67,1.67-2.11,2.73-3,4.23a3.14,3.14,0,0,1-4,1.41c-1-.33-1.89-.34-2.44.47a5.11,5.11,0,0,1-2.27,1.83c-.29.13-.31.87-.85.46s-.1-.71.07-1.05.62-.42.2-.87l-.61.21c-1.17.38-.85,1.78-1.65,2.42-2.2,1.78-2.46,4.16-1.92,6.7.42,1.93-.58,3.92.33,5.81.08.17-.15.53-.29.76a52.31,52.31,0,0,1-4.1,6.27c-.52.63-.83,1.58-1.92,1.34s-2.45-.72-2.79-1.92-1.18-2-1.53-3.14-1.5-2.61.41-3.62c.08,0,.08-.31,0-.46a5.3,5.3,0,0,1,.48-2.44c.18-.66-.94-3.21-1.57-3.43-.46-.16-1,.1-.84.49.43,1.34-.92,1.8-1.22,2.78s-1.3,1-2,.84c-1-.18-.31-.89-.22-1.44.18-1-1.55-3.37-2.38-3.1-2,.65-3.31-.2-4.63-1.44a4.32,4.32,0,0,0-1.43-.88c-2.19-.81-4.39-1.51-6.16-3.17-.61-.58-1.57-.47-1.66.51-.11,1.21-.94,1.53-1.72,2.07-1.81,1.25-1.82,2.77-.15,4.21.37.32,1,.84.89,1.16-.37,2,1.27,2.91,2.2,4a39,39,0,0,0,13.75,10.37c1.09.5,2,1.69,3.27,1.47a4.13,4.13,0,0,1,2.94.88,4.54,4.54,0,0,0,3.1,1,.89.89,0,0,1,.93.56c.65,1.19,1.87,1.58,3,2.18,1.65.89,3.53,1.07,5.12,2a2.47,2.47,0,0,0,1.8.42c2-.32,4.56,1.32,5.39,3.19.64,1.45,2.39,1.44,3.47,2.35.26.22.69-.28.79-.69a11.85,11.85,0,0,1,1.29-2.73c.63-1.16,1.42-2.64.35-3.57s-2-3.43-4.46-2.18c-.59.29-1.48.05-2.25.32s-1.55-.71-1.11-1.62c.6-1.22,1.41-2.33,2-3.55a28.28,28.28,0,0,1,3.54-4.77ZM164.94,301.21a.46.46,0,0,0,.53-.36c.25-.79.5-1.59.77-2.38,1.08-3.18,1.81-6.55,3.35-9.49,1.69-3.25,3.09-6.63,4.73-9.9,2.26-4.51,5.08-8.7,7.22-13.26,1.37-2.92,3.68-5.25,5.11-8.07,1.83-3.61,4.56-6.58,6.56-10,1.87-3.26,5.11-5.56,6.36-9.25a10.81,10.81,0,0,1,1.6-2.68,32.9,32.9,0,0,0,2.43-3.38c.16-.29.45-.59.12-.9s-.77,0-1,.27c-2.4,3.33-5.41,6.16-7.74,9.55-5,7.24-8.9,15.09-13.91,22.32a121.32,121.32,0,0,0-13.73,27,60.59,60.59,0,0,0-2.63,9.42C164.65,300.47,164.41,300.93,164.94,301.21ZM338.55,177.41c3.47.17,6-2,8.8-3.47a.4.4,0,0,0,.16-.28c.12-1.78,1.23-2.2,2.79-2.09.67,0,1-.41,1-1.08s-.31-1.45-.94-1.38c-1.47.17-2.78-.44-4.08-.56-2.1-.21-2.57-.94-2.57-2.73,0-.73-.49-1.56-1.32-1.34-1.65.44-1.88,2.22-.53,3.39.92.8,1.17,2.76.28,3-2.44.78-2.92,3.27-4.52,4.76a1,1,0,0,0-.35,1.21C337.53,177.44,338.05,177.48,338.55,177.41ZM189.75,298a2.4,2.4,0,0,0,2.23-3.26c-.48-1.07-1.1-2.08-1.68-3.1-.48-.84-.38-1.87-1.31-2.62-1.47-1.18-3.32-1.27-4.93-2-.77-.36-1.51.94-2.09,1.65-.42.51,0,1,.41,1.44a10,10,0,0,1,2,3.81A6.21,6.21,0,0,0,189.75,298ZM320.11,158.94c-1.31-.58-2.48.79-3.36,1.37a11.27,11.27,0,0,0-4,4.41c-.31.65-.55,1.52.5,1.78a10.32,10.32,0,0,0,3.45.69c1.49-.13,2.81-.4,2.73-2.38,0-.49.27-1.19.78-1.18,1.4,0,2.3-1.44,3.77-1.13a.79.79,0,0,0,1-.8c0-.64.32-1.44-.48-1.81A7.84,7.84,0,0,0,320.11,158.94Zm52.49,29.87c1.48-1,4.09-.66,5.26-3.08a2.67,2.67,0,0,1,2-1.59c1.4-.23,1.07-1.23.5-1.85a4,4,0,0,0-3.32-1.36,8.45,8.45,0,0,0-6.83,4.74C369.43,187.26,370.43,188.79,372.6,188.81ZM272,182.73c1.66.12,2.07-1.2,2.64-2.14a29.16,29.16,0,0,1,6.53-7.35c.73-.6.14-1.11,0-1.61s-.59-.41-1-.14a27.86,27.86,0,0,0-3.7,2.9c-2.22,1.89-4.4,3.82-6.57,5.77-.29.26-.94.87-.54,1C270.39,181.5,270.76,183.05,272,182.73Zm41.88-29.85a16.72,16.72,0,0,0-4.54,1.21c-.52.2-.73.67-.34,1.05,1.22,1.18,3,1.06,4.44,1.81.79.41.69-.85,1.27-1,.94-.31,1.44-.9,1-1.9A2,2,0,0,0,313.9,152.88Zm25.27,12.48c-.29,0-.49.07-.51.34a1,1,0,0,0,.71,1c.29.13.62,0,.56-.37A1.32,1.32,0,0,0,339.18,165.35ZM170.86,330.26c0-.08-.08-.23-.15-.26s-.31.07-.31.25a.33.33,0,0,0,.14.26C170.74,330.59,170.83,330.45,170.86,330.26Z" transform="translate(-157.44 -0.31)"/><path class="cls-3" d="M370.3,403.39h-9.8a.54.54,0,0,0-.72-.24l-6-.09a.55.55,0,0,0-.72-.24l-2.32-.1a.55.55,0,0,0-.72-.24l-1.65-.1a.55.55,0,0,0-.72-.24l-4-.45a.55.55,0,0,0-.72-.23l-1-.1a.56.56,0,0,0-.72-.23l-.63-.11a.57.57,0,0,0-.72-.24l-4.35-1.11c-.8-.72-1.52-.33-2,.31a1.53,1.53,0,0,1-1.55.62,8.4,8.4,0,0,0-2.31.39c-2.49.55-5,1.32-7.52.34a.91.91,0,0,0-1,.37c-.58.61-1.16,1.22-1.69,1.88-.4.49-.92.86-1.45.55-1.15-.68-2.41-.27-3.58-.56-.38-.09-.89,0-1.12-.26-2-2.06-4.79-3.12-6.56-5.47-.63-.84-1-2-1.71-2.53-2.13-1.55-2.88-4-3.57-6.06-1.19-3.63-4.27-6.56-4-10.72,0-.21-.33-.43-.46-.68a18.35,18.35,0,0,1-2-6.53c-.05-.43-.12-1,.32-1.24s.76.23,1.1.49.76.69.87.65c1-1.89.14-3.52.23-5.15.35-6.56,1.19-13.07,1.85-19.6.6-6,1.53-11.89,2.4-17.81.68-4.64,1.66-9.23,2.76-13.81a134.1,134.1,0,0,1,5-15.32A176,176,0,0,1,317,283.22c2.93-5.92,6-11.76,9.3-17.48,3.46-6,6.83-12.11,10.73-17.87,4.05-6,7.68-12.24,11.92-18.1a2.11,2.11,0,0,0,.57-1.54l0,0c1-.47,1.49-1.48,2.1-2.32,4.09-5.62,7.94-11.41,12-17.06a138.72,138.72,0,0,1,26.19-27c.43-.35,1.21-.57,1.07-1.15a1.56,1.56,0,0,0-1.67-1.14l-.55-.15c-.82-.87-1.85-.57-2.84-.49l-.83-.33a.27.27,0,0,0-.39-.2l-.67-.35c-.64-.9-1.63-.67-2.52-.79a55.74,55.74,0,0,0-9-4.82c-2.07-1-4.07-2.09-6.24-2.89-4-1.48-8.09-2.61-12.17-3.8-3-.88-5.54-2.7-8.34-4-5.17-2.37-10.68-3.64-16.18-4.9a27,27,0,0,1-10-4.65l-.05-.12-.11.07-.82-.29.24-1.32a.59.59,0,0,0,.22-.13.68.68,0,0,0,.75-.6,1.11,1.11,0,0,0,.22-.16.66.66,0,0,0,.79-.51l2-1.42a.75.75,0,0,0,.79-.55L325,146a4.54,4.54,0,0,0,2.15-1.53.67.67,0,0,0,.23-.13A2.47,2.47,0,0,0,329.2,143a.58.58,0,0,0,.2-.15c5.93-3.51,11.79-7.13,17.91-10.33,5-2.62,9.9-5.48,15.15-7.65a109.94,109.94,0,0,1,12.91-4.33l.62-.11,10,.53c-1,1-2.29.54-3.29,1.35,2.27.84,4.32,0,6.41-.25,4.94-.49,9.7.53,14.43,1.79,2.42.64,4.76,1.62,7.28,1.87l1.23.4a3.78,3.78,0,0,0,2.2.77l.82.28c5.07,2.84,10.76,4.06,16.14,6.08,3.29,1.24,6.7,2.15,10,3.28,3.81,1.29,7.56,2.8,11.42,3.94,2,.6,4,1.66,6.13,1.72l.84.25c.57.81,1.41.74,2.24.7l2.31.77c.21.77.77.72,1.37.61a.62.62,0,0,0,.26.14c.58,1,1.6.83,2.51.81a89.31,89.31,0,0,1,10.67.25c.91.09,1.81.7,2.76.16l.49.06c.24.8.94.62,1.52.75,2.46.55,5.23.5,6.48,3.38.17.39.57.67.81,1s.77.44,1.2.38c.67-.09.3-.58.29-.92,0-1,.06-1.31,1.17-.61s2.14,1.91,3.8,1.85c.67,0,1.8.61,1.68,1.36-.18,1.15.57,1.49,1.14,2,.86.79,1.91,1.4,2.68,2.26,1.52,1.68,3.4,2.94,5,4.49a45.93,45.93,0,0,1,4.35,4.48,21.73,21.73,0,0,0,6.58,5.82l0,0c0,.4.19.68.64.67h0a.27.27,0,0,0,.35.24l1,.77a7.4,7.4,0,0,0,3,2.74l2,1.69c0,.66.48.88,1.06.93,3.23,3.08,6.09,6.48,9,9.82-.11.17-.08.21.1.1l4.25,5.6c-.18.47,0,.65.48.67a138.76,138.76,0,0,1,11.28,20.28c-.25,1.86,1.05,2.8,2.23,3.82.78-.92-.35-1.33-.53-2-.72-2.65,1-5.36-.28-8,0-.08,0-.22.07-.32a3.66,3.66,0,0,0-.06-2.79,2.93,2.93,0,0,1,.31-2.69c.57-1,.88-2.61-.14-3.19-1.58-.9-1.77-2.19-1.81-3.59a31.55,31.55,0,0,1-.05-5.84c.13-.81.06-1.77-1.19-1.79l-.09-.59a2.69,2.69,0,0,0,.27-.75,11.38,11.38,0,0,0-.47-5c-.75-1.93-.45-4.28-.57-6.45a6.35,6.35,0,0,0-.79-3.49l-.17-.91a2,2,0,0,0-.17-2.46l-.14-.92c.42-.34.31-.79.27-1.23-.21-2.65-.4-5.29-.63-7.94-.12-1.39.23-2.9-.91-4.06l-.09-1a13.6,13.6,0,0,0-.51-7.21l-.15-1.24a.91.91,0,0,0-.16-1.48l-.17-1.56c.38-.35.22-.59-.15-.8a12,12,0,0,0-.25-3.25c.39-.44.39-.81-.18-1.09l-.15-2.63c.46-.65.51-1.24-.21-1.75l0-.91c1.11-1.38.43-2.58-.35-3.78l-.07-1a1.45,1.45,0,0,0-.25-2.07l-.09-2c.36-.74.51-1.46-.24-2.08l-.08-1.63c.42-.66.45-1.25-.29-1.71l-.09-2.07.12,0-.15-.12-.25-1.49c.26-1.07.59-2.14-.24-3.12l-.09-.93.36-.17-.36-.16,0-.69c.38-.64.48-1.25-.18-1.78l-.14-2.27c.3-.43.32-.81-.18-1.12l-.17-.91a1.82,1.82,0,0,0-.09-2.17l-.25-1.89a2.48,2.48,0,0,0-.16-2.81c-.44-5.66-.91-11.31-1.33-17-.63-8.4-1.28-16.8-1.83-25.2-.38-5.89-.62-11.78-.92-17.68-.2-3.81-.42-7.62-.58-11.44-.09-2.13,0-4.28-.14-6.4-.43-4.76,0-9.52,0-14.28a1.77,1.77,0,0,1,.52-1.54,16.34,16.34,0,0,1,.59,4.22c.53,3.93.81,7.9,1.05,11.86q1,15.48,1.78,31c.47,8.59,1.47,17.13,2.27,25.7,1.12,12.09,2.53,24.14,3.85,36.21,1.21,11.06,2.53,22.1,3.71,33.16.7,6.59,1.17,13.2,1.83,19.79.45,4.52,1.15,9,1.54,13.54A22.27,22.27,0,0,0,555,184c-.11.18-.35.38-.32.54.59,3.22,0,6.55.92,9.74a5.08,5.08,0,0,1-.19,4.08,2.14,2.14,0,0,0-.23,1.63,3.92,3.92,0,0,1-.21,3.35c1.51-.28,1.81-.08,1.89,1.73a35.32,35.32,0,0,0,.74,7.47c.43,1.62,0,3.34.23,5,.84,5.12,2.13,10.19,1.18,15.45,0,.2.08.25.2.37,1.27,1.19,1.08,2.78,1.1,4.28a12.22,12.22,0,0,0,1.12,5.41l.12.92c-.4.65-.49,1.27.23,1.77l.78,7a2.77,2.77,0,0,0-.23,2.11c.47,4,1,8.08,1.56,12.11.22,1.5-.33,3.16.9,4.46l.11.92a2.5,2.5,0,0,0-.19,2c.4,3.39.86,6.78,1.31,10.17.68,5.16,1.44,10.3,2,15.47.48,4.06,1.37,8.08,1.33,12.19,0,.77.16,1.58-.6,2.17-.41.33-.37.76.2.82,1.18.13,1.12,1,1.06,1.75-.18,2.3,1.1,4.5.36,6.83-.29.9,1.09,1.18,1,2.19-.52,3.93.76,7.76.69,11.67a1.77,1.77,0,0,0,.34,1.44c1.25,1.15,1.24,2.64,1.38,4.17.13,1.36.14,3,1.85,3.59l.13,1.24a.77.77,0,0,0-.36.71c-.08,1.59.5,3.1.63,4.66.11,1.28-.15,2.69-1.35,3.21s-1.8-.78-2.41-1.6a15.87,15.87,0,0,1-2.84-8c-.55-5.41-1.27-10.79-1.78-16.2-.13-1.34-.25-2.78.66-3.89.62-.76.55-1.22-.07-1.83a6.21,6.21,0,0,1-1.69-4.26,21.93,21.93,0,0,0-.94-6c-.24.52-.46.77-.44,1q.45,5.6,1,11.2c.4,4.4,1,8.79,1.18,13.21s.41,9.06.52,13.59c.09,3.77.55,7.58,1,11.37.24,2.11.34,4.24.51,6.36.08,1-.35.47-.69.24l-.11-.51a12.13,12.13,0,0,0-.59-5.91l0-1.19c-.1-2.25-.07-4.52-.36-6.75-.16-1.23.18-2.57-.56-3.72l-.07-.63c.3-.91-.15-1.77-.17-2.65-.11-6.39-1.23-12.7-1.47-19.09-.14-3.75-.75-7.5-1.15-11.25-.49-4.67-1-9.36-1.49-14q-.85-8.4-1.63-16.83c-.63-6.86-1.39-13.71-1.89-20.58-.17-2.39-.49-4.75-.43-7.18,0-1.87-.65-3.82-.82-5.76-.07-.81-.15-1.85-1.08-1.8s-1,1.11-.94,1.88a3.53,3.53,0,0,1-1,3c-.16.14-.4.48-.36.53,1.28,1.59,0,3-.38,4.39A92.4,92.4,0,0,1,550.6,275c-.81,2.12-2,4.15-2.25,6.48l-.48.89c-.82.52-.77,1.37-.82,2.18l-.26.5c-1.12,1-1.31,2.53-1.81,3.87l-.64,1.18a5.79,5.79,0,0,0-1.38,2.88l-.6.84-6.55,12.29a.82.82,0,0,0-.16.23,12.15,12.15,0,0,0-2.48,4.22.66.66,0,0,0-.12.23,9.82,9.82,0,0,0-2.3,3.78.86.86,0,0,0-.16.22,15.72,15.72,0,0,0-2.16,3.2l-.54.86a1.36,1.36,0,0,0-.82,1.16.67.67,0,0,0-.12.23.74.74,0,0,0-.55.79.7.7,0,0,0-.13.22A3.5,3.5,0,0,0,525,323a.57.57,0,0,0-.13.22.72.72,0,0,0-.56.78.66.66,0,0,0-.13.23.74.74,0,0,0-.55.79.66.66,0,0,0-.13.23,1.34,1.34,0,0,0-.88,1.13.64.64,0,0,0-.13.23.85.85,0,0,0-.6.69l0,0a2.87,2.87,0,0,0-1.23,1.78l-.47.55a3.08,3.08,0,0,0-1.56,2.15l-.49.54a2.45,2.45,0,0,0-1.21,1.48l-.33.34a1.2,1.2,0,0,0-1,1l-.67.67a2,2,0,0,0-1.45,1.25l-.55.48a1.13,1.13,0,0,0-1.07.95,14.53,14.53,0,0,0-2.36,2,.84.84,0,0,0-.77.53l-.93.81a.81.81,0,0,0-.75.56l-1.27,1.13a.81.81,0,0,0-.76.55l-.92.81a1.56,1.56,0,0,0-1.12.86l-1.26,1.16a.83.83,0,0,0-.77.53l-1.26,1.16a.81.81,0,0,0-.76.55l-.93.8a.83.83,0,0,0-.76.55l-1.27,1.14a.82.82,0,0,0-.77.54l-1.26,1.16a.85.85,0,0,0-.77.54l-.58.48a.88.88,0,0,0-.78.53.65.65,0,0,0-.23.16.78.78,0,0,0-.78.53l-5.65,4.19a.78.78,0,0,0-.77.55q-11.45,8-23.54,15a.84.84,0,0,0-.79.5l-1.57.85a.86.86,0,0,0-.79.5l-.5.25a3.57,3.57,0,0,0-2.19,1.12l-7.61,3.94a16.12,16.12,0,0,0-4.23,2l-.85.34a17.22,17.22,0,0,0-4.22,2l-1.53.69a4.29,4.29,0,0,0-2.53,1l-.85.33a6,6,0,0,0-1,.23c-5.08,2.15-10.38,3.69-15.6,5.45-2.6.88-5.18,1.79-7.77,2.69l-.64.11a.53.53,0,0,0-.71.23l-.64.1a.51.51,0,0,0-.71.24l-.64.1a6,6,0,0,0-3.75.93l-.63.1a.55.55,0,0,0-.72.23l-1,.09a.53.53,0,0,0-.71.23l-.64.11a.54.54,0,0,0-.71.24l-.64.09a.53.53,0,0,0-.71.24l-1,.11a.53.53,0,0,0-.72.24l-.63.1a.54.54,0,0,0-.72.22l-1.65.11a.55.55,0,0,0-.72.22l-2,.12a.55.55,0,0,0-.72.24l-1.65.09a.54.54,0,0,0-.71.23c-4.82.53-9.61,1.29-14.48,1.13A.55.55,0,0,0,370.3,403.39Zm41.56-240.9c.53,0,1.24,0,1.32-.61a1.14,1.14,0,0,0-.9-1.17,7.81,7.81,0,0,0-.58-1.36c-.43-.64-2.57-.54-2.7.17-.35,1.91-1.64,2-3.14,1.9-.47,0-1.17-.25-1.23.44,0,.53.57.82,1.09.86A15.83,15.83,0,0,0,411.86,162.49Zm24,24c-.09,1.32.46,1.34,1.29.81.14-.09.24-.24.38-.33,2.71-1.6,4.48-4.29,7.21-6a46.63,46.63,0,0,0,6.56-5.36c1.85-1.71,4.33-2.55,6.16-4.32a1.57,1.57,0,0,0,.66-1.57c-.06-.29-.22-.58-.52-.59a1.43,1.43,0,0,0-1.39,1c-.28.71-.76.91-1.39,1.24-1.9,1-4.2,1.06-5.84,2.74-1.87,1.91-4.86,2.24-6.58,4.43a.6.6,0,0,1-.48.11c-1.53-.24-1.94.7-2.4,1.94-.66,1.79-.92,4-3.26,4.64C435.66,185.43,435.9,186.11,435.85,186.47ZM337.54,154c.51,0,1,0,1.52,0a6.84,6.84,0,0,0,2-.29c.78-.32,1.85-.4,2.07-1.45a2.08,2.08,0,0,0-.37-2.06c-.82-.81-3.8-1-4.55-.14a5.06,5.06,0,0,1-3.35,1.72c-1.4.18-.87.89-.43,1.47C335.22,154.28,336.43,154,337.54,154ZM320.14,385.7c-.08-.42-.13-.62-.16-.83-.06-.38-.2-.85.14-1.1s.58.36.91.46l1.28.36c.93.26,1.11-.29,1-1a2.71,2.71,0,0,0-2.89-1.77c-1.47.22-1,1.36-1,2.23A2,2,0,0,0,320.14,385.7ZM499.69,278.76c.46,1.33.74,2.21,1.08,3.07a.57.57,0,0,0,.83.29.6.6,0,0,0,.15-.56C501.11,280.79,501.06,279.61,499.69,278.76Zm18.23-17a12.41,12.41,0,0,0,.34,1.57,1,1,0,0,0,.89.66.45.45,0,0,0,.34-.27c.08-.39-.27-.57-.49-.81Zm-3-1-.15.19a5.67,5.67,0,0,0,.32.58c.34.48.43,1.22,1.23,1.23.1,0,.29-.22.29-.33,0-.72-.73-.76-1.14-1.1A6.38,6.38,0,0,1,514.91,260.84Zm-12.76,24.72c.95.34,1.41.94,2.14.66a.34.34,0,0,0,.1-.55C503.86,285,503.2,285.38,502.15,285.56Zm3.2-8.66c-.24.87,0,1.35.68,1.61a.45.45,0,0,0,.39-.21C506.6,277.52,506,277.26,505.35,276.9Zm4.74-10.08c-.27-.06-.47,0-.47.3,0,.51.34.77.78.9a.34.34,0,0,0,.47-.31C510.9,267.17,510.45,267,510.09,266.81Zm-37.21-55.29c-.21.35,0,.56.19.75s.49.51.82.06C473.74,211.82,473.45,211.49,472.88,211.53Z" transform="translate(-157.44 -0.31)"/><path class="cls-3" d="M681.11,458.46l-.26.52a1.64,1.64,0,0,0-.82,1.42.77.77,0,0,0-.18.27.66.66,0,0,0-.51.73l-.52.61c-1.18.52-1.76,1.7-2.68,2.49a62.68,62.68,0,0,1-12.79,8.91c-2.09,1-2.72.79-2.56-1.5.19-2.7-.8-5.19-1-7.8a2.21,2.21,0,0,0-.62-1.35c-1.57-1.72-4.21-1-5.38,1.49a21.24,21.24,0,0,0-1.92,5c-.39,2.22-1.94,4.29-.93,6.76.21.51-.67,1.17.65,1.63,1.1.38-.94,1-.44,1.82.15.24.28.48.45.71a5.88,5.88,0,0,1,1.19,3.57,5.89,5.89,0,0,0,.59,3.39c1.35,2.22.86,2.95-1.79,3.09a85.7,85.7,0,0,1-9.42-.18,46.77,46.77,0,0,0-15,1.5,7.82,7.82,0,0,0-5.78,5.78l-.09,1a.48.48,0,0,0-.22.69v.65a4.58,4.58,0,0,0,.61,2.89c2,4.37,4.08,8.71,5,13.49.42,2.18,1.67,4.14,2.15,6.25a76.91,76.91,0,0,0,3.06,8.85c1.07,3,2.16,6,3.25,9l-4.57,0c-3.77-7.67-7.28-15.47-11.38-23-3.17-5.82-5.81-12-11.35-16.14-.1.68,1.11,1,.54,1.77s-1.26.18-1.88.12c-2-.21-3.9-.47-5.84-.74-7.11-1-14.22-2-21.33-2.89-5.36-.69-10.62-1.9-15.91-2.93-7.61-1.48-15.27-2.76-22.61-5.41a8.08,8.08,0,0,1-4.26-2.87c-5.56-8.18-11.18-16.32-16.68-24.55-3.64-5.46-7.89-10.53-10.72-16.51-2-4.15-1.78-8.48-.63-12.82.37-1.38,1.15-2.94.82-4.16-.6-2.2-.33-4.23-.25-6.41.29-8.08,3.26-15.25,7.35-21.93a38.11,38.11,0,0,1,10.93-12,72.11,72.11,0,0,1,10.5-6.4c3.44-1.57,7.21-1.94,10.52-3.75,2.31-1.27,5.09-1.21,7.51-2.15,2.91-1.14,6.06-.51,9-1.55,2.3-.8,5-.39,7.43-.66a7.47,7.47,0,0,1,3.9.62c.3.13.72.27.65.67s-.51.46-.93.48a3.74,3.74,0,0,0-3.22,2.13,4,4,0,0,1-3.59,2c-.83-.15-1.49-.48-.57-1.37.38-.37.46-.68-.08-.87s-.94-.2-1.11.38a7.23,7.23,0,0,0-.1,1.17c-.09.78-.73,1.29-1.26.88-1.09-.85-2.18-.15-3.25-.28-1.25-.15-2.66,1.39-2.22,2.24.56,1.11-.14,1.42-.84,1.78a29.69,29.69,0,0,1-6,2.49,2.68,2.68,0,0,0-2.12,2.6c0,1,.08,1.47-1,1.55a.69.69,0,0,0-.59.87c.19.58.62.28.95.07,1.12-.71,1.2,0,1.26.87.2,2.64-1,5.24-.18,7.9a.41.41,0,0,1-.44.56c-.61-.08-1.13-.16-1.13.73a1.72,1.72,0,0,0,1,1.6c1.66,1,1.6,2.38-.11,3.23-.5.25-1,.46-.75,1.09a1,1,0,0,0,1.29.5c2.09-.76,4.39-.69,6.41-1.31,4-1.21,8-1.52,12-2.16a111.9,111.9,0,0,1,13.08-.84c4.55-.18,9.12,0,13.68,0,.69,0,1.44.51,2.08-.16l.52,0c.34.49.88.39,1.37.47,4.59.78,9.25.88,13.85,1.62a49.06,49.06,0,0,0,8.89,1l.53,0c.47.37.88,1,1.58.34l.46.06c.65.54,1.32,1,2.18.43l1.84.22c.23.76.64.8,1.18.3l.53.07a2.07,2.07,0,0,0,2.15.59l1.56.35c.23.38.49.53.84.13l8.92,2.61a.74.74,0,0,0,1.11.41l3.25,1.29c.14.47.41.62.85.36,1.5.47,2.72,1.59,4.32,1.84,0,.73.68.78,1.16,1a56.84,56.84,0,0,1,8.15,4.31c1.22.87,2.56,1.63,3.87,2.41a26.21,26.21,0,0,1,5.79,4.31C675,430,676.17,431,677.3,432a7,7,0,0,1,1.93,2.23c1.35,2.9,4,5.13,4.5,8.47,0,.16.3.29.46.43l-.5,8.24a.48.48,0,0,0-.18.69l-.74,2.18a.66.66,0,0,0-.25.87l-.17.64a.51.51,0,0,0-.22.67l-.64,1.17A.66.66,0,0,0,681.11,458.46Z" transform="translate(-157.44 -0.31)"/><path class="cls-4" d="M349.48,228.22a2.11,2.11,0,0,1-.57,1.54c-4.24,5.86-7.86,12.12-11.92,18.1-3.91,5.76-7.27,11.85-10.73,17.87-3.29,5.72-6.37,11.56-9.3,17.48a176,176,0,0,0-7.55,16.31,134.1,134.1,0,0,0-5,15.32c-1.11,4.58-2.09,9.17-2.76,13.81-.87,5.92-1.81,11.84-2.4,17.81-.65,6.53-1.5,13-1.85,19.6-.09,1.64.78,3.27-.23,5.15-.11,0-.49-.35-.87-.65s-.55-.83-1.1-.49-.37.8-.32,1.24a18.35,18.35,0,0,0,2,6.53c.13.24.48.46.46.68-.28,4.15,2.79,7.09,4,10.72.69,2.09,1.43,4.51,3.57,6.06.67.49,1.08,1.69,1.71,2.53,1.77,2.35,4.57,3.41,6.56,5.47.22.23.74.17,1.12.26,1.17.29,2.43-.12,3.58.56.52.31,1-.06,1.45-.55.53-.65,1.12-1.26,1.69-1.88a.91.91,0,0,1,1-.37c2.56,1,5,.21,7.52-.34a8.4,8.4,0,0,1,2.31-.39,1.53,1.53,0,0,0,1.55-.62c.51-.64,1.23-1,2-.31-1.26.09-1.82,1.12-2.31,2-2.45,4.35-6.5,6.94-10.48,9.57a100.66,100.66,0,0,1-13.05,7.4c-5.81,2.7-11.58,5.52-17.58,7.79a7,7,0,0,0-2.44,1.47c-3,2.84-5.93,5.68-8.88,8.53-4.11,4-8.6,7.55-13,11.27a229,229,0,0,1-20.59,15.77c-5.87,4-11.77,7.89-18,11.27-4.44,2.41-8.75,5.07-13.61,6.65a44.91,44.91,0,0,1-11.69,2.32,71.75,71.75,0,0,1-8.22-.38,3.39,3.39,0,0,1-3.3-2.59c-4.71-14-9.08-28.05-12.88-42.31-4.59-17.17-8.67-34.45-12.47-51.81-2.09-9.55-4.38-19-6.12-28.67a130.24,130.24,0,0,1-2-18.22c-.14-3.6.11-7.17.13-10.75,0-4.49,1.16-8.84,1.73-13.26.49-3.81,1.68-7.45,2.41-11.2.07-.37.16-.78.61-.88a.4.4,0,0,1,.34.51c-.64,2.44-.44,5-1,7.44a7.68,7.68,0,0,0-.26,1.48c-.14,5-.35,10.07-.36,15.11,0,2.57.37,5.14.56,7.71a11.53,11.53,0,0,1,0,2.19,7.15,7.15,0,0,0,.54,4.23c.7,1.41.05,3,.11,4.47.06,1.68.34,3.33.44,5q.37,6,.7,12a4.8,4.8,0,0,0,.47,1.78c.48,1.05,1,2,.44,3.31-.37.85.47,1.78.73,2.69.41,1.42.33,2.93,1.39,4.24.5.62.17,1.91.2,2.9a8.23,8.23,0,0,0,.71,3.06,18.53,18.53,0,0,1,1.24,6.83,2.25,2.25,0,0,0,.31,1.42,6.06,6.06,0,0,1,1.27,4.07,3.05,3.05,0,0,0,.79,2.3,5.5,5.5,0,0,1,1,4.12c0,.4-.23.9.07,1.13,1,.79,1.21,1.73,1.5,3a37,37,0,0,1,1,5.32c0,.22.07.54.22.62,2.25,1.28,1.74,3.86,2.56,5.77.59,1.39.74,3.09,1.83,4.17a4.44,4.44,0,0,1,1.57,2.85,8.27,8.27,0,0,0,2,4.71,4,4,0,0,1,.94,2.46,3.13,3.13,0,0,0,1.2,2.62c2.06,1.61,1.81,4.2,2.35,6.44a20.8,20.8,0,0,0,1.9,4.25,21.66,21.66,0,0,1,1.56,5.09,25.67,25.67,0,0,0,2.61,8c.76,1.28.27,2.88,1.37,4a2,2,0,0,0,1.38.83c.64,0,1.12-.15.82-1-1-3-2.24-6-3-9-.85-3.51-1.49-7.09-2.3-10.6a35.41,35.41,0,0,0-1.87-7c-.65-1.44-.58-3.23-.67-4.88a3.94,3.94,0,0,0-.81-2.48A5.59,5.59,0,0,1,188.4,424c-.21-1.48-1.39-2.36-2.48-3.24-.53-.43-1-.76-.42-1.49.11-.14.14-.55.07-.59-1.41-.76-.82-2.63-2-3.53-.78-.59-.31-1.6-.55-2.39-.63-2.06-1.66-4.07-1.95-6.12a11.8,11.8,0,0,0-1-3.78c-1.18-1.9-.87-4.16-2.11-6-.75-1.12-.68-2.78-1.75-3.88-.2-.21,0-.53.25-.68.67-.34.47-.8.14-1.25-.85-1.15-.78-2.71-1.27-3.78-.9-2,.42-4.53-1.83-6-.46-.3,0-.94,0-1.43.18-1.3.32-2.61-1-3.49-.68-.45-.42-.91,0-1.4a1.64,1.64,0,0,0,.21-2.17,4.12,4.12,0,0,1-.78-3.33,20,20,0,0,0-1.06-6.53,19.66,19.66,0,0,1-.67-6.59c.16-2.2-.53-4.35-.65-6.49s-.85-4.32-.42-6.58a16.48,16.48,0,0,0,0-5.18,43.39,43.39,0,0,1,.13-4.51c0-.79.29-1.62,1.3-1.68s1.08.81,1.33,1.58c.6,1.91.19,4.26,2.28,5.56a.5.5,0,0,1,.21.41,5.24,5.24,0,0,0,.88,4.46c1.43,2.09-.34,4.41.62,6.53a13,13,0,0,0,.63,1.43c1.61,2.7,4.75,4.81,3.56,8.66,1.11,2.44-.75,5.4,1.37,7.67.26.28.12.65,0,1a10.45,10.45,0,0,0-.09,6.24c.4,1.69.1,3.36.54,4.83s.74,2.34,0,3.54a.65.65,0,0,0,.14.62c1.55,1,1.23,3,2.18,4.27.65.9.34,1.94.36,2.92,0,1.39,1.45,2.55.64,4.09-.07.13.32.55.55.78s.8.56.65.92c-1.11,2.65,2.1,4.94.6,7.65-.3.54,2.45,4.35,3.13,4.46s1.34.26,1.19,1.35c-.11.79,1.42.88,1.11,2.06-.38,1.47,1.15,2.35,1.42,3.46a21.52,21.52,0,0,1,1,4.47,1.74,1.74,0,0,0,.32,1.09c2.61,3.51,5.18,7,5.53,11.66a18.35,18.35,0,0,0,2.12,6.34c.83,1.72,1.56,3.43.6,5.34a.75.75,0,0,0,.13.94,47.06,47.06,0,0,1,4.91,5.21,2.26,2.26,0,0,0,2.67.53c-.22-.83-1.18-.21-1.48-.81.29-.65,1.09-.1,1.44-.61.08-.58-.68-.29-.76-.87,1.2-.23,1-1.22,1.09-2.17.1-1.31-.39-2.67.44-3.94a44.55,44.55,0,0,1,8.08-9.43c1.07-.93,2.81-.93,4.1-1.72.06,0,.29,0,.29.09.34,2.08,3,2.45,3.32,4.58.14.91,2.78,2.62,3.91,2.57a5.41,5.41,0,0,1,4,1.38,2.11,2.11,0,0,0,2.65.34c.23-.14.57-.33.77-.25,2.64,1,4.46-.71,6.34-2,1.7-1.12,3.75-1.34,5.45-2.45a1.52,1.52,0,0,1,1.88.2c.45.56-.25,1-.52,1.47a22.31,22.31,0,0,1-5,5.12,1.68,1.68,0,1,0,2.11,2.55,12.66,12.66,0,0,1,2.45-1.69,7.92,7.92,0,0,0,2.39-2c1.14-1.78,3.24-1.61,4.88-2,2.28-.52,3.94-2.06,6-2.83a4.86,4.86,0,0,1,2.4-.3,7.38,7.38,0,0,0,3.67-.23,1.77,1.77,0,0,0,1-2.68,7.06,7.06,0,0,0-.8-1.28c-.68-.78-.8-1.31,0-2.23,1.88-2,1.53-4.23-.07-6.51-1.36-2-3.42-2.55-5.28-3.48-2.17-1.07-4.23-2.58-6.85-2.53a1.16,1.16,0,0,1-1.12-1.1,21.79,21.79,0,0,1-.27-3.68c.14-2.58-.45-3.53-2.89-4.28a9.2,9.2,0,0,1-2.19-.84,3,3,0,0,1-1.38-3.51c.59-2.36.37-3-1.51-4.24a8.94,8.94,0,0,1-4.13-6.23,14.13,14.13,0,0,0-2.34-5.76,3.08,3.08,0,0,1-.47-2.41c.4-1.6,1.34-1.91,2.62-.89a5.29,5.29,0,0,0,1.28.78,1.19,1.19,0,0,0,1.47-.51,1,1,0,0,0-.07-1.38c-.28-.35-.46-.78-.75-1.12a6.82,6.82,0,0,1-1.77-4.07,6.55,6.55,0,0,0-1.61-3.31A22.6,22.6,0,0,1,242,371c-1.23-2.92-.46-6.1-1.29-9.11-.33-1.21.51-2.61.36-4.09s.22-2.71-.43-4.06c-.29-.61.17-1.3.61-1.84.1-.13.31-.33.38-.3,1.14.55,2.68.85,3.32,1.77a43.68,43.68,0,0,0,4.58,5.1c.39.4,1,.63.86,1.31-.46,3.06.78,5.82,1.47,8.68.36,1.5.19,3.11,1.15,4.5.36.52.67,1.21,1.23,1.28,1.67.18,2.62,1.69,4.24,2,.93.2,1.39,1.57,2.41,2,2.57,1.05,4.51,3,6.41,4.87,1.51,1.45,3.24,2,4.9,3,2.58,1.5,5.46,2.39,7.9,4.08,3.13,2.17,6.32,1.28,9.48.23,1.3-.43,2.47-6.14,1.57-7.21a1.93,1.93,0,0,0-2-.89c-3.43.85-6.63-.71-10-1a1,1,0,0,1-.69-.44c-.82-1.3-2.33-2.12-2.94-3.43-1.29-2.8-3.57-4.78-5.24-7.21a21.78,21.78,0,0,0-4.49-4.46c-1.41-1.18-3.14-2.7-3-5.09a6,6,0,0,0-.61-1.9c-.14-.42-.5-1-.18-1.28,1.56-1.35,0-2.14-.43-3.19-1.37-3.39-3.59-6.51-3.43-10.41.09-2.09,2.79-5.1,4.72-5.84A24.33,24.33,0,0,1,268.9,337a1.68,1.68,0,0,1,2.05,1,1.43,1.43,0,0,0,1.1.93c2.92.63,4.14,3.06,5.51,5.28a63.86,63.86,0,0,1,3.72,6.54c.55,1.18,1.33,2.34.8,4-.3,1,.85,2.55,1.65,3.63a3.81,3.81,0,0,1,.78,2.1c.18,2.05.08,4.15.94,6.11.25.58.42,1.17,1.14,1.34a.76.76,0,0,1,.57.91c-.17,1.39,1.07,2.27,1.25,3.59s1.41.44,2.15.66.91-.27,1-.79a6.7,6.7,0,0,0,.29-1.65c-.06-3.65.42-7.34-.4-10.93a42.64,42.64,0,0,1-1.4-7.92c0-.28-.25-.64-.14-.81,1.39-2.12.44-4.58,1-6.82a1.76,1.76,0,0,0,.14-.48c-.28-4.57,1-9.11.24-13.72-.3-1.79-1.71-3.09-1.69-5,0-.58-.43-1.17,0-1.81.12-.16.19-.54.1-.63-1.62-1.6-.83-4.26-2.8-5.87-1.14-.93-1.49-2.81-2.42-4.16a5.4,5.4,0,0,0-2.36-2.06c-.26-.11-.64-.16-.75-.35-1.18-2.06-3.07-1.1-4.53-.82a15.46,15.46,0,0,1-3.41.23c-2.7-.07-5.33.65-8,.76-3.3.14-6.55.27-9.7-.95a1.38,1.38,0,0,0-.81-.16c-1.82.64-3.62.14-5.44.11-2.08,0-3.72-1.07-3.87-3.17-.25-3.62-.87-7.26.23-10.88A5.21,5.21,0,0,1,247,293a8.93,8.93,0,0,0,2.34-5.09c.21-1.57,1.52-2.39,2.7-3s2.06.19,2.81,1.24,2,.95,3.07.8c.84-.11,1.67-.14,2.51-.19,1.2-.06,2.17.1,2.07,1.67a1.67,1.67,0,0,0,.73,1.28c2.88,2.67,4.84,6.19,7.81,8.73,1.19,1,1.92,2.66,3.66,3.05,1,.23,2,.94,3-.06a3.61,3.61,0,0,0,.74-3.61,13.19,13.19,0,0,1-.2-5.66,4.55,4.55,0,0,0-.38-3.25,4,4,0,0,1-.49-2.28,13.1,13.1,0,0,0-1.39-5.39,2,2,0,0,1-.25-.78c.21-2.63,0-5.42.84-7.84.49-1.38,1.7-2.73,2.3-4.27.18-.45.78-.49.89,0,.47,2.31,2.68,3.19,3.92,4.87,2.39,3.21,5.79,5.34,9,7.61a17.53,17.53,0,0,1,2.05,2.2c.92.93.21,1.76-.07,2.64-.15.49-.3,1.18,0,1.47,1.71,1.43,1.86,4,4,5.16,1.87,1,1.66,3.15,1.92,4.95a15.88,15.88,0,0,1,0,1.86,1.17,1.17,0,0,0,.28.94c.94.85,4.06.09,4.38-1.11a2.56,2.56,0,0,1,.92-1.54c.22-.16.5-.43.5-.66a11.15,11.15,0,0,1,2-5.45,7.91,7.91,0,0,1,1.14-1.93,2.81,2.81,0,0,0,1.1-2.82c-.23-.93.5-1.49,1.3-1.93,1.06-.58,1.78-1.38,1.21-2.73-.3-.71,0-1.07.67-1.41,1.44-.72,2.63-1.55,2.3-3.61a2.28,2.28,0,0,1,1.43-2.27,1.76,1.76,0,0,0,1.26-1.66c-.28-2.16,1.15-3.22,2.5-4.36a14.84,14.84,0,0,0,1.33-1.51c.89-1,1-1.73-.76-2.23,1.42-.67,2.09-2.21,3.75-1.51.27.11.47-.09.64-.38,2.3-4.06,4.55-8.15,7.1-12.07,1.6-2.47,2.93-5.18,4.81-7.43,3.46-4.15,5.17-9.38,8.67-13.48C347.83,229.29,348.38,228.42,349.48,228.22ZM305.3,419.48a6.63,6.63,0,0,0-1.32.2c-3.93,1.44-7.91,2.75-11.95,3.87a4.76,4.76,0,0,0-2,.86c-1.48,1.29-2.54,3.11-4.3,4s-2.7,2.63-4.63,3c-.11,0-.25.27-.25.41,0,1.08-.55,1.55-1.52,1.9a1.73,1.73,0,0,0-1,1.3c.11,2-1.42,2.56-2.6,3.48-.29.23-.81.4-.48.89s.72.44,1.17.1a41.1,41.1,0,0,0,4-3.55c3-2.94,6.05-5.81,9.11-8.69a6.75,6.75,0,0,1,2.15-1.28c3.07-1.24,6.17-2.44,9.16-3.86,1.55-.74,3.26-1.2,4.62-2.31.21-.1.61-.15.35-.49S305.47,419.26,305.3,419.48ZM202.16,482.94a7.17,7.17,0,0,1-3.79-4.44,11.23,11.23,0,0,1-1.09-4.88c0-.5-.4-.75-.61-1.12-.75-1.3-2-2.22-2.13-4-.06-1.14-.14-2.76-1.33-3.41a1.44,1.44,0,0,1-.91-1.31c-.29-2.08.35-4.43-1.63-6.07-.11-.09-.13-.31-.14-.48a21.87,21.87,0,0,0-2.09-7.79,1.59,1.59,0,0,1,.07-1.74c.37-.53.14-.84-.33-1.36-1.43-1.6-3.21-3-2.82-5.67.21-1.41.26-3.08-1.64-3.71a.38.38,0,0,1-.19-.27c-.31-2.17-2.25-3.82-2-6.21a1.83,1.83,0,0,0-.68-1.29c-.66-.68-1.58-1.45-1.67-2.27-.17-1.6-1.2-2.61-1.93-3.83-.2-.33-.48-.75-.91-.61-.64.22-.24.74-.2,1.15a4.26,4.26,0,0,0,.13.66q3.83,14.21,7.66,28.42c2.58,9.51,5.95,18.77,8.93,28.16a2.3,2.3,0,0,0,2,1.83C197.15,482.8,199.42,483.28,202.16,482.94Zm78.75-58.28c1-.09,2.11-1.07,3.29-1.81.13-.08.18-.41.15-.61-.45-3.18-2.83-6.79-5.93-7.92a1.17,1.17,0,0,0-.62-.13,5.57,5.57,0,0,0-3.87,3.37,4.66,4.66,0,0,0,1,4.7,2,2,0,0,0,1.42.76,5,5,0,0,1,3,1.26A1.87,1.87,0,0,0,280.91,424.66Zm-75,58.48c.27-.06.6-.15.93-.2a51.16,51.16,0,0,0,10.59-3,84.7,84.7,0,0,0,8.44-4.09c.37-.19.67-.51.36-.94a.59.59,0,0,0-.9,0,7.67,7.67,0,0,1-1.85.78c-2,.88-4.23.58-6.18,1.27-3,1.05-5.92,2.11-8.93,3a6.1,6.1,0,0,0-3.23,1.7,1.06,1.06,0,0,0-.32,1.07C205,483.24,205.51,483.08,205.94,483.14Z" transform="translate(-157.44 -0.31)"/><path class="cls-4" d="M684.2,443.15c-.16-.14-.44-.27-.46-.43-.54-3.34-3.15-5.57-4.5-8.47A7,7,0,0,0,677.3,432c-1.13-1-2.27-2.05-3.32-3.18a26.21,26.21,0,0,0-5.79-4.31c-1.3-.78-2.65-1.54-3.87-2.41a56.84,56.84,0,0,0-8.15-4.31c-.48-.24-1.12-.28-1.16-1,2.18,0,4,1.26,5.89,2,.93.37,1.88,1.39,2.31-.5,0-.14.36-.24.56-.31,2.1-.69,2.65-1.46,1.61-3.37a2.66,2.66,0,0,1,.27-3.17,3.89,3.89,0,0,0,0-4.42,25.5,25.5,0,0,0-2.38-2.8c-1.85-2.4-3.85-4.68-5.69-7.08a2,2,0,0,0-2.53-.77c-2.63,1.14-4.71-.47-6.75-1.45a8.79,8.79,0,0,0-3.75-1.09c-.8,0-1.75.35-2.48-.41.44-.52.81-.15,1.17-.13a1.91,1.91,0,0,0,2-1.26c.39-1-.56-1.25-1.14-1.58-1.35-.77-2.86-1.25-4.24-1.89a113.79,113.79,0,0,0-13.71-5.17c-3.58-1.12-7.37-1.32-11-2.48a29.71,29.71,0,0,0-10.44-.94,25.73,25.73,0,0,1-5-.32c-4-.58-8,0-12,.31-3.58.32-6.83,1.91-10.3,2.64-.88.18-1.79.22-2.65.45a2.82,2.82,0,0,0-2.29,3.08c.36,2.11.08,4.25.32,6.35s0,4.35.85,6.45c.67,1.7.06,2.64-1.7,3.13-.51.14-1,.37-1,1s.55.62,1,.66a49.52,49.52,0,0,0,5.88.35c6.56-.24,13.11-.22,19.67,0,.57,0,1.27-.26,1.65.49-.64.67-1.39.16-2.08.16-4.56,0-9.13-.18-13.68,0a111.9,111.9,0,0,0-13.08.84c-4,.64-8.08,1-12,2.16-2,.62-4.32.55-6.41,1.31a1,1,0,0,1-1.29-.5c-.22-.62.24-.84.75-1.09,1.7-.85,1.76-2.2.11-3.23a1.72,1.72,0,0,1-1-1.6c0-.89.52-.8,1.13-.73a.41.41,0,0,0,.44-.56c-.85-2.66.38-5.26.18-7.9-.07-.86-.14-1.58-1.26-.87-.33.21-.75.51-.95-.07a.69.69,0,0,1,.59-.87c1.1-.08,1-.59,1-1.55a2.68,2.68,0,0,1,2.12-2.6,29.69,29.69,0,0,0,6-2.49c.7-.36,1.4-.67.84-1.78-.43-.85,1-2.4,2.22-2.24,1.07.13,2.17-.56,3.25.28.53.41,1.17-.11,1.26-.88a7.23,7.23,0,0,1,.1-1.17c.17-.59.69-.54,1.11-.38s.46.5.08.87c-.91.89-.26,1.23.57,1.37a4,4,0,0,0,3.59-2,3.74,3.74,0,0,1,3.22-2.13c.43,0,.85,0,.93-.48s-.35-.54-.65-.67a7.47,7.47,0,0,0-3.9-.62c-2.47.27-5.13-.14-7.43.66-3,1-6.12.41-9,1.55-2.43.95-5.2.89-7.51,2.15-3.31,1.81-7.08,2.18-10.52,3.75a72.11,72.11,0,0,0-10.5,6.4,38.11,38.11,0,0,0-10.93,12c-4.09,6.68-7.06,13.85-7.35,21.93-.08,2.18-.35,4.21.25,6.41.33,1.22-.45,2.78-.82,4.16-1.15,4.35-1.33,8.67.63,12.82,2.83,6,7.08,11.05,10.72,16.51,5.49,8.23,11.12,16.37,16.68,24.55a8.08,8.08,0,0,0,4.26,2.87c7.33,2.65,15,3.92,22.61,5.41,5.29,1,10.55,2.23,15.91,2.93,7.12.92,14.22,1.93,21.33,2.89,1.94.26,3.89.53,5.84.74.62.07,1.35.62,1.88-.12s-.63-1.1-.54-1.77c5.54,4.14,8.18,10.32,11.35,16.14,4.1,7.51,7.61,15.31,11.38,23-1.1-.11-1.15-1.14-1.48-1.83-2.54-5.21-4.9-10.5-7.56-15.65a160.33,160.33,0,0,0-8.11-14.78c-1.39-2.12-3-3.69-5.8-4-9.34-1.18-18.65-2.6-28-4C571,498.66,562.5,496.69,554,495a69.64,69.64,0,0,1-15.5-4.53,5.57,5.57,0,0,1-2.36-2.08c-8.53-12.56-17.13-25.07-25.62-37.66a19.31,19.31,0,0,1-3.27-10.28c-.17-4.17-.06-8.31.18-12.45a54.25,54.25,0,0,1,1.54-9.63c2.17-8.93,5.91-17.11,12.06-24a54.58,54.58,0,0,1,17.41-13c8.27-4,17.07-5.82,26-7.36a11.38,11.38,0,0,1,1.85,0c1.42,0,2.42-.47,2.33-2.13.34.24.76.72.69-.24-.17-2.12-.28-4.25-.51-6.36-.42-3.78-.88-7.6-1-11.37-.11-4.53-.34-9.07-.52-13.59s-.78-8.8-1.18-13.21q-.51-5.6-1-11.2c0-.23.2-.48.44-1a21.93,21.93,0,0,1,.94,6,6.21,6.21,0,0,0,1.69,4.26c.62.62.7,1.07.07,1.83-.91,1.11-.79,2.54-.66,3.89.51,5.41,1.24,10.8,1.78,16.2a15.87,15.87,0,0,0,2.84,8c.61.82,1.24,2.11,2.41,1.6s1.46-1.94,1.35-3.21c-.13-1.56-.71-3.07-.63-4.66a.77.77,0,0,1,.36-.71c.6.4.57,1.06.68,1.65q1.92,10.1,4.22,20.12a2.45,2.45,0,0,0,2.75,2.23,196.13,196.13,0,0,1,28,2.26c11.07,1.88,21.91,4.54,32.15,9.13a76,76,0,0,1,19.87,12.86,59.44,59.44,0,0,1,14.73,20.47c2.44,5.52,4.65,11.2,5.46,17.27.36,2.68.61,5.37.9,8.06A1.39,1.39,0,0,1,684.2,443.15ZM571.26,370.06c-.1,1.87.83,2.49,2.23,1.83.45-.21.83-.57,1.37-.53a2,2,0,0,0,2.39-1.47c.43-1.12.74-1.75-.33-2.56a1.49,1.49,0,0,1-.5-1.54c.62-1.75-.15-3.44-.09-5.16,0-.92-.4-1.24-1.26-.93-1.11.4-2,1.72-3.44.89-.33-.19-.63.39-.71.78a8.11,8.11,0,0,0-.22,1.66C570.72,365.51,570.34,368,571.26,370.06Zm83.72,25c-.1-.33-.23-.69-.65-.64a.49.49,0,0,0-.42.61.62.62,0,0,0,.58.52C654.83,395.61,655,395.45,655,395.09Z" transform="translate(-157.44 -0.31)"/><path class="cls-4" d="M333.15,208.46a28.28,28.28,0,0,0-3.54,4.77c-.62,1.22-1.42,2.33-2,3.55-.45.91.25,1.92,1.11,1.62s1.66,0,2.25-.32c2.5-1.24,3.27,1.15,4.46,2.18s.29,2.42-.35,3.57a11.85,11.85,0,0,0-1.29,2.73c-.1.41-.53.91-.79.69-1.08-.91-2.83-.9-3.47-2.35-.83-1.87-3.38-3.51-5.39-3.19a2.47,2.47,0,0,1-1.8-.42c-1.59-.89-3.47-1.07-5.12-2-1.13-.61-2.35-1-3-2.18a.89.89,0,0,0-.93-.56,4.54,4.54,0,0,1-3.1-1,4.13,4.13,0,0,0-2.94-.88c-1.32.21-2.18-1-3.27-1.47a39,39,0,0,1-13.75-10.37c-.93-1.1-2.57-2-2.2-4,.06-.32-.52-.84-.89-1.16-1.67-1.44-1.66-3,.15-4.21.78-.54,1.61-.86,1.72-2.07.09-1,1.05-1.09,1.66-.51,1.77,1.66,4,2.37,6.16,3.17a4.32,4.32,0,0,1,1.43.88c1.32,1.24,2.66,2.09,4.63,1.44.83-.28,2.56,2.05,2.38,3.1-.09.55-.82,1.26.22,1.44.7.12,1.72.07,2-.84s1.65-1.44,1.22-2.78c-.12-.39.38-.65.84-.49.63.22,1.76,2.77,1.57,3.43a5.3,5.3,0,0,0-.48,2.44c0,.15,0,.42,0,.46-1.91,1-.81,2.37-.41,3.62s1.2,2,1.53,3.14,1.62,1.65,2.79,1.92,1.39-.71,1.92-1.34a52.31,52.31,0,0,0,4.1-6.27c.14-.23.37-.59.29-.76-.91-1.9.09-3.88-.33-5.81-.55-2.54-.28-4.92,1.92-6.7.8-.65.48-2,1.65-2.42l.61-.21c.41.45-.07.61-.2.87s-.5.73-.07,1.05.56-.33.85-.46a5.11,5.11,0,0,0,2.27-1.83c.56-.81,1.48-.81,2.44-.47a3.14,3.14,0,0,0,4-1.41c.88-1.49,2.32-2.56,3-4.23.31-.76,1.36-.68,2-.49s.41,1,.08,1.46c-.55.77-.16,1.12.4,1.65a4.35,4.35,0,0,0,6,.54,7.73,7.73,0,0,1,2.54-.86c.63-.14,1.31,0,1.4.82s-.54,1-1.12.91c-1-.12-1.49.66-2.14,1.15-1.6,1.2-3.39,2.16-4.7,3.74-.36.43-1,.86-.56,1.4s1.2.21,1.53-.12c1-1,2.51-1.29,3.52-2.11,1.48-1.2,3.32-1.6,4.78-2.73a1.83,1.83,0,0,1,1.08-.42c.54,0,1.45-.36,1.51.51,0,.65-.56.77-1.34.73a3.16,3.16,0,0,0-2.17,1.1c-1.1,1.28-2.69,1.79-4,2.79-.41.33-.94.6-.6,1.19a1,1,0,0,0,1.6.23c1.3-1.73,3.45-2,5-3.19a3.78,3.78,0,0,1,.67-.51,2.35,2.35,0,0,1,2,0c.29.13.32.43.21.73a1.52,1.52,0,0,1-1.57,1.05,1.8,1.8,0,0,0-1.43.73,4.25,4.25,0,0,1-2.37,1.52c-1.56.23-2,1.79-3.13,2.61-1.78,1.32-3.47,2.9-5.15,4.38-1.89,1.67-3,4-5.25,5.32a3.14,3.14,0,0,0-1.52,1.75,1.06,1.06,0,0,1-1.12.82l-.08-.07Z" transform="translate(-157.44 -0.31)"/><path class="cls-4" d="M621.33,497.34a7.82,7.82,0,0,1,5.78-5.78,46.77,46.77,0,0,1,15-1.5,85.7,85.7,0,0,0,9.42.18c2.65-.14,3.14-.87,1.79-3.09a5.89,5.89,0,0,1-.59-3.39,5.88,5.88,0,0,0-1.19-3.57c-.16-.23-.3-.47-.45-.71-.5-.8,1.54-1.44.44-1.82-1.32-.46-.44-1.12-.65-1.63-1-2.47.54-4.54.93-6.76a21.24,21.24,0,0,1,1.92-5c1.17-2.53,3.81-3.21,5.38-1.49a2.21,2.21,0,0,1,.62,1.35c.21,2.61,1.21,5.11,1,7.8-.16,2.29.47,2.54,2.56,1.5a62.68,62.68,0,0,0,12.79-8.91c.92-.79,1.49-2,2.68-2.49.17,1.07-.73,1.59-1.27,2.22a33.29,33.29,0,0,1-11.63,9,9.22,9.22,0,0,0-5.73,6.84c-.85,3.53-2.4,6.89-3.59,10.35a1.25,1.25,0,0,1-1.67.93,58.27,58.27,0,0,0-8.87-.63,81.62,81.62,0,0,0-11.1,0,28.34,28.34,0,0,0-9,2.1C623.82,493.8,622.82,495.78,621.33,497.34Z" transform="translate(-157.44 -0.31)"/><path class="cls-4" d="M164.94,301.21c-.52-.28-.29-.74-.21-1.15a60.59,60.59,0,0,1,2.63-9.42,121.32,121.32,0,0,1,13.73-27c5-7.23,8.95-15.09,13.91-22.32,2.32-3.39,5.34-6.22,7.74-9.55.21-.29.55-.67,1-.27s0,.6-.12.9a32.9,32.9,0,0,1-2.43,3.38,10.81,10.81,0,0,0-1.6,2.68c-1.25,3.69-4.49,6-6.36,9.25-2,3.47-4.72,6.44-6.56,10-1.43,2.82-3.74,5.15-5.11,8.07-2.14,4.56-5,8.75-7.22,13.26-1.64,3.27-3,6.65-4.73,9.9-1.53,2.95-2.27,6.31-3.35,9.49-.27.79-.51,1.59-.77,2.38A.46.46,0,0,1,164.94,301.21Z" transform="translate(-157.44 -0.31)"/><path class="cls-4" d="M548.35,281.43c.25-2.33,1.45-4.35,2.25-6.48a92.4,92.4,0,0,0,3.45-11.16c.34-1.42,1.66-2.8.38-4.39,0-.05.2-.39.36-.53a3.53,3.53,0,0,0,1-3c0-.77.13-1.84.94-1.88s1,1,1.08,1.8c.17,1.94.86,3.9.82,5.76-.06,2.43.26,4.79.43,7.18.5,6.87,1.26,13.72,1.89,20.58q.77,8.42,1.63,16.83c.47,4.67,1,9.35,1.49,14,.39,3.75,1,7.5,1.15,11.25.24,6.39,1.36,12.7,1.47,19.09,0,.88.47,1.74.17,2.65-.83-1.34-.77-2.91-.88-4.37-.4-5.3-1.18-10.55-1.65-15.83-.33-3.73-.66-7.48-1.08-11.2s-.8-7.69-1.18-11.52c-.26-2.65-.45-5.33-.72-8-.42-4.19-.81-8.37-1.41-12.54-.36-2.55-.36-5.14-.6-7.71-.49-5.24-.94-10.48-1.6-15.69-.34-2.65-.45-5.32-.72-8,0-.36.1-.8-.5-1-1.05,1.76-1.07,3.83-1.6,5.73a186.68,186.68,0,0,1-6,17.71C548.81,281,548.74,281.33,548.35,281.43Z" transform="translate(-157.44 -0.31)"/><path class="cls-4" d="M575.59,346.75c-1.71-.62-1.72-2.23-1.85-3.59-.14-1.54-.13-3-1.38-4.17a1.77,1.77,0,0,1-.34-1.44c.07-3.91-1.22-7.74-.69-11.67.14-1-1.24-1.29-1-2.19.75-2.34-.54-4.54-.36-6.83.06-.76.12-1.62-1.06-1.75-.57-.06-.61-.49-.2-.82.75-.6.59-1.4.6-2.17,0-4.12-.85-8.13-1.33-12.19-.61-5.17-1.36-10.31-2-15.47-.45-3.39-.91-6.77-1.31-10.17a2.5,2.5,0,0,1,.19-2c.83,1.93.73,4,1,6,1.07,7.59,1.94,15.21,3,22.8,1.06,7.38,1.92,14.79,3.07,22.16s2.07,14.56,3.59,21.76A2.75,2.75,0,0,1,575.59,346.75Z" transform="translate(-157.44 -0.31)"/><path class="cls-4" d="M338.55,177.41c-.5.06-1,0-1.27-.52a1,1,0,0,1,.35-1.21c1.59-1.49,2.07-4,4.52-4.76.9-.29.64-2.25-.28-3-1.35-1.17-1.12-3,.53-3.39.84-.22,1.32.61,1.32,1.34,0,1.8.48,2.53,2.57,2.73,1.3.13,2.61.73,4.08.56.63-.07,1,.68.94,1.38s-.35,1.12-1,1.08c-1.56-.11-2.67.3-2.79,2.09a.4.4,0,0,1-.16.28C344.55,175.44,342,177.59,338.55,177.41Z" transform="translate(-157.44 -0.31)"/><path class="cls-4" d="M189.75,298a6.21,6.21,0,0,1-5.36-4.1,10,10,0,0,0-2-3.81c-.45-.45-.83-.93-.41-1.44.58-.71,1.32-2,2.09-1.65,1.61.75,3.46.83,4.93,2,.93.75.83,1.78,1.31,2.62.58,1,1.2,2,1.68,3.1A2.4,2.4,0,0,1,189.75,298Z" transform="translate(-157.44 -0.31)"/><path class="cls-4" d="M635.1,540.15c-1.09-3-2.19-6-3.25-9a76.91,76.91,0,0,1-3.06-8.85c-.48-2.12-1.73-4.07-2.15-6.25-.92-4.78-3-9.12-5-13.49a4.58,4.58,0,0,1-.61-2.89A83.63,83.63,0,0,1,625.46,510c3.81,9.65,7.81,19.22,11.8,28.8.4,1,.48,1.51-.82,1.37C636,540.11,635.55,540.15,635.1,540.15Z" transform="translate(-157.44 -0.31)"/><path class="cls-4" d="M389.19,179.47a1.56,1.56,0,0,1,1.67,1.14c.14.59-.64.8-1.07,1.15a138.72,138.72,0,0,0-26.19,27c-4,5.65-7.9,11.44-12,17.06-.61.84-1.07,1.85-2.1,2.32-.64-1.63.64-2.46,1.5-3.43a30.94,30.94,0,0,0,3.59-5c1.55-2.7,3.68-5,5.34-7.57,3.21-5,7.2-9.42,11-14,4.12-5,9.25-8.82,13.68-13.42a12.45,12.45,0,0,1,4.06-2.92C389.9,181.34,390.3,180.55,389.19,179.47Z" transform="translate(-157.44 -0.31)"/><path class="cls-4" d="M320.11,158.94a7.84,7.84,0,0,1,4.42,1c.8.37.48,1.17.48,1.81a.79.79,0,0,1-1,.8c-1.47-.31-2.37,1.16-3.77,1.13-.51,0-.79.69-.78,1.18.08,2-1.25,2.25-2.73,2.38a10.32,10.32,0,0,1-3.45-.69c-1-.27-.81-1.13-.5-1.78a11.27,11.27,0,0,1,4-4.41C317.63,159.73,318.8,158.36,320.11,158.94Z" transform="translate(-157.44 -0.31)"/><path class="cls-4" d="M519,172.26a21.73,21.73,0,0,1-6.58-5.82,45.93,45.93,0,0,0-4.35-4.48c-1.63-1.55-3.52-2.8-5-4.49-.78-.86-1.82-1.47-2.68-2.26-.57-.52-1.32-.86-1.14-2,.12-.76-1-1.39-1.68-1.36-1.66.05-2.64-1.12-3.8-1.85s-1.2-.42-1.17.61c0,.34.38.83-.29.92-.43.06-.89.1-1.2-.38s-.64-.65-.81-1c-1.25-2.89-4-2.84-6.48-3.38-.58-.13-1.28.05-1.52-.75a1.35,1.35,0,0,1,1.29-.07c4.61,1.45,9.32,2.6,13.59,5a42.61,42.61,0,0,1,14.69,13.66,27.8,27.8,0,0,0,6.69,7A2.64,2.64,0,0,1,519,172.26Z" transform="translate(-157.44 -0.31)"/><path class="cls-4" d="M372.6,188.81c-2.17,0-3.17-1.55-2.36-3.14a8.45,8.45,0,0,1,6.83-4.74,4,4,0,0,1,3.32,1.36c.58.62.9,1.62-.5,1.85a2.67,2.67,0,0,0-2,1.59C376.7,188.15,374.08,187.78,372.6,188.81Z" transform="translate(-157.44 -0.31)"/><path class="cls-4" d="M561.39,243a12.22,12.22,0,0,1-1.12-5.41c0-1.5.17-3.1-1.1-4.28-.12-.11-.23-.17-.2-.37.95-5.25-.34-10.32-1.18-15.45-.27-1.61.2-3.34-.23-5a35.32,35.32,0,0,1-.74-7.47c-.09-1.81-.39-2-1.89-1.73a3.92,3.92,0,0,0,.21-3.35,2.14,2.14,0,0,1,.23-1.63,5.08,5.08,0,0,0,.19-4.08c-.89-3.19-.33-6.52-.92-9.74,0-.15.21-.36.32-.54.9,3,.82,6.09,1.19,9.14.84,6.89,1.57,13.78,2.32,20.68.5,4.67.93,9.35,1.43,14,.49,4.5,1,9,1.55,13.5A2.82,2.82,0,0,1,561.39,243Z" transform="translate(-157.44 -0.31)"/><path class="cls-4" d="M458.83,142.24c-2.18-.06-4.1-1.12-6.13-1.72-3.86-1.14-7.6-2.65-11.42-3.94-3.33-1.13-6.74-2-10-3.28-5.38-2-11.07-3.24-16.14-6.08,3.31.48,6.29,2,9.43,3,9.66,3.1,19.26,6.36,28.77,9.88C455.16,140.78,457.14,141.12,458.83,142.24Z" transform="translate(-157.44 -0.31)"/><path class="cls-4" d="M272,182.73c-1.26.32-1.63-1.23-2.71-1.57-.4-.13.25-.74.54-1,2.17-1.94,4.36-3.87,6.57-5.77a27.86,27.86,0,0,1,3.7-2.9c.45-.27.84-.49,1,.14s.76,1,0,1.61a29.16,29.16,0,0,0-6.53,7.35C274.1,181.53,273.68,182.85,272,182.73Z" transform="translate(-157.44 -0.31)"/><path class="cls-4" d="M375.37,120.59a109.94,109.94,0,0,0-12.91,4.33c-5.24,2.17-10.13,5-15.15,7.65-6.12,3.19-12,6.82-17.91,10.33,1.59-2,3.94-2.87,6-4.24a160.82,160.82,0,0,1,15.39-9,100.61,100.61,0,0,1,23.31-9C374.49,120.55,374.92,120.33,375.37,120.59Z" transform="translate(-157.44 -0.31)"/><path class="cls-4" d="M550.81,189.46c1.25,0,1.32,1,1.19,1.79a31.55,31.55,0,0,0,.05,5.84c0,1.41.23,2.7,1.81,3.59,1,.58.71,2.23.14,3.19a2.93,2.93,0,0,0-.31,2.69,3.66,3.66,0,0,1,.06,2.79c0,.1-.11.25-.07.32,1.3,2.61-.44,5.32.28,8,.18.65,1.31,1.07.53,2-1.18-1-2.48-2-2.23-3.82.14-.41.88,1.1.7-.2-.59-4.15-.54-8.36-1.13-12.52s-.85-8.55-1.23-12.83A2.51,2.51,0,0,1,550.81,189.46Zm2.86,13.42-.08-.05v.09Z" transform="translate(-157.44 -0.31)"/><path class="cls-4" d="M410.85,125.77c-2.52-.25-4.86-1.23-7.28-1.87-4.73-1.26-9.49-2.28-14.43-1.79-2.09.21-4.14,1.09-6.41.25,1-.8,2.29-.34,3.29-1.35l-10-.53c1.61-1.14,3.47-.85,5.23-.74a121.86,121.86,0,0,1,29.37,5.83A1.06,1.06,0,0,1,410.85,125.77Z" transform="translate(-157.44 -0.31)"/><path class="cls-4" d="M313.9,152.88a2,2,0,0,1,1.88,1.13c.4,1-.1,1.59-1,1.9-.58.19-.48,1.45-1.27,1-1.44-.75-3.23-.63-4.44-1.81-.4-.38-.19-.85.34-1.05A16.72,16.72,0,0,1,313.9,152.88Z" transform="translate(-157.44 -0.31)"/><path class="cls-4" d="M408.82,397.29c2.59-.9,5.17-1.82,7.77-2.69,5.22-1.76,10.52-3.3,15.6-5.45a6,6,0,0,1,1-.23c-1.2,1.21-2.86,1.52-4.35,2-6.1,2.14-12.24,4.14-18.38,6.16C409.93,397.27,409.39,397.58,408.82,397.29Z" transform="translate(-157.44 -0.31)"/><path class="cls-4" d="M564.76,271.4c-1.23-1.3-.69-3-.9-4.46-.58-4-1.08-8.07-1.56-12.11a2.77,2.77,0,0,1,.23-2.11,42.19,42.19,0,0,1,1,6.37c.57,3.76.94,7.55,1.37,11.33A3.9,3.9,0,0,1,564.76,271.4Z" transform="translate(-157.44 -0.31)"/><path class="cls-4" d="M549.16,173.22a6.35,6.35,0,0,1,.79,3.49c.12,2.17-.18,4.52.57,6.45a11.38,11.38,0,0,1,.47,5,2.69,2.69,0,0,1-.27.75,15.26,15.26,0,0,1-.91-5.17A80.08,80.08,0,0,1,549.16,173.22Z" transform="translate(-157.44 -0.31)"/><path class="cls-4" d="M481.78,145.92c-1,.53-1.84-.07-2.76-.16a89.31,89.31,0,0,0-10.67-.25c-.91,0-1.92.23-2.51-.81,3.19.34,6.38.06,9.58.17A16.65,16.65,0,0,1,481.78,145.92Z" transform="translate(-157.44 -0.31)"/><path class="cls-4" d="M547.4,155.7c1.14,1.17.79,2.67.91,4.06.23,2.64.42,5.29.63,7.94,0,.44.15.89-.27,1.23-.8-1.09-.34-2.38-.51-3.57A78,78,0,0,1,547.4,155.7Z" transform="translate(-157.44 -0.31)"/><path class="cls-4" d="M535.8,306.06l6.55-12.29c-.79,2.95-2.44,5.5-3.86,8.14C537.73,303.35,537.19,305,535.8,306.06Z" transform="translate(-157.44 -0.31)"/><path class="cls-4" d="M566.92,353.75c.74,1.15.4,2.48.56,3.72.29,2.23.25,4.5.36,6.75-.81-2.28-.74-4.69-.92-7.05C566.83,356,566.17,354.88,566.92,353.75Z" transform="translate(-157.44 -0.31)"/><path class="cls-4" d="M546.81,147.53a13.6,13.6,0,0,1,.51,7.21A21.58,21.58,0,0,1,546.81,147.53Z" transform="translate(-157.44 -0.31)"/><path class="cls-4" d="M567.88,365.41a12.13,12.13,0,0,1,.59,5.91A20.93,20.93,0,0,1,567.88,365.41Z" transform="translate(-157.44 -0.31)"/><path class="cls-4" d="M545,129c.78,1.2,1.46,2.41.35,3.78A5.84,5.84,0,0,1,545,129Z" transform="translate(-157.44 -0.31)"/><path class="cls-4" d="M533.17,310.51a12.15,12.15,0,0,1,2.48-4.22A9.52,9.52,0,0,1,533.17,310.51Z" transform="translate(-157.44 -0.31)"/><path class="cls-4" d="M524,176.71a7.4,7.4,0,0,1-3-2.74A6.75,6.75,0,0,1,524,176.71Z" transform="translate(-157.44 -0.31)"/><path class="cls-4" d="M438.06,386.86a17.22,17.22,0,0,1,4.22-2A7.77,7.77,0,0,1,438.06,386.86Z" transform="translate(-157.44 -0.31)"/><path class="cls-4" d="M443.13,384.52a16.12,16.12,0,0,1,4.23-2A8.06,8.06,0,0,1,443.13,384.52Z" transform="translate(-157.44 -0.31)"/><path class="cls-4" d="M530.75,314.52a9.82,9.82,0,0,1,2.3-3.78A8.74,8.74,0,0,1,530.75,314.52Z" transform="translate(-157.44 -0.31)"/><path class="cls-4" d="M401.72,399a6,6,0,0,1,3.75-.93A6.94,6.94,0,0,1,401.72,399Z" transform="translate(-157.44 -0.31)"/><path class="cls-4" d="M545,288.87c.5-1.34.69-2.82,1.81-3.87C546.37,286.38,546.08,287.82,545,288.87Z" transform="translate(-157.44 -0.31)"/><path class="cls-4" d="M528.42,317.93a15.72,15.72,0,0,1,2.16-3.2A4.75,4.75,0,0,1,528.42,317.93Z" transform="translate(-157.44 -0.31)"/><path class="cls-4" d="M542.08,96.85a2.48,2.48,0,0,1,.16,2.81A4.67,4.67,0,0,1,542.08,96.85Z" transform="translate(-157.44 -0.31)"/><path class="cls-4" d="M339.18,165.35a1.32,1.32,0,0,1,.76,1c.07.33-.27.5-.56.37a1,1,0,0,1-.71-1C338.69,165.43,338.88,165.33,339.18,165.35Z" transform="translate(-157.44 -0.31)"/><path class="cls-4" d="M385.8,178.83c1-.07,2-.37,2.84.49C387.68,179.22,386.62,179.7,385.8,178.83Z" transform="translate(-157.44 -0.31)"/><path class="cls-4" d="M543,292.93a5.79,5.79,0,0,1,1.38-2.88A3.86,3.86,0,0,1,543,292.93Z" transform="translate(-157.44 -0.31)"/><path class="cls-4" d="M381.39,177.17c.89.11,1.88-.11,2.52.79C383,177.85,382,178.25,381.39,177.17Z" transform="translate(-157.44 -0.31)"/><path class="cls-4" d="M543.38,111.75c.83,1,.51,2.05.24,3.12A6.41,6.41,0,0,1,543.38,111.75Z" transform="translate(-157.44 -0.31)"/><path class="cls-4" d="M327.19,144.43A4.54,4.54,0,0,1,325,146,2.92,2.92,0,0,1,327.19,144.43Z" transform="translate(-157.44 -0.31)"/><path class="cls-4" d="M518.63,331.79a3.08,3.08,0,0,1,1.56-2.15A4,4,0,0,1,518.63,331.79Z" transform="translate(-157.44 -0.31)"/><path class="cls-4" d="M548.81,169.85a2,2,0,0,1,.17,2.46A2.51,2.51,0,0,1,548.81,169.85Z" transform="translate(-157.44 -0.31)"/><path class="cls-4" d="M434,388.58a4.29,4.29,0,0,1,2.53-1A3.39,3.39,0,0,1,434,388.58Z" transform="translate(-157.44 -0.31)"/><path class="cls-4" d="M547,284.5c0-.81,0-1.66.82-2.18A3,3,0,0,1,547,284.5Z" transform="translate(-157.44 -0.31)"/><path class="cls-4" d="M544.37,121.91c.75.62.6,1.34.24,2.08A2.07,2.07,0,0,1,544.37,121.91Z" transform="translate(-157.44 -0.31)"/><path class="cls-4" d="M414.28,126.94a3.78,3.78,0,0,1-2.2-.77A2.89,2.89,0,0,1,414.28,126.94Z" transform="translate(-157.44 -0.31)"/><path class="cls-4" d="M542.49,101.55a1.82,1.82,0,0,1,.09,2.17A2.48,2.48,0,0,1,542.49,101.55Z" transform="translate(-157.44 -0.31)"/><path class="cls-4" d="M544.69,126a1.45,1.45,0,0,1,.25,2.07A2.08,2.08,0,0,1,544.69,126Z" transform="translate(-157.44 -0.31)"/><path class="cls-4" d="M329.2,143a2.47,2.47,0,0,1-1.79,1.25A2.11,2.11,0,0,1,329.2,143Z" transform="translate(-157.44 -0.31)"/><path class="cls-4" d="M455,378.56a3.57,3.57,0,0,1,2.19-1.12A3,3,0,0,1,455,378.56Z" transform="translate(-157.44 -0.31)"/><path class="cls-4" d="M525,323a3.5,3.5,0,0,1,1.25-1.79A2.14,2.14,0,0,1,525,323Z" transform="translate(-157.44 -0.31)"/><path class="cls-4" d="M461.91,143.18c-.83,0-1.67.11-2.24-.7A2.54,2.54,0,0,1,461.91,143.18Z" transform="translate(-157.44 -0.31)"/><path class="cls-4" d="M520.66,329.09a2.87,2.87,0,0,1,1.23-1.78A2.11,2.11,0,0,1,520.66,329.09Z" transform="translate(-157.44 -0.31)"/><path class="cls-4" d="M545.39,133.73c.71.51.67,1.1.21,1.75A1.52,1.52,0,0,1,545.39,133.73Z" transform="translate(-157.44 -0.31)"/><path class="cls-4" d="M513.45,337.07a2,2,0,0,1,1.45-1.25A2.07,2.07,0,0,1,513.45,337.07Z" transform="translate(-157.44 -0.31)"/><path class="cls-4" d="M516.93,333.81a2.45,2.45,0,0,1,1.21-1.48A1.57,1.57,0,0,1,516.93,333.81Z" transform="translate(-157.44 -0.31)"/><path class="cls-4" d="M561.74,245.71c-.72-.51-.63-1.12-.23-1.77C562.11,244.46,562,245.08,561.74,245.71Z" transform="translate(-157.44 -0.31)"/><path class="cls-4" d="M544,118.57c.74.46.71,1.06.29,1.71A1.46,1.46,0,0,1,544,118.57Z" transform="translate(-157.44 -0.31)"/><path class="cls-4" d="M543.06,108c.67.53.57,1.14.18,1.78A2.07,2.07,0,0,1,543.06,108Z" transform="translate(-157.44 -0.31)"/><path class="cls-4" d="M465.58,144.55c-.6.12-1.17.17-1.37-.61A1.28,1.28,0,0,1,465.58,144.55Z" transform="translate(-157.44 -0.31)"/><path class="cls-4" d="M680,460.4a1.64,1.64,0,0,1,.82-1.42C680.92,459.66,680.76,460.2,680,460.4Z" transform="translate(-157.44 -0.31)"/><path class="cls-4" d="M546.5,144.82a.91.91,0,0,1,.16,1.48A1.22,1.22,0,0,1,546.5,144.82Z" transform="translate(-157.44 -0.31)"/><path class="cls-4" d="M318.72,150.46l-.24,1.32c-.3,0-.59-.07-.58-.43A.85.85,0,0,1,318.72,150.46Z" transform="translate(-157.44 -0.31)"/><path class="cls-4" d="M502.94,345.77a1.56,1.56,0,0,1,1.12-.86A1,1,0,0,1,502.94,345.77Z" transform="translate(-157.44 -0.31)"/><path class="cls-4" d="M527.07,320a1.36,1.36,0,0,1,.82-1.16A1.06,1.06,0,0,1,527.07,320Z" transform="translate(-157.44 -0.31)"/><path class="cls-4" d="M511.82,338.5a1.13,1.13,0,0,1,1.07-.95A1.46,1.46,0,0,1,511.82,338.5Z" transform="translate(-157.44 -0.31)"/><path class="cls-4" d="M515.57,335.15a1.2,1.2,0,0,1,1-1A1.28,1.28,0,0,1,515.57,335.15Z" transform="translate(-157.44 -0.31)"/><path class="cls-4" d="M522.65,326.36a1.34,1.34,0,0,1,.88-1.13C523.55,325.85,523.17,326.15,522.65,326.36Z" transform="translate(-157.44 -0.31)"/><path class="cls-4" d="M527.11,179.33c-.58-.05-1-.27-1.06-.93A1.39,1.39,0,0,1,527.11,179.33Z" transform="translate(-157.44 -0.31)"/><path class="cls-4" d="M542.74,104.63c.5.3.48.69.18,1.12A1,1,0,0,1,542.74,104.63Z" transform="translate(-157.44 -0.31)"/><path class="cls-4" d="M170.86,330.26c0,.2-.12.33-.32.26a.33.33,0,0,1-.14-.26c0-.18.11-.32.31-.25S170.81,330.17,170.86,330.26Z" transform="translate(-157.44 -0.31)"/><path class="cls-4" d="M545.75,138.11c.57.28.57.65.18,1.09A.78.78,0,0,1,545.75,138.11Z" transform="translate(-157.44 -0.31)"/><path class="cls-4" d="M350,402.48a.55.55,0,0,1,.72.24C350.35,403,350.14,402.82,350,402.48Z" transform="translate(-157.44 -0.31)"/><path class="cls-4" d="M347.62,402.15a.55.55,0,0,1,.72.24C348,402.65,347.78,402.48,347.62,402.15Z" transform="translate(-157.44 -0.31)"/><path class="cls-4" d="M385.51,402a.54.54,0,0,1,.71-.23C386.07,402.14,385.86,402.31,385.51,402Z" transform="translate(-157.44 -0.31)"/><path class="cls-4" d="M387.87,401.71a.55.55,0,0,1,.72-.24C388.44,401.81,388.23,402,387.87,401.71Z" transform="translate(-157.44 -0.31)"/><path class="cls-4" d="M342.9,401.47a.55.55,0,0,1,.72.23C343.26,402,343.05,401.81,342.9,401.47Z" transform="translate(-157.44 -0.31)"/><path class="cls-4" d="M390.57,401.35a.55.55,0,0,1,.72-.22C391.14,401.47,390.92,401.63,390.57,401.35Z" transform="translate(-157.44 -0.31)"/><path class="cls-4" d="M341.2,401.14a.56.56,0,0,1,.72.23C341.57,401.64,341.36,401.47,341.2,401.14Z" transform="translate(-157.44 -0.31)"/><path class="cls-4" d="M392.94,401a.54.54,0,0,1,.72-.22C393.5,401.13,393.29,401.3,392.94,401Z" transform="translate(-157.44 -0.31)"/><path class="cls-4" d="M339.86,400.79a.57.57,0,0,1,.72.24C340.22,401.3,340,401.13,339.86,400.79Z" transform="translate(-157.44 -0.31)"/><path class="cls-4" d="M394.29,400.69a.53.53,0,0,1,.72-.24C394.86,400.8,394.65,401,394.29,400.69Z" transform="translate(-157.44 -0.31)"/><path class="cls-4" d="M353,402.82a.55.55,0,0,1,.72.24C353.4,403.32,353.18,403.16,353,402.82Z" transform="translate(-157.44 -0.31)"/><path class="cls-4" d="M621,499a.48.48,0,0,1,.22-.69C621.55,498.7,621.38,498.9,621,499Z" transform="translate(-157.44 -0.31)"/><path class="cls-4" d="M359.79,403.15a.54.54,0,0,1,.72.24C360.15,403.66,359.94,403.49,359.79,403.15Z" transform="translate(-157.44 -0.31)"/><path class="cls-4" d="M370.3,403.39a.55.55,0,0,1,.72-.24C370.87,403.5,370.66,403.66,370.3,403.39Z" transform="translate(-157.44 -0.31)"/><path class="cls-4" d="M541,195.52c-.44,0-.66-.21-.48-.67A.56.56,0,0,1,541,195.52Z" transform="translate(-157.44 -0.31)"/><path class="cls-4" d="M679.32,461.39a.66.66,0,0,1,.51-.73C680,461.13,679.8,461.36,679.32,461.39Z" transform="translate(-157.44 -0.31)"/><path class="cls-4" d="M681.11,458.46a.66.66,0,0,1,.41-.84A.58.58,0,0,1,681.11,458.46Z" transform="translate(-157.44 -0.31)"/><path class="cls-4" d="M683.52,452.08a.48.48,0,0,1,.18-.69C684,451.72,683.93,451.94,683.52,452.08Z" transform="translate(-157.44 -0.31)"/><path class="cls-4" d="M682.15,456.45a.51.51,0,0,1,.22-.67C682.69,456.13,682.57,456.34,682.15,456.45Z" transform="translate(-157.44 -0.31)"/><path class="cls-4" d="M682.54,455.13a.66.66,0,0,1,.25-.87A.56.56,0,0,1,682.54,455.13Z" transform="translate(-157.44 -0.31)"/><path class="cls-4" d="M526.4,321a.74.74,0,0,1,.55-.79A.7.7,0,0,1,526.4,321Z" transform="translate(-157.44 -0.31)"/><path class="cls-4" d="M524.34,324a.72.72,0,0,1,.56-.78A.69.69,0,0,1,524.34,324Z" transform="translate(-157.44 -0.31)"/><path class="cls-4" d="M523.66,325a.74.74,0,0,1,.55-.79A.69.69,0,0,1,523.66,325Z" transform="translate(-157.44 -0.31)"/><path class="cls-4" d="M521.92,327.28a.85.85,0,0,1,.6-.69C522.56,327,522.34,327.23,521.92,327.28Z" transform="translate(-157.44 -0.31)"/><path class="cls-4" d="M508.69,341.05a.84.84,0,0,1,.77-.53A.59.59,0,0,1,508.69,341.05Z" transform="translate(-157.44 -0.31)"/><path class="cls-4" d="M507,342.42a.81.81,0,0,1,.75-.56A.59.59,0,0,1,507,342.42Z" transform="translate(-157.44 -0.31)"/><path class="cls-4" d="M505,344.1a.81.81,0,0,1,.76-.55A.6.6,0,0,1,505,344.1Z" transform="translate(-157.44 -0.31)"/><path class="cls-4" d="M500.91,347.47a.83.83,0,0,1,.77-.53A.58.58,0,0,1,500.91,347.47Z" transform="translate(-157.44 -0.31)"/><path class="cls-4" d="M498.89,349.18a.81.81,0,0,1,.76-.55A.61.61,0,0,1,498.89,349.18Z" transform="translate(-157.44 -0.31)"/><path class="cls-4" d="M497.2,350.53A.83.83,0,0,1,498,350,.6.6,0,0,1,497.2,350.53Z" transform="translate(-157.44 -0.31)"/><path class="cls-4" d="M495.17,352.2a.82.82,0,0,1,.77-.54A.58.58,0,0,1,495.17,352.2Z" transform="translate(-157.44 -0.31)"/><path class="cls-4" d="M493.14,353.89a.85.85,0,0,1,.77-.54A.59.59,0,0,1,493.14,353.89Z" transform="translate(-157.44 -0.31)"/><path class="cls-4" d="M491.79,354.9a.88.88,0,0,1,.78-.53A.6.6,0,0,1,491.79,354.9Z" transform="translate(-157.44 -0.31)"/><path class="cls-4" d="M490.78,355.59a.78.78,0,0,1,.78-.53A.62.62,0,0,1,490.78,355.59Z" transform="translate(-157.44 -0.31)"/><path class="cls-4" d="M319.69,149.74a.68.68,0,0,1-.75.6A.77.77,0,0,1,319.69,149.74Z" transform="translate(-157.44 -0.31)"/><path class="cls-4" d="M484.36,360.32a.78.78,0,0,1,.77-.55A.61.61,0,0,1,484.36,360.32Z" transform="translate(-157.44 -0.31)"/><path class="cls-4" d="M396,400.34a.53.53,0,0,1,.71-.24C396.54,400.44,396.34,400.62,396,400.34Z" transform="translate(-157.44 -0.31)"/><path class="cls-4" d="M397.33,400a.54.54,0,0,1,.71-.24C397.9,400.12,397.69,400.29,397.33,400Z" transform="translate(-157.44 -0.31)"/><path class="cls-4" d="M398.68,399.66a.53.53,0,0,1,.71-.23C399.24,399.77,399,399.94,398.68,399.66Z" transform="translate(-157.44 -0.31)"/><path class="cls-4" d="M400.37,399.33a.55.55,0,0,1,.72-.23C400.94,399.45,400.72,399.6,400.37,399.33Z" transform="translate(-157.44 -0.31)"/><path class="cls-4" d="M546.17,142.45c.37.21.53.46.15.8A.54.54,0,0,1,546.17,142.45Z" transform="translate(-157.44 -0.31)"/><path class="cls-4" d="M406.11,398a.51.51,0,0,1,.71-.24C406.68,398.08,406.47,398.24,406.11,398Z" transform="translate(-157.44 -0.31)"/><path class="cls-4" d="M407.47,397.63a.53.53,0,0,1,.71-.23C408,397.74,407.82,397.92,407.47,397.63Z" transform="translate(-157.44 -0.31)"/><path class="cls-4" d="M519.66,173c-.45,0-.61-.27-.64-.67A.75.75,0,0,1,519.66,173Z" transform="translate(-157.44 -0.31)"/><path class="cls-4" d="M323.45,147.09a.75.75,0,0,1-.79.55A.79.79,0,0,1,323.45,147.09Z" transform="translate(-157.44 -0.31)"/><path class="cls-4" d="M457.66,377.19a.86.86,0,0,1,.79-.5A.61.61,0,0,1,457.66,377.19Z" transform="translate(-157.44 -0.31)"/><path class="cls-4" d="M460,375.84a.84.84,0,0,1,.79-.5A.62.62,0,0,1,460,375.84Z" transform="translate(-157.44 -0.31)"/><path class="cls-4" d="M320.7,149.06a.66.66,0,0,1-.79.51A.79.79,0,0,1,320.7,149.06Z" transform="translate(-157.44 -0.31)"/><path class="cls-4" d="M543.29,110.49l.36.16-.36.17Z" transform="translate(-157.44 -0.31)"/><path class="cls-4" d="M384.58,178.3a.27.27,0,0,1,.39.2A.27.27,0,0,1,384.58,178.3Z" transform="translate(-157.44 -0.31)"/><path class="cls-4" d="M520,173.21a.27.27,0,0,1-.35-.24A.27.27,0,0,1,520,173.21Z" transform="translate(-157.44 -0.31)"/><path class="cls-4" d="M536.25,189.24c-.17.11-.2.08-.1-.1l.08,0Z" transform="translate(-157.44 -0.31)"/><path class="cls-4" d="M543.87,116.36l.15.12-.12,0-.07-.06Z" transform="translate(-157.44 -0.31)"/><polygon class="cls-4" points="161.87 151.76 161.98 151.69 162.03 151.81 161.93 151.85 161.87 151.76"/><path class="cls-4" d="M435.85,186.47c.05-.36-.19-1,.42-1.22,2.34-.69,2.6-2.85,3.26-4.64.46-1.24.87-2.18,2.4-1.94a.6.6,0,0,0,.48-.11c1.72-2.2,4.71-2.53,6.58-4.43,1.64-1.68,3.94-1.72,5.84-2.74.62-.33,1.11-.53,1.39-1.24a1.43,1.43,0,0,1,1.39-1c.29,0,.46.3.52.59a1.57,1.57,0,0,1-.66,1.57c-1.84,1.77-4.31,2.61-6.16,4.32a46.63,46.63,0,0,1-6.56,5.36c-2.74,1.71-4.5,4.4-7.21,6-.14.08-.24.24-.38.33C436.31,187.81,435.76,187.79,435.85,186.47Z" transform="translate(-157.44 -0.31)"/><path class="cls-4" d="M337.54,154c-1.11,0-2.32.3-3.12-.76-.44-.58-1-1.29.43-1.47a5.06,5.06,0,0,0,3.35-1.72c.75-.87,3.73-.67,4.55.14a2.08,2.08,0,0,1,.37,2.06c-.22,1.05-1.29,1.13-2.07,1.45a6.84,6.84,0,0,1-2,.29C338.56,154,338,154,337.54,154Z" transform="translate(-157.44 -0.31)"/><path class="cls-4" d="M411.86,162.49a15.83,15.83,0,0,1-6.15.24c-.51,0-1.13-.34-1.09-.86.06-.69.77-.48,1.23-.44,1.51.11,2.79,0,3.14-1.9.13-.71,2.27-.82,2.7-.17a7.82,7.82,0,0,1,.58,1.36c-.49.37-1.23.42-1.5,1.1Z" transform="translate(-157.44 -0.31)"/><path class="cls-4" d="M320.14,385.7a2,2,0,0,1-.76-1.65c0-.87-.44-2,1-2.23a2.71,2.71,0,0,1,2.89,1.77c.12.71-.06,1.26-1,1l-1.28-.36c-.34-.1-.43-.81-.91-.46s-.2.72-.14,1.1C320,385.08,320.06,385.28,320.14,385.7Z" transform="translate(-157.44 -0.31)"/><path class="cls-4" d="M499.69,278.76c1.37.85,1.42,2,2.07,2.8a.6.6,0,0,1-.15.56.57.57,0,0,1-.83-.29C500.42,281,500.15,280.09,499.69,278.76Z" transform="translate(-157.44 -0.31)"/><path class="cls-2" d="M411.86,162.49l-1.09-.68c.28-.68,1-.73,1.5-1.1a1.14,1.14,0,0,1,.9,1.17C413.1,162.49,412.39,162.44,411.86,162.49Z" transform="translate(-157.44 -0.31)"/><path class="cls-4" d="M517.92,261.8l1.07,1.15c.22.24.57.42.49.81a.45.45,0,0,1-.34.27,1,1,0,0,1-.89-.66A12.41,12.41,0,0,1,517.92,261.8Z" transform="translate(-157.44 -0.31)"/><path class="cls-4" d="M514.91,260.84a6.38,6.38,0,0,0,.55.57c.41.34,1.12.37,1.14,1.1,0,.11-.19.33-.29.33-.79,0-.88-.75-1.23-1.23a5.67,5.67,0,0,1-.32-.58Z" transform="translate(-157.44 -0.31)"/><path class="cls-4" d="M502.15,285.56c1.05-.18,1.7-.56,2.24.1a.34.34,0,0,1-.1.55C503.57,286.5,503.1,285.9,502.15,285.56Z" transform="translate(-157.44 -0.31)"/><path class="cls-4" d="M505.35,276.9c.69.36,1.25.63,1.06,1.4a.45.45,0,0,1-.39.21C505.39,278.25,505.12,277.77,505.35,276.9Z" transform="translate(-157.44 -0.31)"/><path class="cls-4" d="M510.09,266.81c.36.2.8.36.78.89a.34.34,0,0,1-.47.31c-.43-.13-.79-.39-.78-.9C509.63,266.85,509.82,266.76,510.09,266.81Z" transform="translate(-157.44 -0.31)"/><path class="cls-4" d="M472.88,211.53c.58,0,.86.29,1,.8-.33.45-.58.16-.82-.06S472.67,211.88,472.88,211.53Z" transform="translate(-157.44 -0.31)"/><path class="cls-2" d="M599.06,404.61c-.37-.75-1.08-.47-1.65-.49-6.56-.25-13.11-.27-19.67,0a49.52,49.52,0,0,1-5.88-.35c-.45,0-1-.07-1-.66s.48-.83,1-1c1.76-.48,2.37-1.42,1.7-3.13-.83-2.1-.6-4.3-.85-6.45s0-4.24-.32-6.35a2.82,2.82,0,0,1,2.29-3.08c.86-.23,1.77-.27,2.65-.45,3.47-.73,6.73-2.33,10.3-2.64,4-.35,8-.89,12-.31a25.73,25.73,0,0,0,5,.32,29.71,29.71,0,0,1,10.44.94c3.66,1.15,7.45,1.36,11,2.48a113.79,113.79,0,0,1,13.71,5.17c1.39.64,2.89,1.12,4.24,1.89.58.33,1.53.61,1.14,1.58a1.91,1.91,0,0,1-2,1.26c-.35,0-.73-.39-1.17.13.74.76,1.68.39,2.48.41A8.79,8.79,0,0,1,648.3,395c2,1,4.12,2.59,6.75,1.45a2,2,0,0,1,2.53.77c1.85,2.4,3.85,4.68,5.69,7.08a25.5,25.5,0,0,1,2.38,2.8,3.89,3.89,0,0,1,0,4.42,2.66,2.66,0,0,0-.27,3.17c1,1.9.48,2.68-1.61,3.37-.21.07-.53.17-.56.31-.42,1.89-1.37.87-2.31.5-1.93-.77-3.7-2-5.89-2-1.59-.25-2.82-1.37-4.32-1.84-.06-.65-.35-.77-.85-.36l-3.25-1.29c-.11-.86-.58-.72-1.11-.41l-8.92-2.61a.58.58,0,0,0-.84-.13l-1.56-.35a2.35,2.35,0,0,0-2.15-.59l-.53-.07a.86.86,0,0,0-1.18-.3l-1.84-.22a2.25,2.25,0,0,0-2.18-.43l-.46-.06a1.37,1.37,0,0,0-1.58-.34l-.53,0c-2-1.14-4.19-1-6.32-1.39-3.2-.56-6.44-.76-9.66-1.12a47.07,47.07,0,0,0-8.13-.62Zm60.54,9.77c-.88-1.85-.28-4.45-2.08-6.37-.39-.42-.52-1.32-1.31-.89s-.21,1.08-.15,1.68c.09,1,.69,2,.24,3.12-.89,2.17-.81,2.31,1.28,3.79.47.34.79,1.11,1.53.71S659.39,415.3,659.6,414.37Z" transform="translate(-157.44 -0.31)"/><path class="cls-4" d="M599.58,404.63a47.07,47.07,0,0,1,8.13.62c3.22.37,6.46.57,9.66,1.12,2.12.37,4.36.25,6.32,1.39a49.06,49.06,0,0,1-8.9-1c-4.6-.74-9.26-.83-13.85-1.62C600.46,405,599.92,405.12,599.58,404.63Z" transform="translate(-157.44 -0.31)"/><path class="cls-4" d="M626.26,408.21a2.25,2.25,0,0,1,2.18.43C627.59,409.17,626.91,408.75,626.26,408.21Z" transform="translate(-157.44 -0.31)"/><path class="cls-4" d="M632,409.22a2.35,2.35,0,0,1,2.15.59A2.07,2.07,0,0,1,632,409.22Z" transform="translate(-157.44 -0.31)"/><path class="cls-4" d="M624.22,407.8a1.37,1.37,0,0,1,1.58.34C625.1,408.84,624.7,408.17,624.22,407.8Z" transform="translate(-157.44 -0.31)"/><path class="cls-4" d="M630.29,408.85a.86.86,0,0,1,1.18.3C630.92,409.65,630.51,409.61,630.29,408.85Z" transform="translate(-157.44 -0.31)"/><path class="cls-4" d="M645.48,412.91c.53-.31,1-.45,1.11.41A.74.74,0,0,1,645.48,412.91Z" transform="translate(-157.44 -0.31)"/><path class="cls-4" d="M635.71,410.16a.58.58,0,0,1,.84.13C636.21,410.7,635.94,410.54,635.71,410.16Z" transform="translate(-157.44 -0.31)"/><path class="cls-4" d="M649.85,414.6c.51-.41.79-.29.85.36C650.25,415.22,650,415.07,649.85,414.6Z" transform="translate(-157.44 -0.31)"/><path class="cls-3" d="M202.16,482.94c-2.74.34-5-.13-7.27-.25a2.3,2.3,0,0,1-2-1.83c-3-9.39-6.34-18.65-8.93-28.16s-5.11-18.95-7.66-28.42a4.26,4.26,0,0,1-.13-.66c0-.4-.45-.93.2-1.15.43-.15.71.28.91.61.73,1.22,1.76,2.23,1.93,3.83.09.81,1,1.59,1.67,2.27a1.83,1.83,0,0,1,.68,1.29c-.29,2.39,1.65,4,2,6.21a.38.38,0,0,0,.19.27c1.91.63,1.85,2.3,1.64,3.71-.38,2.63,1.39,4.07,2.82,5.67.47.52.7.83.33,1.36a1.59,1.59,0,0,0-.07,1.74,21.87,21.87,0,0,1,2.09,7.79c0,.16,0,.39.14.48,2,1.64,1.33,4,1.63,6.07a1.44,1.44,0,0,0,.91,1.31c1.19.65,1.27,2.27,1.33,3.41.09,1.79,1.38,2.72,2.13,4,.21.37.65.62.61,1.12a11.23,11.23,0,0,0,1.09,4.88A7.17,7.17,0,0,0,202.16,482.94Z" transform="translate(-157.44 -0.31)"/><path class="cls-2" d="M280.91,424.66a1.87,1.87,0,0,1-1.51-.38,5,5,0,0,0-3-1.26,2,2,0,0,1-1.42-.76,4.66,4.66,0,0,1-1-4.7,5.57,5.57,0,0,1,3.87-3.37,1.17,1.17,0,0,1,.62.13c3.09,1.13,5.48,4.74,5.93,7.92,0,.2,0,.53-.15.61C283,423.59,282,424.57,280.91,424.66Z" transform="translate(-157.44 -0.31)"/><path class="cls-3" d="M305.57,419.8c-1.37,1.12-3.07,1.57-4.62,2.31-3,1.42-6.09,2.62-9.16,3.86a6.75,6.75,0,0,0-2.15,1.28c-3.05,2.88-6.12,5.75-9.11,8.69a41.1,41.1,0,0,1-4,3.55c-.45.34-.88.32-1.17-.1s.19-.66.48-.89c1.17-.92,2.71-1.53,2.6-3.48a1.73,1.73,0,0,1,1-1.3c1-.35,1.55-.82,1.52-1.9,0-.14.14-.38.25-.41,1.93-.4,2.94-2.2,4.63-3s2.82-2.69,4.3-4a4.76,4.76,0,0,1,2-.86c4-1.12,8-2.43,11.95-3.87a6.63,6.63,0,0,1,1.32-.2Z" transform="translate(-157.44 -0.31)"/><path class="cls-3" d="M205.94,483.14c-.43-.06-.89.1-1.09-.37a1.06,1.06,0,0,1,.32-1.07,6.1,6.1,0,0,1,3.23-1.7c3-.94,6-2,8.93-3,1.95-.69,4.2-.39,6.18-1.27a7.67,7.67,0,0,0,1.85-.78.59.59,0,0,1,.9,0c.31.43,0,.75-.36.94a84.7,84.7,0,0,1-8.44,4.09,51.16,51.16,0,0,1-10.59,3C206.54,483,206.22,483.08,205.94,483.14Z" transform="translate(-157.44 -0.31)"/><path class="cls-3" d="M305.3,419.48c.17-.22.42-.45.63-.17s-.14.39-.35.49Z" transform="translate(-157.44 -0.31)"/><path class="cls-3" d="M571.26,370.06c-.93-2-.54-4.55-.56-7a8.11,8.11,0,0,1,.22-1.66c.08-.39.38-1,.71-.78,1.48.83,2.32-.49,3.44-.89.87-.31,1.29,0,1.26.93-.06,1.72.71,3.41.09,5.16a1.49,1.49,0,0,0,.5,1.54c1.08.81.76,1.44.33,2.56a2,2,0,0,1-2.39,1.47c-.55,0-.92.31-1.37.53C572.1,372.55,571.16,371.93,571.26,370.06Z" transform="translate(-157.44 -0.31)"/><path class="cls-2" d="M655,395.09c0,.36-.15.52-.49.49a.62.62,0,0,1-.58-.52.49.49,0,0,1,.42-.61C654.75,394.4,654.88,394.76,655,395.09Z" transform="translate(-157.44 -0.31)"/><path class="cls-2" d="M333.15,208.46l-.1-.05.08.07Z" transform="translate(-157.44 -0.31)"/><polygon class="cls-3" points="396.23 202.57 396.14 202.61 396.15 202.52 396.23 202.57"/><path class="cls-4" d="M659.6,414.37c-.21.93.18,1.68-.5,2s-1.05-.37-1.53-.71c-2.09-1.48-2.16-1.62-1.28-3.79.45-1.1-.15-2.09-.24-3.12-.05-.59-.52-1.31.15-1.68s.91.47,1.31.89C659.32,409.92,658.72,412.53,659.6,414.37Z" transform="translate(-157.44 -0.31)"/></g><g class="cls-1"><path class="cls-5" d="M335,230.83c3.22,0,3.22-5,0-5s-3.22,5,0,5Z" transform="translate(-157.44 -0.31)"/></g><g class="cls-1"><path class="cls-5" d="M204.65,228a170.8,170.8,0,0,0-44.79,98.72h5a143.41,143.41,0,0,1,10-42.44c1.2-3-3.63-4.28-4.82-1.33-6,14.74-12,30-12.53,46.06-.51,16.54,6.49,32,7.41,48.36h5q-1.33-22.94-4-45.77a2.5,2.5,0,0,0-5,0,188.16,188.16,0,0,0,6.07,66c.72,2.62,5.29,2.21,4.91-.66q-3.35-25.3-9.16-50.16c-.64-2.72-5-2.17-4.91.66.8,16.66,6.35,33,10.46,49.1l12.93,50.59c.7,2.73,4.93,2.16,4.91-.66a136.68,136.68,0,0,0-6.36-40.62c-.72-2.26-4.21-2.49-4.82,0a31.1,31.1,0,0,0,1.74,20.23c1.15,2.71,5.16.7,4.57-1.93A54.58,54.58,0,0,0,177.36,413c-1.24-2.66-5.19-.72-4.57,1.93a248.84,248.84,0,0,0,12.8,39.65c1,2.34,5.14,2.43,4.91-.66l-2.16-29.17a2.5,2.5,0,0,0-5,0,49.59,49.59,0,0,0,7,30c1.43,2.39,5.4.84,4.57-1.93l-2.19-7.26c-1-3.15-5.3-1.78-4.82,1.33a69.76,69.76,0,0,0,8,23.38c1.45,2.62,5,.73,4.57-1.93a43.66,43.66,0,0,0-4.41-12.81c-1.29-2.46-5.62-.74-4.57,1.93l4.24,10.79,4.57-1.93A47.32,47.32,0,0,0,189,453.44c-1.71-1.35-5.18-.18-4.18,2.43A48.65,48.65,0,0,0,190.76,467l3.93-3a33.55,33.55,0,0,1-9.08-15c-.75-2.59-5.25-2.23-4.91.66.8,6.91,2.36,16.61,7.12,22.09,4.62,5.32,11.22.06,15.89-2.72a123.86,123.86,0,0,0,36.17-32.95c1.82-2.45-1.91-4.67-3.93-3a60.46,60.46,0,0,1-28.43,12.7l2.82,3.67a69.53,69.53,0,0,1,14.62-18L220.77,429a41.83,41.83,0,0,1-8.58,16.56c-2,2.42,1.27,5.88,3.54,3.54l12.88-13.34-3.93-3-9.54,18.12c-1.27,2.41,1.94,5.22,3.93,3L229,442.94a2.5,2.5,0,0,0-3.54-3.54l-11.27,10.26,4.18,2.43a7,7,0,0,1,4.56-4.48L221,443.05l-18.45,11.7,3.67,1.49-1.58-9.84c-.36-2.22-3.56-2.3-4.57-.6a4.84,4.84,0,0,0,1.43,6.67c2.82,2,6.07.42,8.56-1.28l-3.67-2.82a30.58,30.58,0,0,1-9.57,13.81c-2.17,1.83.66,5.45,3,3.93a151,151,0,0,0,16.53-12.3c2.23-1.91-.62-5.22-3-3.93l-18.48,9.87,3,3.93q11.36-9.28,22.08-19.28c2-1.85-.16-4.56-2.43-4.18a49.41,49.41,0,0,0-14.71,5L206.5,448a24.5,24.5,0,0,1,4.74-8.56c2.06-2.43-1.37-6-3.54-3.54l-10.33,11.56,3.93.51-.49-3.61-4.91-.66-.92,8.9h5a91.4,91.4,0,0,1,.18-20.54h-5a28.74,28.74,0,0,0,1.43,8.22c.7,2.14,4.37,2.6,4.82,0l1.25-7.18-4.91-.66.91,25.09c.12,3.27,4.68,3.16,5,0L206.12,433c.28-2.83-4.23-3.35-4.91-.66l-3.67,14.45h4.82a43.5,43.5,0,0,1-1.94-12.41c0-3.22-4.91-3.22-5,0l-.67,23.72h5l-.91-43.81c-.07-3.21-5-3.23-5,0l.1,23.91h5l-4.1-41.95c-.31-3.14-5.09-3.27-5,0L191,437h5l-1.77-17.84c-.31-3.16-5.28-3.22-5,0a186.76,186.76,0,0,0,3.65,24.06c.6,2.71,5.16,2.17,4.91-.66q-1.54-17.87-4.42-35.58c-.47-2.91-4.77-2-4.91.66l-.78,14.64h5a67.05,67.05,0,0,0-3.56-15.92c-.91-2.53-5-2.31-4.91.66q.27,12.48,1.49,24.89h5l-5.5-46h-5l1.57,12.3,4.91-.66L182.36,373c-.5-2.84-4.88-2.08-4.91.66l-.5,39h5l-4.71-50.8c-.29-3.15-5.11-3.27-5,0l1,28.69h5q-.9-26.4-.66-52.81h-5a208.75,208.75,0,0,1,1.26,27.41l4.91-.66-4.19-26.29c-.47-3-4.68-1.93-4.91.66l-2.52,27.81h5A347.58,347.58,0,0,1,169.72,319h-5l7.18,62.36c.36,3.12,4.9,3.3,5,0l1.25-41.53h-5a164,164,0,0,0,2.95,22.27c.56,2.77,5,2.14,4.91-.66a98.87,98.87,0,0,0-5-28.3c-.93-2.8-4.6-2.09-4.91.66a195.29,195.29,0,0,0-1.25,23.91h5L174,342.62l-4.91.66,10,46.38,4.82-1.33a68,68,0,0,1-.64-26.84h-4.82l6.09,34.07,4.82-1.33L187,385.4c-.77-2.95-4.57-1.95-4.91.66q-2.28,17.34-3.31,34.79h5l-.86-22.69-4.91.66,2.69,7.44a2.52,2.52,0,0,0,4.82,0,26.42,26.42,0,0,0,1.33-7.66l-4.91.66c.65,3.83.64,11.39,3.63,14.2,1.85,1.75,4.2,1.21,5.43-1a2.51,2.51,0,0,0,0-2.52l-.32-.51a2.51,2.51,0,0,0-4.57,1.93L192,434.46c.49,1.93,3.68,2.62,4.57.6a6.8,6.8,0,0,1,4.63-4.18l-3.08-3.08A103.83,103.83,0,0,1,188.55,458l4.57.6a190.27,190.27,0,0,1-7.89-30.26l-4.57,1.93a88.53,88.53,0,0,0,17.88,22.06c2.46,2.2,5.47-1,3.54-3.54-15.76-20.29-9.84-47.53-5.78-70.68q6.39-36.44,10.7-73.2h-5a2,2,0,0,1-2.74-1.52l-.62-1.09c-1.15-1.88-2.13-3.89-3.19-5.82l-5.92-10.82a2.53,2.53,0,0,0-4.57.6A17.53,17.53,0,0,0,186.32,298c.92,2,4.1,1.4,4.57-.6a12,12,0,0,0-.08-6.49c-.84-3.13-5.49-1.8-4.82,1.33l.8,3.77,4.57-1.93a23.81,23.81,0,0,0-7.67-8.6,2.52,2.52,0,0,0-3.76,2.16,21.6,21.6,0,0,0,3.54,11.28c1.31,2,4.68,1.31,4.66-1.26l-.05-6.83-4.91.66,2.72,11.95c.72,3.17,5.37,1.79,4.82-1.33l-1.51-8.56c-.5-2.84-4.87-2.07-4.91.66a42.05,42.05,0,0,0,1.08,10.08c.61,2.69,5.21,2.17,4.91-.66l-.5-4.66c-.34-3.17-5.34-3.2-5,0l.5,4.66,4.91-.66a36.47,36.47,0,0,1-.9-8.75l-4.91.66,1.51,8.56,4.82-1.33L188,290.17c-.63-2.77-4.93-2.13-4.91.66l.05,6.83,4.66-1.26a16.43,16.43,0,0,1-2.85-8.76l-3.76,2.16a18.54,18.54,0,0,1,5.87,6.81c1.37,2.61,5.14.75,4.57-1.93l-.8-3.77L186,292.24l.08,3.83,4.57-.6a11.63,11.63,0,0,1-.85-7.91l-4.57.6,7.28,13.31c1.45,2.66,2.75,5.85,5.24,7.72,3.74,2.81,9.52.74,9.25-4.3-.17-3.28-4.63-3.14-5,0-3.23,27.27-7.5,54.34-12.21,81.38-3.91,22.46-6.1,46.91,8.75,66l3.54-3.54a84.29,84.29,0,0,1-17.1-21c-1.49-2.59-5-.75-4.57,1.93a190.27,190.27,0,0,0,7.89,30.26c.65,1.87,3.55,2.66,4.57.6a108,108,0,0,0,10-31.38c.28-1.81-1.08-3.64-3.08-3.08a11.13,11.13,0,0,0-7.61,6.48l4.57.6-5.87-23.05L186.34,412l.32.51V410l.41-.32,2.43.64c-2.08-1.92-2.31-9.71-2.76-12.38-.49-2.87-4.82-2-4.91.66a21.91,21.91,0,0,1-1.16,6.33h4.82l-2.69-7.44c-.91-2.51-5-2.32-4.91.66l.86,22.69a2.5,2.5,0,0,0,5,0q1-17.46,3.31-34.79l-4.91.66,2.31,8.83c.83,3.16,5.38,1.79,4.82-1.33l-6.09-34.07c-.43-2.38-4.4-2.39-4.82,0a74.66,74.66,0,0,0,.64,29.5c.7,3.14,5.5,1.81,4.82-1.33l-10-46.38c-.59-2.73-5.08-2.16-4.91.66l.88,15.07c.19,3.19,5,3.24,5,0a195.29,195.29,0,0,1,1.25-23.91l-4.91.66a94,94,0,0,1,4.81,27l4.91-.66a154.1,154.1,0,0,1-2.77-20.94c-.2-3.19-4.9-3.24-5,0l-1.25,41.53h5L169.72,319c-.36-3.12-4.94-3.3-5,0a347.58,347.58,0,0,0,2.39,47.66,2.5,2.5,0,0,0,5,0l2.52-27.81-4.91.66,4.19,26.29c.46,2.86,4.86,2.06,4.91-.66a208.75,208.75,0,0,0-1.26-27.41c-.35-3.12-5-3.3-5,0q-.24,26.41.66,52.81c.11,3.21,5.11,3.22,5,0l-1-28.69h-5l4.71,50.8c.29,3.15,5,3.28,5,0l.5-39-4.91.66,4.33,24.49c.48,2.74,5.27,2.14,4.91-.66l-1.57-12.3c-.4-3.14-5.38-3.2-5,0l5.5,46c.37,3.13,5.32,3.23,5,0q-1.22-12.42-1.49-24.89l-4.91.66a61.58,61.58,0,0,1,3.38,14.59,2.5,2.5,0,0,0,5,0l.78-14.64-4.91.66q2.77,17,4.25,34.25l4.91-.66a176.4,176.4,0,0,1-3.47-22.73h-5L191,437c.31,3.14,5.09,3.28,5,0l-1.17-40.73h-5l4.1,41.95c.31,3.14,5,3.28,5,0l-.1-23.91h-5l.91,43.81c.07,3.22,4.91,3.22,5,0l.67-23.72h-5a48.25,48.25,0,0,0,2.12,13.74c.7,2.3,4.2,2.46,4.82,0L206,433.64l-4.91-.66-2.46,24.56h5l-.91-25.09c-.1-2.68-4.41-3.57-4.91-.66L196.59,439h4.82a24.06,24.06,0,0,1-1.25-6.89c-.11-3.3-4.62-3.12-5,0a91.4,91.4,0,0,0-.18,20.54,2.5,2.5,0,0,0,5,0l.92-8.9c.29-2.78-4.46-3.45-4.91-.66a11.62,11.62,0,0,0,1,7.46,2.51,2.51,0,0,0,3.93.51l10.33-11.56-3.54-3.54a31.18,31.18,0,0,0-6,10.77c-.71,2.19,1.84,3.78,3.67,2.82A45.18,45.18,0,0,1,218.86,445l-2.43-4.18q-10.73,10-22.08,19.28c-2.27,1.86.63,5.21,3,3.93l18.48-9.87-3-3.93a141.58,141.58,0,0,1-15.52,11.52l3,3.93a35.32,35.32,0,0,0,10.86-16,2.52,2.52,0,0,0-3.67-2.82,6.56,6.56,0,0,1-3.15,1.45l-4.57-.6,1.58,9.84a2.52,2.52,0,0,0,3.67,1.49l18.45-11.7c2.3-1.46.87-5.51-1.93-4.57a12.08,12.08,0,0,0-8.06,8c-.88,2.5,2.46,4,4.18,2.43L229,442.94l-3.54-3.54-9.91,10.94,3.93,3L229,435.26c1.29-2.44-1.89-5.14-3.93-3L212.2,445.57l3.54,3.54a47.5,47.5,0,0,0,9.86-18.77,2.52,2.52,0,0,0-4.18-2.43,73.55,73.55,0,0,0-15.4,19,2.53,2.53,0,0,0,2.82,3.67,65.26,65.26,0,0,0,30.64-14l-3.93-3a117.53,117.53,0,0,1-26.74,26.21q-3.38,2.38-6.93,4.52c-2,1.2-5.64,4.21-8,4.4-5.72.47-7.77-15.06-8.23-19l-4.91.66a38.66,38.66,0,0,0,10.37,17.25c2,1.9,5.64-.64,3.93-3a43.6,43.6,0,0,1-5.43-10L185.47,457A43.64,43.64,0,0,1,196,468.83c1.4,2.33,5.64.8,4.57-1.93l-4.24-10.79L191.74,458a39,39,0,0,1,3.9,11.61l4.57-1.93a66,66,0,0,1-7.51-22.19l-4.82,1.33,2.19,7.26,4.57-1.93a45,45,0,0,1-6.3-27.49h-5l2.16,29.17,4.91-.66a248.84,248.84,0,0,1-12.8-39.65L173,415.49a48.63,48.63,0,0,1,3.36,10l4.57-1.93a25.42,25.42,0,0,1-1.24-16.37h-4.82a132,132,0,0,1,6.18,39.29l4.91-.66-12.44-48.68c-4.14-16.2-10-32.89-10.77-49.67l-4.91.66q5.69,24.19,9,48.83l4.91-.66a184.07,184.07,0,0,1-5.89-64.67h-5q2.67,22.82,4,45.77c.18,3.2,5.18,3.22,5,0-.89-15.77-7.54-30.71-7.45-46.55.09-16.26,6.38-31.7,12.39-46.54L170,283a147.8,147.8,0,0,0-10.13,43.77c-.25,3.23,4.67,3.15,5,0a165.17,165.17,0,0,1,43.32-95.19c2.19-2.35-1.34-5.9-3.54-3.54Z" transform="translate(-157.44 -0.31)"/></g></svg>