<svg id="Layer_1" data-name="Layer 1" xmlns="http://www.w3.org/2000/svg" viewBox="0 0 429.4 614.41"><defs><style>.cls-1{fill:#fff;}.cls-2{fill:#80593f;}.cls-3{fill:#37272f;}.cls-4{fill:#e8ae80;}</style></defs><title>parry4</title><g id="parry1_edit.psd"><path class="cls-1" d="M436.29,597q-133.93,0-267.85.06c-2.7,0-3.48-.46-3.48-3.37q.13-295.24,0-590.47c0-2.76.65-3.21,3.27-3.21Q379.64.11,591.05,0c2.54,0,3.3.34,3.3,3.17q-.14,295.42,0,590.85c0,2.59-.57,3-3.07,3q-55.51-.15-111-.07c-.65-1.89-.9-3.82-2.36-5.5-7.93-9.17-15.45-18.7-23.57-27.69-7.92-8.76-8.43-13.88-4.83-21.38,3.86-8,8.54-15.67,12.56-23.65,8.49-16.85,16.61-33.82,19-52.86a32,32,0,0,1,2.86-8.78A43.28,43.28,0,0,0,487,444.6c.56-5,.15-10.21,2-15a107.18,107.18,0,0,0,7.61-36.47,193.5,193.5,0,0,1,1.52-20.71c.93-7,1.64-14,2.2-21,.47-5.88,1.2-11.73,1.62-17.62.66-9.35,1.85-18.66,2.81-28,.69-6.76,1.42-13.52,2-20.29.53-6,1.52-12.1,1.21-18.1-.43-8.23.79-15.5,7.31-21.15a.7.7,0,0,0,.38-.27c1.68-1,3.18-2.1,3.15-4.33l1.05-3.33a.31.31,0,0,0,.26-.46l.48-1.09a.9.9,0,0,0,.59-1.22l.68-1.42a13.66,13.66,0,0,0,2.26-5.33l.89-1.75.27-.09v-.29l1.27-2.54c.65-.25.73-.74.55-1.34l1-2.22a1.26,1.26,0,0,0,.63-1.47,62.36,62.36,0,0,0,4.48-9.87,9.54,9.54,0,0,0,2.16-5l.86-1.65a3.86,3.86,0,0,0,1.12-2.7l1.82-4a3,3,0,0,0,1.24-2.77l4.1-9.87c5.15-10.66,9.74-21.56,14.86-32.25,6.68-13.93,12.53-28.39,16-43.62.67-3,2.11-4.59,5.37-5.21,6.61-1.25,10.11-5.35,10.45-11.71.1-1.94-.5-3.9-.74-5.86-1.51-12.56-3.21-25.1-7-37.2-1.47-4.65-2.45-9.62-6.1-13.31l-1-1.37a1.9,1.9,0,0,0-1.17-1.83,5.84,5.84,0,0,0-2.8-2.77A5.21,5.21,0,0,0,570,25.67l-.58-.57a15.14,15.14,0,0,0-8.27-2.39l-2.92-.54c-.69-.61-1.5-.42-2.29-.35l-5.27-.52a1.2,1.2,0,0,0-1.48-.21l-3.72,0-2.89.11a15.36,15.36,0,0,1-8.8-3.14,31.88,31.88,0,0,0-6.46-3.37c-4-3.45-8.34-6.5-11.39-10.94-.85-1.24-2.15-1-3.39-.76q-21.62,4.49-43.23,9c-1.29.27-2.21.76-1.8,2.55,1.07,4.72.23,6-4.24,8-4.65,2.09-9,4.6-11.66,9.27-.93,1.63-2.66,2.43-4.28,3.36-5.95,3.4-12.65,4.8-18.92,7.34-2.31-.58-3.83,1.51-5.91,1.74-.72-.5-1.37-.16-2.09.09-7.78,2.71-12.39,8.74-16.21,15.53-7.66,13.61-10.65,28.75-14.09,43.73l-.12.11.12-.1c4.44-3.08,12.7-1.1,15.32,3.57a2.51,2.51,0,0,1-.34,2.76c-3.31,5.89-7.07,11.55-10,17.63-2.54,5.31-5.42,10.37-4.57,17.11,1.09,8.67-2.76,16-9.95,21.47-5.1,3.9-11.82,3.81-17,7.92-2.9,2.31-7.1,3.3-10.63,5.11-4.77,2.44-9.44,5-14.45,7.07-3.71,1.51-7.73,2.81-10.94,5.24a15.19,15.19,0,0,1-8.36,3.47,10.86,10.86,0,0,0-9.88,6.38c-1.29,2.57-2.15,1.72-3.62.16s-2.1-4.35-4.36-4.87c-2.91-.67-5.19-2.25-7.6-3.76-2.63-1.66-5.24-2.59-8.08-.22-2.11,1.76-4.38,2.47-7.11.78-1.12-.7-2.83-1.3-4.25-.31-3.68,2.57-7.77,2.57-12,2.09-3.19-.37-6.33-1.25-9.6-1-1.3.09-2.6.11-3,1.65-.54,2.33-2.34,2.27-4.08,2.27s-3.66-.25-2.95,2.65c.3,1.24-.46,2.1-1.69,2.51-.9.29-2.21.32-2,1.71.18,1.13,1.37,1.37,2.29,1.67,4,1.27,8,2.64,12.05,3.65,2.66.66,4.2,1.27,1.65,3.92-.69.71-.43,1.63-.23,2.48.76,3.16,2.83,5.51,5.12,7.59a2.63,2.63,0,0,0,4.55-1.07c1.31-3.52,3.61-3.21,6.54-2.7,9.82,1.72,19.43,1.86,28.33-3.85a28.08,28.08,0,0,1,7.63-3.78c10.51-2.9,21.22-5.17,31.44-9,6.21-2.34,12.58-4.49,18-8.57l.82-.4a1.41,1.41,0,0,0,1.55-1l.75-.45a2.44,2.44,0,0,0,1.94-1.24c11.6-8,24.71-13.93,32.69-26.61a466,466,0,0,0,22.92-40.66c1.9-3.82,3.74-6.3,8.15-6.08.69,1.12.1,2.14-.25,3.19A166.83,166.83,0,0,1,412.88,151l-.58.86a1.21,1.21,0,0,0-.77,1.33L408.48,159c-2,2.55-1.92,6.08-4.12,8.52l-3.27,4.19c-4.72,9-10,17.77-14.11,27.09l-4.66,9.41-.68,1.64-.74.73-.73,1-.89,1.13c-1.94,2.91-4.18,5.66-4.82,9.24l-.84,3.1L372,226.38c-2.85,2.36-4.58,5.22-4,9.09-3.61-.06-5.65,1.92-7,5.09-1.25,2.93-3.15,5.76-3.06,9,.12,4.13-1,5.52-5.1,5-1.46-.18-3-.74-4.08.82q-3,4.25-5.93,8.52l-.6.75a4.3,4.3,0,0,0-2.54,2.8l-2.56,3.11c-.52,0-.64.23-.48.68-.4.6-1.14,1.21-.69,1.95s1.13.23,1.56-.16c2.78-2.55,6.13-4.72,6.34-9.08,3.65-3.91,8.16-5,12.22-3.09,1.36.63,1.53,1.19,1.15,2.53-1.17,4-3.21,5.09-8.43,4.12.51,2.68,4.65,2.06,4.6,4.71,0,2.4-1,4.78-1.56,7.19a4.87,4.87,0,0,0,.21,1.47,1.85,1.85,0,0,1-.74,2c-3.57,2-2.63,5.17-2,8a3.92,3.92,0,0,1-1.36,4.16c-2.25,2.28-5.15,1.24-7.67,2-1.33.38-3.48-.07-3.7,1.57s1.93,1.58,3.06,2.23c2.23,1.29,5.14,1.28,7.1,3.53-1.59.91-3.79.35-4.22,2.37-.57,2.67-2.87.41-4,1.57,0,1.44,2.83,2.43,1,4.1-1.51,1.35-3,.11-4.4-.67a11.05,11.05,0,0,0-2.65-1.3c-1.81-.43-3.63-1.37-5.66-.54.51,1.16,1.38.76,2,.91,2.22.51,5.37,1.63,5,3.49-.48,2.35-3.52.93-5.49.7-1.06-.12-2.47-.93-2.95.4s1.06,1.63,2,2.13c3.59,1.86,7.52.85,11.26,1.44,4.8.76,6.35,3.57,4,7.77-1.2,2.18-3.68,2.61-5.77,3-8.79,1.5-17.51,3.45-26.44,4.14-3.54.27-7.27-.12-10.66,1.54,5.24,1.22,10.23,3.14,15.38,4.18s10.68,2.18,16.16.28c2.7-.94,5.67-.5,8.5,0,.94.15,2.18.45,2.18,1.66,0,1.41-1.41,1.15-2.28,1.31-2,.38-4.37-.36-5.9,1.59-3.2,4.08-8.12,5.87-12.3,8.36-2.16,1.29-4.18,3.61-6.82,3.94-4.42.56-8.61,2.37-12.88,2.84-8.64.95-16.86,4-25.56,4.43-1.57.07-3.41.16-4.34,2.31,20.94,6.34,42.43,3.06,63.92,4.89a2.52,2.52,0,0,1-2.54,1.24c-10.92.15-21.88.88-32.74.17-9.16-.6-18.6,1-27.54-2.7,4.06,4.83,9.29,7.93,14.76,11.71a3.87,3.87,0,0,0-2.53-2.9,1.07,1.07,0,0,1-.66-1.19c.12-.67.65-.65,1.15-.56,5.12,1,10.59.66,14.46,5.39,2.08,2.54,5.23,3.48,8.62,3.63,7.53.35,15,1.08,22.72.52-.92,2.52-2.81,2.12-4.45,2.47-1.15.24-3.42-.69-2.92,2.07.1.55-.4,1.11-.87.88-2.81-1.38-4.81,1.23-7.3,1.41a27.67,27.67,0,0,1-9.19-.76c-.91-.24-2.08-1-2.62.23s.7,1.72,1.42,2.34c1.36,1.16,2.76,2.27,4.35,3.56-2.24,1.33-4.39.86-6.32,2.49-2.67,2.26-4.17,6.15-8.22,6.71-11.13-7.57-21-16.78-31.85-24.69-.62-.75-1.21-1.73-2.37-1.26-.67.27-.47,1.07-.33,1.66,2.11,8.85.29,17.65-.44,26.45-.82,10-2.06,19.91-2.94,29.88-.91,10.34-1.56,20.71-2.41,31.05-.87,10.59-1.59,21.19-2.88,31.73-.71,5.85-.94,11.81-2.8,17.52-2.38,7.32-6.77,13.4-11.45,19.33l-2.25,2.27-3.38,2.79-1.07,1c-3.9,2.59-8.07,4.72-12,7.15-4.39,2.69-9.41,3.64-13.83,6.07l-2.52,1.21a2.94,2.94,0,0,0-2.19.92c-2,.66-4,1.42-6,2a69,69,0,0,0-24.55,12.83c-3.09,2.43-2.46,5.84,1.23,7.09a18.38,18.38,0,0,0,4,.84c7.57.78,15.06-.11,22.54-1.08,9.58-1.23,19.13-3.06,28.75-3.49,13.13-.59,26.25-1.33,39.39-1.85a18.48,18.48,0,0,0,9.55-2.74,2.35,2.35,0,0,0,2-1.74.87.87,0,0,0,.34-.41c2.21-3.39,2.35-7.11,1.9-11-.76-6.46,1.14-13.06-1-19.47-.17-.5.24-1.19.38-1.8,3-12.53,6.15-25,9-37.59,3.24-14.09,6.27-28.24,9.39-42.36l.19-1.92c.56-.21.72-.56.41-1.1l.31-1.9c.57-.19.77-.54.43-1.09l.28-2.66c.6-.17.78-.51.45-1.06l.32-2.64c.6-.19.76-.55.42-1.1l.32-1.88c.59-.18.78-.52.45-1.08l.3-2.67c.56-.18.78-.5.43-1.06l.35-1.9c.56-.19.74-.53.43-1.07l.33-2.64c.55-.21.75-.55.41-1.09l.34-1.88c.54-.21.73-.55.41-1.09l.36-2.65c.53-.21.71-.54.4-1.07l.35-1.94c.54-.19.7-.52.4-1l.4-2.71c.53-.16.54-.51.35-.94l.27-2.8c1.32-1,2.33-.41,3.17.69a55.83,55.83,0,0,1,3.93,5.41c2.52,4.31,2.78,4.48,6.23.81,12.21-13,25.72-24.63,38.09-37.45,5.27-5.46,11.32-10.21,16.59-15.75,7.24-7.61,16.07-13.59,22.61-21.92l1.88-1.76c1.6-.21,2.51.32,2.83,2.08.41,2.31,1.19,4.54,1.7,6.84a4.51,4.51,0,0,0,4.26,3.92c2.33.25,3.37-1.44,4.06-3.13A30.86,30.86,0,0,1,417.3,349c2-2.39,4.24-5.34,7.52-5.54a101.25,101.25,0,0,1,14.75.59,9.67,9.67,0,0,1,4.66,2.11c3.48,2.51,6.6,5.91,11.51,5.56a14.2,14.2,0,0,1,3,.22,4.92,4.92,0,0,1,4.39,5.72,16.35,16.35,0,0,1-2.24,6.6c-.91,1.5-2.85,4-.28,5.45,3.14,1.72,1.93,3.41.48,4.94a43.62,43.62,0,0,0-4.43,5.61c-1.87,2.75-.68,3.37.84,4.9.87.87,2.81,1.47,2.06,3.12-.59,1.3-2.24,1.41-3.6,1.47-2.11.1-2.87.71-1.27,2.62,1.14,1.35.54,2.36-.25,3.89-1.14,2.22-2.11,4.91.65,7.28,1.93,1.66,2.71,3.89-.12,5.79s-5.06,4.26-5.5,7.88a1.9,1.9,0,0,1-.8,1.17c-.92.61-2.25,1.05-1.89,2.41.42,1.56,2,1.15,3.16,1.25.9.07,1.82.19,2.18,1.12.44,1.12-.56,1.38-1.27,1.89-2.25,1.62-2.05,3.15.6,4.41,1.24.59,2.59.94,2.4,3-1.38-.11-2.73-.13-4-.34-2.69-.42-5.1-2.05-7.91-1.89-1,.06-2.7-.61-2.88.8-.2,1.57,1.59,1.08,2.55,1.33,3.21.84,7,.37,9.24,3.73-4.66,3.52-10.21,2.59-15.8,3.52,5.32,3,11.63,1.31,16.41,5.79-1.31.33-1.9.5-2.5.62-5.07,1-5.63,2.07-3.5,6.56a3.46,3.46,0,0,1,.44,2.12c-.53,3.41-.77,6.71,4.06,7.59-3,.28-5.89.7-8.56.18-4.29-.84-5.83.78-5.61,4.83l-1,2.36a22.2,22.2,0,0,0-1.08,2.31A144.2,144.2,0,0,0,426.4,523a19.64,19.64,0,0,1-3,10.83,32.28,32.28,0,0,0-3.83,23.26c2.27,10.61,7,20.29,12,29.9C433.25,590.28,436.27,592.95,436.29,597ZM323,297.41l-.08-.07.11.06c1.84,3,4.78,3.75,8.55,4.45C329.36,297.9,326,298,323,297.41Zm86.74,70.53c.49,1.84-3.81,2.63-.94,4.58,2.47,1.68,4.43.65,5.55-2.05a2.31,2.31,0,0,1,.62-.92c1-.83,1.77-.64,2.15.72,1.08,3.94-1.77,10-5.55,11.35a2.67,2.67,0,0,0-2,2.64c-.4,3.41,1.94,4.49,4.37,5.53.9.38,1.53.83,1.28,1.91a1.09,1.09,0,0,1-1.39.9c-2.8-.67-2.09,1-1.77,2.52,1.31,5.93,2.58,11.87,3.92,17.79,2.25,9.91,4.56,19.8,6.78,29.72.45,2,2.75,2.47,3,1.57.58-2.58,2.79-1.87,4.11-2.56-.26-1.59-1.27-1.93-2.27-2.5-1.79-1-3.92-2.07-4.56-4.07-1.28-4-2.12-8.11-3.1-12.19-.19-.78-.58-2,1-1.65,5.21,1.3,6.87-3.16,9.47-5.89a3.65,3.65,0,0,0-.13-4.83c-1.48-1.57-2.24,1.06-3.64,1.35-2.28.47-.38,1.31.19,2.09.69.94-.12,1.52-.88,1.31a6.07,6.07,0,0,1-4.14-3.92c-.72-2.07,1.47-1.37,2.37-1.89,1.17-.67,2.93-1.23,2-2.9a2.83,2.83,0,0,0-4.41-1.09,14.23,14.23,0,0,0-1.64,1.51c-1.48,1.42-2.51.44-3.32-.74-1.12-1.63.31-1.7,1.37-2.1a5.4,5.4,0,0,0,3.64-3.9c.85-3.7,5-7.06,1.18-11.26-.1-.12,0-.5.09-.7,1.85-3.54.3-7.51,1.37-11.23.35-1.23,1.54-2.17,1.19-3.94-.69-3.48-.85-7.06,1.34-10.38,1.1-1.67.33-2.78-1.89-2.54a5.67,5.67,0,0,0-5.29,4.8c-.33,1.85-1.25,2.59-2.53,2.44a25.7,25.7,0,0,1-7.07-1.8c-1-.42-1.51-1.49-2.74-.53a1.5,1.5,0,0,0-.64,1.9C407.35,368.6,408.85,366.94,409.77,367.94ZM275,353.29c-2.57.95-2.57.95-5.58,5.39C271.93,357.21,274.11,356.09,275,353.29Zm38.64-48.73c2.26,1,4.53,1.67,7.37.32C318.27,303.92,316,303.18,313.67,304.56Zm-18.73,80.15c-2-1.9-3.93-2.12-6.16-3.08C291,384.44,291.26,384.55,294.93,384.71Z" transform="translate(-164.95)"/><path class="cls-2" d="M515.31,246.33c-6.51,5.65-7.74,12.92-7.31,21.15.31,6-.67,12.07-1.21,18.1-.6,6.77-1.32,13.53-2,20.29-1,9.33-2.15,18.64-2.81,28-.41,5.89-1.14,11.74-1.62,17.62-.56,7-1.27,14-2.2,21a193.5,193.5,0,0,0-1.52,20.71A107.18,107.18,0,0,1,489,429.6c-1.87,4.79-1.45,10-2,15a43.28,43.28,0,0,1-3.15,12.53A32,32,0,0,0,481,465.9c-2.34,19-10.46,36-19,52.86-4,8-8.7,15.62-12.56,23.65-3.6,7.5-3.09,12.62,4.83,21.38,8.13,9,15.64,18.52,23.57,27.69,1.46,1.69,1.71,3.62,2.36,5.5h-1.49a5.27,5.27,0,0,0-1.09-4.16c-4.74-5.39-9.19-11.06-14.17-16.22a105.87,105.87,0,0,1-12.39-15.24c-1.07-1.63-3.14-2.75-3.81-4.48A18.25,18.25,0,0,1,449,540.51a309.4,309.4,0,0,0,22.21-43.71c4.08-10.15,7.82-20.33,8.88-31.32.22-2.24-.13-3.22-2.71-2.74-3,.57-6,1.7-9.14,1.56-2.89-.13-4,.48-2.11,3.45,1.51,2.36,2.68,4.79.27,7.7-1.38,1.66-1.3,3.91,1,5.79,3.25,2.62,3,5.66.6,9.1-1.75,2.47-5.17,3.89-5.88,6.47-1,3.76-2.84,5.7-6.37,6.75-1.07.32-1.87,1.57-2.76,2.43-3.85,3.71-7.45,2.86-9.19-2.22-.82-2.41-2.06-3.9-4.92-3.14-1,.27-2.61.45-2.94-.82-.6-2.31-3-2.83-4-4.72-.3-.59-.91-1.37-1.78-1s-.69,1.26-.6,2c.17,1.3,1.62,2.93-1.13,3.35-.28,0-.41,1.56-.48,2.41-.59,7.16-1.2,14.34-.65,21.52.3,3.94-1,7.22-2.78,10.55-4.81,8.88-6.3,18.17-2.89,27.93A171.13,171.13,0,0,0,438.53,597h-2.24c0-4-3-6.7-4.7-10-4.92-9.61-9.7-19.29-12-29.9a32.28,32.28,0,0,1,3.83-23.26,19.64,19.64,0,0,0,3-10.83,144.2,144.2,0,0,1,7.18-51.14,22.2,22.2,0,0,1,1.08-2.31c.89,3.61-2,7.28.16,11,.2.35-.7,1.58.41,2.07s1.8-.4,2.29-1.29c2.19-3.93,5.18-7.59,4-12.59-.48-2.09,1.15-3.23,2.44-4.46-4.29-2.56-6.12.63-8.29,3-.22-4,1.33-5.67,5.61-4.83,2.67.52,5.53.1,8.56-.18-4.83-.89-4.59-4.19-4.06-7.59a3.46,3.46,0,0,0-.44-2.12c-2.14-4.49-1.57-5.54,3.5-6.56.6-.12,1.19-.29,2.5-.62-4.78-4.48-11.09-2.81-16.41-5.79,5.59-.93,11.14,0,15.8-3.52-2.29-3.36-6-2.89-9.24-3.73-1-.25-2.75.24-2.55-1.33.18-1.4,1.87-.74,2.88-.8,2.81-.16,5.22,1.47,7.91,1.89,1.31.2,2.66.23,4,.34.19-2-1.16-2.4-2.4-3-2.65-1.26-2.85-2.79-.6-4.41.71-.51,1.71-.76,1.27-1.89-.36-.93-1.29-1-2.18-1.12-1.19-.09-2.74.32-3.16-1.25-.37-1.36,1-1.8,1.89-2.41a1.9,1.9,0,0,0,.8-1.17c.43-3.62,2.66-6,5.5-7.88s2-4.13.12-5.79c-2.76-2.37-1.79-5.06-.65-7.28.78-1.53,1.38-2.53.25-3.89-1.6-1.91-.84-2.52,1.27-2.62,1.36-.07,3-.18,3.6-1.47.75-1.66-1.19-2.25-2.06-3.12-1.52-1.53-2.71-2.15-.84-4.9A43.62,43.62,0,0,1,461,374.6c1.45-1.53,2.66-3.22-.48-4.94-2.56-1.4-.63-4,.28-5.45a16.35,16.35,0,0,0,2.24-6.6,4.92,4.92,0,0,0-4.39-5.72,14.2,14.2,0,0,0-3-.22c-4.91.35-8-3.05-11.51-5.56a9.67,9.67,0,0,0-4.66-2.11,101.25,101.25,0,0,0-14.75-.59c-3.27.21-5.51,3.16-7.52,5.54a30.86,30.86,0,0,0-5.31,7.89c-.7,1.69-1.74,3.38-4.06,3.13a4.51,4.51,0,0,1-4.26-3.92c-.51-2.29-1.29-4.53-1.7-6.84-.31-1.76-1.22-2.29-2.83-2.08,4.2-3.42,4.19-3.42,1.8-9.54a7.62,7.62,0,0,1-.46-1.79c-.13-1-.58-1.54-1.71-1.41-2.8.31-4.55,3.53-7.73,2.76-.21,3-3,2.86-4.79,3.93-.9.54-2.27-.16-3,1,.56,1.45,1.88,1.75,3.12,2.29,2,.88,3.59-.26,5.3-.86,1.11-.39,2.4-.71,2.95.55s-.91,1.44-1.69,1.89c-1.38.79-2.84,1.51-4.16,2.31-2.94,1.77-6.29,3-8.64,5.66-.4.45-1,.91-.67,1.61a.85.85,0,0,0,1.24.41c4.39-2.3,10.24-1.37,13.53-6.16a2.94,2.94,0,0,1,3.06-.91c-6.55,8.33-15.38,14.3-22.61,21.92-5.27,5.54-11.32,10.28-16.59,15.75C345.68,399.39,332.17,411,320,424c-3.45,3.67-3.71,3.5-6.23-.81a55.83,55.83,0,0,0-3.93-5.41c-.83-1.1-1.85-1.67-3.17-.68-.14-2-1.43-3.06-3.09-4.1-2.75-1.71-6-2.71-8.18-5.25,4-.56,5.54-4.45,8.22-6.71,1.93-1.63,4.07-1.16,6.32-2.49-1.59-1.29-3-2.4-4.35-3.56-.73-.62-1.9-1.28-1.42-2.34s1.71-.47,2.62-.23a27.67,27.67,0,0,0,9.19.76c2.49-.18,4.48-2.79,7.3-1.41.47.23,1-.33.87-.88-.49-2.76,1.77-1.83,2.92-2.07,1.64-.35,3.53.06,4.45-2.47-7.68.56-15.19-.16-22.72-.52-3.4-.16-6.55-1.1-8.62-3.63-3.87-4.73-9.34-4.44-14.46-5.39-.5-.09-1-.11-1.15.56a1.07,1.07,0,0,0,.66,1.19,3.87,3.87,0,0,1,2.53,2.9c-5.47-3.78-10.7-6.89-14.76-11.71,8.94,3.67,18.38,2.11,27.54,2.7,10.86.71,21.82,0,32.74-.17a2.52,2.52,0,0,0,2.54-1.24c-21.49-1.83-43,1.45-63.92-4.89.93-2.14,2.77-2.23,4.34-2.31,8.7-.41,16.93-3.48,25.56-4.43,4.28-.47,8.47-2.28,12.88-2.84,2.64-.33,4.66-2.65,6.82-3.94,4.17-2.49,9.1-4.28,12.3-8.36,1.53-2,3.88-1.21,5.9-1.59.87-.16,2.29.1,2.28-1.31,0-1.21-1.24-1.5-2.18-1.66-2.83-.46-5.79-.9-8.5,0-5.48,1.9-10.9.78-16.16-.28s-10.13-3-15.38-4.18c3.39-1.66,7.12-1.27,10.66-1.54,8.93-.69,17.65-2.64,26.44-4.14,2.1-.36,4.57-.79,5.77-3,2.32-4.2.77-7-4-7.77-3.74-.59-7.67.43-11.26-1.44-1-.5-2.52-.77-2-2.13s1.89-.52,2.95-.4c2,.23,5,1.65,5.49-.7.38-1.86-2.77-3-5-3.49-.65-.15-1.52.25-2-.91,2-.83,3.85.11,5.66.54a11.05,11.05,0,0,1,2.65,1.3c1.4.78,2.9,2,4.4.67,1.87-1.67-.92-2.66-1-4.1,1.1-1.16,3.4,1.1,4-1.57.43-2,2.63-1.46,4.22-2.37-2-2.25-4.87-2.24-7.1-3.53-1.14-.66-3.27-.72-3.06-2.23s2.37-1.19,3.7-1.57c2.53-.72,5.42.32,7.67-2a3.92,3.92,0,0,0,1.36-4.16c-.62-2.87-1.56-6.07,2-8a1.85,1.85,0,0,0,.74-2,4.87,4.87,0,0,1-.21-1.47c.51-2.41,1.52-4.79,1.56-7.19,0-2.64-4.09-2-4.6-4.71,5.23,1,7.27-.09,8.43-4.12.39-1.33.21-1.9-1.15-2.53-4.06-1.87-8.57-.83-12.22,3.09l-1-.05q3-4.26,5.93-8.52c1.09-1.56,2.62-1,4.08-.82,4.15.53,5.22-.86,5.1-5-.09-3.19,1.8-6,3.06-9,1.36-3.17,3.4-5.15,7-5.09,1.48.81,2.8-1,4.28-.26,5.86,2.82,12.12,4.87,17.27,9-3-1-3.79,1.79-4.83,3.39-1.15,1.78.55,3.2,1.87,4.35a31.41,31.41,0,0,1,3.44,2.79c.56.66,1.4,2.67-.55,2.32-3.6-.64-4.66,2.19-6.57,3.89-2.46,2.19-1.79,4.45.26,6.38a17,17,0,0,0,4.31,2.86c5,2.37,10.27,4.12,14.35,8.18,1.07,1.06,2.2,1.92,1.41,3.29-.7,1.21-2.21.93-3.36.37q-4-1.95-7.87-4.08c-3.45-1.89-10.58-.29-12.08,2.87-1.71,3.59-2.41,7.58-1,11.21,1.45,3.84-.91,5-3.26,6.21a11,11,0,0,0-2.87,1.55c-1.85,1.82-1.45,3.74,1.09,4.28,3.74.81,7.35,2.11,11.21,2.54a18.49,18.49,0,0,1,7.81,2.51,3.52,3.52,0,0,1-2.15,1.78c-5,2.2-10,.68-15,.25-2.26-.2-4.79-1.17-7.16,1.16,6.18,3,12.35,3.31,18.55,3,2.94-.14,6,1.25,7.13,2.79,1.56,2.19,3.38,2.87,5.43,3.89,6.21,3.09,13,4.43,19.48,6.58,12.24,4,24.83,5.71,37.49,7.27a33,33,0,0,0,3.34.12c1.61,0,2.45-1,3.07-2.3a2.41,2.41,0,0,0-.41-2.78c-1.32-1.48-2.15.14-3.16.58-2,.89-3.59.46-4.7-1.54a9.41,9.41,0,0,1-1.38-4.94c2.17-.58,4.46-1.36,6.51,0,2.36,1.53,4.84,1.62,7.48,1.58a43.86,43.86,0,0,0,17.48-3.94c3.69-1.64,5.79-3.55,6.91-7.49.74-2.61,1.16-5.21,1.77-7.8.44-1.89.54-3.63-1.08-4a3.5,3.5,0,0,0-3.82,2.76c-.58,2.41-1.22,4.8-1.63,7.24a14,14,0,0,1-3.49,6.88,3,3,0,0,1-4.37.34c-1.34-1.07-.79-2.47.05-3.67.71-1,1.29-2.39,2.28-2.9,4.84-2.45,3.14-7,3.5-10.74.13-1.35.76-3.36-1.34-4.21,1.7-4.56,3,.12,4.47.27,2.2.23,3.3-3.7,5.9-1.4.67.6,1.28,1.83,2.37.5.72-.87,1.44-1.74.88-3a6.61,6.61,0,0,0-.77-1.68c-1.18-1.36.11-4.63-2.2-4.42-1.93.17-.73,3-1.11,4.57-.21.86-.29,1.8-1.42,1.85-.87,0-1.33-.61-1.56-1.35a10.34,10.34,0,0,1-.51-6.16c.55-2,3.18-4.51-.74-6.08-.16-.06-.18-1,0-1.31,2.5-4.55-.19-8.5-3.28-10.13-3.76-2-2.41-4-1.52-6,1.06-2.35.88-4.83,1.67-7.17a48.35,48.35,0,0,1,6.86-12.49,124.35,124.35,0,0,0,13.21-23.21c2.3-5.39,6.24-9.78,8.28-15.23,4.39-11.71,9.27-23.19,17-33.15,2.64-3.4,5.65-6.46,7.18-10.63.73-2,.69-3.91-.83-5.07-1.8-1.36-3.47.08-4.9,1.35-2.11,1.88-3.4,4.58-6,6a39.51,39.51,0,0,1,3.76-9.13c.36-.72.82-1,.07-1.76-3.5-3.57,0-8.25-1.79-12.13-.11-.24.49-.8.74-1.23,4-7,6.55-14.42,6.44-22.59,0-.87-.38-2,.36-2.45,3.86-2.34,2.56-7.84,6.38-10.15a.52.52,0,0,0,.09-.91c-3.2-2.52.6-2.14,1.18-2.36,9.07-3.43,18.08-2.19,27.06.58,1.2.37,1.66,1,1.45,2.13-1.7,9.25-3.91,18.35-7.94,26.92-.58,1.23-1.41,1.61-2.26.74-2.27-2.33-3.81-.67-5.76.55-1.74,1.09-1.92,3.25-3.43,4.27-4.47,3-4.26,8.34-5.73,12.61-1.12,3.27-3,6.82-2.19,10.7a1.53,1.53,0,0,1-.64,1.25c-4,2.3-5.35,6.73-7.91,10.09-2,2.67-4.3,5.6-5.2,9.42s0,7.28.14,10.87c.12,2.72,1.1,5.56-3.48,4.4a1.36,1.36,0,0,0-1.54.81c-.36.82.25,1.08.87,1.26s1.68.13,1.74,1.07c.07,1.2-1.15,1-1.86,1.41-2.19,1.17-3.91,2.27-4.3,5.38-.28,2.26-.89,4.17.35,6.29A2.45,2.45,0,0,1,523,216c-2.55,2.62-2,7.4-6.15,8.89-.35.13-.45.86-.75,1.24-2.64,3.29-2.4,7.2-3,11.09S514.08,243.42,515.31,246.33ZM344.62,397.26c-2.74,1.77-6.17,2.32-8.51,4.82-.65.69-2.78.33-2,1.86s2.54,1,3.61.24c2.65-1.93,5.67-3.57,6.95-6.91Zm-15.78,15.38c-.6-.87-.85-2.32-2.34-2.33-.62,0-1.2.81-1.86,1.08-3.19,1.27-3.85,5.42-7.35,6.36-2.39.64-5.33,1.17-2.38,4.64.07.08,0,.24.06.36,1,3.2,1.64,3.38,4.16,1s5.09-5,7.64-7.46A6.77,6.77,0,0,0,328.84,412.64Zm169.3-129.27c.36,1-.17,2.35,1,3,1.33.71,1.87-.77,2.76-1.28,2.64-1.51,2.12-4.24,2.52-6.57a2.16,2.16,0,0,0-1.25-2.13c-1.12-.59-2,.22-2.59.9A10,10,0,0,0,498.14,283.37Zm7.33,8.83c-.43-1.43-.18-3.55-2.13-3.41-2.16.16-1.53,2.22-1.22,3.53a4.76,4.76,0,0,1-.63,3.8,20.82,20.82,0,0,0-1.7,4.45c-.23.78-.44,1.81.61,2.24.82.34,1.31-.45,1.88-.87C505.7,299.43,504.41,295.41,505.47,292.2ZM487.49,432c2.41-7,5-13.16,5.77-20.49C489,418.65,486.14,428.37,487.49,432ZM382.31,321.47c-3.43,0-6,0-8.52,0-.78,0-2-.22-1.89,1.12.06,1.06,1,1.39,1.91,1.34A20.74,20.74,0,0,0,382.31,321.47Z" transform="translate(-164.95)"/><path class="cls-3" d="M438.53,597a171.13,171.13,0,0,1-16.85-35.14c-3.41-9.75-1.91-19,2.89-27.93,1.8-3.33,3.09-6.61,2.78-10.55-.55-7.18.06-14.36.65-21.52.07-.85.2-2.37.48-2.41,2.74-.43,1.3-2.05,1.13-3.35-.09-.71-.21-1.61.6-2s1.48.4,1.78,1c1,1.89,3.39,2.42,4,4.72.33,1.27,1.9,1.09,2.94.82,2.86-.75,4.1.74,4.92,3.14,1.74,5.08,5.35,5.93,9.19,2.22.89-.86,1.69-2.11,2.76-2.43,3.53-1.05,5.34-3,6.37-6.75.71-2.58,4.13-4,5.88-6.47,2.44-3.44,2.64-6.48-.6-9.1-2.32-1.87-2.4-4.12-1-5.79,2.42-2.92,1.24-5.34-.27-7.7-1.9-3-.77-3.58,2.11-3.45,3.15.15,6.11-1,9.14-1.56,2.59-.48,2.93.5,2.71,2.74-1.06,11-4.8,21.17-8.88,31.32A309.4,309.4,0,0,1,449,540.51a18.25,18.25,0,0,0-1.71,16.37c.67,1.72,2.74,2.85,3.81,4.48a105.87,105.87,0,0,0,12.39,15.24c5,5.16,9.43,10.83,14.17,16.22a5.27,5.27,0,0,1,1.09,4.16Z" transform="translate(-164.95)"/><path class="cls-3" d="M389.5,244.26c-5.15-4.18-11.41-6.23-17.27-9-1.48-.71-2.8,1.07-4.28.26-.56-3.87,1.17-6.73,4-9.09.86-.09,1.79-.11,1.66-1.39l.84-3.1c1.7-3,4.14-5.68,4.82-9.25l.89-1.12a.77.77,0,0,0,.73-1l.73-.73a1.57,1.57,0,0,0,.68-1.64l4.66-9.4c3.59-4.76,5.69-10.39,8.91-15.38.73-1.14.81-2.84,3.12-1.07a4.61,4.61,0,0,0,6-1.64c2-3.45,5.25-3.41,8.43-2.15a6.37,6.37,0,0,0,4.68,0,67.85,67.85,0,0,1,10.34-2.83c1.18-.23,2.11-.61,2-2.29a38,38,0,0,1-5.06,1c-2.17.14-4.87.69-5.85-2-.67-1.81-1.17-3-3.32-3-1,0-1.49-1.18-1.79-2.17a8.7,8.7,0,0,1,.18-6.52c.42-.86,1.24-2-.28-2.37-1.24-.33-1.71.87-1.77,1.88-.1,1.86.08,3.73-.06,5.58-.12,1.53,1.94,4-.62,4.39-2.33.33-2-2.88-2.94-4.48-.29-.51.08-1.44.24-2.16a6,6,0,0,0-.68-4.66l3.05-5.78.77-1.34.57-.86c1.7-2.55,3.33-5.16,5.14-7.63,2.29-3.14,4.37-6.31,4.31-10.41a2.16,2.16,0,0,1,2.19-2.47c2.19-.11,2.6-1.37,2.44-3.27-.38-4.56,2.26-7,6.14-8.57.94-.37,2.15-.43,2.7-2.81-3.52,2.84-7.42,1.07-10.52,3.12-4.41-.21-6.25,2.26-8.15,6.08a466,466,0,0,1-22.92,40.66c-8,12.68-21.09,18.62-32.69,26.61-1-.14-1.79.05-1.94,1.24l-.75.45c-.82-.17-1.38.07-1.55,1l-.82.4c-1.17-.41-3-1.08-1.47-2.37,2.85-2.37,4.62-5.7,7.63-7.88,1.8-1.3,4-2.58,4.92-4.42,1.57-3.23,4.44-4.8,6.87-7,3.62-3.23,8.29-4.67,11.8-8.49a38.91,38.91,0,0,0,9.51-19c.72-3.39-.06-7.43,4.32-9.15a2.1,2.1,0,0,0,.9-2.62,1.9,1.9,0,0,1,.8-2.27,4.43,4.43,0,0,0,1.55-5.66c-1.86-4.68.28-8.34,2.38-12.06,2.52-4.45,1.91-8.32-2.15-11.38-2.24-1.69-1.86-2.6.58-3.38,1.21-.38,2.55-.88,1.8-2.57-2-4.47-2.44-9.62-5.94-13.42a9.56,9.56,0,0,1-1.76-4.05c-.4-1.37-.66-1.94,1.4-2.75,2.28-.9,3.35-4.37,6.66-4.26a1.67,1.67,0,0,0,.16-.69c.05-4,3.29-5.1,6.11-6,2-.66,2.52-1.65,3.09-3.49,1.91-6.17,3.67-12.43,6.83-18.14,2.07-.23,3.6-2.32,5.9-1.74a7.48,7.48,0,0,1-1.84,4c-6.24,5.73-5.85,13.41-6.13,20.86-.14,3.78.76,7.62-1.33,11.19-.54.92-2.53,1.71-1.16,3,1,.9,2.83.67,3.89-.06,3-2.09,6.57-3.28,9.44-5.81,3.18-2.81,4.89-6.94,8.67-9.1.74-.42,1.46-1.16,2.37-.6s.74,1.53.42,2.34c-1.81,4.72-2.95,9.72-6,13.92-.67.92-2.36,2.06-1,3s2.24-.84,3-1.93c4.1-5.54,5.64-12.13,6.82-18.64.53-3,2.77-5,2.88-7.85A45.85,45.85,0,0,1,451.85,42c.88-2.28.91-5,2.75-6.82.84-.84,1.15-3.21,2.75-2.18,1.31.84-.3,2.27-.94,3.15a7.62,7.62,0,0,0-1,7.37c1.19,2.75.26,5.09.2,7.61,0,1.65-1.71,2.56-1.86,4-.7,6.66-4.74,12-7.12,17.92-.45,1.12-2.33,2.23-.43,3.4,1.39.85,2.41-.26,3.41-1.37,3.73-4.11,7.3-8.43,12.44-11a5,5,0,0,0,2.07-1.53c3.68-5.85,8.09-11.26,11-17.55.91-1.95,1.87-4.13,1.35-6.82-.72.47-1.14.7-1.51,1-2.66,2.09-5.29,4.24-8,6.27-.64.48-1.64,1-2.4.31s.15-1.55.52-2.25c.84-1.57,2.28-2.59,3.55-3.77,2.77-2.57,3.28-6.65,1.21-9a2.24,2.24,0,0,1-.27-.35c-.55-2-1.09-4.06-1.66-6.08a5.19,5.19,0,0,1,4-6.53,157.27,157.27,0,0,1,25.79-2.26c6.3,0,12.56-.21,18.61-2.23a11.87,11.87,0,0,1,10.92,1.45,31.88,31.88,0,0,1,6.46,3.37,15.36,15.36,0,0,0,8.8,3.14,2.24,2.24,0,0,0,2.9-.11l3.71,0a.9.9,0,0,0,1.49.21l5.27.52a1.68,1.68,0,0,0,2.29.35l2.92.53c2.59,1.36,5.47,1.77,8.28,2.4l.58.57a2.23,2.23,0,0,0,2.41,2.45,5.83,5.83,0,0,1,2.8,2.77,1.4,1.4,0,0,0,1.17,1.84l1,1.37c-.16,1.08.59,1.85,1,2.74a105.05,105.05,0,0,1,9.09,35.44c.31,4.56.35,9.29,1.62,13.61,2.47,8.39-.54,14.24-9.23,15.66-3,.49-4.47,2-5,4.62-2.88,13.29-8.32,25.69-13.2,38.28-1,2.65-1.64,6.18-3.64,7.57-3.49,2.44-4.17,6-5.65,9.25-3.18,7.11-6.49,14.18-7.69,22l-4.1,9.87a2.88,2.88,0,0,0-1.24,2.77l-1.82,4a1.9,1.9,0,0,0-1.12,2.71l-.86,1.65c-1.18,1.47-2.43,2.92-2.16,5a62.41,62.41,0,0,1-4.48,9.87c-.75.26-.88.78-.63,1.47l-1,2.22a.86.86,0,0,0-.56,1.34l-1.27,2.54-.27.09v.29l-.89,1.75a8.24,8.24,0,0,0-2.26,5.34l-.68,1.42c-.45.28-.81.62-.59,1.23l-.48,1.09-.28.15,0,.31-1.05,3.32c-2.46.42-3.23,2.07-3.15,4.33a.7.7,0,0,1-.38.27c-1.24-2.9-2.93-5.32-2.3-9.14s.4-7.8,3-11.09c.31-.38.4-1.12.75-1.24,4.19-1.49,3.6-6.27,6.15-8.89a2.45,2.45,0,0,0,.22-2.84c-1.23-2.11-.63-4-.35-6.29.39-3.11,2.11-4.21,4.3-5.38.71-.38,1.93-.2,1.86-1.41-.06-.94-1-.87-1.74-1.07s-1.24-.44-.87-1.26a1.36,1.36,0,0,1,1.54-.81c4.58,1.16,3.6-1.68,3.48-4.4-.16-3.59-1-7-.14-10.87s3.17-6.75,5.2-9.42c2.56-3.36,4-7.79,7.91-10.09a1.53,1.53,0,0,0,.64-1.25c-.82-3.87,1.06-7.42,2.19-10.7,1.47-4.26,1.26-9.57,5.73-12.61,1.51-1,1.68-3.18,3.43-4.27,1.95-1.22,3.49-2.87,5.76-.55.85.87,1.68.48,2.26-.74,4-8.57,6.24-17.67,7.94-26.92.21-1.17-.25-1.76-1.45-2.13-9-2.77-18-4-27.06-.58-.58.22-4.38-.16-1.18,2.36a.52.52,0,0,1-.09.91c-3.81,2.31-2.52,7.81-6.38,10.15-.73.44-.37,1.58-.36,2.45.11,8.16-2.43,15.59-6.44,22.59-.24.43-.85,1-.74,1.23,1.83,3.88-1.72,8.56,1.79,12.13.75.76.3,1-.07,1.76a39.48,39.48,0,0,0-3.76,9.13l-.21.19c-1,.16-1.54.69-1.39,1.76-3,3.79-6.27,7.37-8.89,11.4A119.25,119.25,0,0,0,503.64,205c-5.89,17.14-12.82,33.78-22.32,49.27-.71,1.16-1.15,2.51-2.95,2.3-6.13-.73-12.08.84-18.11,1.46-4.2-.58-9,1.85-12.53-2.36-.24-.28-1.18.13-1.77.05-3.78-.51-7.59-.88-11.31-1.68-1.71-.36-3-2.55-5-1.81-2.61,1-4.8.08-7.13-.76-1.13-.41-2.58-1.57-3.39.54-2.14-.38-4.07-.17-5.27,2-2-1.63-4.47-2.3-6.66-3.58-5.25-3.08-10.44-7-17.21-5.87A2.75,2.75,0,0,1,389.5,244.26Zm25.92-161.5c-.13.16-.66-.13-.46.41l.49-.37.15-.17Zm64.65,27.54a16.94,16.94,0,0,0,2.16-.2c4.67-1,8.84-2.35,12.94-5.6,5.33-4.22,10.5-8.7,16-12.7.78-.56,2.07-.9,1-2.15-.78-.9-1.77-.69-2.61.11-.63.6-1.33,1.13-1.9,1.77-3.33,3.74-8.08,5.39-12.06,8.16A25.79,25.79,0,0,1,482,104.13a17,17,0,0,0-8.66,3.07,7.57,7.57,0,0,1-4.41,1.72c-.91,0-2.37,0-2.15,1.36s1.66.87,2.53.74C472.89,110.53,476.39,109.64,480.07,110.31ZM462,75.47c-5.91,5.41-14.69,6.45-20.16,13,5.38-2.67,11.71-1.7,16.9-5.28,2.86-2,6.63-2.59,3.86-7.23C462.49,75.86,462.37,75.8,462,75.47Zm-31.74,53c3.07-.19,4.78,1.95,6.92,3.32,1.95,1.25,4.57,1.8,5.86-.46,1.61-2.81-1.9-3.37-3.14-3.7C436.78,126.83,433.29,124.31,430.22,128.49Zm-.51,11.86a36.64,36.64,0,0,0,4.73-1.55,2.7,2.7,0,0,0,1.22-2.11c0-1.14-1.24-.89-2.05-1-1.71-.13-3.44-.12-5.13-.37-2-.29-4.65-1.41-5,1.72-.23,2.39,2.43,2.55,4.24,3A14.56,14.56,0,0,0,429.7,140.36ZM559.64,44.53c.95-1.09,3.35-1.71,1-3.69-1.38-1.17-.26-2.15.46-3.13.44-.61,1.56-1,.75-2.24-2.44.14-3.77,2.2-4.93,3.73-1.48,2,1.68,1.66,2.13,2.84A17.35,17.35,0,0,1,559.64,44.53ZM552.84,56c1-2.5,3-4.19,4.25-6.41.51-.92.68-1.94-.27-2.66a1.27,1.27,0,0,0-2.08.68C553.89,50.32,552.09,52.81,552.84,56ZM429.08,97.33c-3.85.39-5.05,3.81-8,4.14-.85.09-2,.35-1.39,1.55.43.9,1.59.8,2.32.42C424.64,102.07,426.46,99.84,429.08,97.33Zm-7.6,54.12c.26-1.7,2.23-3.47-.16-4.89-.75-.45-2-.71-2.32.13C418.06,149,420.23,150,421.49,151.45Z" transform="translate(-164.95)"/><path class="cls-3" d="M295.36,407.76c2.21,2.55,5.43,3.54,8.18,5.25,1.66,1,2.95,2.06,3.09,4.1l-.27,2.8a.6.6,0,0,0-.35.94l-.4,2.7a.67.67,0,0,0-.41,1l-.34,1.93a.7.7,0,0,0-.4,1.07l-.36,2.65a.74.74,0,0,0-.41,1.09l-.34,1.88a.74.74,0,0,0-.41,1.09l-.33,2.64a.74.74,0,0,0-.43,1.07l-.35,1.9a.72.72,0,0,0-.43,1.06l-.3,2.67a.75.75,0,0,0-.45,1.08l-.32,1.88a.75.75,0,0,0-.42,1.1l-.32,2.64a.73.73,0,0,0-.45,1.07l-.28,2.66a.75.75,0,0,0-.43,1.09l-.31,1.9a.75.75,0,0,0-.41,1.1l-.19,1.91c-.82,1.91-2.13,3.76-2.37,5.74-1,8.3-3.46,16.28-5,24.46A333.22,333.22,0,0,1,282,523.11a93.52,93.52,0,0,0-3.69,32.63c.35,5.61.75,11-.53,16.52a.85.85,0,0,1-.34.41,1.93,1.93,0,0,0-2,1.74,18.48,18.48,0,0,1-9.55,2.74c-13.13.52-26.26,1.26-39.39,1.85-9.62.43-19.17,2.25-28.75,3.49-7.49,1-15,1.86-22.54,1.08a18.38,18.38,0,0,1-4-.84c-3.7-1.25-4.33-4.66-1.23-7.09a69,69,0,0,1,24.55-12.83c2-.55,4-1.31,6-2a2.75,2.75,0,0,0,2.19-.93l2.52-1.21c8.46-1.15,15.27-6,22.41-10.08,1.3-.74,3-1.34,3.46-3.14l1.07-1c1.79-.12,2.72-1.3,3.38-2.79l2.24-2.26a9.13,9.13,0,0,0,1.77-1.24c7-7.93,11.4-17.06,12.31-27.68.2-2.29.67-3.3,3.12-2.07,1.56.78,3.43,1.2,4.88-.16s.4-10.61-1.47-11.59-2.66-1.28-.73-3.26c1.75-1.78,2-5.39.62-6.66-2.89-2.74-2.51-5.28-1.46-8.34a8,8,0,0,0,.45-2.53c0-5.3-.86-10.57,0-15.93.44-2.87,0-5.66,4.79-5.28-1.16-1-1.74-1.47-2.24-2-1.91-2-2.43-6.39-.57-6.95,4.63-1.39,4.53-5.36,5.67-8.72a5,5,0,0,1,2.33-2.78,1.81,1.81,0,0,1,2.09.19c.63.46,1.39,1.39.9,1.81-2.61,2.22-1.09,5.19-1.31,7.67-.52,5.7-1.49,11.49-.07,17.24.43,1.73,1.92,2.14,3.18,2.83a1.34,1.34,0,0,0,1.26-.39c.59-1.26-.57-2-1-3A3.55,3.55,0,0,0,272,460c-1.59-2,.56-3.4.92-5.08a1.24,1.24,0,0,1,1.56-.7c1.81.51,1.8,2.21,2.17,3.59.26.94.08,2,.31,3a4.12,4.12,0,0,0,4.17,3.53c1.65,0,3-.41,1.47-2.35-1.33-1.72-1-2.61,1.12-3a4.05,4.05,0,0,0,2-.89,3.13,3.13,0,0,0-.12-4.41c-1.46-1.68-1.64.58-2.16,1.21-1.31,1.6-2.5,1.37-3.69,0a5.49,5.49,0,0,1-1.38-4.14c.2-2.49,1.05-4.81.52-7.53-.36-1.84,1.63-3.68,4.12-2.66,1.5.61,2.47.28,3.05-1,.68-1.53,1.05-3.67-.62-4.33-3.22-1.27-2.38-2.91-1.43-5.19.59-1.41,1.11-3.63.42-4.65a4.74,4.74,0,0,1-.1-5.77c2.92-4.24,1.2-8.46.51-12.76-.44-2.72-1.26-4.51-4.53-4.62-2.43-.08-4.83-1-7.25-1.53-2.61-.59-6.5,1.2-7.34,3.62-.48,1.37-.8,2.95-2.56,2.41s-1.08-2.24-.8-3.52a40.34,40.34,0,0,0,.43-17,2.9,2.9,0,0,1,.73-3.08C274.37,391,284.23,400.19,295.36,407.76Z" transform="translate(-164.95)"/><path class="cls-2" d="M422.47,44.3c-3.16,5.71-4.92,12-6.83,18.14-.57,1.83-1.05,2.82-3.09,3.49-2.82.92-6.06,2-6.11,6a1.67,1.67,0,0,1-.16.69c-3.3-.11-4.38,3.37-6.66,4.26-2.06.81-1.8,1.38-1.4,2.75A9.56,9.56,0,0,0,400,83.7c3.5,3.8,4,8.95,5.94,13.42.75,1.7-.59,2.19-1.8,2.57-2.44.78-2.82,1.7-.58,3.38,4.06,3.06,4.66,6.93,2.15,11.38-2.11,3.72-4.24,7.38-2.38,12.06a4.43,4.43,0,0,1-1.55,5.66,1.9,1.9,0,0,0-.8,2.27,2.1,2.1,0,0,1-.9,2.62c-4.39,1.73-3.6,5.77-4.32,9.15a38.91,38.91,0,0,1-9.51,19c-3.52,3.82-8.19,5.27-11.8,8.49-2.43,2.17-5.3,3.74-6.87,7-.89,1.84-3.12,3.12-4.92,4.42-3,2.18-4.78,5.51-7.63,7.88-1.54,1.28.3,2,1.47,2.37-5.41,4.08-11.78,6.24-18,8.57-10.22,3.84-20.93,6.11-31.44,9a28.08,28.08,0,0,0-7.63,3.78c-8.9,5.71-18.52,5.56-28.33,3.85-2.93-.51-5.23-.83-6.54,2.7a2.63,2.63,0,0,1-4.55,1.07c-2.29-2.09-4.36-4.43-5.12-7.59-.2-.85-.46-1.77.23-2.48,2.55-2.65,1-3.27-1.65-3.92-4.07-1-8-2.38-12.05-3.65-.92-.29-2.11-.54-2.29-1.67-.22-1.4,1.09-1.42,2-1.71,1.23-.4,2-1.27,1.69-2.51-.71-2.9,1.11-2.65,2.95-2.65s3.54.06,4.08-2.27c.35-1.53,1.66-1.56,3-1.65,3.27-.23,6.4.65,9.6,1,4.2.48,8.28.48,12-2.09,1.42-1,3.13-.39,4.25.31,2.72,1.7,5,1,7.11-.78,2.84-2.37,5.46-1.43,8.08.22,2.4,1.52,4.68,3.1,7.6,3.76,2.26.52,2.85,3.26,4.36,4.87s2.32,2.41,3.62-.16a10.86,10.86,0,0,1,9.88-6.38,15.19,15.19,0,0,0,8.36-3.47c3.21-2.43,7.23-3.73,10.94-5.24,5-2,9.68-4.63,14.45-7.07,3.53-1.81,7.74-2.8,10.63-5.11,5.14-4.1,11.86-4,17-7.92,7.19-5.5,11-12.8,9.95-21.47-.85-6.74,2-11.8,4.57-17.11,2.9-6.08,6.67-11.74,10-17.63a2.51,2.51,0,0,0,.34-2.76c-2.63-4.67-10.88-6.65-15.32-3.57h0c3.44-15,6.43-30.12,14.09-43.73,3.82-6.79,8.43-12.82,16.21-15.53C421.1,44.14,421.75,43.8,422.47,44.3Z" transform="translate(-164.95)"/><path class="cls-2" d="M527.29,14.73a11.87,11.87,0,0,0-10.92-1.45c-6,2-12.31,2.22-18.61,2.23A157.27,157.27,0,0,0,472,17.77a5.19,5.19,0,0,0-4,6.53c.57,2,1.1,4.05,1.66,6.08a7.22,7.22,0,0,0-6.84-2.57c-.82.08-2-1.33-2.41.28s1.13,1.47,2.06,2c1.38.72,3.28-.93,4.33,1.13,1.38,2.72,2.3,1.23,3.13-.44,2.07,2.39,1.56,6.47-1.21,9-1.27,1.18-2.72,2.2-3.55,3.77-.37.7-1.43,1.39-.52,2.25s1.76.17,2.4-.31c2.71-2,5.33-4.17,8-6.27.37-.29.79-.52,1.51-1,.52,2.69-.43,4.87-1.35,6.82-2.94,6.29-7.36,11.69-11,17.55a5,5,0,0,1-2.07,1.53c-5.15,2.52-8.71,6.84-12.44,11-1,1.11-2,2.22-3.41,1.37-1.9-1.17,0-2.28.43-3.4,2.38-6,6.42-11.26,7.12-17.92.15-1.41,1.82-2.31,1.86-4,.06-2.52,1-4.86-.2-7.61a7.62,7.62,0,0,1,1-7.37c.63-.88,2.25-2.31.94-3.15-1.6-1-1.9,1.34-2.75,2.18-1.83,1.83-1.86,4.54-2.75,6.82a45.85,45.85,0,0,0-3.38,14.87c-.11,2.82-2.34,4.89-2.88,7.85-1.18,6.51-2.72,13.1-6.82,18.64-.81,1.09-1.7,2.87-3,1.93s.34-2.08,1-3c3-4.2,4.17-9.2,6-13.92.31-.81.5-1.77-.42-2.34s-1.63.18-2.37.6c-3.78,2.16-5.49,6.29-8.67,9.1-2.88,2.54-6.4,3.72-9.44,5.81-1.05.72-2.93,1-3.89.06-1.36-1.28.63-2.07,1.16-3,2.09-3.58,1.19-7.42,1.33-11.19.28-7.44-.11-15.13,6.13-20.86a7.48,7.48,0,0,0,1.84-4c6.27-2.53,13-3.93,18.92-7.34,1.62-.93,3.35-1.73,4.28-3.36,2.67-4.67,7-7.18,11.66-9.27,4.47-2,5.31-3.29,4.24-8-.41-1.79.51-2.28,1.8-2.55q21.61-4.53,43.23-9c1.24-.26,2.54-.48,3.39.76C518.94,8.22,523.3,11.27,527.29,14.73Zm-61,10a3.35,3.35,0,0,0-.29,1c0,.12.42.37.51.31a3.07,3.07,0,0,0,.62-.63Z" transform="translate(-164.95)"/><path class="cls-2" d="M263.51,383.06a2.9,2.9,0,0,0-.73,3.08,40.34,40.34,0,0,1-.43,17c-.28,1.28-1,3,.8,3.52s2.08-1,2.56-2.41c.84-2.41,4.73-4.21,7.34-3.62,2.41.54,4.82,1.45,7.25,1.53,3.26.11,4.09,1.9,4.53,4.62.69,4.3,2.41,8.51-.51,12.76a4.74,4.74,0,0,0,.1,5.77c.69,1,.17,3.23-.42,4.65-1,2.28-1.79,3.91,1.43,5.19,1.68.66,1.3,2.81.62,4.33-.58,1.3-1.55,1.63-3.05,1-2.49-1-4.48.82-4.12,2.66.53,2.72-.32,5-.52,7.53a5.49,5.49,0,0,0,1.38,4.14c1.2,1.37,2.38,1.6,3.69,0,.52-.63.7-2.89,2.16-1.21a3.13,3.13,0,0,1,.12,4.41,4.05,4.05,0,0,1-2,.89c-2.1.42-2.45,1.32-1.12,3,1.5,1.94.19,2.38-1.47,2.35a4.12,4.12,0,0,1-4.17-3.53c-.23-1-.05-2-.31-3-.38-1.37-.36-3.08-2.17-3.59a1.24,1.24,0,0,0-1.56.7c-.37,1.68-2.51,3.06-.92,5.08a3.55,3.55,0,0,1,.39.63c.47,1,1.63,1.72,1,3a1.34,1.34,0,0,1-1.26.39c-1.25-.69-2.75-1.1-3.18-2.83-1.42-5.75-.45-11.54.07-17.24.23-2.48-1.3-5.46,1.31-7.67.49-.42-.27-1.35-.9-1.81a1.81,1.81,0,0,0-2.09-.19A5,5,0,0,0,265,437c-1.15,3.36-1,7.33-5.67,8.72-1.86.56-1.34,4.92.57,6.95.49.52,1.08,1,2.24,2-4.77-.38-4.35,2.41-4.79,5.28-.83,5.36,0,10.62,0,15.93a8,8,0,0,1-.45,2.53c-1,3.06-1.43,5.6,1.46,8.34,1.35,1.28,1.13,4.88-.62,6.66-1.93,2-1.05,2.32.73,3.26s3,10.16,1.47,11.59-3.32.93-4.88.16c-2.46-1.22-2.93-.22-3.12,2.07-.91,10.63-5.3,19.75-12.31,27.68a9.13,9.13,0,0,1-1.77,1.24c4.68-5.94,9.07-12,11.45-19.33,1.86-5.71,2.09-11.67,2.8-17.52,1.28-10.54,2-21.14,2.88-31.73.85-10.35,1.5-20.71,2.41-31.05.88-10,2.11-19.91,2.94-29.88.73-8.79,2.55-17.6.44-26.45-.14-.59-.34-1.39.33-1.66C262.3,381.33,262.89,382.31,263.51,383.06Z" transform="translate(-164.95)"/><path class="cls-2" d="M409.77,367.94c-.91-1-2.42.66-3-.95a1.5,1.5,0,0,1,.64-1.9c1.23-1,1.77.11,2.74.53a25.7,25.7,0,0,0,7.07,1.8c1.28.15,2.2-.59,2.53-2.44a5.67,5.67,0,0,1,5.29-4.8c2.22-.24,3,.88,1.89,2.54-2.2,3.32-2,6.9-1.34,10.38.35,1.77-.83,2.71-1.19,3.94-1.07,3.72.48,7.68-1.37,11.23-.11.2-.2.58-.09.7,3.78,4.2-.33,7.56-1.18,11.26a5.4,5.4,0,0,1-3.64,3.9c-1.06.4-2.49.47-1.37,2.1.81,1.18,1.85,2.16,3.32.74a14.23,14.23,0,0,1,1.64-1.51,2.83,2.83,0,0,1,4.41,1.09c.91,1.67-.85,2.23-2,2.9-.9.52-3.08-.18-2.37,1.89a6.07,6.07,0,0,0,4.14,3.92c.76.21,1.57-.37.88-1.31-.57-.78-2.47-1.62-.19-2.09,1.4-.29,2.17-2.91,3.64-1.35a3.65,3.65,0,0,1,.13,4.83c-2.6,2.72-4.26,7.18-9.47,5.89-1.53-.38-1.14.87-1,1.65,1,4.08,1.82,8.21,3.1,12.19.64,2,2.77,3.05,4.56,4.07,1,.57,2,.91,2.27,2.5-1.32.7-3.53,0-4.11,2.56-.2.9-2.51.42-3-1.57-2.22-9.91-4.54-19.81-6.78-29.72-1.34-5.92-2.61-11.86-3.92-17.79-.33-1.49-1-3.2,1.77-2.52a1.09,1.09,0,0,0,1.39-.9c.25-1.08-.39-1.52-1.28-1.91-2.43-1-4.77-2.12-4.37-5.53a2.67,2.67,0,0,1,2-2.64c3.79-1.36,6.64-7.41,5.55-11.35-.37-1.36-1.1-1.55-2.15-.72a2.31,2.31,0,0,0-.62.92c-1.12,2.7-3.08,3.73-5.55,2.05C406,370.57,410.26,369.78,409.77,367.94Z" transform="translate(-164.95)"/><path class="cls-2" d="M544.57,183.25c1.2-7.8,4.51-14.88,7.69-22,1.47-3.29,2.15-6.82,5.65-9.25,2-1.4,2.62-4.92,3.64-7.57,4.88-12.59,10.32-25,13.2-38.28.57-2.65,2.08-4.13,5-4.62,8.69-1.43,11.7-7.28,9.23-15.66-1.27-4.32-1.32-9-1.62-13.61a105.05,105.05,0,0,0-9.09-35.44c-.39-.89-1.14-1.66-1-2.74,3.65,3.7,4.63,8.66,6.1,13.32,3.83,12.1,5.53,24.64,7,37.2.24,2,.84,3.93.74,5.86-.34,6.36-3.84,10.47-10.45,11.71-3.26.61-4.7,2.25-5.37,5.21-3.43,15.22-9.28,29.69-16,43.62C554.31,161.69,549.72,172.6,544.57,183.25Z" transform="translate(-164.95)"/><path class="cls-2" d="M408.48,159a6,6,0,0,1,.68,4.66c-.16.72-.53,1.65-.24,2.16.91,1.6.62,4.81,2.94,4.48,2.56-.36.5-2.86.62-4.39.14-1.85,0-3.72.06-5.58.06-1,.53-2.21,1.77-1.88,1.52.4.69,1.5.28,2.37a8.7,8.7,0,0,0-.18,6.52c.29,1,.75,2.15,1.79,2.17,2.15,0,2.65,1.17,3.32,3,1,2.65,3.67,2.1,5.85,2a38,38,0,0,0,5.06-1c.12,1.68-.81,2.05-2,2.29a67.85,67.85,0,0,0-10.34,2.83,6.37,6.37,0,0,1-4.68,0c-3.18-1.26-6.44-1.3-8.43,2.15a4.61,4.61,0,0,1-6,1.64c-2.3-1.78-2.38-.07-3.12,1.07-3.21,5-5.32,10.61-8.91,15.38,4.16-9.32,9.4-18.07,14.12-27.09.08,2.76-2.55,4.68-2.54,7.52,1.74.29,2.51-1.15,3.76-1.58,4.15-1.43,5.15-6.63,2-10.12C406.56,165.08,406.51,161.56,408.48,159Z" transform="translate(-164.95)"/><path class="cls-3" d="M397.26,348.9a2.94,2.94,0,0,0-3.06.91c-3.3,4.79-9.14,3.86-13.53,6.16a.85.85,0,0,1-1.24-.41c-.29-.7.27-1.15.67-1.61,2.35-2.67,5.7-3.89,8.64-5.66,1.32-.8,2.78-1.52,4.16-2.31.79-.45,2.29-.52,1.69-1.89s-1.84-.94-2.95-.55c-1.71.61-3.28,1.74-5.3.86-1.24-.54-2.56-.83-3.12-2.29.77-1.21,2.14-.51,3-1,1.78-1.06,4.57-.94,4.79-3.93,3.17.77,4.92-2.45,7.73-2.76,1.13-.13,1.57.37,1.71,1.41a7.62,7.62,0,0,0,.46,1.79c2.39,6.12,2.4,6.12-1.8,9.54Z" transform="translate(-164.95)"/><path class="cls-2" d="M277.82,572.26c1.29-5.48.88-10.91.53-16.52A93.52,93.52,0,0,1,282,523.11a333.22,333.22,0,0,0,8.11-32.85c1.55-8.18,4-16.16,5-24.46.23-2,1.55-3.83,2.37-5.74-3.12,14.13-6.15,28.27-9.4,42.36-2.89,12.56-6,25.06-9,37.59-.15.6-.55,1.29-.38,1.8,2.14,6.41.24,13,1,19.47C280.17,565.15,280,568.87,277.82,572.26Z" transform="translate(-164.95)"/><path class="cls-2" d="M425.28,119c3.1-2,7-.28,10.52-3.12-.56,2.38-1.76,2.43-2.7,2.81-3.89,1.54-6.52,4-6.14,8.57.16,1.9-.25,3.16-2.44,3.27a2.16,2.16,0,0,0-2.19,2.47c.06,4.1-2,7.27-4.31,10.41-1.81,2.48-3.43,5.09-5.14,7.63A166.74,166.74,0,0,0,425,122.17C425.37,121.13,426,120.11,425.28,119Z" transform="translate(-164.95)"/><path class="cls-3" d="M435.71,467.24c2.17-2.33,4-5.52,8.29-3-1.29,1.22-2.92,2.37-2.44,4.46,1.14,5-1.85,8.67-4,12.59-.49.88-1.06,1.83-2.29,1.29s-.2-1.72-.41-2.07c-2.15-3.68.73-7.34-.16-11Z" transform="translate(-164.95)"/><path class="cls-3" d="M404.36,167.52c3.1,3.49,2.11,8.7-2,10.12-1.24.43-2,1.87-3.76,1.58,0-2.83,2.61-4.76,2.54-7.52Z" transform="translate(-164.95)"/><path class="cls-2" d="M231.2,545.47c-.46,1.8-2.16,2.4-3.46,3.14-7.14,4.07-14,8.93-22.41,10.08,4.42-2.43,9.44-3.38,13.83-6.07C223.13,550.19,227.31,548.06,231.2,545.47Z" transform="translate(-164.95)"/><path class="cls-3" d="M342.77,263.85l1,.05c-.2,4.36-3.55,6.53-6.34,9.08-.43.39-1.15.84-1.56.16s.3-1.35.69-1.95c.43,0,.59-.26.48-.69l2.56-3.1c1.18-.63,2.37-1.26,2.55-2.81Z" transform="translate(-164.95)"/><path class="cls-2" d="M323,297.4c3,.58,6.33.5,8.57,4.45-3.77-.71-6.72-1.42-8.55-4.45Z" transform="translate(-164.95)"/><path class="cls-2" d="M275,353.29c-.92,2.8-3.1,3.92-5.58,5.39C272.46,354.24,272.46,354.24,275,353.29Z" transform="translate(-164.95)"/><path class="cls-2" d="M379.28,212.65c-.68,3.57-3.11,6.22-4.82,9.25C375.09,218.31,377.34,215.56,379.28,212.65Z" transform="translate(-164.95)"/><path class="cls-2" d="M313.67,304.56c2.36-1.38,4.6-.64,7.37.32C318.2,306.23,315.93,305.52,313.67,304.56Z" transform="translate(-164.95)"/><path class="cls-2" d="M569.4,25.1c-2.81-.63-5.69-1-8.28-2.4A15.18,15.18,0,0,1,569.4,25.1Z" transform="translate(-164.95)"/><path class="cls-2" d="M294.93,384.71c-3.67-.15-3.89-.27-6.16-3.08C291,382.59,292.89,382.81,294.93,384.71Z" transform="translate(-164.95)"/><path class="cls-2" d="M515.69,246.05c-.08-2.26.7-3.91,3.15-4.33C518.87,243.95,517.37,245.07,515.69,246.05Z" transform="translate(-164.95)"/><path class="cls-2" d="M521.9,234.2a8.24,8.24,0,0,1,2.26-5.34A13.68,13.68,0,0,1,521.9,234.2Z" transform="translate(-164.95)"/><path class="cls-2" d="M533.26,209.29c-.27-2.1,1-3.55,2.16-5A9.56,9.56,0,0,1,533.26,209.29Z" transform="translate(-164.95)"/><path class="cls-2" d="M235.66,541.7c-.66,1.5-1.59,2.67-3.38,2.79Z" transform="translate(-164.95)"/><path class="cls-2" d="M342.17,264.59c-.18,1.55-1.36,2.18-2.55,2.81A4.3,4.3,0,0,1,342.17,264.59Z" transform="translate(-164.95)"/><path class="cls-2" d="M572.39,28.11A2.23,2.23,0,0,1,570,25.66,5.22,5.22,0,0,1,572.39,28.11Z" transform="translate(-164.95)"/><path class="cls-2" d="M545.44,21.12a2.24,2.24,0,0,1-2.9.11Z" transform="translate(-164.95)"/><path class="cls-2" d="M539.22,195.89a2.88,2.88,0,0,1,1.24-2.77A3,3,0,0,1,539.22,195.89Z" transform="translate(-164.95)"/><path class="cls-2" d="M558.2,22.17a1.68,1.68,0,0,1-2.29-.35C556.7,21.75,557.51,21.56,558.2,22.17Z" transform="translate(-164.95)"/><path class="cls-2" d="M576.35,32.72a1.4,1.4,0,0,1-1.17-1.84A1.9,1.9,0,0,1,576.35,32.72Z" transform="translate(-164.95)"/><path class="cls-2" d="M536.28,202.63a1.9,1.9,0,0,1,1.12-2.71A3.87,3.87,0,0,1,536.28,202.63Z" transform="translate(-164.95)"/><path class="cls-2" d="M373.62,225c.13,1.28-.8,1.3-1.66,1.39Z" transform="translate(-164.95)"/><path class="cls-2" d="M275.52,574.41a1.93,1.93,0,0,1,2-1.74A2.36,2.36,0,0,1,275.52,574.41Z" transform="translate(-164.95)"/><path class="cls-2" d="M550.64,21.3a.9.9,0,0,1-1.49-.21A1.21,1.21,0,0,1,550.64,21.3Z" transform="translate(-164.95)"/><path class="cls-2" d="M382.32,208.2a1.57,1.57,0,0,1-.68,1.64Z" transform="translate(-164.95)"/><path class="cls-2" d="M359.58,193.57c.15-1.19.94-1.38,1.94-1.24A2.44,2.44,0,0,1,359.58,193.57Z" transform="translate(-164.95)"/><path class="cls-2" d="M412.31,151.89l-.77,1.34A1.22,1.22,0,0,1,412.31,151.89Z" transform="translate(-164.95)"/><path class="cls-2" d="M297.72,458.15a.75.75,0,0,1,.41-1.1C298.44,457.58,298.28,457.94,297.72,458.15Z" transform="translate(-164.95)"/><path class="cls-2" d="M298.44,455.15a.75.75,0,0,1,.43-1.09C299.21,454.61,299,455,298.44,455.15Z" transform="translate(-164.95)"/><path class="cls-2" d="M202.81,559.91a2.75,2.75,0,0,1-2.19.93A2.94,2.94,0,0,1,202.81,559.91Z" transform="translate(-164.95)"/><path class="cls-2" d="M299.15,451.4a.73.73,0,0,1,.45-1.07C299.93,450.89,299.74,451.23,299.15,451.4Z" transform="translate(-164.95)"/><path class="cls-2" d="M299.91,447.69a.75.75,0,0,1,.42-1.1C300.68,447.15,300.52,447.5,299.91,447.69Z" transform="translate(-164.95)"/><path class="cls-2" d="M300.65,444.71a.75.75,0,0,1,.45-1.08C301.43,444.2,301.24,444.54,300.65,444.71Z" transform="translate(-164.95)"/><path class="cls-2" d="M301.4,441a.72.72,0,0,1,.43-1.06C302.18,440.47,302,440.79,301.4,441Z" transform="translate(-164.95)"/><path class="cls-2" d="M302.19,438a.74.74,0,0,1,.43-1.07C302.93,437.48,302.75,437.83,302.19,438Z" transform="translate(-164.95)"/><path class="cls-2" d="M303,434.3a.74.74,0,0,1,.41-1.09C303.7,433.75,303.5,434.09,303,434.3Z" transform="translate(-164.95)"/><path class="cls-2" d="M337.06,270.5c.12.42,0,.65-.48.69C336.42,270.74,336.54,270.48,337.06,270.5Z" transform="translate(-164.95)"/><path class="cls-2" d="M520.63,236.84c-.22-.61.13-.94.59-1.23A.91.91,0,0,1,520.63,236.84Z" transform="translate(-164.95)"/><path class="cls-2" d="M526.6,224.19a.86.86,0,0,1,.56-1.34C527.33,223.45,527.25,223.94,526.6,224.19Z" transform="translate(-164.95)"/><path class="cls-2" d="M528.15,220.63c-.25-.69-.12-1.21.63-1.47A1.26,1.26,0,0,1,528.15,220.63Z" transform="translate(-164.95)"/><path class="cls-2" d="M380.9,210.57a.77.77,0,0,1-.73,1Z" transform="translate(-164.95)"/><path class="cls-2" d="M357.28,195c.17-.88.73-1.12,1.55-1A1.41,1.41,0,0,1,357.28,195Z" transform="translate(-164.95)"/><path class="cls-2" d="M306,420.85a.6.6,0,0,1,.35-.94C306.56,420.34,306.55,420.69,306,420.85Z" transform="translate(-164.95)"/><path class="cls-2" d="M305.22,424.59a.67.67,0,0,1,.41-1C305.91,424.07,305.75,424.41,305.22,424.59Z" transform="translate(-164.95)"/><path class="cls-2" d="M304.47,427.6a.7.7,0,0,1,.4-1.07C305.19,427.05,305,427.39,304.47,427.6Z" transform="translate(-164.95)"/><path class="cls-2" d="M303.7,431.33a.74.74,0,0,1,.41-1.09C304.43,430.78,304.24,431.12,303.7,431.33Z" transform="translate(-164.95)"/><polygon class="cls-2" points="225.13 103.66 225.01 103.77 225.13 103.65 225.13 103.66"/><polygon class="cls-2" points="360.09 227.11 360.1 226.82 360.37 226.73 360.36 227.02 360.09 227.11"/><path class="cls-2" d="M519.89,238.39l0-.31.28-.15A.32.32,0,0,1,519.89,238.39Z" transform="translate(-164.95)"/><polygon class="cls-2" points="158.1 297.4 157.99 297.34 158.07 297.4 158.1 297.4"/><path class="cls-4" d="M460.26,258c6-.62,12-2.19,18.11-1.46,1.79.21,2.24-1.14,2.95-2.3,9.51-15.49,16.43-32.13,22.32-49.27a119.25,119.25,0,0,1,12.45-26.52c2.62-4,5.9-7.61,8.89-11.4a2,2,0,0,0,1.39-1.76l.21-.19c2.6-1.38,3.9-4.08,6-6,1.43-1.28,3.1-2.71,4.9-1.35,1.52,1.15,1.56,3.08.83,5.07-1.53,4.17-4.54,7.23-7.18,10.63-7.73,10-12.62,21.44-17,33.15-2,5.45-6,9.84-8.28,15.23a124.35,124.35,0,0,1-13.21,23.21,48.35,48.35,0,0,0-6.86,12.49c-.79,2.34-.61,4.82-1.67,7.17-.89,2-2.24,4,1.52,6,3.09,1.63,5.77,5.58,3.28,10.13-.19.35-.17,1.25,0,1.31,3.92,1.57,1.29,4.11.74,6.08a10.34,10.34,0,0,0,.51,6.16c.23.74.69,1.39,1.56,1.35,1.14,0,1.22-1,1.42-1.85.38-1.59-.82-4.4,1.11-4.57,2.31-.2,1,3.07,2.2,4.42a6.61,6.61,0,0,1,.77,1.68c.56,1.25-.16,2.13-.88,3-1.09,1.33-1.7.1-2.37-.5-2.6-2.3-3.7,1.62-5.9,1.4-1.47-.15-2.77-4.83-4.47-.27a.24.24,0,0,0-.37.12c-1.87-.29-3.22,1.07-4.83,1.59-.91.29-2,.75-2.09-.34-.52-6-3.64-4.56-7.05-2.67-.39.21-1,0-1.47.1a3.81,3.81,0,0,0-3.52,3.16c-1.07,3.63-.6,7.66-2.9,11-.79,1.14-1,3.7-2.54,3s-.31-3,.15-4.58c.09-.32.56-.52.7-.85a27.7,27.7,0,0,0,1.88-12.31c-2.81,2.16-3.52,4.81-4.12,7.13-.79,3-2.12,4.39-5.17,3.65-2.1-.52-2.82,1-2.17,2.13,1,1.79.9,4.26,3.22,5.41,2.48,1.24,2.42,3.21.74,5.18-1.11,1.3-1.93,2.57-.69,4.22v.07a9.42,9.42,0,0,0,1.38,4.94c1.1,2,2.67,2.43,4.7,1.54,1-.44,1.84-2.06,3.16-.58a2.41,2.41,0,0,1,.41,2.78c-.62,1.28-1.45,2.33-3.07,2.3a33,33,0,0,1-3.34-.12c-12.66-1.56-25.25-3.22-37.49-7.27-6.51-2.15-13.27-3.49-19.48-6.58-2-1-3.87-1.7-5.43-3.89-1.1-1.54-4.19-2.93-7.13-2.79-6.2.29-12.37-.06-18.55-3,2.38-2.33,4.9-1.35,7.16-1.16,5,.43,10,1.95,15-.25a3.52,3.52,0,0,0,2.15-1.78,18.49,18.49,0,0,0-7.81-2.51c-3.85-.43-7.46-1.73-11.21-2.54-2.54-.55-2.94-2.47-1.09-4.28a11,11,0,0,1,2.87-1.55c2.35-1.26,4.71-2.37,3.26-6.21-1.37-3.63-.67-7.62,1-11.21,1.51-3.16,8.63-4.76,12.08-2.87q3.89,2.12,7.87,4.08c1.14.56,2.66.84,3.36-.37.79-1.37-.34-2.23-1.41-3.29-4.08-4.06-9.36-5.81-14.35-8.18a17,17,0,0,1-4.31-2.86c-2.05-1.93-2.72-4.19-.26-6.38,1.91-1.7,3-4.53,6.57-3.89,1.94.34,1.11-1.67.55-2.32a31.41,31.41,0,0,0-3.44-2.79c-1.32-1.15-3-2.56-1.87-4.35,1-1.61,1.79-4.35,4.83-3.39a2.81,2.81,0,0,0,.47.23c7.09,4.77,15.18,7.33,23.06,10.36.53.2.84-.32.8-.9,1.21-2.13,3.13-2.34,5.27-2,.58,1.18,2.56.84,2.85,2.78-3.8-.08-6.44,2.24-9.33,4.44,7.88-.94,15.62.83,23.42.35,5.16-.32,10.37-1,15.48-.55C454.65,259.25,457.47,259.5,460.26,258Zm-56.18,58a6.21,6.21,0,0,0-1.11,0c-1.6.3-4.27-1-4.59.84-.29,1.72,2.61,1.7,4.12,2.22,6.92,2.35,14.22,3.41,21.16,5.56,6.14,1.91,12.11.91,18.17.83.85,0,2.21-.37,2.35-1.48.16-1.37-1.28-1.3-2.13-1.56C429.65,318.72,416.85,317.44,404.08,316Zm73.84-56.44c-4.26-1.84-8.68-1.29-12.67-.26-6.4,1.64-13,2.11-19.42,3.18-7.16,1.19-14,3.27-21.11,4.67-.86.17-2,.51-2,1.42,0,1.2,1.27,1.31,2.24,1.35,5.07.22,9.75,2,15.24-1,3.83-2.09,9.25-2.54,14-3.63C462.12,263.47,470,261.49,477.91,259.57ZM433.41,286a12.73,12.73,0,0,0-7,.37c-2,.66-4.52,1.71-6,0-2.12-2.49-4.61-2.76-7.41-2.86-.32,0-.61-.44-1-.54-3-.86-5.86.29-8,1.72-1.28.86-1.59,4.16-1.22,6.16s2.62,2.1,4.61,1.95c1.46-.11,2.95.34,4.42.3,1.71,0,3.82.78,5.08-.41C421.69,288.2,428,288.45,433.41,286Zm7.64,7c-5.44-1.18-10.89-1.89-16.34-.35C430.13,294,435.59,293.55,441,292.93ZM417,268.61c-1.27.55-3.71-.53-3.92,1.35-.15,1.39,2.33,1.61,3.65,1.49,1.5-.14,4.2.86,4.22-1.56C421,268.1,418.43,269.23,417,268.61Z" transform="translate(-164.95)"/><path class="cls-3" d="M483.6,299.1c2.11.85,1.47,2.87,1.34,4.21-.36,3.77,1.34,8.3-3.5,10.74-1,.5-1.57,1.88-2.28,2.9-.84,1.2-1.39,2.6-.05,3.67a3,3,0,0,0,4.37-.34A14,14,0,0,0,487,313.4c.41-2.43,1.05-4.83,1.63-7.24a3.5,3.5,0,0,1,3.82-2.76c1.62.34,1.52,2.08,1.08,4-.61,2.59-1,5.19-1.77,7.8-1.12,3.93-3.23,5.85-6.91,7.49a43.86,43.86,0,0,1-17.48,3.94c-2.64,0-5.12-.05-7.48-1.58-2-1.32-4.33-.54-6.51,0V325c.69-1.93,2.34-3.15,3.51-4.73.64-.86,1.18-1.12,2-.21,2.59,2.74,5.45,2.88,8.46.35.55,2.26,1.43,3.65,3.75,3.76,3.88.18,6-2.5,5.21-7a9.59,9.59,0,0,1,3.24-9.51c2.23-2.06,4.43-4.78,3.67-8.45A.24.24,0,0,1,483.6,299.1Z" transform="translate(-164.95)"/><path class="cls-3" d="M328.84,412.64a6.77,6.77,0,0,1-2.09,3.63c-2.54,2.49-5.06,5-7.64,7.46s-3.19,2.21-4.16-1c0-.12,0-.28-.06-.36-2.95-3.46,0-4,2.38-4.64,3.5-.94,4.16-5.09,7.35-6.36.67-.27,1.25-1.08,1.86-1.08C328,410.32,328.24,411.77,328.84,412.64Z" transform="translate(-164.95)"/><path class="cls-3" d="M498.14,283.37a10,10,0,0,1,2.46-6.1c.63-.68,1.47-1.49,2.59-.9a2.16,2.16,0,0,1,1.25,2.13c-.4,2.33.12,5.06-2.52,6.57-.9.51-1.43,2-2.76,1.28C498,285.72,498.5,284.34,498.14,283.37Z" transform="translate(-164.95)"/><path class="cls-3" d="M505.47,292.2c-1.06,3.22.23,7.23-3.2,9.75-.57.42-1.06,1.21-1.88.87-1-.44-.84-1.46-.61-2.24a20.82,20.82,0,0,1,1.7-4.45,4.76,4.76,0,0,0,.63-3.8c-.31-1.31-.94-3.37,1.22-3.53C505.29,288.64,505,290.77,505.47,292.2Z" transform="translate(-164.95)"/><path class="cls-3" d="M487.49,432c-1.35-3.64,1.53-13.36,5.77-20.49C492.49,418.85,489.9,425,487.49,432Z" transform="translate(-164.95)"/><path class="cls-3" d="M344.64,397.27c-1.27,3.34-4.3,5-6.95,6.91-1.07.78-2.93,1.16-3.61-.24s1.38-1.17,2-1.86c2.34-2.5,5.77-3,8.51-4.82Z" transform="translate(-164.95)"/><path class="cls-4" d="M382.31,321.47a20.74,20.74,0,0,1-8.5,2.47c-.91.06-1.85-.28-1.91-1.34-.07-1.34,1.11-1.1,1.89-1.12C376.34,321.44,378.88,321.47,382.31,321.47Z" transform="translate(-164.95)"/><path class="cls-3" d="M344.62,397.26h0Z" transform="translate(-164.95)"/><path class="cls-2" d="M460.26,258c-2.79,1.5-5.61,1.25-8.73,1-5.11-.41-10.32.24-15.48.55-7.81.48-15.55-1.3-23.42-.35,2.88-2.21,5.53-4.52,9.33-4.44-.29-1.94-2.26-1.59-2.85-2.78.81-2.11,2.26-.95,3.39-.54,2.33.84,4.52,1.73,7.13.76,2-.74,3.32,1.44,5,1.81,3.72.79,7.53,1.17,11.31,1.68.59.08,1.53-.33,1.77-.05C451.29,259.85,456.06,257.42,460.26,258Z" transform="translate(-164.95)"/><path class="cls-2" d="M480.07,110.31c-3.68-.67-7.18.22-10.72.71-.88.12-2.33.53-2.53-.74s1.24-1.36,2.15-1.36a7.57,7.57,0,0,0,4.41-1.72,17,17,0,0,1,8.66-3.07,25.79,25.79,0,0,0,13.57-4.44c4-2.77,8.73-4.41,12.06-8.16.57-.65,1.28-1.18,1.9-1.77.85-.81,1.83-1,2.61-.11,1.07,1.25-.22,1.59-1,2.15-5.52,4-10.7,8.48-16,12.7-4.11,3.25-8.27,4.59-12.94,5.6A16.94,16.94,0,0,1,480.07,110.31Z" transform="translate(-164.95)"/><path class="cls-2" d="M462,75.47c.41.33.54.39.6.49,2.78,4.64-1,5.26-3.86,7.23-5.19,3.58-11.52,2.6-16.9,5.28C447.27,81.91,456,80.88,462,75.47Z" transform="translate(-164.95)"/><path class="cls-2" d="M413.83,253.95c0,.58-.28,1.1-.8.9-7.88-3-16-5.59-23.06-10.36,6.77-1.13,12,2.79,17.21,5.87C409.36,251.65,411.86,252.32,413.83,253.95Z" transform="translate(-164.95)"/><path class="cls-2" d="M430.22,128.49c3.07-4.18,6.56-1.66,9.64-.84,1.24.33,4.75.88,3.14,3.7-1.29,2.26-3.92,1.71-5.86.46C435,130.44,433.29,128.31,430.22,128.49Z" transform="translate(-164.95)"/><path class="cls-2" d="M429.7,140.36a14.56,14.56,0,0,1-1.95-.21c-1.81-.5-4.47-.66-4.24-3,.31-3.14,2.92-2,5-1.72,1.69.24,3.42.24,5.13.37.82.06,2-.19,2.05,1a2.7,2.7,0,0,1-1.22,2.11A36.64,36.64,0,0,1,429.7,140.36Z" transform="translate(-164.95)"/><path class="cls-2" d="M559.64,44.53a17.35,17.35,0,0,0-.56-2.48c-.45-1.18-3.61-.88-2.13-2.84,1.16-1.54,2.49-3.59,4.93-3.73.81,1.24-.31,1.63-.75,2.24-.72,1-1.84,2-.46,3.13C563,42.82,560.59,43.45,559.64,44.53Z" transform="translate(-164.95)"/><path class="cls-2" d="M552.84,56c-.75-3.19,1.05-5.67,1.91-8.39a1.27,1.27,0,0,1,2.08-.68c.95.72.78,1.74.27,2.66C555.86,51.81,553.8,53.5,552.84,56Z" transform="translate(-164.95)"/><path class="cls-2" d="M429.08,97.33c-2.63,2.52-4.45,4.74-7,6.1-.74.39-1.89.48-2.32-.42-.57-1.2.54-1.45,1.39-1.55C424,101.14,425.24,97.71,429.08,97.33Z" transform="translate(-164.95)"/><path class="cls-2" d="M421.49,151.45c-1.25-1.47-3.43-2.49-2.48-4.76.35-.84,1.57-.58,2.32-.13C423.72,148,421.75,149.75,421.49,151.45Z" transform="translate(-164.95)"/><path class="cls-2" d="M526.38,165.29a2,2,0,0,1-1.39,1.76C524.84,166,525.37,165.45,526.38,165.29Z" transform="translate(-164.95)"/><path class="cls-2" d="M415.45,82.8l-.49.37c-.2-.53.33-.25.46-.41Z" transform="translate(-164.95)"/><polygon class="cls-2" points="250.46 82.76 250.65 82.63 250.5 82.8 250.46 82.76"/><path class="cls-3" d="M469.93,30.72c-.83,1.67-1.75,3.16-3.13.44-1-2.06-2.95-.41-4.33-1.13-.93-.48-2.52-.34-2.06-2s1.59-.2,2.41-.28a7.22,7.22,0,0,1,6.84,2.57A2.29,2.29,0,0,0,469.93,30.72Z" transform="translate(-164.95)"/><path class="cls-3" d="M466.24,24.69l.84.64a3.07,3.07,0,0,1-.62.63c-.09.05-.5-.19-.51-.31A3.35,3.35,0,0,1,466.24,24.69Z" transform="translate(-164.95)"/><path class="cls-2" d="M483.22,299.22c.76,3.66-1.44,6.39-3.67,8.45a9.59,9.59,0,0,0-3.24,9.51c.78,4.48-1.33,7.16-5.21,7-2.32-.11-3.2-1.5-3.75-3.76-3,2.53-5.87,2.39-8.46-.35-.86-.91-1.41-.65-2,.21-1.17,1.58-2.82,2.79-3.51,4.73-1.24-1.65-.42-2.92.69-4.22,1.69-2,1.74-3.94-.74-5.18-2.32-1.16-2.19-3.62-3.22-5.41-.64-1.11.08-2.65,2.17-2.13,3,.75,4.38-.62,5.17-3.65.61-2.33,1.31-5,4.12-7.13a27.7,27.7,0,0,1-1.88,12.31c-.14.32-.6.52-.7.85-.46,1.57-1.69,3.82-.15,4.58s1.74-1.82,2.54-3c2.31-3.31,1.83-7.34,2.9-11a3.81,3.81,0,0,1,3.52-3.16c.49-.06,1.08.11,1.47-.1,3.42-1.88,6.53-3.32,7.05,2.67.09,1.09,1.18.63,2.09.34C480,300.29,481.35,298.94,483.22,299.22Z" transform="translate(-164.95)"/><path class="cls-2" d="M404.08,316c12.78,1.42,25.57,2.71,38,6.41.85.25,2.3.19,2.13,1.56-.13,1.11-1.5,1.47-2.35,1.48-6.06.09-12,1.08-18.17-.83-6.94-2.16-14.24-3.21-21.16-5.56-1.51-.51-4.41-.5-4.12-2.22.31-1.87,3-.54,4.59-.84A6.21,6.21,0,0,1,404.08,316Z" transform="translate(-164.95)"/><path class="cls-2" d="M477.91,259.57c-7.9,1.91-15.79,3.89-23.71,5.72-4.73,1.09-10.15,1.54-14,3.63-5.49,3-10.17,1.23-15.24,1-1,0-2.21-.15-2.24-1.35,0-.91,1.1-1.25,2-1.42,7.07-1.4,14-3.47,21.11-4.67,6.43-1.07,13-1.54,19.42-3.18C469.23,258.29,473.65,257.74,477.91,259.57Z" transform="translate(-164.95)"/><path class="cls-2" d="M433.41,286c-5.37,2.49-11.72,2.24-16.39,6.68-1.26,1.2-3.37.37-5.08.41-1.47,0-3-.42-4.42-.3-2,.15-4.26-.08-4.61-1.95s-.06-5.3,1.22-6.16c2.12-1.43,5-2.58,8-1.72.34.1.63.53,1,.54,2.8.1,5.3.37,7.41,2.86,1.46,1.72,4,.66,6,0A12.73,12.73,0,0,1,433.41,286Z" transform="translate(-164.95)"/><path class="cls-2" d="M441,292.93c-5.46.62-10.91,1-16.34-.35C430.15,291,435.6,291.75,441,292.93Z" transform="translate(-164.95)"/><path class="cls-2" d="M417,268.61c1.44.61,4-.51,4,1.28,0,2.42-2.72,1.42-4.22,1.56-1.31.12-3.8-.1-3.65-1.49C413.28,268.08,415.72,269.16,417,268.61Z" transform="translate(-164.95)"/></g><path class="cls-4" d="M404.21,361.06c-.21,3.4,1.9,5.27,5.12,5.62,1.36.15,2.37-1.24,2.44-2.44l.24-4.36c.15-2.71-4.27-3.36-4.79-.65a8,8,0,0,0,1.38,6.95c1,1.3,3.39,1.85,4.21,0a21.24,21.24,0,0,0,2-9.59c-.06-3.14-4.76-3.14-4.88,0a16.87,16.87,0,0,0,.66,5.46c.61,2.18,4.26,2.46,4.7,0l1.74-9.75-4.79-.65a9.57,9.57,0,0,0,1,5.55c.9,2,3.91,1.26,4.46-.58l2.48-8.38-4.79-.65a15.08,15.08,0,0,0,.81,5.55c.59,1.76,3.57,2.66,4.46.58l3.51-8.21-4.54-1.23.16,5.31c.07,2.35,3.33,3.4,4.54,1.23l3.06-5.46-4.54-1.23c.07,2.48-.81,7.53,2.7,8.12s4.77-4.2,5.82-6.53l-4.46-.58a27.19,27.19,0,0,1,.32,5.73c-.1,2.58,3.26,3.1,4.54,1.23l4.71-6.84-4.46-.58.26,2.32c-.31,2.1,2.33,4.48,4.08,2.37l3.41-4.11-4.08-1.08,0,3.37c-.48,2.17,2.42,4.4,4.08,2.37a14.58,14.58,0,0,0,2.56-4.46c.95-2.57-3.32-4.4-4.46-1.88a15,15,0,0,1-3.35,4.85c-2.25,2.2,1.16,5.59,3.45,3.45a16.05,16.05,0,0,1,4.2-2.89l-3-3.83a17.19,17.19,0,0,0-3.19,3.92c-1.4,2.29,1.27,4.22,3.34,3.34a14.3,14.3,0,0,0,5.22-3.73l-3.83-3-1.73,3c-1.18,2,1.24,4.71,3.34,3.34l6.25-4.1-3.34-3.34L441.59,350c-1.25,1.82.81,4.08,2.75,3.58a8.29,8.29,0,0,0,5.42-4c1.25-2-.81-3.9-2.75-3.58l-15.31,2.49c-2.86.46-1.93,4.61.65,4.79,7.36.5,15,.4,22.06,2.72,2.62.86,4.31-3.15,1.88-4.46l-1.49-.8-1.88,4.46a38.64,38.64,0,0,1,8.15,2.15l1.3-4.7a13.37,13.37,0,0,1-4.19-1.24c-2.84-1.26-5.33,2.94-2.46,4.21a23.35,23.35,0,0,0,5.36,1.74,2.44,2.44,0,0,0,1.3-4.7,38.64,38.64,0,0,0-8.15-2.15c-2.52-.38-4.53,3-1.88,4.46l1.49.8,1.88-4.46c-7.49-2.46-15.56-2.37-23.36-2.9l.65,4.79,15.31-2.49-2.75-3.58-2.51,1.76,2.75,3.58,3.71-5.42c1.37-2-1.34-4.65-3.34-3.34l-6.25,4.1,3.34,3.34,1.73-3c1.36-2.35-1.92-5-3.83-3a11.45,11.45,0,0,1-4.24,3l3.34,3.34a8.65,8.65,0,0,1,2.43-2.93c2.13-2-.58-5-3-3.83a21.48,21.48,0,0,0-5.18,3.65l3.45,3.45a18.14,18.14,0,0,0,4.11-5.84l-4.46-1.88-1.31,2.31,4.08,2.37a12.42,12.42,0,0,0,0-6c-.39-1.69-2.91-2.48-4.08-1.08l-3.41,4.11,4.08,2.37a10.46,10.46,0,0,0-.26-4.91,2.47,2.47,0,0,0-4.46-.58l-4.71,6.84,4.54,1.23a34.35,34.35,0,0,0-.49-7c-.33-2-3.62-2.44-4.46-.58l-1.3,2.87q-1.64,2.06.39,1.23l1.7,1.7a25.25,25.25,0,0,1-.23-4.94c-.07-2.35-3.33-3.4-4.54-1.23l-3.06,5.46,4.54,1.23-.16-5.31c-.07-2.2-3.53-3.6-4.54-1.23l-3.51,8.21,4.46.58a7.75,7.75,0,0,1-.63-4.25c.08-2.79-4-3.25-4.79-.65L413,355.32l4.46-.58-.31-3.09c.33-2.71-4.31-3.35-4.79-.65l-1.74,9.75h4.7a8.52,8.52,0,0,1-.49-4.16H410a15.76,15.76,0,0,1-1.36,7.13h4.21l-.89-3.19-4.79-.65-.24,4.36,2.44-2.44-.24-.75c.19-3.13-4.69-3.12-4.88,0Z" transform="translate(-164.95)"/><path class="cls-2" d="M406.52,366.74c4.42,23.07,8.31,46.33,13.41,69.26,2.83,12.72,8.78,43.73,28.06,38.77a2.45,2.45,0,0,0,1.7-3,49.36,49.36,0,0,1-3.42-17.35,2.46,2.46,0,0,0-4.54-1.23l-.37.57a2.4,2.4,0,0,0,0,2.46c1,1.52,2.48,2.59,4.4,1.87,1.41-.53,2.36-4.13,2.92-4.23l-3.09-2.35.45,6.1c.16,2.13,3.5,3.67,4.54,1.23a24,24,0,0,0,1.92-7.4c.23-2.37-3.54-3.38-4.54-1.23l-2.07,4.44,4.54,1.23q-.34-12.39.37-24.75c.16-2.71-4.3-3.37-4.79-.65a38.2,38.2,0,0,1-4.11,11.79l4.46,1.88,3.46-25.44c.41-3-4.05-4.44-4.7-1.3l-6.26,30.42,4.79.65,2.31-29.3c.25-3.18-4.48-3-4.88,0a75.62,75.62,0,0,0,.68,23.61c.43,2.37,4.21,2.29,4.7,0q3.44-16,5.74-32.13l-4.79-.65q.72,15.39.44,30.79c0,2.67,4.34,3.42,4.79.65q2-12.27,5.09-24.29l-4.79-.65q-.37,13.78-1.75,27.49h4.88a449.8,449.8,0,0,1,4.55-57.27l-4.79-.65-5,50.44h4.88a238.54,238.54,0,0,1,7.9-59.36l-4.79-.65A177.61,177.61,0,0,1,455,402.05l4.79.65A297.05,297.05,0,0,1,461,372.33c.23-2.52-3.37-3.16-4.54-1.23a11.17,11.17,0,0,0-1.11,10,2.46,2.46,0,0,0,4.7,0,68.81,68.81,0,0,0,3.35-24.19,2.48,2.48,0,0,0-3.09-2.35c-4.64.84-5.33,7.08-1.49,9.39a2.49,2.49,0,0,0,3-.38c4-3.85-1.65-10.24-6.08-6.93a6.16,6.16,0,0,0-1.76,6.8c1.15,3.39,4.65,4.86,7.75,6,2.36.86,4-2.44,2.37-4.08a17.75,17.75,0,0,0-11-5.21,2.45,2.45,0,0,0-2.35,3.09,21.31,21.31,0,0,0,6.37,9.69,2.46,2.46,0,0,0,4.08-2.37,15.44,15.44,0,0,0-11.35-12.72,2.47,2.47,0,0,0-3,3,15.48,15.48,0,0,0,7.49,10.89c2,1.24,4.73-1.29,3.34-3.34a34.14,34.14,0,0,0-20.23-14.17c-1.37-.34-3.29.71-3.09,2.35.41,3.36,3.09,5.76,6.56,4.46,1.73-.65,2.69-3.52.58-4.46a33.46,33.46,0,0,0-23.29-1.79c-2.22.63-2.42,4.19,0,4.7a27.88,27.88,0,0,0,10.78.18c3-.51,1.8-4.47-.65-4.79a10.94,10.94,0,0,0-4.5.32c-3.06.79-1.76,5.32,1.3,4.7,4.63-.93,9.29-1.73,14-2.27,1.58-.18,12.66-.61,12.74-1.16l3-1.7A79.58,79.58,0,0,0,435,350.93c-4.52-.27-12.33-1.2-16.35,1.48s-2.2,8.48-1.66,12.46l3,22.37,4.79-.65a85.93,85.93,0,0,0-9.29-25.26c-1.21-2.18-4.46-1.11-4.54,1.23a140.77,140.77,0,0,0,.91,21.51c.36,3,5.07,3.19,4.88,0l-.85-13.73a2.44,2.44,0,0,0-4.88,0,46,46,0,0,0,1,14.92c.63,2.77,4.67,2,4.79-.65q.52-11.31.28-22.62h-4.88a102.65,102.65,0,0,0,3.69,25.25,2.45,2.45,0,0,0,4.79-.65,232.79,232.79,0,0,0-1-26.41l-4.79.65a38.62,38.62,0,0,0,7.87,17.31c1.12,1.44,3.72.59,4.08-1.08a51.77,51.77,0,0,0,.89-17l-3.09,2.35a8.41,8.41,0,0,1,5.88,3.35l2.11-3.67a9.54,9.54,0,0,1-7.39-2l-2.37,4.08,15.18,3.38v-4.7a37.13,37.13,0,0,1-23-3.21l-.58,4.46a58.62,58.62,0,0,1,21.14.5c2.27.46,4.23-2.29,2.37-4.08l-3.88-3.72-2.37,4.08a17.71,17.71,0,0,1,7.19,3.41l1.72-4.16a4.67,4.67,0,0,1-5-2.63L433,361.09A34.2,34.2,0,0,1,447.56,370c2.07,2.11,4.89-.56,3.83-3l-1.27-2.88c-1.15-2.61-5.07-.7-4.46,1.88a56.65,56.65,0,0,0,4.39,12.1c1.05,2.13,4.72,1.15,4.54-1.23a24.86,24.86,0,0,0-2.62-9.58c-1.24-2.5-5.19-.75-4.46,1.88a143.71,143.71,0,0,1,3.78,17.59l4.7-1.3a42.69,42.69,0,0,1-1.37-12.46L451,375.16c3.23,2.1,2.65,8.74,3,12.06s.64,6.76.9,10.15c.49,6.39,1.28,13.2-2.77,18.65l3.34-.87c-2.06-1.53-.65-6.14-.36-8.19.49-3.42,1-6.84,1.63-10.25,1.12-6.51,2.42-13,3.86-19.43l-4.7-1.3a210.47,210.47,0,0,1-9.45,32l4.79.65,1-22.18c.15-3.19-4.55-3.05-4.88,0a149.5,149.5,0,0,1-4,21.75l4.79.65q.4-20.29,2.8-40.44H446l-.68,28c-.07,2.73,4.15,3.34,4.79.65L457,368.22l-4.79-.65a187.56,187.56,0,0,1-1.56,31.19h4.88l-1.71-23.86a2.44,2.44,0,0,0-4.88,0,218.88,218.88,0,0,1-3.62,22.35l4.79.65-4.65-45.55c-.31-3.07-4.77-3.2-4.88,0L439,398.2c-.11,3.15,4.7,3.12,4.88,0a125.39,125.39,0,0,0-.56-20.67c-.34-3.05-4.79-3.21-4.88,0l-.55,19.54h4.88a323.25,323.25,0,0,0-4.87-38.49c-.55-2.91-4.52-1.88-4.79.65A56.5,56.5,0,0,0,434.27,378c.51,2.21,4.37,2.44,4.7,0a43.6,43.6,0,0,0-.62-15.71c-.65-2.91-4.48-1.87-4.79.65l-4.06,32.53,4.79-.65-7.86-20a2.45,2.45,0,0,0-4.79.65A58.32,58.32,0,0,0,424.42,399c.84,2.55,4.79,2.2,4.79-.65l0-26.64c0-3.14-4.85-3.14-4.88,0a44.64,44.64,0,0,0,3,16.63c.77,2,4.23,2.61,4.7,0a81.41,81.41,0,0,0,1.19-20.21c-.21-3.1-4.91-3.17-4.88,0a76.06,76.06,0,0,0,3,20.25,2.45,2.45,0,0,0,4.79-.65,62.22,62.22,0,0,0-3.77-22.18c-.9-2.46-4.85-2.26-4.79.65q.38,19.7,2.35,39.31c.31,3.07,5.1,3.16,4.88,0a235.18,235.18,0,0,0-4.44-31.94c-.59-2.79-4.66-2-4.79.65a165.46,165.46,0,0,0,3.41,42.25c.57,2.71,4.83,2.07,4.79-.65a129.8,129.8,0,0,0-7.55-42c-.87-2.45-4.92-2.26-4.79.65a274.82,274.82,0,0,0,7,50.63c.63,2.68,4.84,2.1,4.79-.65a96,96,0,0,0-4.73-28.35,2.45,2.45,0,0,0-4.79.65,274.48,274.48,0,0,0,2.78,42.2c.39,2.7,5,2.09,4.79-.65a163.71,163.71,0,0,0-5.08-29.5c-.69-2.57-5.06-2.16-4.79.65a199,199,0,0,0,5.3,30.45c.73,2.84,4.52,1.94,4.79-.65a100.88,100.88,0,0,0-3.34-38.4c-.88-3.08-5.2-1.74-4.7,1.3l6.13,37.49c.44,2.7,5,2.09,4.79-.65A142.63,142.63,0,0,0,425,397.61a2.45,2.45,0,0,0-4.79.65,121.79,121.79,0,0,0-.09,23H425L422.4,401c-.38-3-4.93-3.23-4.88,0a156.56,156.56,0,0,0,2.51,25.2c.5,2.75,4.79,2,4.79-.65L425,336.8h-4.88l4.73,49.91,4.79-.65.35-.45-3.67-2.11q-1.29,13.34-2,26.71-.35,6.44-.57,12.89-.1,3-.17,6c0,1.36.66,7.08-.31,8l3-.38-.44-.3,1.21,2.11,0-.6-2.44,2.44.38,0-2.35-1.79a133.88,133.88,0,0,0,6.82,24.62c.9,2.34,5.11,2.31,4.79-.65a30.19,30.19,0,0,0-4.54-13.26,2.44,2.44,0,0,0-4.21,2.46,60.13,60.13,0,0,0,11.24,15.27c1.69,1.67,4.8,0,4.08-2.37a262.49,262.49,0,0,0-12.59-32.86c-1.16-2.52-5.25-.73-4.46,1.88a263.45,263.45,0,0,0,12,31.73c1,2.3,4.53,1,4.54-1.23a49.63,49.63,0,0,0-5-22c-1.28-2.69-4.86-.64-4.46,1.88a79,79,0,0,0,7.63,23.27,2.46,2.46,0,0,0,4.46-.58,11.27,11.27,0,0,0-.75-7.74c-1.07-2.52-4.29-.81-4.54,1.23a30.39,30.39,0,0,0,.58,10.75l2.35-3.09-3.95-.23,1.23,4.54a11.72,11.72,0,0,0,5.45-9.22l-4.79.65,1.75,5.35c.83,2.55,4.81,2.19,4.79-.65a45.66,45.66,0,0,0-1.67-12c-.71-2.55-5.14-2.16-4.79.65a23,23,0,0,0,3,9.09c1.17,2,4.68,1.23,4.54-1.23a109.84,109.84,0,0,0-5.86-30.11,2.45,2.45,0,0,0-4.79.65,18.3,18.3,0,0,0,4.15,13c1.34,1.73,4.19.22,4.16-1.72l-.17-13.84h-4.88a26.61,26.61,0,0,0,4,13.36,2.47,2.47,0,0,0,4.46-.58,17.06,17.06,0,0,0,.29-10.73c-.72-2.57-5-2.17-4.79.65l1.08,17.14h4.88l-.54-7.16a2.44,2.44,0,0,0-4.88,0l-.63,6.93h4.88a32.24,32.24,0,0,0-1.14-9.79c-.77-2.86-4.45-1.91-4.79.65l-1.67,12.68h4.88a151.5,151.5,0,0,0-5.44-26.2,2.45,2.45,0,0,0-4.79.65l-.67,10.41h4.88a91.69,91.69,0,0,0-2.79-16.3c-.71-2.67-4.75-2.1-4.79.65a211.46,211.46,0,0,0,1.17,25.26l4.79-.65-4.63-23.79c-.53-2.73-4.81-2.06-4.79.65a58.25,58.25,0,0,0,3.75,20.32c.79,2.09,4.11,2.53,4.7,0l1.61-6.83h-4.7l1.83,6a2.46,2.46,0,0,0,4.7,0,12.57,12.57,0,0,0,.12-7c-.69-2.74-4.68-2-4.79.65a100.26,100.26,0,0,0,.57,15.63,2.44,2.44,0,0,0,4.88,0,51.48,51.48,0,0,0-1.37-15.4c-.63-2.62-5-2.13-4.79.65a15,15,0,0,0,2.62,7.69c1.29,1.89,4.62,1.34,4.54-1.23q-.61-20.55-2.66-41l-4.79.65,2.68,6.77c.93,2.36,4.93,2.33,4.79-.65a108.88,108.88,0,0,0-4.37-25.83,2.45,2.45,0,0,0-4.79.65,135,135,0,0,0,2.15,29.66c.51,2.81,4.68,2,4.79-.65l.89-20.86H435l-.25,19.06h4.88q-1.18-18-1.58-36c-.07-3.13-4.95-3.14-4.88,0l.53,23.89h4.88l-.51-7.43c-.18-2.57-4.23-3.51-4.79-.65a231.81,231.81,0,0,0-3.71,27.26h4.88l-.71-8.37c-.26-3.09-5.08-3.16-4.88,0a22.45,22.45,0,0,0,2.81,9.75,2.47,2.47,0,0,0,4.21,0,26.14,26.14,0,0,0,3.72-8.49h-4.7a52.63,52.63,0,0,1,1.07,9.89c.05,3.16,4.69,3.12,4.88,0q.8-13.17,2.8-26.19l-4.79-.65.81,12a2.44,2.44,0,0,0,4.88,0l.61-5.48h-4.88l-.71,18.62h4.88a43.79,43.79,0,0,1,1.43-10h-4.7l1.53,9.17c.4,2.4,4.19,2.25,4.7,0a33.07,33.07,0,0,0,.81-9.51c-.16-2.57-4.3-3.52-4.79-.65l-1.53,8.95,4.79.65a66.49,66.49,0,0,0-1-9.24c-.45-2.5-4-2.14-4.7,0L439.19,418h4.7a5.26,5.26,0,0,1-.48-3.33c.15-2.7-4.37-3.39-4.79-.65l-1.79,11.79,4.79.65L442,424h-4.7c.91,4.43.71,9.32,2.69,13.49s9.25,8.07,7.84,13.22c-.62,2.25,2.43,4.26,4.08,2.37a6.84,6.84,0,0,0,1.63-7.25c-1-3-5.66-1.7-4.7,1.3l-.38,2.5,4.08,2.37c1.2-4.37-.72-7.93-3.63-11.13-2.42-2.66-4.54-4.69-5.42-8.34-.78-3.2-.82-6.59-1.48-9.82-.52-2.55-4-2.07-4.7,0a6.28,6.28,0,0,0-.53,3.82c.18,2.54,4.35,3.54,4.79.65l1.79-11.79-4.79-.65a11.12,11.12,0,0,0,.65,4.62,2.46,2.46,0,0,0,4.7,0l1.78-5.79H441a57.14,57.14,0,0,1,.86,7.94c.11,2.6,4.31,3.49,4.79.65l1.53-8.95-4.79-.65a28.6,28.6,0,0,1-.63,8.21h4.7l-1.53-9.17c-.41-2.45-4.13-2.2-4.7,0a49.34,49.34,0,0,0-1.61,11.29c-.09,3.14,4.76,3.13,4.88,0l.71-18.62c.12-3.2-4.54-3-4.88,0l-.61,5.48h4.88l-.81-12c-.17-2.55-4.34-3.53-4.79-.65q-2.13,13.68-3,27.49h4.88a59.7,59.7,0,0,0-1.25-11.19c-.49-2.38-4.14-2.27-4.7,0a22.43,22.43,0,0,1-3.23,7.33h4.21a16.57,16.57,0,0,1-2.15-7.29h-4.88l.71,8.37a2.44,2.44,0,0,0,4.88,0,220.74,220.74,0,0,1,3.54-26l-4.79-.65.51,7.43c.21,3.1,4.95,3.17,4.88,0l-.53-23.89h-4.88q.4,18,1.58,36c.2,3.1,4.84,3.17,4.88,0l.25-19.06c0-3.15-4.74-3.13-4.88,0l-.89,20.86,4.79-.65a129,129,0,0,1-2-28.36l-4.79.65a103.35,103.35,0,0,1,4.2,24.54l4.79-.65-2.68-6.77c-.92-2.32-5.09-2.33-4.79.65q2,20.46,2.66,41l4.54-1.23a10.2,10.2,0,0,1-2-5.23l-4.79.65a46.73,46.73,0,0,1,1.2,14.1h4.88a100.26,100.26,0,0,1-.57-15.63l-4.79.65a6,6,0,0,1-.12,4.43h4.7l-1.83-6c-.67-2.22-4.13-2.42-4.7,0l-1.61,6.83H436a54.35,54.35,0,0,1-3.57-19l-4.79.65,4.63,23.79c.52,2.66,5.08,2.1,4.79-.65A211.46,211.46,0,0,1,435.89,425l-4.79.65a84.34,84.34,0,0,1,2.61,15,2.44,2.44,0,0,0,4.88,0l.67-10.41-4.79.65a144.3,144.3,0,0,1,5.26,24.91,2.44,2.44,0,0,0,4.88,0l1.67-12.68-4.79.65a27.88,27.88,0,0,1,1,8.5c-.11,3.18,4.6,3.08,4.88,0l.63-6.93H443.1l.54,7.16c.23,3.1,5.08,3.15,4.88,0l-1.08-17.14-4.79.65a12.65,12.65,0,0,1-.29,8.14l4.46-.58a21.51,21.51,0,0,1-3.32-10.9c-.11-3.13-4.92-3.15-4.88,0l.17,13.84,4.16-1.72a13.28,13.28,0,0,1-2.72-9.53l-4.79.65a104.89,104.89,0,0,1,5.69,28.81l4.54-1.23a17,17,0,0,1-2.31-6.63l-4.79.65A40.58,40.58,0,0,1,440,468.21l4.79-.65-1.75-5.35a2.45,2.45,0,0,0-4.79.65,5.91,5.91,0,0,1-3,5,2.46,2.46,0,0,0,1.23,4.54l3.95.23a2.46,2.46,0,0,0,2.35-3.09,26.7,26.7,0,0,1-.41-9.46l-4.54,1.23.26,4,4.46-.58a74.88,74.88,0,0,1-7.14-22.11L431,444.51a44,44,0,0,1,4.33,19.58l4.54-1.23a253.64,253.64,0,0,1-11.47-30.57l-4.46,1.88a253,253,0,0,1,12.1,31.7l4.08-2.37a56,56,0,0,1-10.48-14.28l-4.21,2.46a24.72,24.72,0,0,1,3.88,10.8l4.79-.65a133.88,133.88,0,0,1-6.82-24.62,2.43,2.43,0,0,0-2.35-1.79l-.38,0a2.51,2.51,0,0,0-2.44,2.44,3,3,0,0,0,1.61,3,2.47,2.47,0,0,0,3-.38c2.48-2.36,1.63-6.33,1.7-9.47q.16-7.94.53-15.87.73-15.86,2.29-31.67c.19-2-2.17-2.82-3.67-2.11a4.76,4.76,0,0,0-2.6,6c.7,2.57,5.06,2.16,4.79-.65L425,336.8c-.29-3.07-4.87-3.2-4.88,0l-.13,88.76,4.79-.65A148.4,148.4,0,0,1,422.4,401h-4.88l2.55,20.2c.38,3,5.16,3.17,4.88,0a121.79,121.79,0,0,1,.09-23l-4.79.65a138.24,138.24,0,0,1,9.18,40l4.79-.65-6.13-37.49-4.7,1.3a97.2,97.2,0,0,1,3.16,37.1l4.79-.65a190.39,190.39,0,0,1-5.13-29.15l-4.79.65a156.35,156.35,0,0,1,4.91,28.2l4.79-.65a266.21,266.21,0,0,1-2.6-40.9l-4.79.65a91.33,91.33,0,0,1,4.55,27l4.79-.65a267.61,267.61,0,0,1-6.85-49.33l-4.79.65a125.57,125.57,0,0,1,7.38,40.7l4.79-.65a160.25,160.25,0,0,1-3.24-40.95l-4.79.65a225.53,225.53,0,0,1,4.27,30.64h4.88q-2-19.61-2.35-39.31l-4.79.65a58.34,58.34,0,0,1,3.59,20.88L436,387a71,71,0,0,1-2.78-19h-4.88a76.11,76.11,0,0,1-1,18.91H432a41,41,0,0,1-2.82-15.34h-4.88l0,26.64,4.79-.65a54.87,54.87,0,0,1-2.6-22.21l-4.79.65,7.86,20a2.45,2.45,0,0,0,4.79-.65L438.44,363l-4.79.65a36.52,36.52,0,0,1,.62,13.12H439a52.53,52.53,0,0,1-1-17.49l-4.79.65a312.25,312.25,0,0,1,4.7,37.2c.2,3.11,4.79,3.17,4.88,0l.55-19.54h-4.88A125.39,125.39,0,0,1,439,398.2h4.88l1.57-45.85h-4.88l4.65,45.55c.26,2.53,4.17,3.55,4.79.65a231.62,231.62,0,0,0,3.79-23.65H448.9l1.71,23.86c.23,3.21,4.47,3.05,4.88,0A187.56,187.56,0,0,0,457,367.57c-.09-2.66-4.13-3.41-4.79-.65l-6.83,28.76,4.79.65.68-28c.08-3.21-4.52-3-4.88,0q-2.4,20.15-2.8,40.44c-.05,2.75,4.09,3.32,4.79.65a158.39,158.39,0,0,0,4.19-23h-4.88l-1,22.18c-.13,2.93,3.86,3.06,4.79.65a210.47,210.47,0,0,0,9.45-32c.65-3.06-4-4.37-4.7-1.3-2,9.21-3.81,18.48-5.21,27.81-.8,5.32-2.7,11.82,2.32,15.56,1.14.85,2.62.08,3.34-.87,5.29-7.13,3.84-16.52,3.13-24.8-.58-6.78.53-18.48-6-22.72a2.46,2.46,0,0,0-3.67,2.11,47.22,47.22,0,0,0,1.54,13.75c.81,3.11,5.16,1.73,4.7-1.3a143.71,143.71,0,0,0-3.78-17.59l-4.46,1.88a17.48,17.48,0,0,1,2,7.12l4.54-1.23a51,51,0,0,1-3.9-10.93l-4.46,1.88,1.27,2.88,3.83-3a39.33,39.33,0,0,0-16.74-10.16,2.46,2.46,0,0,0-2.75,3.58,10,10,0,0,0,9.16,5c1.92,0,3.47-2.78,1.72-4.16a23.45,23.45,0,0,0-9.34-4.66c-2.3-.56-4.18,2.34-2.37,4.08l3.88,3.72,2.37-4.08a65.47,65.47,0,0,0-23.73-.5c-2,.32-2.39,3.58-.58,4.46a42.8,42.8,0,0,0,26.76,3.7c2.38-.42,2.27-4.2,0-4.7L424.2,359.5c-2.16-.48-4.42,2.44-2.37,4.08A14.4,14.4,0,0,0,432.67,367c1.61-.15,3.34-2,2.11-3.67a13.43,13.43,0,0,0-8.8-5.59c-1.38-.24-3.28.63-3.09,2.35a47.55,47.55,0,0,1-.72,15.67l4.08-1.08a33.83,33.83,0,0,1-6.61-15.16c-.48-2.68-5-2.09-4.79.65a232.79,232.79,0,0,1,1,26.41l4.79-.65a97.27,97.27,0,0,1-3.52-24c-.07-3.13-4.94-3.14-4.88,0q.24,11.32-.28,22.62l4.79-.65a41.37,41.37,0,0,1-.82-13.62H411l.85,13.73h4.88a140.77,140.77,0,0,1-.91-21.51l-4.54,1.23a81.63,81.63,0,0,1,8.8,24.09c.52,2.66,5.16,2.09,4.79-.65l-2.12-15.85c-.38-2.84-3.43-13.34-.65-15.19,1.47-1,5.81-.5,7.59-.52,2.36,0,4.74,0,7.09.25a74.9,74.9,0,0,1,16.69,3.48,2.45,2.45,0,0,0,3-1.7c.74-5.09-4.18-6-8.21-5.81a155.7,155.7,0,0,0-24.52,3.24l1.3,4.7a5.49,5.49,0,0,1,3.2-.15l-.65-4.79a20.83,20.83,0,0,1-8.19-.18v4.7a28.14,28.14,0,0,1,19.53,1.3l.58-4.46-.38.24-3.09,2.35a29,29,0,0,1,17.31,11.93l3.34-3.34a10.79,10.79,0,0,1-5.25-8l-3,3a10.78,10.78,0,0,1,7.95,9.31l4.08-2.37a16.48,16.48,0,0,1-5.12-7.54L453,365a12.36,12.36,0,0,1,7.58,3.79l2.37-4.08c-.92-.34-6.8-2.54-4.65-4.6l3-.38.32-.48-3.09-2.35a64.92,64.92,0,0,1-3.18,22.9h4.7a6.79,6.79,0,0,1,.62-6.21l-4.54-1.23a297.05,297.05,0,0,0-1.25,30.37c0,2.68,4.17,3.4,4.79.65a186.66,186.66,0,0,0,4-26.82c.21-2.77-4.1-3.26-4.79-.65a244.08,244.08,0,0,0-8.08,60.66c0,3.2,4.57,3.06,4.88,0l5-50.44c.27-2.71-4.4-3.37-4.79-.65A459.86,459.86,0,0,0,451.21,444c-.05,3.2,4.57,3.06,4.88,0q1.38-13.72,1.75-27.49c.07-2.75-4.1-3.31-4.79-.65q-3.11,12-5.09,24.29l4.79.65q.29-15.4-.44-30.79c-.12-2.58-4.38-3.51-4.79-.65q-2.3,16.17-5.74,32.13h4.7a71.44,71.44,0,0,1-.51-22.31h-4.88l-2.31,29.3c-.21,2.73,4.24,3.34,4.79.65l6.26-30.42-4.7-1.3-3.46,25.44c-.34,2.51,3,4.54,4.46,1.88a42.44,42.44,0,0,0,4.6-13l-4.79-.65q-.71,12.37-.37,24.75c.06,2.24,3.47,3.54,4.54,1.23l2.07-4.44-4.54-1.23a13.52,13.52,0,0,1-1.26,4.94l4.54,1.23-.45-6.1a2.48,2.48,0,0,0-3.09-2.35c-3.25.6-2.42,3.25-4.28,5l2.37-.63.11.25v2.46l.37-.57-4.54-1.23A53.19,53.19,0,0,0,445,473.07l1.7-3c-10.7,2.75-15.28-11.92-17.81-19.55A212.86,212.86,0,0,1,422.44,424c-3.79-19.5-7.48-39-11.22-58.54-.59-3.08-5.29-1.78-4.7,1.3Z" transform="translate(-164.95)"/><path class="cls-2" d="M391.7,114.46a8.9,8.9,0,0,1-3,8.42l4.16,1.72a21.41,21.41,0,0,1,2.5-10.18l-4.46-1.88a110.11,110.11,0,0,1-8.72,25.77l4.54,1.23a21.7,21.7,0,0,1,4.55-15.06l-4.54-1.23A30.18,30.18,0,0,1,384.2,135c-1.24,2.81,2.54,5.21,4.21,2.46a95.36,95.36,0,0,0,9.34-20.52c.83-2.59-3.28-4.41-4.46-1.88l-4,8.64,4.46,1.88a50.89,50.89,0,0,1,3-10.9c1.05-2.67-3-4.1-4.46-1.88-8.33,12.94-22.94,24.29-19.35,41.47.57,2.74,4.77,2.05,4.79-.65a30.22,30.22,0,0,1,15.15-26.13l-3.34-3.34a271.74,271.74,0,0,0-13.72,27.65c-1.21,2.84,2.93,5.34,4.21,2.46a51.16,51.16,0,0,0,4-14.31c.36-2.7-4.33-3.35-4.79-.65l-3.8,22.15c-.44,2.57,3,4.46,4.46,1.88a129.12,129.12,0,0,0,11.19-26.71l-4.7-1.3-2.91,21.29c-.41,3,4,4.44,4.7,1.3a233.83,233.83,0,0,1,11.52-38l-4.79-.65-1.76,15.13c-.32,2.73,4.21,3.31,4.79.65l3.65-16.87-4.79-.65.2,4.35c.11,2.34,3.3,3.42,4.54,1.23a8.54,8.54,0,0,0-2.91-11.81,2.46,2.46,0,0,0-3.58,1.46,6.67,6.67,0,0,0,4.61,8.36c1.64.57,2.93-.9,3.09-2.35l.31-2.95-4.79.65,2.38,16.35c.34,2.32,4.38,2.34,4.7,0a59.67,59.67,0,0,0,.5-12c-.17-2.66-4-3.41-4.79-.65l-1.31,4.81,4.79.65.24-5.35c.12-2.84-4-3.19-4.79-.65l-3.87,12,4.79.65a32.13,32.13,0,0,1,3-13.72l-4.46-.58a15.51,15.51,0,0,1,.28,7.16c-.47,2.51,3.27,4.58,4.46,1.88l2.15-4.89-4.46-1.88a45.5,45.5,0,0,1-10.08,21.94l4.16,1.72a16,16,0,0,1,4.47-10.28l-4.08-2.37a77.74,77.74,0,0,1-11,23.52l4.54,1.23a49.61,49.61,0,0,1,3.82-14.37c1.22-2.82-2.86-5.33-4.21-2.46l-8.23,17.54,4.46,1.88a34.66,34.66,0,0,1,4.86-9.71c1.58-2.25-2-5.05-3.83-3a94.86,94.86,0,0,1-13.91,13.23l4.08,2.37a37.43,37.43,0,0,1,6.36-10.81l-3.83-3-7.35,11,4.46,1.88a32.62,32.62,0,0,1,4-11.32c1.57-2.74-2.52-5.09-4.21-2.46A75.66,75.66,0,0,1,359,165.69l4.08,2.37c.59-2.8,5.51-4.88,7.52-6.65a30.44,30.44,0,0,0,5.62-6.84c1.24-2-1.32-4.79-3.34-3.34L331.19,181.3q-10.42,7.52-20.83,15c-6.21,4.47-12.45,8.89-19.72,11.46-2.5.88-2.23,4.8.65,4.79,7.72,0,14.43-3.58,21.06-7.19a217,217,0,0,0,22.18-13.91c2.53-1.8.36-5.69-2.46-4.21a239.45,239.45,0,0,0-33.52,21.35c-2.42,1.84-.27,5.93,2.46,4.21a128.84,128.84,0,0,0,20-15.6l-3.83-3-7.87,12.14c-1.52,2.34,1.9,4.91,3.83,3l12.41-12.57c1.9-1.92-.58-5.39-3-3.83a159.61,159.61,0,0,0-20.7,16.14c-2,1.86.63,5.37,3,3.83l22.44-14.81-3-3.83a34.65,34.65,0,0,1-9.12,8.1l2.46,4.21,28.13-19.33-2.46-4.21L310,206.73c-2.1,1.49-.93,5.4,1.88,4.46l4.71-1.59-2.37-4.08A34.36,34.36,0,0,1,304,211.91c-2.88,1.15-1.62,5.87,1.3,4.7a163.06,163.06,0,0,0,56.59-37.7c2.23-2.28-1.08-5.44-3.45-3.45a245.59,245.59,0,0,0-26.14,25.45c-1.72,1.94.58,5.54,3,3.83a155.18,155.18,0,0,0,27.64-25.4,2.46,2.46,0,0,0-2.37-4.08,82.24,82.24,0,0,0-26.33,11.43c-2.6,1.72-.18,5.94,2.46,4.21a339.55,339.55,0,0,0,27.83-20.32c2.14-1.73-.68-5.4-3-3.83l-22.4,15.5,3,3.83L360.11,172c2.21-1.72-.63-5.22-3-3.83a176.68,176.68,0,0,0-23.27,16.56l3.45,3.45,10.48-9.94c2-1.87-.65-5.44-3-3.83L325.8,187.68a2.44,2.44,0,0,0,2.46,4.21l13.82-6.15-3-3.83L333.29,189c-1.61,2,.49,5.54,3,3.83l24.15-16.76-3-3.83A184,184,0,0,1,340.23,189c-2.16,1.84.6,5.13,3,3.83a91.87,91.87,0,0,0,23-18c1.79-1.92-.64-5.57-3-3.83l-22,16.53c-2.45,1.84-.36,5.77,2.46,4.21A74.3,74.3,0,0,0,359.67,180c1.93-1.87-.7-5.54-3-3.83A182.46,182.46,0,0,0,335,195.43c-1.85,1.94.57,5.4,3,3.83q13.21-8.7,25.71-18.38c6.73-5.22,15.21-10.51,17.66-19.17.81-2.86-2.88-3.94-4.46-1.88l-13.52,17.7L367.6,180l8.4-15c1.4-2.51-1.76-4.71-3.83-3A132.09,132.09,0,0,0,359.82,174l3.83,3a96.8,96.8,0,0,1,11.09-16.65c2-2.39-1.39-5.84-3.45-3.45l-10.72,12.46c-2,2.35,1.2,5.69,3.45,3.45l10.21-10.19-3.83-3a106.54,106.54,0,0,0-9.75,16.15c-1.17,2.38,1.8,5,3.83,3l9.79-10.09-3.45-3.45L353,185.43c-1.91,2.17.45,4.91,3,3.83A89.38,89.38,0,0,0,382,172c2.31-2.18-1.09-5.47-3.45-3.45l-14.9,12.78,3.45,3.45,13-15.22-3.83-3a57.23,57.23,0,0,0-5.21,8.86A2.44,2.44,0,0,0,375.2,178a98.27,98.27,0,0,0,8.88-17c1-2.55-3.24-4.34-4.46-1.88a21.47,21.47,0,0,0-2.32,8.94c-.1,2.22,2.68,3.07,4.16,1.72a32.25,32.25,0,0,0,7.61-10.18l-4.46-1.88-4.38,12.92c-.88,2.59,3.26,4.39,4.46,1.88l6.11-12.83-4.46-1.88-1.57,7.53c-.64,3.06,4,4.37,4.7,1.3a27.35,27.35,0,0,1,3-8l-4.46-1.88a33.74,33.74,0,0,1-17.22,23.81l3.34,3.34a80.28,80.28,0,0,1,11.41-13.87l-3.83-3a52.3,52.3,0,0,1-10.25,11.57c-2.4,2,1.06,5.46,3.45,3.45a56.57,56.57,0,0,0,11-12.56c1.53-2.36-1.88-4.85-3.83-3A86,86,0,0,0,370,181.31c-1.38,2.13,1.29,4.45,3.34,3.34a38.39,38.39,0,0,0,19.46-26.72c.49-2.6-3-4.41-4.46-1.88a31.62,31.62,0,0,0-3.53,9.21l4.7,1.3,1.57-7.53c.53-2.54-3.2-4.52-4.46-1.88L380.48,170l4.46,1.88,4.38-12.92c.88-2.59-3.26-4.38-4.46-1.88a28.7,28.7,0,0,1-6.85,9.19l4.16,1.72a14.54,14.54,0,0,1,1.65-6.48l-4.46-1.88A92,92,0,0,1,371,175.49L375.2,178a57.23,57.23,0,0,1,5.21-8.86c1.6-2.24-2-5.06-3.83-3l-13,15.22a2.44,2.44,0,0,0,3.45,3.45L382,172l-3.45-3.45A85.69,85.69,0,0,1,353.47,185l3,3.83,17.85-20.28c2.06-2.34-1.24-5.72-3.45-3.45L361,175.24l3.83,3A106.54,106.54,0,0,1,374.61,162c1.66-2.27-1.92-4.86-3.83-3l-10.21,10.19,3.45,3.45,10.72-12.46-3.45-3.45a102.87,102.87,0,0,0-11.85,17.64c-1.25,2.35,1.89,5.09,3.83,3a132.09,132.09,0,0,1,12.36-11.93l-3.83-3-8.4,15c-1.58,2.82,2.36,4.89,4.21,2.46l13.52-17.7-4.46-1.88c-2.31,8.17-12.56,14.1-18.89,18.92q-10.84,8.25-22.24,15.71l3,3.83a174.73,174.73,0,0,1,20.69-18.5l-3-3.83a69.49,69.49,0,0,1-14.92,11l2.46,4.21,22-16.53-3-3.83a87.69,87.69,0,0,1-22,17.2l3,3.83a184,184,0,0,0,17.21-16.72c1.76-1.95-.56-5.49-3-3.83l-24.15,16.76,3,3.83,5.84-7.13a2.45,2.45,0,0,0-3-3.83l-13.82,6.15,2.46,4.21,19.07-13.26-3-3.83-10.48,9.94c-2.31,2.19,1.08,5.44,3.45,3.45a168.8,168.8,0,0,1,22.28-15.8l-3-3.83-18.05,14.08c-2.17,1.69.68,5.4,3,3.83L364,171l-3-3.83a327.24,327.24,0,0,1-26.84,19.56l2.46,4.21A78.22,78.22,0,0,1,361.8,180l-2.37-4.08a150.14,150.14,0,0,1-26.66,24.64l3,3.83a245.59,245.59,0,0,1,26.14-25.45l-3.45-3.45A157.33,157.33,0,0,1,304,211.91l1.3,4.7A41.34,41.34,0,0,0,317.7,209c1.8-1.6-.09-4.85-2.37-4.08l-4.71,1.59,1.88,4.46,33.35-23.67c2.53-1.8.15-6-2.46-4.21l-28.13,19.33c-2.55,1.76-.25,5.87,2.46,4.21a38.57,38.57,0,0,0,10.11-8.86c1.59-2-.45-5.49-3-3.83l-22.44,14.81,3,3.83a152,152,0,0,1,19.71-15.37l-3-3.83-12.41,12.57,3.83,3,7.87-12.14c1.54-2.38-1.87-4.82-3.83-3a122.43,122.43,0,0,1-19.05,14.84l2.46,4.21a239.45,239.45,0,0,1,33.52-21.35l-2.46-4.21a218.25,218.25,0,0,1-19,12.16c-6.7,3.79-13.84,8.24-21.76,8.28l.65,4.79c14.84-5.25,27.5-16.73,40.12-25.83l43.26-31.22L372,152.11c-2.55,4.09-5.49,6.42-9.53,8.9a8.3,8.3,0,0,0-4.1,5.75c-.53,2.53,2.19,3.85,4.08,2.37a79.63,79.63,0,0,0,18.05-19.88l-4.21-2.46a36.49,36.49,0,0,0-4.48,12.48,2.45,2.45,0,0,0,4.46,1.88l7.35-11c1.52-2.27-2-5.09-3.83-3a44.8,44.8,0,0,0-7.61,13c-1,2.56,2.41,3.66,4.08,2.37a94.86,94.86,0,0,0,13.91-13.23l-3.83-3A38.93,38.93,0,0,0,381,157.28c-.82,2.59,3.27,4.41,4.46,1.88l8.23-17.54-4.21-2.46A57.7,57.7,0,0,0,385,156c-.29,2.63,3.32,3,4.54,1.23A81.93,81.93,0,0,0,401,132.52c.64-2.29-2.39-4.18-4.08-2.37a21.44,21.44,0,0,0-5.9,13.73c-.13,2,2.82,3.32,4.16,1.72a50.24,50.24,0,0,0,11.34-24.09c.43-2.48-3.25-4.61-4.46-1.88L400,124.52l4.46,1.88a21.19,21.19,0,0,0-.28-9.75c-.49-1.9-3.55-2.53-4.46-.58A38.1,38.1,0,0,0,396,132.25c0,2.81,4,3.23,4.79.65l3.87-12-4.79-.65-.24,5.35c-.12,2.77,4.07,3.27,4.79.65l1.31-4.81-4.79-.65a53.38,53.38,0,0,1-.32,10.72h4.7l-2.38-16.35c-.43-2.93-4.53-1.85-4.79.65l-.31,2.95,3.09-2.35-1.2-2.36-3.58,1.46a3.49,3.49,0,0,1,1.16,5.13l4.54,1.23-.2-4.35c-.12-2.63-4.18-3.46-4.79-.65l-3.65,16.87,4.79.65,1.76-15.13c.34-3-3.86-3-4.79-.65a233.83,233.83,0,0,0-11.52,38l4.7,1.3,2.91-21.29c.41-3-3.79-4.41-4.7-1.3a123.19,123.19,0,0,1-10.7,25.54l4.46,1.88,3.8-22.15-4.79-.65a42.77,42.77,0,0,1-3.35,11.85l4.21,2.46A271.74,271.74,0,0,1,393.7,126.6a2.46,2.46,0,0,0-3.34-3.34,35.18,35.18,0,0,0-17.57,30.34l4.79-.65c-3.17-15.14,11.53-26.33,18.86-37.71L392,113.37a50.89,50.89,0,0,0-3,10.9c-.39,2.48,3.18,4.61,4.46,1.88l4-8.64-4.46-1.88A89.86,89.86,0,0,1,384.2,135l4.21,2.46a36.64,36.64,0,0,0,3.22-14.19c.06-2.65-3.2-3-4.54-1.23a25.66,25.66,0,0,0-5.22,17.52c.14,2.21,3.41,3.57,4.54,1.23a115.38,115.38,0,0,0,9.21-26.94c.53-2.57-3.11-4.46-4.46-1.88A27,27,0,0,0,388,124.61a2.47,2.47,0,0,0,4.16,1.72,13.82,13.82,0,0,0,4.23-13.17c-.55-3.08-5.25-1.78-4.7,1.3Z" transform="translate(-164.95)"/><path class="cls-3" d="M434.94,594.45a38.63,38.63,0,0,0,35.41,17.13c6-.58,12.27-1.53,12.28-8.59,0-6.77-2-14-9.24-16-2.22-.61-3.59,1.73-2.75,3.58A56,56,0,0,0,478,602.48c1.84,2.31,4.91-.63,3.83-3a10.4,10.4,0,0,0-5.19-5.27,2.48,2.48,0,0,0-3.67,2.11,18.32,18.32,0,0,0,2.8,12.47c1,1.59,4.14,1.63,4.46-.58.7-4.87-1.08-9.06-5.47-11.49a2.47,2.47,0,0,0-3.58,1.46,8.65,8.65,0,0,0,2.1,9.15c1.39,1.49,4.3.39,4.16-1.72-.32-4.89,1.19-15.34-7-14.83-7.24.45-5.88,11-4.59,15.54.7,2.47,3.87,2.15,4.7,0,1.46-3.78,3-17.79-5.1-15.14a5.76,5.76,0,0,0-3.7,5.3c0,3.39,2.84,5.59,5.38,7.31a2.45,2.45,0,0,0,3-.38,8.91,8.91,0,0,0,2.14-9.5c-.7-2-4.35-2.6-4.7,0l-2,15,4.79.65a14,14,0,0,0-6.48-11.6,2.46,2.46,0,0,0-3,.38,5.46,5.46,0,0,0,1.07,8.72,2.46,2.46,0,0,0,3.58-1.46,14.46,14.46,0,0,0-5.07-15.22,2.48,2.48,0,0,0-3.83.49,12.28,12.28,0,0,0,.21,13.58,2.47,2.47,0,0,0,4.21,0c2.47-4.05,3-12.47-4.16-11.78-6.89.67-3.52,8.45-.47,11.25a2.47,2.47,0,0,0,3.83-.49c2.66-4.73-2.73-11.68-7.85-8.24-4.8,3.22-1.45,10.57,3.72,10.66a2.47,2.47,0,0,0,2.35-3.09c-.79-4.06-5.39-10.59-9.89-5.84-3.23,3.41,1.33,8.8,5.19,6.17a2.49,2.49,0,0,0,.49-3.83,10.51,10.51,0,0,0-11.38-3.47,2.46,2.46,0,0,0-1.79,2.35c.22,2,1.38,3.55,3.54,3.32a2.53,2.53,0,0,0,2.35-1.79l.2-.81a2.41,2.41,0,0,0-.63-2.37l-.65-.52c-2.41-1.94-5.6,1.07-3.45,3.45,5.57,6.17,11.93,12.93,20.44,14.66,6.21,1.26,13.52-.84,17.5-6,4.5-5.79,2.57-12.78-1.55-18.18-6.38-8.36-14.86-15.6-22.68-22.57-2.34-2.08-5.8,1.36-3.45,3.45q8.19,7.3,15.88,15.11c4.3,4.4,12.45,11.35,8.62,18.26-2.83,5.09-10.08,6.27-15.14,4.63-6.66-2.15-11.62-7.82-16.16-12.85l-3.45,3.45.65.52-.63-2.37-.2.81,2.35-1.79,1.34,1.56-1.79,2.35a5.81,5.81,0,0,1,6.63,2.22l.49-3.83c1-.7,2.34,4.57,2.45,5.18l2.35-3.09q-1.25-.27-.09,0l3.83-.49c-1.6-1.47-2-.09-3,1.52H461a7.51,7.51,0,0,1-.21-8.65l-3.83.49a9.77,9.77,0,0,1,3.81,10.47l3.58-1.46-.08-1.06-3,.38a8.75,8.75,0,0,1,4.06,7.39c.1,2.59,4.4,3.49,4.79.65l2-15h-4.7a3.83,3.83,0,0,1-.88,4.76l3-.38a4,4,0,0,1-2.21-2.09q-1.35-2.59-.27,1.73a15.45,15.45,0,0,1-1.26,5.81h4.7a21.37,21.37,0,0,1-.84-4c-.16-1.89-1.2-4.75,1.56-2.84,2.32,1.61,1.13,4.68,1.31,7.39l4.16-1.72a3.55,3.55,0,0,1-.84-4.4L472.3,601a5.74,5.74,0,0,1,3.23,6l4.46-.58a14.29,14.29,0,0,1-2.13-10l-3.67,2.11a7,7,0,0,1,3.44,3.52l3.83-3a51,51,0,0,1-6.61-11l-2.75,3.58c4.61,1.26,8.86,11.77,3.61,14-4.16,1.76-9.84,1.49-14.18.75A33.52,33.52,0,0,1,439.15,592c-1.72-2.61-5.95-.17-4.21,2.46Z" transform="translate(-164.95)"/><path class="cls-3" d="M466.57,598.73A18.24,18.24,0,0,0,472,609.41l3.45-3.45a28.07,28.07,0,0,0-17.84-7c-3.14-.1-3.14,4.78,0,4.88a22.69,22.69,0,0,1,14.39,5.6c2.35,2,5.71-1.22,3.45-3.45a14.13,14.13,0,0,1-4.19-8.53c-.42-3.1-5.12-1.78-4.7,1.3Z" transform="translate(-164.95)"/><path class="cls-3" d="M463.46,603.46a6.64,6.64,0,0,1-6.44-4.12c-1.1-2.91-5.81-1.65-4.7,1.3a11.62,11.62,0,0,0,11.14,7.7c3.13-.08,3.14-5,0-4.88Z" transform="translate(-164.95)"/><path class="cls-2" d="M400.55,110.36l-.1,2.69c-.12,3.15,4.68,3.11,4.88,0l.82-12.91c.18-2.8-4-3.23-4.79-.65l-5,17.15,4.79.65,0-8.82c0-2.37-3.38-3.38-4.54-1.23a34.53,34.53,0,0,0-3.91,12.38h4.88l-.18-15.88a2.46,2.46,0,0,0-4.54-1.23,19.56,19.56,0,0,0-3.1,11.55c.12,3.12,4.87,3.15,4.88,0v-9.5h-4.88a39.79,39.79,0,0,1-1.06,9.24l4.7,1.3a9.5,9.5,0,0,1,5.86-7.05l-3.58-2.75a36,36,0,0,1-2.84,7.24l4.46,1.88,1.7-8.52c.61-3.05-3.79-4.33-4.7-1.3a64.9,64.9,0,0,1-7.77,16.79l4.54,1.23a31.5,31.5,0,0,1,4.5-18.28l-4.46-1.88c-6.11,14.81-11.56,30.08-20.52,43.47A120.3,120.3,0,0,1,339,178c-2.57,1.77-.13,6,2.46,4.21A126.6,126.6,0,0,0,374,149.71c9.68-14.08,15.43-30.28,21.91-46,1.08-2.61-3.08-4.18-4.46-1.88a36.14,36.14,0,0,0-5.17,20.74,2.46,2.46,0,0,0,4.54,1.23,69.53,69.53,0,0,0,8.27-18l-4.7-1.3-1.7,8.52c-.51,2.57,3.1,4.47,4.46,1.88a41.87,41.87,0,0,0,3.33-8.4c.61-2.22-1.73-3.58-3.58-2.75a13.85,13.85,0,0,0-8.1,10c-.69,3.05,4,4.36,4.7,1.3a45.32,45.32,0,0,0,1.23-10.54c0-3.14-4.87-3.14-4.88,0v9.5h4.88a14.88,14.88,0,0,1,2.43-9.09l-4.54-1.23.18,15.88c0,3.23,4.49,3,4.88,0a27.85,27.85,0,0,1,3.24-9.92l-4.54-1.23,0,8.82a2.45,2.45,0,0,0,4.79.65l5-17.15-4.79-.65L400.45,113h4.88l.1-2.69c.12-3.14-4.76-3.13-4.88,0Z" transform="translate(-164.95)"/><path class="cls-2" d="M394.69,103.53v8.58c0,3.14,4.88,3.14,4.88,0v-9.55c0-3.14-4.88-3.14-4.88,0v9.55c0,3.14,4.88,3.14,4.88,0v-8.58c0-3.14-4.88-3.14-4.88,0Z" transform="translate(-164.95)"/><path class="cls-2" d="M305.85,209a76.38,76.38,0,0,1-17.32,5c-2.72.46-2.07,4.89.65,4.79a41.94,41.94,0,0,0,19.17-5.31l-3-3.83c-5.29,5.32-13.2,5-20.18,4.75-3.14-.13-3.13,4.74,0,4.88,8.36.36,17.36.13,23.63-6.18a2.45,2.45,0,0,0-3-3.83,36.45,36.45,0,0,1-16.7,4.64l.65,4.79a81.41,81.41,0,0,0,18.48-5.49c2.88-1.23.4-5.43-2.46-4.21Z" transform="translate(-164.95)"/><path class="cls-2" d="M405.23,367.84a134.38,134.38,0,0,0,11.16,59.07c1.17,2.69,4.93.65,4.46-1.88a398.52,398.52,0,0,0-9.31-38.88l-4.7,1.3a358,358,0,0,1,12.4,54.93c.41,2.83,4.67,2,4.79-.65a78.91,78.91,0,0,0-2.48-23.64c-.74-2.86-4.48-1.92-4.79.65a72.49,72.49,0,0,0,.71,21.63c.48,2.7,4.95,2.09,4.79-.65l-.61-10.77a2.44,2.44,0,0,0-4.88,0A49.75,49.75,0,0,0,419,450a2.45,2.45,0,0,0,4.79-.65,54.29,54.29,0,0,0-1.43-17.09c-.69-2.85-4.53-1.94-4.79.65a53.68,53.68,0,0,0,2.61,22.88c.85,2.51,4.84,2.22,4.79-.65l-.13-7.13h-4.88l.59,10.68c.15,2.75-.18,6.15.63,8.81,1.22,4,6.23,4.39,9.75,4.93,9.6,1.47,19.56-.14,26.73-7.06a2.47,2.47,0,0,0-1.72-4.16l-28.51-.55.65,4.79,20.84-4.6c3.12-.69,1.74-5.17-1.3-4.7l-8.84,1.38c-2.39.37-6.51.24-8.18,1.93L427.11,456a9,9,0,0,0-2.22,5.79h4.88l.15-6.66c0-2-2.77-3.36-4.16-1.72-4.6,5.43-2.71,13.27,3.59,16.49,8.38,4.28,17.31-.67,24.39-5.18l-3.67-2.11-1,1.18,1.23,4.54a13.63,13.63,0,0,1,9.53-3l-1.23-4.54A45,45,0,0,1,441,468.14a2.45,2.45,0,0,0-1.08,4.08,9.2,9.2,0,0,0,13.81-1.74c1.84-2.55-2.39-5-4.21-2.46a4.2,4.2,0,0,1-6.15.76l-1.08,4.08a48.29,48.29,0,0,0,18.73-7.79,2.46,2.46,0,0,0-1.23-4.54,17.74,17.74,0,0,0-12,3.64c-1.71,1.3-1.46,4.73,1.23,4.54,3.55-.25,5.81-2.45,5.87-6.06a2.46,2.46,0,0,0-3.67-2.11c-4,2.57-8.21,5.34-13.05,6s-14.22-3.48-9-9.62L425,455.15l-.15,6.66c-.07,3.15,4.72,3.12,4.88,0l.79-2.34c1.86-2.4-1.17-5.75-3.45-3.45s-1.37,6.06,1.81,7.2c2.22.8,5,0,7.19-.37l12.77-2-1.3-4.7-20.84,4.6c-2.74.61-2,4.74.65,4.79l28.51.55-1.72-4.16c-5.68,5.49-13.52,6.81-21.15,5.91a20.35,20.35,0,0,1-5.2-1c-2.64-1.13-2.11-2.4-2.26-5.25l-.75-13.6c-.17-3.11-4.93-3.16-4.88,0l.13,7.13,4.79-.65a50.39,50.39,0,0,1-2.43-21.58l-4.79.65a49.92,49.92,0,0,1,1.26,15.8l4.79-.65a46.35,46.35,0,0,1-2-19.78h-4.88l.61,10.77,4.79-.65a68.14,68.14,0,0,1-.53-20.33l-4.79.65a74.37,74.37,0,0,1,2.31,22.35l4.79-.65a358,358,0,0,0-12.4-54.93c-.93-3-5.59-1.73-4.7,1.3a398.52,398.52,0,0,1,9.31,38.88l4.46-1.88a128.88,128.88,0,0,1-10.49-56.61c.12-3.14-4.75-3.13-4.88,0Z" transform="translate(-164.95)"/><path class="cls-4" d="M431.74,424.25a17.23,17.23,0,0,1,6.63-19.53q-3,9.41-6.77,18.52a108.44,108.44,0,0,1,4.84-14.36c.9-2.17,3-4.74,5-3.64L433.73,420l1.54-13.88a28.24,28.24,0,0,1-4,16.11L435,411l-1.92,7.6,1-6.83" transform="translate(-164.95)"/><path class="cls-2" d="M406.8,370.64c-.23,15,2.38,29.94,5,44.74l9,51.27a2.47,2.47,0,0,0,2.93,2.47c9.25.65,19.16,1.16,27.11-3.61" transform="translate(-164.95)"/><path class="cls-2" d="M332.93,179.29c-7.17.68-11.55,5.22-16.52,10-7,6.74-16.63,7.86-26,8.9a2.5,2.5,0,0,0,0,5,42.3,42.3,0,0,0,33.1-10.66c11.25-9.95,25.06-16.26,38.17-23.48,2.82-1.55.3-5.87-2.52-4.32-11.13,6.13-23.84,11.45-33.76,19.45-5.33,4.3-9.79,9.07-16.29,11.69a38.12,38.12,0,0,1-18.7,2.32v5c7.54-.84,16-1.61,22.84-5.23,7-3.7,11.3-12.86,19.65-13.65,3.18-.3,3.21-5.3,0-5Z" transform="translate(-164.95)"/><path class="cls-2" d="M360.8,159.54c-5.46.64-10,5.72-14.33,8.8-5.68,4-11.51,7.81-17.36,11.57-11.34,7.29-23,16.87-36.88,17.86-3.19.23-3.22,5.23,0,5,13-.93,23.12-8.13,33.81-15,5.86-3.74,11.73-7.48,17.49-11.38,2.88-1.95,5.73-3.93,8.55-6,2.35-1.71,5.78-5.56,8.72-5.91,3.16-.37,3.19-5.38,0-5Z" transform="translate(-164.95)"/><path class="cls-2" d="M279.24,194.71c-6.32.39-12.46-.67-18.73-1.31-3.85-.39-9.45-1.62-12.3,1.72a2.53,2.53,0,0,0,1.1,4.18,28.18,28.18,0,0,0,3.8.92c3.15.54,4.5-4.27,1.33-4.82a28.18,28.18,0,0,1-3.8-.92l1.1,4.18c2-2.3,10.8,0,13.45.3a76.09,76.09,0,0,0,14,.75c3.2-.2,3.22-5.2,0-5Z" transform="translate(-164.95)"/><path class="cls-2" d="M259,199.93a14.78,14.78,0,0,1-6.8-.69,21.23,21.23,0,0,0-5.09-1.63c-2.65-.36-6.66-.18-6.58,3.4a2.57,2.57,0,0,0,2.5,2.5l4,.42c3.2.34,3.17-4.67,0-5l-4-.42,2.5,2.5v-.46l-.73,1.77c.41-.35,3.1.53,3.64.73,1.1.39,2.13,1,3.23,1.33a19.3,19.3,0,0,0,7.33.57c3.2-.2,3.22-5.2,0-5Z" transform="translate(-164.95)"/><path class="cls-2" d="M248.74,201.69c-3.15.18-8.64-.56-10.63,2.48a2.43,2.43,0,0,0,0,2.52,4.66,4.66,0,0,0,2.34,1.71c2.06.91,4.3,1.79,6.46,2.54A33.2,33.2,0,0,0,260,212.58c3.2-.2,3.22-5.21,0-5a29,29,0,0,1-10.4-1,43.77,43.77,0,0,1-4.58-1.81c-.84-.36-3.8-2.23-2.56-.57v2.52c-.24.37,5.66,0,6.31,0,3.2-.19,3.22-5.19,0-5Z" transform="translate(-164.95)"/></svg>