<svg id="Layer_1" data-name="Layer 1" xmlns="http://www.w3.org/2000/svg" viewBox="0 0 452.74 611.23"><defs><style>.cls-1{fill:#fff;}.cls-2{fill:#625342;}.cls-3{fill:#262526;}</style></defs><title>readyposition</title><g id="pwunfK.tif"><path class="cls-1" d="M170.1,302.86q0-150.12,0-300.23c0-1.72.31-2.2,2.14-2.2Q396.37.5,620.54.42c2,0,2.25.51,2.25,2.34q-.07,300.35,0,600.7c0,1.86-.3,2.33-2.27,2.33q-224.05-.09-448.11,0c-2.11,0-2.37-.58-2.36-2.46Q170.13,453.09,170.1,302.86ZM363.82,1.5c-2,.16-4.23-.71-6,.83-2.58,2.19-3.49,2.32-6.4.64l-.44-.48a1.24,1.24,0,0,0-1.88-.68,12.71,12.71,0,0,0-4.23,3.07,12.2,12.2,0,0,1-4.49,3,3.75,3.75,0,0,0-1.89,1.55c-2.86,4.39-5,9.19-8.06,13.47-1.1,1.53-1.66.92-2.43.38-2.16-1.53-4.44-2.94-5.87-5.3a1.34,1.34,0,0,0-1.87-.48c-.87.43-.6,1.17-.26,1.82a3.33,3.33,0,0,1,.21,2.49c-.62,2.54,2,5.74,4.67,5.67.48,0,1-.2,1.11.44s-.39.86-1,1c-3.12.64-5.47-1-7.05-3.17-1.16-1.61-2.78-1.92-4.19-2.73-2.29-1.31-3,.89-4,2.25-.17.23-.51.33-.76.52-2.59,1.88-2.91,5.19-4.74,7.55-.1.13,0,.45.06.69-1.55,4-1.87,8.37-3.2,12.49A129.75,129.75,0,0,0,296.27,65c-1.25,7.54-4,14.8-6.31,22.11-.37,1.18-2,2.64-.34,4.13a8.65,8.65,0,0,0,3,1.76c5,2.12,10,4.22,15,6.27,1.18.48,1.69,1,1.46,2.42-.68,4.25-1.12,8.53-1.66,12.8-.71,5.57-1.48,11.14-2.11,16.72-.53,4.67-1.38,9.29-1.64,14-.21,3.83-.52,7.66-1,11.47-.75,6.06-1.37,12.13-1.76,18.22-.24,3.68,0,7.42-.45,11.07-.74,5.89-.57,11.81-.93,17.7-.23,3.86.12,7.79-.48,11.59-.87,5.52-.29,11-.05,16.43.18,4.15,1.2,8.23,1.13,12.41,0,1.09.08,2.18.15,3.26.17,2.71.76,5.34.18,8.17-1.93,9.45-3.46,19-5.34,28.44a8,8,0,0,0,1.29,6.88,12.4,12.4,0,0,1,2.52,5.76,20,20,0,0,0,1.64,5.14c2.31,5.23,4.62,10.46,6.79,15.75,1.14,2.78,1.43,6.11,3.16,8.4,2,2.61.19,5.82,2.23,8.13,0,.05-.2.39-.33.57-1.67,2.36-1.68,5.11-1.3,7.7a64.63,64.63,0,0,1,.18,13.71c-.34,5.15-.43,10.32-.67,15.46a258.93,258.93,0,0,0,.49,29.94c.09,1.35-.25,3.25,1.17,3.88,3,1.34,5.6,3.38,8.84,4.38a78.24,78.24,0,0,0,17.31,3.2c3.4.25,3.54.45,4.19,3.88.2,1.08.32,2.17.52,3.25,1.34,7.39,2.75,14.78,4,22.18,1.58,9.16,3.21,18.31,4.52,27.51a176.58,176.58,0,0,1,2.12,17.71c.18,4.45.42,8.94.94,13.35.6,5,.23,10.11,1.08,15.18.89,5.34-.18,10.79-1.55,16.08-.55,2.11-1,4.4-2.28,6a20.87,20.87,0,0,1-13.49,8c-2.7.47-5.62.71-8.13,2.24-.94.57-1.5,1.56-2.62,2a13,13,0,0,0-5.31,3.2,4,4,0,0,1-2.61,1.35c-2.13.26-4.48.47-4.73,3.47-.06.77-.67.8-1.19.34-.26-.23-.38-1-.69-.76-1.89,1.62-3.94.32-5.7.07-2.64-.38-5.39.92-7.94-.65-.85-.53-1.6.26-2.25.86a1.29,1.29,0,0,0-.33,1.69,8.65,8.65,0,0,0,4,4.37c3.86,1.81,8,2.53,12.13,3.17,4,.61,8,.62,12,.9a94.5,94.5,0,0,0,13.85,0c4.3-.32,8.6-.89,12.92-.43,5.37.57,10.74,1.2,16.11,1.79l11,1.19c1.66.18,2.13.87,1.29,2.49-1.82,3.49-3.48,7.06-5.22,10.59-2.46,5-5,10-6.32,15.47-.87,3.68.18,5.07,3.87,5.13,10.86.15,21.72.23,32.57.48,2,0,2.81-.7,3.54-2.46a92,92,0,0,0,6.65-26.15,62.64,62.64,0,0,0,.19-14.78c-.57-4.29-1.45-8.66-.7-13.11a23.42,23.42,0,0,0-.52-9.36,28,28,0,0,1-.49-12.14c1-5.05,2.43-10,3.93-14.95,2.4-8,4-16.16,5.87-24.27,3.53-15.21,6.85-30.46,8.72-46,.75-6.21,1.78-12.43.66-18.73a3.15,3.15,0,0,1,1.59-3.38c3.32-2.25,6.56-4.61,9.8-7,.94-.68,2.16-1.39,1.79-2.79-1.15-4.36-1.37-9-3.93-12.93a2.74,2.74,0,0,1-.26-2.07c1.49-7.61,2.92-15.21,3.92-22.92s1.06-15.46,1.48-23.2c.29-5.25-1.6-10.5.05-15.75a4.28,4.28,0,0,0,0-1.17c.07-6.92-1-13.73-1.73-20.59-.06-.61.11-1.35-.66-1.61-1.61-.54-1.59-2-1.34-3.08.83-3.62-.06-7.17-.06-10.75,0-2.93-.91-5.78-.53-8.75.55-4.31,1.56-8.57,1.2-13a24.41,24.41,0,0,1,.15-4.23,88.46,88.46,0,0,0,.11-14.14c-.34-5.14-1.34-10.27-1.28-15.4a54.29,54.29,0,0,1,2.5-17c1.52-4.46,3.22-8.88,4.48-13.41,1.68-6,3-12.17,4.47-18.27,1.23-5.11,2.46-10.23,3.64-15.35,1.11-4.85,1.48-9.85,2.55-14.68a136.65,136.65,0,0,0,3.75-28c.1-7.75,1.74-15.38,2.29-23.11.18-2.48.5-5,.84-7.47a71.6,71.6,0,0,0,1-11.12c-.07-3.74-.14-7.6,1.75-11.08,4.25-2.13,8.28-4.59,11.26-8.4.94-1.2,2.16-2.54,1.74-4.14-.53-2-1-4.07-1.57-6.1-1.63-6.11-2.25-12.35-3-18.6-.44-3.87-.6-7.77-1.38-11.6-.85-4.18-1.82-8.35-2.34-12.58a161.83,161.83,0,0,0-3.26-16.65c-.35-1.51-1-1.75-2.4-1.74-9.21.05-18.42.17-27.63,0-11.62-.23-23.21.61-34.82.54C392.78,1.36,378.3,1.47,363.82,1.5ZM343,2.18,329.18,10c2.17.73,3.62.34,4.7-1.19s2.86-2.38,4.54-3.21A13.55,13.55,0,0,0,343,2.18ZM318,545.52c-1.81,1.88-4.86,2.46-6,5.52C316.11,551.54,316,547.31,318,545.52Zm12.88-530c1.86-.23,1.8-1.75,2.12-3Z" transform="translate(-170.05 -0.42)"/><path class="cls-2" d="M470.62,80.73c-1.89,3.48-1.82,7.34-1.75,11.08a71.6,71.6,0,0,1-1,11.12c-.34,2.48-.67,5-.84,7.47-.55,7.73-2.18,15.36-2.29,23.11a136.65,136.65,0,0,1-3.75,28c-1.08,4.82-1.44,9.83-2.55,14.68-1.18,5.12-2.41,10.24-3.64,15.35-1.46,6.1-2.79,12.23-4.47,18.27-1.26,4.54-3,8.95-4.48,13.41a54.29,54.29,0,0,0-2.5,17c-.06,5.13.94,10.26,1.28,15.4a88.46,88.46,0,0,1-.11,14.14,24.41,24.41,0,0,0-.15,4.23c.36,4.4-.65,8.67-1.2,13-.38,3,.54,5.81.53,8.75,0,3.58.88,7.13.06,10.75-.25,1.09-.28,2.54,1.34,3.08.77.26.6,1,.66,1.61.69,6.85,1.8,13.67,1.73,20.59a4.28,4.28,0,0,1,0,1.17c-1.65,5.24.24,10.5-.05,15.75-.43,7.74-.48,15.47-1.48,23.2s-2.43,15.31-3.92,22.92a2.74,2.74,0,0,0,.26,2.07c2.56,3.93,2.78,8.57,3.93,12.93.37,1.4-.86,2.1-1.79,2.79-3.24,2.35-6.48,4.72-9.8,7a3.15,3.15,0,0,0-1.59,3.38c1.12,6.29.09,12.52-.66,18.73-1.87,15.52-5.19,30.77-8.72,46-1.88,8.11-3.47,16.31-5.87,24.27-1.49,5-2.92,9.9-3.93,14.95a28,28,0,0,0,.49,12.14,23.42,23.42,0,0,1,.52,9.36c-.75,4.46.13,8.82.7,13.11a62.64,62.64,0,0,1-.19,14.78,92,92,0,0,1-6.65,26.15c-.73,1.76-1.53,2.51-3.54,2.46-10.86-.25-21.71-.33-32.57-.48-3.69-.05-4.74-1.44-3.87-5.13,1.3-5.49,3.85-10.46,6.32-15.47,1.74-3.53,3.4-7.1,5.22-10.59.85-1.63.38-2.31-1.29-2.49l-11-1.19c-5.37-.59-10.74-1.22-16.11-1.79-4.32-.46-8.62.11-12.92.43a94.5,94.5,0,0,1-13.85,0c-4-.28-8-.29-12-.9-4.14-.64-8.27-1.35-12.13-3.17a8.65,8.65,0,0,1-4-4.37,1.29,1.29,0,0,1,.33-1.69c.65-.61,1.4-1.39,2.25-.86,2.54,1.57,5.29.28,7.94.65,1.76.25,3.81,1.55,5.7-.07.31-.26.42.53.69.76.52.46,1.13.43,1.19-.34.25-3,2.6-3.21,4.73-3.47a4,4,0,0,0,2.61-1.35,13,13,0,0,1,5.31-3.2c1.11-.39,1.67-1.38,2.62-2,2.51-1.52,5.43-1.77,8.13-2.24A20.87,20.87,0,0,0,352,538c1.25-1.63,1.73-3.92,2.28-6,1.38-5.29,2.45-10.74,1.55-16.08-.85-5.07-.48-10.13-1.08-15.18-.52-4.41-.76-8.89-.94-13.35a176.58,176.58,0,0,0-2.12-17.71c-1.31-9.2-2.94-18.35-4.52-27.51-1.28-7.4-2.68-14.79-4-22.18-.2-1.08-.32-2.17-.52-3.25-.65-3.43-.79-3.63-4.19-3.88a78.24,78.24,0,0,1-17.31-3.2c-3.24-1-5.83-3-8.84-4.38-1.41-.63-1.07-2.53-1.17-3.88a258.93,258.93,0,0,1-.49-29.94c.24-5.14.33-10.31.67-15.46a64.63,64.63,0,0,0-.18-13.71c-.38-2.59-.37-5.35,1.3-7.7.13-.19.38-.52.33-.57-2-2.31-.26-5.51-2.23-8.13-1.72-2.29-2-5.62-3.16-8.4-2.17-5.29-4.48-10.52-6.79-15.75a20,20,0,0,1-1.64-5.14,12.4,12.4,0,0,0-2.52-5.76,8,8,0,0,1-1.29-6.88c1.88-9.46,3.4-19,5.34-28.44.58-2.82,0-5.46-.18-8.17-.07-1.09-.17-2.17-.15-3.26.07-4.18-1-8.26-1.13-12.41-.23-5.47-.81-10.92.05-16.43.59-3.79.24-7.73.48-11.59.36-5.9.19-11.81.93-17.7.46-3.65.21-7.38.45-11.07.39-6.09,1-12.16,1.76-18.22.47-3.81.78-7.64,1-11.47.26-4.7,1.11-9.33,1.64-14,.64-5.58,1.41-11.15,2.11-16.72.54-4.27,1-8.56,1.66-12.8.24-1.47-.28-1.94-1.46-2.42-5-2-10-4.15-15-6.27a8.65,8.65,0,0,1-3-1.76,3.72,3.72,0,0,1,2,.52c5.23,2.15,10.39,4.48,15.72,6.33a6.94,6.94,0,0,1,4.21,4A57.55,57.55,0,0,1,315,116.1c.61,6.91.94,13.86,1.53,20.78a96.26,96.26,0,0,0,1.71,11.56,30.16,30.16,0,0,1,.33,11.14c-1,6.33-1.76,12.69-2.63,19-.43,3.1-.39,6.3-1.16,9.28-.92,3.59-1,7.28-1.34,10.83-.54,5.79-1.71,11.55-1.54,17.45,0,1.3-.17,3.09-.12,4.38.05,1.63,0,2.68-1.17,3.72a.58.58,0,0,0,.05.85c2.39,2.13-.65,3.65-.74,5.53,0,.73-.95,1.62-1,2.71-.09,3.33-.28,6.66-.46,10a1.92,1.92,0,0,0,1.29,2.16c1.85.85,2.55,2.2,2.39,4.53s-.55,5.36,1.18,7.49a16.89,16.89,0,0,1,3.33,7.84c.35,1.82-.56,4,1.14,5.52.14.13-.13.72-.21,1.1-1.56,6.9-2.34,13.68-.37,20.78,1,3.51,1.4,8-3.21,10.3-.62-.68-1.53-1.16-2.18-.51s.29,1.3.73,1.85.39,1.35,1.32,1.24c.37.51.45,4.85.06,5.29-.07.08-.29,0-.44,0-1.74.39-.45,1.58-.62,2.38s-.67,1.23-.45,2c.64,2.24,1.71,4.44.38,6.84-.24.44-.38,1.59.57,1.78A1.44,1.44,0,0,0,315,322.6a5.76,5.76,0,0,1,1.53-3.12,3.23,3.23,0,0,0,.46-4.32l0,0c.69-.21,1.38.84,2.19,0-2.24-1.19-1.07-2,.55-2.81-2.22-.82-2.19-2.56-1.73-3.88,1.33-3.84,1.23-7.87,2-11.77.36-1.77.69-3.7-.1-5.32a6.53,6.53,0,0,1-.39-4.07,7.81,7.81,0,0,0,.23-2.56c-1.12-5.12-.14-10.32-.76-15.48-.56-4.65-2-9-3.24-13.41-.13-.47-.34-.92.06-1.3s.7,0,1,.2a2.85,2.85,0,0,0,1.08.4c4.92.28,9.82.92,14.76,1,3.56.07,7-.85,10.52-1,7.31-.23,14.34-2.1,21.38-3.7,5.23-1.19,10.29-3.19,15.38-4.94a31.57,31.57,0,0,1,8.06-1.57c3-.21,6.1,1.39,9.17-.18a1.93,1.93,0,0,1,2,.45c1.67,1.45,2.79.3,3.63-.89a3,3,0,0,1,1.66-1.47,2.15,2.15,0,0,0,1.82-2.15c0-.48,0-1,.64-1.12s.95.25,1.38.64c.83.76.43,2.15,1.27,2.7,2,1.27,3.33,2.77,3,5.45,1.43-1.46,3-2.71,3.52-4.31.73-2.2,2.08-4,3-6a18.82,18.82,0,0,0,1.13-3.15c.84-3.43.95-7.11,2.7-10.25,1.58-2.82,2.93-6.09,2.76-8.92-.29-4.69,1.36-9.06,1.11-13.69-.17-3.15,1.24-6.23,1.45-9.48.23-3.59,1-7.2,1.37-10.78.41-4.32.37-8.7.71-13.05.64-8.36,2.62-16.51,3.69-24.8.66-5.09,2.33-10.06,1.19-15.33a23.53,23.53,0,0,1-.42-7.47A90.37,90.37,0,0,0,435.7,110c-.07-5.89,0-11.78,0-17.66a4.21,4.21,0,0,1,.83-3.07c2.52-2.9,5.3-4.65,9.48-4.66a17.6,17.6,0,0,1,9,2,.82.82,0,0,0,1.22-.24.88.88,0,0,0-.15-1.26c-.4-.38-1.29-.31-1.17-1.24,1-.31,1.58.3,2.17,1a2.76,2.76,0,0,0,3.37,1c1-.47,1.72-.93,2.74-.09.57.47,1.26,0,1.6-.53s0-1-.68-1.11c-1.38-.25-.56-.78-.26-1.42.9-1.93,3.47-1.13,4.47-2.83a1.43,1.43,0,0,1,1.56-.83C470.84,79.2,470.42,80.12,470.62,80.73ZM395.31,511.88c.65-.5.56-1.21.65-1.91.39-3.19-.78-6.41.37-9.63a12.76,12.76,0,0,1,1.47-3.1c1.08-1.56-2.13-.9-1.4-2.42a.63.63,0,0,0,0-.46c-.74-1.69,0-3.38-.07-5,0-1-.18-1.41.84-1.06,1.71.58,1.37-1,2-1.66.76-.8.41-1.43-.28-2a4,4,0,0,1-1.52-3.71c.1-1.73-.53-2.48-2.22-1.3a19.06,19.06,0,0,0-.52-6.48c-.78-3.92-2.14-7.78-2.19-11.79-.07-6-.77-12-.11-18.08s.71-12.05,2.41-17.89c.64-2.19.33-4-1.43-5.49q-4.4-3.72-8.81-7.41c-.3-.25-.68-.55-1.05-.29-.58.41-.2,1-.11,1.5,1.3,7.42,1.86,14.92,2.44,22.41.48,6.25.38,12.55.55,18.83a18.62,18.62,0,0,0,.18,2.58,28.34,28.34,0,0,1,0,9.14c-.88,5.65-1.83,11.28-1.62,17.06.19,5.08,0,10.17,0,15.26-1-.63-.69-1.65-.76-2.56-.46-6.25.19-12.5,0-18.76a8,8,0,0,1,.05-1.65c1.15-6.46,2.08-12.84,1.52-19.54-.64-7.63-.59-15.34-1.06-23A189.48,189.48,0,0,0,382,411.84c-.36-2-1.7-3.9-1-6.08.66,0,.65,1.26,1.43.88.57-.28.22-1,.34-1.51a15.81,15.81,0,0,0,.35-5.81c-.36-2.95-.61-5.94-2.14-8.63-.13,5-1.61,10.06,0,15.07-1,.22-1.24-.58-1.44-1.21-.32-1.06-.76-1.08-1.72-.65a36.47,36.47,0,0,1-11.14,3.48c-3.89.41-7.38,2.45-11.37,2.67a9.42,9.42,0,0,0-5.5,1.78c4.06-.05,6.94,2.11,10.33,2.74,2.25.42,4.5,1.29,3.77,4.57-.25,1.13,1,1.56,1.94,2,.72.35,2.22.76,1.53,1.9-.8,1.32-.28,1.92.55,2.76,1.62,1.64,3.08,3.17,1.31,5.86a2.44,2.44,0,0,0,2,3.62c1.77.32,2.55,2.15,2.34,3.86-.26,2.14,1.32,4.78-1.48,6.36-.09,0,.12.57.15.88.25,2.4,0,4.6-1.74,6.55-1,1.06-1,2.36,1,2.63.62.08,1.22.32,1.83.36,1.81.11,1.58.92.65,1.9a4.62,4.62,0,0,0-1.57,2.57,7.71,7.71,0,0,1-4.65,6.43c-.44.21-.91.39-.88.95s.6.89,1.17.9a3.88,3.88,0,0,1,2.93,1.29,1.34,1.34,0,0,1,.09,1.73c-.26.46-.55.82-1.09.44s-1.09-.82-1.59,0a1.32,1.32,0,0,0,.51,2c.58.4.93,1.11.22,1.55-1.33.82-.47,1.64-.33,2.61.24,1.76,1.59,3.87-.28,5.26s-2.11,3.2-2.4,5.27c-.23,1.64.11,2.37,1.68,2.63.85.14,1.4,1,1.14,1.53-1,1.83-.27,4.19-1.81,5.73a2.64,2.64,0,0,0-.3,3.82c1.67,1.67,1.28,3.33.83,5.17a5.82,5.82,0,0,0-.38,2.52c.46,1.92-.4,1.67-1.57,1.15-.38-.17-.69-.75-1.19-.14,0,1.21,1.82,1.27,1.72,2.61-.17,2.34,1.33,3.9,2.66,5.54.37.46,1.5.87.65,1.61-.56.49-1.08-.23-1.44-.79s-.75-1.28-1.33-.34c-.76,1.22-1.78,2.42-1.06,4.06.4.92,1.22,1.89-.9,1.78-.74,0-.32.89.26,1.28s1.63.46,1.43,1.58c-.08.47-.3,1,.43,1.05.54.06.84-.32,1.08-.76s-.16-1.36.92-1.32c1.23.05,4,3.9,3.18,4.58-2,1.68-.31,2.61.7,4a3.11,3.11,0,0,0-2.8,1.61,5.09,5.09,0,0,0-.71,3.46c.49,2.86-2.59,3.9-3.56,6.12s-1,2.54,1.4,3.16a21.46,21.46,0,0,0,10.68-.41c1.46-.36,1.82-.87,1.31-2.28-.64-1.77-.27-3.14.91-4.88a8.94,8.94,0,0,0,.92-6.35c-.29-1.3-.8-2.72-1.19-4.12-.5-1.77-.27-2.19,1.64-1.86,1.29.22,3.35.25,3.3-1.62a43.49,43.49,0,0,0-.37-6.47c-.41-2.28-.92-4.92,1.78-6.5a2.52,2.52,0,0,1-.08,2.48c-1.1,1.59-.86,3.29-.76,5,.12,2,.21,4.07.47,6.09.56,4.43,1.19,8.85,1.85,13.26.11.72.27,1.8,1.17,1.8s1.23-.93,1.38-1.87c.66-4.18,1.93-8.22,2.82-12.35C394.25,524.28,397.22,518.38,395.31,511.88Zm18.56,33.19c-2-.75-3.67-1.5-2.4-4,.2-.39-.09-1.07-.23-1.59-1.1-4.07.25-8.06.55-12.05.25-3.34,2-6.59,2.1-9.92.13-3.57,1.22-6.74,2.25-10,.2-.64-.64-1.46,0-1.75,2.19-1.07,1.42-3.49,2.5-5,.51-.73.36-1.31-.23-2.08-1-1.36-1.29-2.73.52-3.93,2-1.34,2.68-3.43,2.55-5.8a3.66,3.66,0,0,1,.22-.91c1.15-5.18,3-10.15,4.12-15.36.57-2.75.66-5.54,1.23-8.24s1.53-5.06,2-7.67c1.25-7.71,2.46-15.43,3.24-23.2.34-3.37.78-6.73.15-10.15-.33-1.79-.14-3.39,1.8-4.63,1.49-.95,3.29-1.69,4.35-3.31-.5-.23-.82.07-1.18.17-2.81.77-4.61,3.3-7.25,4.27-7.43,2.73-15,5-23,4.86-1.39,0-1.89.45-1.42,1.84.6,1.78,1.93,3.39,1.28,5.5-.09.3.4.8.67,1.17s.69.69.45,1.23c-1.46,3.29,0,6.34.85,9.41.64,2.3,2.31,4.41.44,7-.51.7-.2,2,.21,3a5.72,5.72,0,0,1,.25,3.64c-.68,2.88-.07,6-1.49,8.78-.19.37-.23,1.17,0,1.37,2,1.64.6,3.65.81,5.49.14,1.19-1,1.74-.86,2.84.26,3.07.61,6.17-1.59,8.83-.55.67.18,1.16.62,1.56a2.88,2.88,0,0,1,.33,4.24c-2.78,3.21-1.47,7.41-2.92,10.92a2,2,0,0,0,.64,1.89c3.08,1.42.91,3.37.05,4.27-1.51,1.58-1.13,2.36.4,3.22s1.32,1.55-.1,2c-1.23.4-1.2,1.21-1.22,2.19,0,1.47.49,3.14-.62,4.33-1.34,1.44-.94,3.64-2.51,5-.48.42-.27,1.56.29,2.39,1.51,2.24,1.36,3.53-1,4.84s-1,2.22,0,3.11,1.83,1.46,2.08,2.73c.09.46.34.8-.43,1-2.34.6-3.12,1.86-3,4.68.07,2.2,1.78,2.13,3.31,2.54,2.19.58,4.64.18,6.57,2.08.59.58,2.92,1.23,3.17-1.28C412.4,545.79,413.29,545.82,413.87,545.07ZM363.49,380.17c1.8-2.45,2.63-4.84,4.59-6.42.65-.52,1.41-.62,1.27.27-.37,2.4.94,5-.92,7.23-.55.66-.4,1.65.39,1.71,2.82.21,2.2,2.1,1.93,3.72-.32,1.89.7,2.3,2.14,2.06,2.35-.39,4.06-2.07,5.95-3.35.38-.26,1.33-1,.9-1.74-1.42-2.36-.45-5.1-1.37-7.53-1.9-5.07-1.6-10.49-2.33-15.75-.58-4.24-1.38-8.48-3.4-12.34a55.61,55.61,0,0,1-4.15-10.41c-1-3.35-1-6.88-2.36-10.18-2.33-5.8-2.72-12-3.27-18.18-.23-2.5-1.52-4.91-.93-7.41.62-2.65-.09-5.1-.49-7.63-.29-1.85-1.4-3.62-.85-5.52a2.11,2.11,0,0,0-1-2.61c-1.26-.71-.61,1.38-1.81,1.39,0-1.09-.56-2.08-1.74-1.94s-.54,1.4-.77,2.14a6.61,6.61,0,0,1-.49,1.29,4.43,4.43,0,0,0,.41,4.69,28.25,28.25,0,0,1,2.45,5.74,16.84,16.84,0,0,1,1,9,1.92,1.92,0,0,0,.76,1.83c1.52,1.48,2.26,3-.21,4.46a5.12,5.12,0,0,0-1.39,1.58c-1,1.5-2.89,3.26-1.42,4.91s3.41.48,4.75-1.08c.37-.43,1.38-.53,1.07,0-.94,1.45.08,3-.75,4.44-1.34,2.3-3.78,3.65-4.87,6.12-.15.33-.76.55-1.2.62-.8.14-1.1.56-.95,1.31s.58.9,1.37.86a33.79,33.79,0,0,0,4.14-.14c1.1-.19,3.66-.8,2.21,2.18-.16.33.22,1.07.54,1.47a3,3,0,0,1,.42,2.88,18.36,18.36,0,0,0-.73,5.57c.11,1.4-.65,2.91-1.68,3.1-3,.57-2.91,2.94-3.39,5-.35,1.5.59,2.22,2.08,1.74,1.33-.43,2.06-1.67,3.19-2.39.53-.34.69-1.43,1.63-.89.73.43.54,1.25.54,1.94,0,3.7.16,7.4,0,11.09-.15,2.87.8,6.3-3,7.9a.78.78,0,0,0-.44,1.16c.25.36.71.25,1.09.15s.61-.8,1.39-.34ZM434,280c.12.92.34,1.41.22,1.79a11.06,11.06,0,0,0-.15,7,.65.65,0,0,1-.13.44c-1.45,2.35-.39,5-1.07,7.53-.29,1.06-.34,2.77,1.37,2.6,1.24-.12,1.82-1.56,1.88-2.89a3.17,3.17,0,0,0-.27-.9c-.83-2.94-.34-6,0-8.82.24-1.87,1.5-4.24,3.57-4.92s1.83-1.75,1.32-3.18a4.19,4.19,0,0,0-4.68-2.09c-2.93,1-6.37-.14-9,2.52-.86.87-3,1.62-2.94,2.52.17,1.61-1.54,2.19-1.27,3.64.17.87.05,1.77,1.16,2,.94.22,1.22.85,1.21,1.75,0,1.21-1,.92-1.65,1.19s-2.15-.15-1.5,1.9c.44,1.36-.24,3.34-1.09,4.9a11.73,11.73,0,0,0-1.14,7.11,6.88,6.88,0,0,1-.38,4.31c-.53,1.1-.6,2.36-1.84,3.13-.81.5-.33,1.42.08,2.11,1.3,2.21,7,2.09,8.52-.17.22-.34.46-.66.21-1.06A1.07,1.07,0,0,0,425,312c-1.05.47-2.54.44-2.66-.47a2.7,2.7,0,0,1,1.75-2.94,1.41,1.41,0,0,0,1.17-1.54c-.29-3.17,1.4-6.14.71-9.45a6.58,6.58,0,0,1,.37-4.23c1.39-2.8,1.52-6,3.87-8.63A38.39,38.39,0,0,0,434,280Zm-15.77,5.8c-.2-.54.33-1.59-.88-1.74a1.64,1.64,0,0,0-1.89,1.4,4.93,4.93,0,0,0-.31,2.52,5.68,5.68,0,0,1-.77,4.47c-.63,1.17-1.45,2.43-1.36,3.89.22,3.35.66,6.75-3,8.78-.26.14-.26.86-.3,1.31a19.5,19.5,0,0,1-.28,3.26,2.15,2.15,0,0,0,2.49,2.49c2.44-.42,2.72-2.42,3-4.3.51-3.7.82-7.44,1.38-11.14S417.51,289.51,418.19,285.77ZM445,338.49c-1.81-.47-2.94.81-4.27,1.22a75.26,75.26,0,0,1-17,3.3c-3.79.26-7.62,1.42-11.21-.93-1-.63-2.06-1-3.08-1.57-.4-.21-.81-.29-1,.13a1.35,1.35,0,0,0,.05,1.09c1.75,2.76,7.45,5.07,10.78,3.87,2.59-.93,5.11-.78,7.7-.93,2.4-.14,5,1.1,7.2-.73s4.7-2.29,7.2-3.07A7,7,0,0,0,445,338.49ZM304.14,284c2.73,14.35,4.32,19.32,6.61,20.15-2.52-7.25-2.42-14.79-3.26-22.34C306,282.54,306.55,285.32,304.14,284Zm85.1-17.6c-.14-1.08-1-.81-1.63-.79s-1.7-.47-1.78.5,1,1.07,1.77,1.23A1.25,1.25,0,0,0,389.24,266.4Z" transform="translate(-170.05 -0.42)"/><path class="cls-3" d="M314.05,303.06c4.61-2.31,4.18-6.79,3.21-10.3-2-7.1-1.19-13.89.37-20.78.08-.38.36-1,.21-1.1-1.7-1.57-.79-3.7-1.14-5.52a16.89,16.89,0,0,0-3.33-7.84c-1.73-2.13-1.34-5-1.18-7.49s-.55-3.67-2.39-4.53a1.92,1.92,0,0,1-1.29-2.16c.19-3.33.37-6.65.46-10,0-1.09.94-2,1-2.71.09-1.88,3.13-3.39.74-5.53a.58.58,0,0,1-.05-.85c1.19-1,1.23-2.09,1.17-3.72,0-1.29.16-3.08.12-4.38-.18-5.9,1-11.66,1.54-17.45.33-3.56.42-7.24,1.34-10.83.76-3,.73-6.18,1.16-9.28.87-6.34,1.61-12.7,2.63-19a30.16,30.16,0,0,0-.33-11.14,96.26,96.26,0,0,1-1.71-11.56C316,130,315.64,123,315,116.1A57.55,57.55,0,0,0,311.57,102a6.94,6.94,0,0,0-4.21-4c-5.33-1.85-10.49-4.18-15.72-6.33a3.72,3.72,0,0,0-2-.52c-1.69-1.49,0-3,.34-4.13,2.33-7.31,5.05-14.56,6.31-22.11a129.75,129.75,0,0,1,4.82-18.47c1.33-4.12,1.65-8.46,3.2-12.49,3.68-.71,3.79-.86,3.85-4.5a3.56,3.56,0,0,1,.24-.87c1.44.55,3.26-1.11,4.23.06,2.25,2.7,6.11,2.66,8.32,5.3a1.86,1.86,0,0,0,1.51.45,10.36,10.36,0,0,0,6.68-4.36c1.54-2.34,2.5-5.08,4.28-7.36a15.93,15.93,0,0,0,2.48-4.7c.86-2.57,2.38-4.73,3.66-7,1.55-2.8,5-2.66,7-4.77.32-.34,1.32-.27,1.38-1,.17-1.89,1.56-2.32,3-2.74l.44.48c-.47,2,1.13,1.8,2.12,1.8,3.76,0,7-1.73,10.31-3.28,14.48,0,29-.14,43.44,0,11.61.07,23.2-.77,34.82-.54,9.21.18,18.42.06,27.63,0,1.35,0,2.05.23,2.4,1.74a161.83,161.83,0,0,1,3.26,16.65c.52,4.23,1.49,8.4,2.34,12.58.78,3.83.94,7.73,1.38,11.6.71,6.24,1.33,12.49,3,18.6.54,2,1,4.07,1.57,6.1.42,1.6-.8,2.94-1.74,4.14-3,3.81-7,6.26-11.26,8.4-.2-.61.22-1.53-.81-1.73a1.43,1.43,0,0,0-1.56.83c-1,1.71-3.57.9-4.47,2.83-.3.64-1.12,1.17.26,1.42.66.12,1.09.46.68,1.11s-1,1-1.6.53c-1-.85-1.76-.38-2.74.09a2.76,2.76,0,0,1-3.37-1c-.58-.67-1.14-1.28-2.17-1-.12.94.77.86,1.17,1.24a.88.88,0,0,1,.15,1.26.82.82,0,0,1-1.22.24,17.6,17.6,0,0,0-9-2c-4.17,0-7,1.75-9.48,4.66a4.21,4.21,0,0,0-.83,3.07c0,5.89,0,11.78,0,17.66a90.37,90.37,0,0,1-.83,11.23,23.53,23.53,0,0,0,.42,7.47c1.14,5.28-.53,10.24-1.19,15.33-1.07,8.29-3,16.44-3.69,24.8-.33,4.35-.3,8.73-.71,13.05-.34,3.58-1.15,7.19-1.37,10.78-.2,3.25-1.61,6.32-1.45,9.48.24,4.63-1.4,9-1.11,13.69.17,2.84-1.18,6.1-2.76,8.92-1.76,3.14-1.86,6.82-2.7,10.25a18.82,18.82,0,0,1-1.13,3.15c-.9,2-2.25,3.81-3,6-.53,1.59-2.1,2.84-3.52,4.31.3-2.68-1.07-4.19-3-5.45-.85-.55-.44-1.94-1.27-2.7-.43-.39-.75-.8-1.38-.64s-.62.64-.64,1.12a2.15,2.15,0,0,1-1.82,2.15,3,3,0,0,0-1.66,1.47c-.84,1.19-2,2.34-3.63.89a1.93,1.93,0,0,0-2-.45c-3.07,1.57-6.15,0-9.17.18a31.57,31.57,0,0,0-8.06,1.57c-5.1,1.75-10.15,3.75-15.38,4.94-7,1.6-14.07,3.46-21.38,3.7-3.51.11-7,1-10.52,1-4.94-.1-9.83-.73-14.76-1a2.85,2.85,0,0,1-1.08-.4c-.34-.18-.66-.55-1-.2s-.19.82-.06,1.3c1.19,4.44,2.68,8.76,3.24,13.41.62,5.17-.36,10.37.76,15.48a7.81,7.81,0,0,1-.23,2.56,6.53,6.53,0,0,0,.39,4.07c.79,1.61.46,3.54.1,5.32-.79,3.9-.69,7.94-2,11.77-.46,1.32-.49,3.06,1.73,3.88-1.62.78-2.78,1.62-.55,2.81-.8.83-1.49-.22-2.19,0l-.22-.2.2.22a3.23,3.23,0,0,1-.46,4.32A5.76,5.76,0,0,0,315,322.6a1.44,1.44,0,0,1-1.62,1.38c-.94-.19-.81-1.34-.57-1.78,1.33-2.4.27-4.6-.38-6.84-.23-.79.37-1.33.45-2,1.83-.37.45-1.58.62-2.38.15,0,.37.05.44,0,.38-.44.31-4.78-.06-5.29Zm81.6-261.19.62-.23a3.65,3.65,0,0,0,1.82-4.9,1.53,1.53,0,0,1-.13-1.55c.3-.66,1.18-1.39,0-1.91-.81-.35-1.8-1.08-2.64-.34-.64.56-1.53,1.27-1,2.4a4.24,4.24,0,0,1-.06,3.35A2.79,2.79,0,0,0,395.65,41.87Z" transform="translate(-170.05 -0.42)"/><path class="cls-2" d="M350.94,2.5c-1.44.43-2.83.86-3,2.74-.06.71-1.06.64-1.38,1-2,2.11-5.45,2-7,4.77-1.28,2.32-2.8,4.48-3.66,7a15.93,15.93,0,0,1-2.48,4.7c-1.79,2.29-2.74,5-4.28,7.36a10.36,10.36,0,0,1-6.68,4.36,1.86,1.86,0,0,1-1.51-.45c-2.21-2.64-6.07-2.6-8.32-5.3-1-1.17-2.8.49-4.23-.06a3.56,3.56,0,0,0-.24.87c-.06,3.64-.18,3.79-3.85,4.5,0-.23-.17-.56-.06-.69,1.84-2.36,2.15-5.67,4.74-7.55.25-.18.59-.28.76-.52,1-1.37,1.7-3.56,4-2.25,1.41.8,3,1.12,4.19,2.73,1.58,2.2,3.94,3.8,7.05,3.17.6-.12,1.13-.26,1-1s-.63-.45-1.11-.44c-2.65.06-5.29-3.13-4.67-5.67a3.33,3.33,0,0,0-.21-2.49c-.34-.65-.6-1.39.26-1.82a1.34,1.34,0,0,1,1.87.48c1.43,2.36,3.71,3.77,5.87,5.3.77.55,1.33,1.15,2.43-.38,3.08-4.28,5.2-9.09,8.06-13.47a3.75,3.75,0,0,1,1.89-1.55,12.2,12.2,0,0,0,4.49-3,12.71,12.71,0,0,1,4.23-3.07A1.24,1.24,0,0,1,350.94,2.5Z" transform="translate(-170.05 -0.42)"/><path class="cls-2" d="M343,2.18a13.55,13.55,0,0,1-4.62,3.43c-1.68.83-3.4,1.6-4.54,3.21s-2.53,1.92-4.7,1.19Z" transform="translate(-170.05 -0.42)"/><path class="cls-2" d="M363.82,1.5c-3.3,1.55-6.56,3.27-10.31,3.28-1,0-2.59.17-2.12-1.8,2.91,1.68,3.82,1.55,6.4-.64C359.59.79,361.79,1.65,363.82,1.5Z" transform="translate(-170.05 -0.42)"/><path class="cls-2" d="M330.85,15.55l2.12-3C332.65,13.8,332.71,15.32,330.85,15.55Z" transform="translate(-170.05 -0.42)"/><path class="cls-3" d="M386.08,515.95c-2.7,1.57-2.19,4.22-1.78,6.5a43.49,43.49,0,0,1,.37,6.47c.06,1.88-2,1.84-3.3,1.62-1.91-.33-2.14.09-1.64,1.86.39,1.39.9,2.81,1.19,4.12a8.94,8.94,0,0,1-.92,6.35c-1.18,1.74-1.55,3.12-.91,4.88.51,1.4.15,1.92-1.31,2.28a21.46,21.46,0,0,1-10.68.41c-2.41-.62-2.36-1-1.4-3.16s4-3.25,3.56-6.12a5.09,5.09,0,0,1,.71-3.46,3.11,3.11,0,0,1,2.8-1.61c-1-1.38-2.74-2.31-.7-4,.82-.68-1.95-4.52-3.18-4.58-1.08,0-.67.85-.92,1.32s-.54.81-1.08.76c-.73-.08-.51-.58-.43-1.05.2-1.11-.83-1.17-1.43-1.58s-1-1.32-.26-1.28c2.12.11,1.31-.86.9-1.78-.72-1.64.3-2.84,1.06-4.06.58-.94,1-.16,1.33.34s.89,1.27,1.44.79c.85-.74-.28-1.15-.65-1.61-1.33-1.65-2.83-3.21-2.66-5.54.1-1.34-1.68-1.4-1.72-2.61.5-.6.81,0,1.19.14,1.17.52,2,.77,1.57-1.15a5.82,5.82,0,0,1,.38-2.52c.45-1.84.84-3.5-.83-5.17a2.64,2.64,0,0,1,.3-3.82c1.53-1.55.85-3.9,1.81-5.73.26-.49-.29-1.39-1.14-1.53-1.57-.26-1.91-1-1.68-2.63.29-2.07.48-3.85,2.4-5.27s.52-3.5.28-5.26c-.13-1-1-1.78.33-2.61.71-.44.36-1.15-.22-1.55a1.32,1.32,0,0,1-.51-2c.5-.77,1.05-.33,1.59,0s.84,0,1.09-.44a1.34,1.34,0,0,0-.09-1.73,3.88,3.88,0,0,0-2.93-1.29c-.58,0-1.13-.21-1.17-.9s.44-.74.88-.95a7.71,7.71,0,0,0,4.65-6.43,4.62,4.62,0,0,1,1.57-2.57c.93-1,1.16-1.79-.65-1.9-.62,0-1.22-.27-1.83-.36-2-.27-2-1.57-1-2.63,1.78-1.95,2-4.15,1.74-6.55,0-.31-.24-.83-.15-.88,2.79-1.58,1.22-4.22,1.48-6.36.21-1.71-.57-3.55-2.34-3.86a2.44,2.44,0,0,1-2-3.62c1.77-2.69.31-4.21-1.31-5.86-.83-.84-1.35-1.44-.55-2.76.69-1.14-.81-1.55-1.53-1.9-1-.47-2.19-.9-1.94-2,.72-3.28-1.53-4.16-3.77-4.57-3.39-.63-6.27-2.79-10.33-2.74a9.42,9.42,0,0,1,5.5-1.78c4-.21,7.49-2.26,11.37-2.67a36.47,36.47,0,0,0,11.14-3.48c1-.43,1.4-.41,1.72.65.19.63.44,1.43,1.44,1.21-.67,2.18.68,4.07,1,6.08a189.48,189.48,0,0,1,2.62,21.63c.47,7.67.42,15.38,1.06,23,.56,6.7-.38,13.08-1.52,19.54a8,8,0,0,0-.05,1.65c.21,6.25-.44,12.5,0,18.76.07.91-.24,1.93.76,2.56l.16.92a.91.91,0,0,0-.42,1c.61,2.51.22,5.07.48,7.57.21,2-.93,4.32,1,6.06,0,.06.06.12,0,.17a2,2,0,0,1-.13.29l-.32.18.33.32Z" transform="translate(-170.05 -0.42)"/><path class="cls-3" d="M413.87,545.07c-.58.75-1.47.72-1.54,1.45-.24,2.51-2.58,1.87-3.17,1.28-1.93-1.9-4.37-1.5-6.57-2.08-1.53-.41-3.24-.34-3.31-2.54-.09-2.82.68-4.08,3-4.68.77-.2.52-.53.43-1-.25-1.26-1.17-1.94-2.08-2.73s-2.2-1.86,0-3.11,2.47-2.6,1-4.84c-.56-.83-.77-2-.29-2.39,1.57-1.35,1.17-3.55,2.51-5,1.11-1.19.58-2.86.62-4.33,0-1,0-1.79,1.22-2.19,1.42-.47,1.51-1.22.1-2s-1.91-1.63-.4-3.22c.86-.9,3-2.85-.05-4.27a2,2,0,0,1-.64-1.89c1.45-3.51.14-7.71,2.92-10.92a2.88,2.88,0,0,0-.33-4.24c-.43-.4-1.17-.89-.62-1.56,2.21-2.66,1.86-5.77,1.59-8.83-.09-1.1,1-1.65.86-2.84-.21-1.83,1.15-3.85-.81-5.49-.23-.19-.2-1,0-1.37,1.43-2.79.82-5.9,1.49-8.78a5.72,5.72,0,0,0-.25-3.64c-.41-1-.72-2.27-.21-3,1.88-2.55.21-4.66-.44-7-.86-3.07-2.31-6.12-.85-9.41.24-.54-.18-.86-.45-1.23s-.76-.88-.67-1.17c.65-2.11-.68-3.71-1.28-5.5-.47-1.4,0-1.87,1.42-1.84,8.05.17,15.61-2.13,23-4.86,2.63-1,4.43-3.5,7.25-4.27.37-.1.69-.39,1.18-.17-1.07,1.62-2.87,2.36-4.35,3.31-1.94,1.24-2.13,2.84-1.8,4.63.63,3.41.19,6.77-.15,10.15-.78,7.78-2,15.49-3.24,23.2-.42,2.61-1.42,5.1-2,7.67s-.66,5.49-1.23,8.24c-1.08,5.21-3,10.18-4.12,15.36a3.66,3.66,0,0,0-.22.91c.13,2.37-.53,4.46-2.55,5.8-1.82,1.21-1.57,2.58-.52,3.93.59.77.74,1.35.23,2.08-1.08,1.54-.31,4-2.5,5-.61.3.23,1.12,0,1.75-1,3.26-2.13,6.43-2.25,10-.12,3.33-1.86,6.58-2.1,9.92-.29,4-1.65,8-.55,12.05.14.52.43,1.2.23,1.59C410.2,543.57,411.89,544.32,413.87,545.07Z" transform="translate(-170.05 -0.42)"/><path class="cls-1" d="M385.95,515a2,2,0,0,0,.13-.29s0-.11,0-.17c-.06-2.53-.13-5.07-.19-7.6-.05-2.37.05-4.76-.83-7l-.16-.92c0-5.09.2-10.18,0-15.26-.22-5.78.74-11.41,1.62-17.06a28.34,28.34,0,0,0,0-9.14,18.62,18.62,0,0,1-.18-2.58c-.17-6.28-.07-12.58-.55-18.83-.58-7.49-1.14-15-2.44-22.41-.09-.51-.47-1.09.11-1.5.37-.26.75,0,1.05.29q4.41,3.7,8.81,7.41c1.76,1.49,2.07,3.3,1.43,5.49-1.7,5.84-1.75,11.9-2.41,17.89s0,12.06.11,18.08c0,4,1.41,7.87,2.19,11.79a19.06,19.06,0,0,1,.52,6.48A1.69,1.69,0,0,0,395,481c-1.28,4.77-.71,9.71-1.23,14.55a15.38,15.38,0,0,0,.25,6.24v3.79a3.81,3.81,0,0,0,0,3.29l1.2,3c1.91,6.5-1.06,12.4-2.37,18.48-.89,4.13-2.16,8.17-2.82,12.35-.15.94-.39,1.88-1.38,1.87s-1.06-1.08-1.17-1.8c-.66-4.41-1.29-8.83-1.85-13.26-.25-2-.35-4.06-.47-6.09-.1-1.71-.34-3.41.76-5a2.53,2.53,0,0,0,.08-2.48l-.11-.45Z" transform="translate(-170.05 -0.42)"/><path class="cls-3" d="M363.49,380.17l.31-6.43c-.78-.46-1,.23-1.39.34s-.84.22-1.09-.15a.78.78,0,0,1,.44-1.16c3.77-1.59,2.82-5,3-7.9.2-3.69,0-7.39,0-11.09,0-.69.19-1.51-.54-1.94-.94-.55-1.1.55-1.63.89-1.13.71-1.86,2-3.19,2.39-1.49.48-2.44-.24-2.08-1.74.48-2,.38-4.41,3.39-5,1-.19,1.79-1.71,1.68-3.1a18.36,18.36,0,0,1,.73-5.57,3,3,0,0,0-.42-2.88c-.32-.39-.7-1.14-.54-1.47,1.46-3-1.11-2.36-2.21-2.18a33.79,33.79,0,0,1-4.14.14c-.79,0-1.22-.13-1.37-.86s.14-1.17.95-1.31c.43-.08,1.05-.29,1.2-.62,1.09-2.47,3.54-3.83,4.87-6.12.84-1.44-.19-3,.75-4.44.32-.49-.69-.4-1.07,0-1.35,1.56-3.24,2.78-4.75,1.08s.37-3.41,1.42-4.91a5.12,5.12,0,0,1,1.39-1.58c2.46-1.42,1.73-3,.21-4.46a1.92,1.92,0,0,1-.76-1.83,16.84,16.84,0,0,0-1-9,28.25,28.25,0,0,0-2.45-5.74,4.43,4.43,0,0,1-.41-4.69,6.61,6.61,0,0,0,.49-1.29c.23-.74-.5-2,.77-2.14s1.72.85,1.74,1.94c1.2,0,.55-2.1,1.81-1.39a2.11,2.11,0,0,1,1,2.61c-.55,1.9.56,3.67.85,5.52.4,2.53,1.11,5,.49,7.63-.58,2.5.71,4.91.93,7.41.55,6.14.94,12.38,3.27,18.18,1.33,3.31,1.4,6.83,2.36,10.18A55.61,55.61,0,0,0,372.64,348c2,3.87,2.81,8.1,3.4,12.34.72,5.26.42,10.67,2.33,15.75.91,2.44-.06,5.17,1.37,7.53.44.73-.52,1.48-.9,1.74-1.88,1.27-3.6,3-5.95,3.35-1.44.24-2.46-.17-2.14-2.06.27-1.62.89-3.51-1.93-3.72-.79-.06-.94-1.05-.39-1.71,1.86-2.21.55-4.83.92-7.23.14-.89-.62-.79-1.27-.27C366.12,375.33,365.29,377.72,363.49,380.17Zm-.75-53.49-.17.4c.13.06.29.19.39.15s.12-.24.18-.38Z" transform="translate(-170.05 -0.42)"/><path class="cls-3" d="M434,280a38.39,38.39,0,0,1-3.77,4.75c-2.36,2.61-2.48,5.83-3.87,8.63a6.58,6.58,0,0,0-.37,4.23c.7,3.31-1,6.28-.71,9.45a1.41,1.41,0,0,1-1.17,1.54,2.7,2.7,0,0,0-1.75,2.94c.12.91,1.6.94,2.66.47a1.07,1.07,0,0,1,1.44.44c.25.4,0,.72-.21,1.06-1.48,2.25-7.22,2.38-8.52.17-.41-.69-.88-1.61-.08-2.11,1.24-.77,1.31-2,1.84-3.13a6.88,6.88,0,0,0,.38-4.31A11.73,11.73,0,0,1,421,297c.85-1.56,1.53-3.54,1.09-4.9-.65-2,.76-1.61,1.5-1.9s1.63,0,1.65-1.19c0-.9-.27-1.52-1.21-1.75-1.11-.26-1-1.17-1.16-2-.28-1.45,1.44-2,1.27-3.64-.1-.9,2.08-1.65,2.94-2.52,2.63-2.67,6.07-1.52,9-2.52a4.19,4.19,0,0,1,4.68,2.09c.51,1.42.8,2.48-1.32,3.18s-3.32,3-3.57,4.92c-.37,2.86-.87,5.88,0,8.82a3.17,3.17,0,0,1,.27.9c-.06,1.33-.64,2.77-1.88,2.89-1.71.17-1.66-1.55-1.37-2.6.68-2.48-.38-5.18,1.07-7.53a.65.65,0,0,0,.13-.44,11.06,11.06,0,0,1,.15-7C434.3,281.38,434.08,280.9,434,280Z" transform="translate(-170.05 -0.42)"/><path class="cls-3" d="M418.19,285.77c-.68,3.74-1.43,7.33-2,10.95s-.86,7.43-1.38,11.14c-.26,1.88-.54,3.88-3,4.3a2.15,2.15,0,0,1-2.49-2.49,19.5,19.5,0,0,0,.28-3.26c0-.46,0-1.17.3-1.31,3.69-2,3.25-5.42,3-8.78-.1-1.46.73-2.73,1.36-3.89a5.68,5.68,0,0,0,.77-4.47,4.93,4.93,0,0,1,.31-2.52,1.64,1.64,0,0,1,1.89-1.4C418.52,284.18,418,285.23,418.19,285.77Z" transform="translate(-170.05 -0.42)"/><path class="cls-3" d="M445,338.49a7,7,0,0,1-3.58,2.37c-2.5.79-5.11,1.35-7.2,3.07s-4.81.59-7.2.73c-2.6.15-5.12,0-7.7.93-3.33,1.2-9-1.1-10.78-3.87a1.35,1.35,0,0,1-.05-1.09c.18-.42.6-.34,1-.13,1,.54,2.12.95,3.08,1.57,3.59,2.35,7.42,1.18,11.21.93a75.26,75.26,0,0,0,17-3.3C442,339.3,443.14,338,445,338.49Z" transform="translate(-170.05 -0.42)"/><path class="cls-3" d="M395,481a1.69,1.69,0,0,1,.06-1.36c1.68-1.18,2.32-.43,2.22,1.3a4,4,0,0,0,1.52,3.71c.69.53,1,1.16.28,2-.59.62-.26,2.24-2,1.66-1-.35-.89.06-.84,1.06.08,1.66-.66,3.35.07,5a.63.63,0,0,1,0,.46c-.73,1.53,2.48.86,1.4,2.42a12.76,12.76,0,0,0-1.47,3.1c-1.15,3.21,0,6.44-.37,9.63-.09.7,0,1.42-.65,1.91l-1.2-3a2.7,2.7,0,0,0,0-3.29v-3.79c.14-.18.39-.36.4-.54.1-6.36.48-12.7,1.06-19A1.11,1.11,0,0,0,395,481Z" transform="translate(-170.05 -0.42)"/><path class="cls-3" d="M304.14,284c2.41,1.33,1.91-1.46,3.35-2.2.84,7.55.74,15.1,3.26,22.34C308.46,303.31,306.87,298.35,304.14,284Z" transform="translate(-170.05 -0.42)"/><path class="cls-1" d="M381,405.76c-1.62-5-.15-10,0-15.07,1.53,2.69,1.78,5.69,2.14,8.63a15.81,15.81,0,0,1-.35,5.81c-.13.51.23,1.23-.34,1.51C381.6,407,381.61,405.77,381,405.76Z" transform="translate(-170.05 -0.42)"/><path class="cls-1" d="M314.05,303.06l-.13,2.59c-.93.11-.94-.77-1.32-1.24s-1.39-1.18-.73-1.85S313.43,302.38,314.05,303.06Z" transform="translate(-170.05 -0.42)"/><path class="cls-3" d="M389.24,266.4a1.25,1.25,0,0,1-1.64.95c-.74-.17-1.84-.35-1.77-1.23s1.15-.47,1.78-.5S389.1,265.32,389.24,266.4Z" transform="translate(-170.05 -0.42)"/><path class="cls-1" d="M313.54,311c-.18.8,1.2,2-.62,2.38C313.1,312.54,311.8,311.35,313.54,311Z" transform="translate(-170.05 -0.42)"/><path class="cls-2" d="M395.65,41.87a2.79,2.79,0,0,1-1.41-3.19,4.24,4.24,0,0,0,.06-3.35c-.51-1.13.38-1.84,1-2.4.84-.73,1.83,0,2.64.34,1.2.52.31,1.25,0,1.91a1.53,1.53,0,0,0,.13,1.55,3.65,3.65,0,0,1-1.82,4.9Z" transform="translate(-170.05 -0.42)"/><path class="cls-2" d="M317,315.16l-.2-.22.22.2Z" transform="translate(-170.05 -0.42)"/><path class="cls-2" d="M385,499.9c.88,2.28.78,4.67.83,7,.06,2.53.13,5.07.19,7.6-1.89-1.74-.76-4.06-1-6.06-.26-2.5.13-5.06-.48-7.57A.91.91,0,0,1,385,499.9Z" transform="translate(-170.05 -0.42)"/><path class="cls-2" d="M385.95,515l0,.5-.33-.32Z" transform="translate(-170.05 -0.42)"/><path class="cls-2" d="M395,481a1.11,1.11,0,0,1,.47,1.22c-.57,6.33-1,12.67-1.06,19,0,.18-.26.36-.4.54a15.38,15.38,0,0,1-.25-6.24C394.34,490.7,393.77,485.76,395,481Z" transform="translate(-170.05 -0.42)"/><path class="cls-2" d="M394.07,505.57a2.7,2.7,0,0,1,0,3.29A3.81,3.81,0,0,1,394.07,505.57Z" transform="translate(-170.05 -0.42)"/><path class="cls-2" d="M362.74,326.69l.4.17c-.06.13-.08.34-.18.38s-.26-.09-.39-.15Z" transform="translate(-170.05 -0.42)"/></g><path class="cls-2" d="M336.16,546.8s-26.35,2.2-38.39,10.62l6.82,4,34.14-9.49Z" transform="translate(-170.05 -0.42)"/><path class="cls-2" d="M405.47,600.75c.59,1.42-.48,3-1.58,4a15.23,15.23,0,0,1-5.51,3.63c-2.91,1-6.08.75-9.14.48-4.87-.43-9.9-.91-14.2-3.23a5.83,5.83,0,0,1-2.31-1.94,2.53,2.53,0,0,1,0-2.86,2.89,2.89,0,0,1,3.34-.44c1.1.48,2,1.32,3.08,1.88,2.34,1.23,5.14,1,7.76,1.32,2.34.3,4.6,1.09,6.95,1.24s5-.52,6.28-2.47" transform="translate(-170.05 -0.42)"/><path class="cls-2" d="M403,600.75c.28,4-6.37,5.66-9.1,5.86a42.16,42.16,0,0,1-7.89-.54,32.46,32.46,0,0,1-8.49-2.05c-3.27-1.32-.2.15,1,.7,4,1.76,9.05,1.73,13.29,2.39,3.85.6,7.42,0,10.13-2.94,2.17-2.37-1.35-5.91-3.54-3.54-3.17,3.45-10.44.76-14.65.24-3.27-.41-5.61-3.13-8.84-3.25-5.57-.21-6.29,6.13-2.68,9.18,5.2,4.38,15.17,5,21.64,4.81,5.78-.18,14.58-3.94,14.1-10.86-.22-3.19-5.22-3.22-5,0Z" transform="translate(-170.05 -0.42)"/><path class="cls-2" d="M403.51,600.81a1.52,1.52,0,0,0-1.75,1.61" transform="translate(-170.05 -0.42)"/></svg>